<svg width="310" height="310" viewBox="0 0 310 310" fill="none" xmlns="http://www.w3.org/2000/svg">
<rect x="2.5" y="2.5" width="305" height="305" rx="17.5" fill="black"/>
<rect x="2.5" y="2.5" width="305" height="305" rx="17.5" stroke="#F1D95B" stroke-width="5"/>
<path d="M132.772 102H129.249C129.041 100.987 128.676 100.097 128.155 99.3295C127.644 98.5625 127.019 97.9186 126.28 97.3977C125.551 96.8674 124.741 96.4697 123.851 96.2045C122.961 95.9394 122.033 95.8068 121.067 95.8068C119.306 95.8068 117.71 96.2519 116.28 97.142C114.86 98.0322 113.728 99.3438 112.885 101.077C112.052 102.81 111.635 104.936 111.635 107.455C111.635 109.973 112.052 112.099 112.885 113.832C113.728 115.565 114.86 116.877 116.28 117.767C117.71 118.657 119.306 119.102 121.067 119.102C122.033 119.102 122.961 118.97 123.851 118.705C124.741 118.439 125.551 118.046 126.28 117.526C127.019 116.995 127.644 116.347 128.155 115.58C128.676 114.803 129.041 113.913 129.249 112.909H132.772C132.507 114.396 132.024 115.726 131.323 116.901C130.622 118.075 129.751 119.074 128.709 119.898C127.667 120.712 126.498 121.332 125.201 121.759C123.913 122.185 122.535 122.398 121.067 122.398C118.586 122.398 116.38 121.792 114.448 120.58C112.516 119.367 110.996 117.644 109.888 115.409C108.78 113.174 108.226 110.523 108.226 107.455C108.226 104.386 108.78 101.735 109.888 99.5C110.996 97.2652 112.516 95.5417 114.448 94.3295C116.38 93.1174 118.586 92.5114 121.067 92.5114C122.535 92.5114 123.913 92.7244 125.201 93.1506C126.498 93.5767 127.667 94.2017 128.709 95.0256C129.751 95.84 130.622 96.8343 131.323 98.0085C132.024 99.1733 132.507 100.504 132.772 102ZM147.157 122.455C145.055 122.455 143.242 121.991 141.717 121.062C140.202 120.125 139.032 118.818 138.208 117.142C137.394 115.456 136.987 113.496 136.987 111.261C136.987 109.027 137.394 107.057 138.208 105.352C139.032 103.638 140.178 102.303 141.646 101.347C143.123 100.381 144.847 99.8977 146.816 99.8977C147.953 99.8977 149.075 100.087 150.183 100.466C151.291 100.845 152.299 101.46 153.208 102.312C154.118 103.155 154.842 104.273 155.382 105.665C155.922 107.057 156.191 108.771 156.191 110.807V112.227H139.373V109.33H152.782C152.782 108.098 152.536 107 152.044 106.034C151.561 105.068 150.869 104.306 149.97 103.747C149.08 103.188 148.029 102.909 146.816 102.909C145.481 102.909 144.326 103.241 143.35 103.903C142.385 104.557 141.641 105.409 141.12 106.46C140.6 107.511 140.339 108.638 140.339 109.841V111.773C140.339 113.42 140.623 114.817 141.191 115.963C141.769 117.099 142.569 117.966 143.592 118.562C144.615 119.15 145.803 119.443 147.157 119.443C148.038 119.443 148.833 119.32 149.544 119.074C150.263 118.818 150.884 118.439 151.404 117.938C151.925 117.426 152.328 116.792 152.612 116.034L155.85 116.943C155.51 118.042 154.937 119.008 154.132 119.841C153.327 120.665 152.333 121.309 151.149 121.773C149.965 122.227 148.635 122.455 147.157 122.455ZM164.643 108.875V122H161.291V100.182H164.529V103.591H164.814C165.325 102.483 166.101 101.593 167.143 100.92C168.185 100.239 169.529 99.8977 171.177 99.8977C172.654 99.8977 173.947 100.201 175.055 100.807C176.163 101.403 177.025 102.312 177.64 103.534C178.256 104.746 178.564 106.28 178.564 108.136V122H175.211V108.364C175.211 106.65 174.766 105.314 173.876 104.358C172.986 103.392 171.764 102.909 170.211 102.909C169.141 102.909 168.185 103.141 167.342 103.605C166.509 104.069 165.85 104.746 165.368 105.636C164.885 106.527 164.643 107.606 164.643 108.875ZM191.11 122.511C189.727 122.511 188.472 122.251 187.346 121.73C186.219 121.2 185.324 120.438 184.661 119.443C183.998 118.439 183.667 117.227 183.667 115.807C183.667 114.557 183.913 113.544 184.405 112.767C184.898 111.981 185.556 111.366 186.38 110.92C187.203 110.475 188.113 110.144 189.107 109.926C190.111 109.699 191.119 109.519 192.132 109.386C193.458 109.216 194.533 109.088 195.357 109.003C196.19 108.908 196.796 108.752 197.175 108.534C197.563 108.316 197.757 107.937 197.757 107.398V107.284C197.757 105.883 197.374 104.794 196.607 104.017C195.849 103.241 194.699 102.852 193.155 102.852C191.555 102.852 190.3 103.203 189.391 103.903C188.482 104.604 187.843 105.352 187.473 106.148L184.292 105.011C184.86 103.686 185.617 102.653 186.564 101.915C187.521 101.167 188.562 100.646 189.689 100.352C190.826 100.049 191.943 99.8977 193.042 99.8977C193.742 99.8977 194.547 99.983 195.456 100.153C196.375 100.314 197.26 100.651 198.113 101.162C198.974 101.673 199.689 102.445 200.257 103.477C200.826 104.509 201.11 105.892 201.11 107.625V122H197.757V119.045H197.587C197.36 119.519 196.981 120.026 196.451 120.565C195.92 121.105 195.215 121.564 194.334 121.943C193.453 122.322 192.379 122.511 191.11 122.511ZM191.621 119.5C192.947 119.5 194.064 119.24 194.973 118.719C195.892 118.198 196.583 117.526 197.047 116.702C197.521 115.878 197.757 115.011 197.757 114.102V111.034C197.615 111.205 197.303 111.361 196.82 111.503C196.346 111.635 195.797 111.754 195.172 111.858C194.557 111.953 193.955 112.038 193.368 112.114C192.791 112.18 192.322 112.237 191.962 112.284C191.091 112.398 190.276 112.582 189.519 112.838C188.771 113.084 188.165 113.458 187.701 113.96C187.246 114.453 187.019 115.125 187.019 115.977C187.019 117.142 187.45 118.023 188.311 118.619C189.183 119.206 190.286 119.5 191.621 119.5ZM127.836 205.727C127.836 202.148 128.3 198.857 129.228 195.855C130.165 192.844 131.5 190.074 133.233 187.545H136.188C135.506 188.483 134.867 189.638 134.27 191.011C133.683 192.375 133.167 193.876 132.722 195.514C132.277 197.143 131.926 198.829 131.671 200.571C131.425 202.313 131.301 204.032 131.301 205.727C131.301 207.981 131.519 210.268 131.955 212.588C132.391 214.908 132.978 217.062 133.716 219.051C134.455 221.04 135.279 222.659 136.188 223.909H133.233C131.5 221.381 130.165 218.616 129.228 215.614C128.3 212.602 127.836 209.307 127.836 205.727ZM141.135 226.182V196.182H144.373V199.648H144.771C145.017 199.269 145.358 198.786 145.794 198.199C146.239 197.602 146.873 197.072 147.697 196.608C148.53 196.134 149.657 195.898 151.078 195.898C152.915 195.898 154.534 196.357 155.936 197.276C157.337 198.194 158.431 199.496 159.217 201.182C160.003 202.867 160.396 204.856 160.396 207.148C160.396 209.458 160.003 211.461 159.217 213.156C158.431 214.842 157.342 216.149 155.95 217.077C154.558 217.995 152.953 218.455 151.135 218.455C149.733 218.455 148.611 218.223 147.768 217.759C146.925 217.285 146.277 216.75 145.822 216.153C145.368 215.547 145.017 215.045 144.771 214.648H144.487V226.182H141.135ZM144.43 207.091C144.43 208.739 144.672 210.192 145.154 211.452C145.637 212.702 146.343 213.682 147.271 214.392C148.199 215.093 149.335 215.443 150.68 215.443C152.082 215.443 153.251 215.074 154.189 214.335C155.136 213.587 155.846 212.583 156.319 211.324C156.802 210.055 157.044 208.644 157.044 207.091C157.044 205.557 156.807 204.174 156.333 202.943C155.869 201.703 155.164 200.723 154.217 200.003C153.279 199.274 152.1 198.909 150.68 198.909C149.316 198.909 148.171 199.255 147.243 199.946C146.315 200.628 145.614 201.584 145.14 202.815C144.667 204.037 144.43 205.462 144.43 207.091ZM168.862 188.909V218H165.51V188.909H168.862ZM182.161 205.727C182.161 209.307 181.692 212.602 180.755 215.614C179.827 218.616 178.496 221.381 176.763 223.909H173.809C174.49 222.972 175.125 221.816 175.712 220.443C176.309 219.08 176.829 217.583 177.275 215.955C177.72 214.316 178.065 212.626 178.311 210.884C178.567 209.132 178.695 207.413 178.695 205.727C178.695 203.473 178.477 201.187 178.042 198.866C177.606 196.546 177.019 194.392 176.28 192.403C175.542 190.415 174.718 188.795 173.809 187.545H176.763C178.496 190.074 179.827 192.844 180.755 195.855C181.692 198.857 182.161 202.148 182.161 205.727Z" fill="#F1D95B"/>
</svg>
