<svg width="310" height="310" viewBox="0 0 310 310" fill="none" xmlns="http://www.w3.org/2000/svg">
<rect x="2.5" y="2.5" width="305" height="305" rx="17.5" fill="black"/>
<rect x="2.5" y="2.5" width="305" height="305" rx="17.5" stroke="#F1D95B" stroke-width="5"/>
<path d="M132.772 102H129.249C129.041 100.987 128.676 100.097 128.155 99.3295C127.644 98.5625 127.019 97.9186 126.28 97.3977C125.551 96.8674 124.741 96.4697 123.851 96.2045C122.961 95.9394 122.033 95.8068 121.067 95.8068C119.306 95.8068 117.71 96.2519 116.28 97.142C114.86 98.0322 113.728 99.3438 112.885 101.077C112.052 102.81 111.635 104.936 111.635 107.455C111.635 109.973 112.052 112.099 112.885 113.832C113.728 115.565 114.86 116.877 116.28 117.767C117.71 118.657 119.306 119.102 121.067 119.102C122.033 119.102 122.961 118.97 123.851 118.705C124.741 118.439 125.551 118.046 126.28 117.526C127.019 116.995 127.644 116.347 128.155 115.58C128.676 114.803 129.041 113.913 129.249 112.909H132.772C132.507 114.396 132.024 115.726 131.323 116.901C130.622 118.075 129.751 119.074 128.709 119.898C127.667 120.712 126.498 121.332 125.201 121.759C123.913 122.185 122.535 122.398 121.067 122.398C118.586 122.398 116.38 121.792 114.448 120.58C112.516 119.367 110.996 117.644 109.888 115.409C108.78 113.174 108.226 110.523 108.226 107.455C108.226 104.386 108.78 101.735 109.888 99.5C110.996 97.2652 112.516 95.5417 114.448 94.3295C116.38 93.1174 118.586 92.5114 121.067 92.5114C122.535 92.5114 123.913 92.7244 125.201 93.1506C126.498 93.5767 127.667 94.2017 128.709 95.0256C129.751 95.84 130.622 96.8343 131.323 98.0085C132.024 99.1733 132.507 100.504 132.772 102ZM147.157 122.455C145.055 122.455 143.242 121.991 141.717 121.062C140.202 120.125 139.032 118.818 138.208 117.142C137.394 115.456 136.987 113.496 136.987 111.261C136.987 109.027 137.394 107.057 138.208 105.352C139.032 103.638 140.178 102.303 141.646 101.347C143.123 100.381 144.847 99.8977 146.816 99.8977C147.953 99.8977 149.075 100.087 150.183 100.466C151.291 100.845 152.299 101.46 153.208 102.312C154.118 103.155 154.842 104.273 155.382 105.665C155.922 107.057 156.191 108.771 156.191 110.807V112.227H139.373V109.33H152.782C152.782 108.098 152.536 107 152.044 106.034C151.561 105.068 150.869 104.306 149.97 103.747C149.08 103.188 148.029 102.909 146.816 102.909C145.481 102.909 144.326 103.241 143.35 103.903C142.385 104.557 141.641 105.409 141.12 106.46C140.6 107.511 140.339 108.638 140.339 109.841V111.773C140.339 113.42 140.623 114.817 141.191 115.963C141.769 117.099 142.569 117.966 143.592 118.562C144.615 119.15 145.803 119.443 147.157 119.443C148.038 119.443 148.833 119.32 149.544 119.074C150.263 118.818 150.884 118.439 151.404 117.938C151.925 117.426 152.328 116.792 152.612 116.034L155.85 116.943C155.51 118.042 154.937 119.008 154.132 119.841C153.327 120.665 152.333 121.309 151.149 121.773C149.965 122.227 148.635 122.455 147.157 122.455ZM164.643 108.875V122H161.291V100.182H164.529V103.591H164.814C165.325 102.483 166.101 101.593 167.143 100.92C168.185 100.239 169.529 99.8977 171.177 99.8977C172.654 99.8977 173.947 100.201 175.055 100.807C176.163 101.403 177.025 102.312 177.64 103.534C178.256 104.746 178.564 106.28 178.564 108.136V122H175.211V108.364C175.211 106.65 174.766 105.314 173.876 104.358C172.986 103.392 171.764 102.909 170.211 102.909C169.141 102.909 168.185 103.141 167.342 103.605C166.509 104.069 165.85 104.746 165.368 105.636C164.885 106.527 164.643 107.606 164.643 108.875ZM191.11 122.511C189.727 122.511 188.472 122.251 187.346 121.73C186.219 121.2 185.324 120.438 184.661 119.443C183.998 118.439 183.667 117.227 183.667 115.807C183.667 114.557 183.913 113.544 184.405 112.767C184.898 111.981 185.556 111.366 186.38 110.92C187.203 110.475 188.113 110.144 189.107 109.926C190.111 109.699 191.119 109.519 192.132 109.386C193.458 109.216 194.533 109.088 195.357 109.003C196.19 108.908 196.796 108.752 197.175 108.534C197.563 108.316 197.757 107.937 197.757 107.398V107.284C197.757 105.883 197.374 104.794 196.607 104.017C195.849 103.241 194.699 102.852 193.155 102.852C191.555 102.852 190.3 103.203 189.391 103.903C188.482 104.604 187.843 105.352 187.473 106.148L184.292 105.011C184.86 103.686 185.617 102.653 186.564 101.915C187.521 101.167 188.562 100.646 189.689 100.352C190.826 100.049 191.943 99.8977 193.042 99.8977C193.742 99.8977 194.547 99.983 195.456 100.153C196.375 100.314 197.26 100.651 198.113 101.162C198.974 101.673 199.689 102.445 200.257 103.477C200.826 104.509 201.11 105.892 201.11 107.625V122H197.757V119.045H197.587C197.36 119.519 196.981 120.026 196.451 120.565C195.92 121.105 195.215 121.564 194.334 121.943C193.453 122.322 192.379 122.511 191.11 122.511ZM191.621 119.5C192.947 119.5 194.064 119.24 194.973 118.719C195.892 118.198 196.583 117.526 197.047 116.702C197.521 115.878 197.757 115.011 197.757 114.102V111.034C197.615 111.205 197.303 111.361 196.82 111.503C196.346 111.635 195.797 111.754 195.172 111.858C194.557 111.953 193.955 112.038 193.368 112.114C192.791 112.18 192.322 112.237 191.962 112.284C191.091 112.398 190.276 112.582 189.519 112.838C188.771 113.084 188.165 113.458 187.701 113.96C187.246 114.453 187.019 115.125 187.019 115.977C187.019 117.142 187.45 118.023 188.311 118.619C189.183 119.206 190.286 119.5 191.621 119.5ZM123.011 205.727C123.011 202.148 123.475 198.857 124.403 195.855C125.341 192.844 126.676 190.074 128.409 187.545H131.364C130.682 188.483 130.043 189.638 129.446 191.011C128.859 192.375 128.343 193.876 127.898 195.514C127.453 197.143 127.102 198.829 126.847 200.571C126.6 202.313 126.477 204.032 126.477 205.727C126.477 207.981 126.695 210.268 127.131 212.588C127.566 214.908 128.153 217.062 128.892 219.051C129.631 221.04 130.455 222.659 131.364 223.909H128.409C126.676 221.381 125.341 218.616 124.403 215.614C123.475 212.602 123.011 209.307 123.011 205.727ZM144.705 218.455C142.66 218.455 140.898 217.972 139.421 217.006C137.944 216.04 136.808 214.709 136.012 213.014C135.217 211.319 134.819 209.383 134.819 207.205C134.819 204.989 135.226 203.033 136.04 201.338C136.864 199.634 138.01 198.303 139.478 197.347C140.955 196.381 142.679 195.898 144.648 195.898C146.183 195.898 147.565 196.182 148.796 196.75C150.027 197.318 151.036 198.114 151.822 199.136C152.608 200.159 153.095 201.352 153.285 202.716H149.933C149.677 201.722 149.109 200.841 148.228 200.074C147.357 199.297 146.183 198.909 144.705 198.909C143.398 198.909 142.253 199.25 141.268 199.932C140.292 200.604 139.53 201.556 138.981 202.787C138.441 204.009 138.171 205.443 138.171 207.091C138.171 208.777 138.436 210.244 138.967 211.494C139.506 212.744 140.264 213.715 141.239 214.406C142.224 215.098 143.379 215.443 144.705 215.443C145.576 215.443 146.367 215.292 147.077 214.989C147.788 214.686 148.389 214.25 148.881 213.682C149.374 213.114 149.724 212.432 149.933 211.636H153.285C153.095 212.924 152.627 214.084 151.879 215.116C151.14 216.139 150.16 216.954 148.938 217.56C147.726 218.156 146.315 218.455 144.705 218.455ZM157.56 218V215.443L169.947 199.534V199.307H157.958V196.182H174.265V198.852L162.219 214.648V214.875H174.663V218H157.56ZM186.985 205.727C186.985 209.307 186.516 212.602 185.579 215.614C184.651 218.616 183.32 221.381 181.587 223.909H178.633C179.315 222.972 179.949 221.816 180.536 220.443C181.133 219.08 181.654 217.583 182.099 215.955C182.544 214.316 182.889 212.626 183.136 210.884C183.391 209.132 183.519 207.413 183.519 205.727C183.519 203.473 183.301 201.187 182.866 198.866C182.43 196.546 181.843 194.392 181.104 192.403C180.366 190.415 179.542 188.795 178.633 187.545H181.587C183.32 190.074 184.651 192.844 185.579 195.855C186.516 198.857 186.985 202.148 186.985 205.727Z" fill="#F1D95B"/>
</svg>
