<svg width="310" height="310" viewBox="0 0 310 310" fill="none" xmlns="http://www.w3.org/2000/svg">
<rect x="2.5" y="2.5" width="305" height="305" rx="17.5" fill="black"/>
<rect x="2.5" y="2.5" width="305" height="305" rx="17.5" stroke="#F1D95B" stroke-width="5"/>
<path d="M137.85 102H134.327C134.119 100.987 133.754 100.097 133.233 99.3295C132.722 98.5625 132.097 97.9186 131.358 97.3977C130.629 96.8674 129.819 96.4697 128.929 96.2045C128.039 95.9394 127.111 95.8068 126.145 95.8068C124.384 95.8068 122.788 96.2519 121.358 97.142C119.938 98.0322 118.806 99.3438 117.963 101.077C117.13 102.81 116.713 104.936 116.713 107.455C116.713 109.973 117.13 112.099 117.963 113.832C118.806 115.565 119.938 116.877 121.358 117.767C122.788 118.657 124.384 119.102 126.145 119.102C127.111 119.102 128.039 118.97 128.929 118.705C129.819 118.439 130.629 118.046 131.358 117.526C132.097 116.995 132.722 116.347 133.233 115.58C133.754 114.803 134.119 113.913 134.327 112.909H137.85C137.585 114.396 137.102 115.726 136.401 116.901C135.7 118.075 134.829 119.074 133.787 119.898C132.746 120.712 131.576 121.332 130.279 121.759C128.991 122.185 127.613 122.398 126.145 122.398C123.664 122.398 121.458 121.792 119.526 120.58C117.594 119.367 116.074 117.644 114.966 115.409C113.858 113.174 113.304 110.523 113.304 107.455C113.304 104.386 113.858 101.735 114.966 99.5C116.074 97.2652 117.594 95.5417 119.526 94.3295C121.458 93.1174 123.664 92.5114 126.145 92.5114C127.613 92.5114 128.991 92.7244 130.279 93.1506C131.576 93.5767 132.746 94.2017 133.787 95.0256C134.829 95.84 135.7 96.8343 136.401 98.0085C137.102 99.1733 137.585 100.504 137.85 102ZM142.463 122V119.443L154.849 103.534V103.307H142.86V100.182H159.167V102.852L147.122 118.648V118.875H159.565V122H142.463ZM171.149 122.511C169.766 122.511 168.511 122.251 167.385 121.73C166.258 121.2 165.363 120.438 164.7 119.443C164.037 118.439 163.706 117.227 163.706 115.807C163.706 114.557 163.952 113.544 164.444 112.767C164.937 111.981 165.595 111.366 166.419 110.92C167.243 110.475 168.152 110.144 169.146 109.926C170.15 109.699 171.158 109.519 172.172 109.386C173.497 109.216 174.572 109.088 175.396 109.003C176.229 108.908 176.835 108.752 177.214 108.534C177.602 108.316 177.797 107.937 177.797 107.398V107.284C177.797 105.883 177.413 104.794 176.646 104.017C175.888 103.241 174.738 102.852 173.194 102.852C171.594 102.852 170.339 103.203 169.43 103.903C168.521 104.604 167.882 105.352 167.512 106.148L164.331 105.011C164.899 103.686 165.656 102.653 166.603 101.915C167.56 101.167 168.601 100.646 169.728 100.352C170.865 100.049 171.982 99.8977 173.081 99.8977C173.781 99.8977 174.586 99.983 175.495 100.153C176.414 100.314 177.299 100.651 178.152 101.162C179.013 101.673 179.728 102.445 180.297 103.477C180.865 104.509 181.149 105.892 181.149 107.625V122H177.797V119.045H177.626C177.399 119.519 177.02 120.026 176.49 120.565C175.959 121.105 175.254 121.564 174.373 121.943C173.493 122.322 172.418 122.511 171.149 122.511ZM171.66 119.5C172.986 119.5 174.103 119.24 175.012 118.719C175.931 118.198 176.622 117.526 177.086 116.702C177.56 115.878 177.797 115.011 177.797 114.102V111.034C177.654 111.205 177.342 111.361 176.859 111.503C176.386 111.635 175.836 111.754 175.211 111.858C174.596 111.953 173.994 112.038 173.407 112.114C172.83 112.18 172.361 112.237 172.001 112.284C171.13 112.398 170.315 112.582 169.558 112.838C168.81 113.084 168.204 113.458 167.74 113.96C167.285 114.453 167.058 115.125 167.058 115.977C167.058 117.142 167.489 118.023 168.35 118.619C169.222 119.206 170.325 119.5 171.66 119.5ZM187.267 122V100.182H190.506V103.477H190.733C191.131 102.398 191.851 101.522 192.892 100.849C193.934 100.177 195.108 99.8409 196.415 99.8409C196.661 99.8409 196.969 99.8456 197.338 99.8551C197.708 99.8646 197.987 99.8788 198.176 99.8977V103.307C198.063 103.278 197.802 103.236 197.395 103.179C196.998 103.113 196.576 103.08 196.131 103.08C195.07 103.08 194.123 103.302 193.29 103.747C192.466 104.183 191.813 104.789 191.33 105.565C190.856 106.332 190.62 107.208 190.62 108.193V122H187.267ZM127.836 205.727C127.836 202.148 128.3 198.857 129.228 195.855C130.165 192.844 131.5 190.074 133.233 187.545H136.188C135.506 188.483 134.867 189.638 134.27 191.011C133.683 192.375 133.167 193.876 132.722 195.514C132.277 197.143 131.926 198.829 131.671 200.571C131.425 202.313 131.301 204.032 131.301 205.727C131.301 207.981 131.519 210.268 131.955 212.588C132.391 214.908 132.978 217.062 133.716 219.051C134.455 221.04 135.279 222.659 136.188 223.909H133.233C131.5 221.381 130.165 218.616 129.228 215.614C128.3 212.602 127.836 209.307 127.836 205.727ZM141.135 226.182V196.182H144.373V199.648H144.771C145.017 199.269 145.358 198.786 145.794 198.199C146.239 197.602 146.873 197.072 147.697 196.608C148.53 196.134 149.657 195.898 151.078 195.898C152.915 195.898 154.534 196.357 155.936 197.276C157.337 198.194 158.431 199.496 159.217 201.182C160.003 202.867 160.396 204.856 160.396 207.148C160.396 209.458 160.003 211.461 159.217 213.156C158.431 214.842 157.342 216.149 155.95 217.077C154.558 217.995 152.953 218.455 151.135 218.455C149.733 218.455 148.611 218.223 147.768 217.759C146.925 217.285 146.277 216.75 145.822 216.153C145.368 215.547 145.017 215.045 144.771 214.648H144.487V226.182H141.135ZM144.43 207.091C144.43 208.739 144.672 210.192 145.154 211.452C145.637 212.702 146.343 213.682 147.271 214.392C148.199 215.093 149.335 215.443 150.68 215.443C152.082 215.443 153.251 215.074 154.189 214.335C155.136 213.587 155.846 212.583 156.319 211.324C156.802 210.055 157.044 208.644 157.044 207.091C157.044 205.557 156.807 204.174 156.333 202.943C155.869 201.703 155.164 200.723 154.217 200.003C153.279 199.274 152.1 198.909 150.68 198.909C149.316 198.909 148.171 199.255 147.243 199.946C146.315 200.628 145.614 201.584 145.14 202.815C144.667 204.037 144.43 205.462 144.43 207.091ZM168.862 188.909V218H165.51V188.909H168.862ZM182.161 205.727C182.161 209.307 181.692 212.602 180.755 215.614C179.827 218.616 178.496 221.381 176.763 223.909H173.809C174.49 222.972 175.125 221.816 175.712 220.443C176.309 219.08 176.829 217.583 177.275 215.955C177.72 214.316 178.065 212.626 178.311 210.884C178.567 209.132 178.695 207.413 178.695 205.727C178.695 203.473 178.477 201.187 178.042 198.866C177.606 196.546 177.019 194.392 176.28 192.403C175.542 190.415 174.718 188.795 173.809 187.545H176.763C178.496 190.074 179.827 192.844 180.755 195.855C181.692 198.857 182.161 202.148 182.161 205.727Z" fill="#F1D95B"/>
</svg>
