<svg width="300" height="300" viewBox="0 0 300 300" fill="none" xmlns="http://www.w3.org/2000/svg">
<rect x="2.5" y="2.5" width="295" height="295" rx="12.5" fill="black"/>
<rect x="2.5" y="2.5" width="295" height="295" rx="12.5" stroke="#F1D95B" stroke-width="5"/>
<path d="M143.67 97H140.147C139.939 95.9867 139.574 95.0966 139.054 94.3295C138.542 93.5625 137.917 92.9186 137.179 92.3977C136.449 91.8674 135.64 91.4697 134.75 91.2045C133.859 90.9394 132.931 90.8068 131.966 90.8068C130.204 90.8068 128.609 91.2519 127.179 92.142C125.758 93.0322 124.627 94.3438 123.784 96.0767C122.95 97.8097 122.534 99.9356 122.534 102.455C122.534 104.973 122.95 107.099 123.784 108.832C124.627 110.565 125.758 111.877 127.179 112.767C128.609 113.657 130.204 114.102 131.966 114.102C132.931 114.102 133.859 113.97 134.75 113.705C135.64 113.439 136.449 113.046 137.179 112.526C137.917 111.995 138.542 111.347 139.054 110.58C139.574 109.803 139.939 108.913 140.147 107.909H143.67C143.405 109.396 142.922 110.726 142.221 111.901C141.52 113.075 140.649 114.074 139.608 114.898C138.566 115.712 137.396 116.332 136.099 116.759C134.811 117.185 133.433 117.398 131.966 117.398C129.484 117.398 127.278 116.792 125.346 115.58C123.414 114.367 121.895 112.644 120.787 110.409C119.679 108.174 119.125 105.523 119.125 102.455C119.125 99.3864 119.679 96.7348 120.787 94.5C121.895 92.2652 123.414 90.5417 125.346 89.3295C127.278 88.1174 129.484 87.5114 131.966 87.5114C133.433 87.5114 134.811 87.7244 136.099 88.1506C137.396 88.5767 138.566 89.2017 139.608 90.0256C140.649 90.84 141.52 91.8343 142.221 93.0085C142.922 94.1733 143.405 95.5038 143.67 97ZM129.011 79.1591L131.966 83.1364L134.92 79.1591H138.102V79.3864L133.5 85.2955H130.431L125.829 79.3864V79.1591H129.011ZM155.328 117.511C153.946 117.511 152.691 117.251 151.564 116.73C150.437 116.2 149.542 115.438 148.88 114.443C148.217 113.439 147.885 112.227 147.885 110.807C147.885 109.557 148.132 108.544 148.624 107.767C149.116 106.981 149.775 106.366 150.598 105.92C151.422 105.475 152.331 105.144 153.326 104.926C154.329 104.699 155.338 104.519 156.351 104.386C157.677 104.216 158.752 104.088 159.576 104.003C160.409 103.908 161.015 103.752 161.394 103.534C161.782 103.316 161.976 102.937 161.976 102.398V102.284C161.976 100.883 161.593 99.7936 160.826 99.017C160.068 98.2405 158.917 97.8523 157.374 97.8523C155.774 97.8523 154.519 98.2027 153.61 98.9034C152.701 99.6042 152.061 100.352 151.692 101.148L148.51 100.011C149.078 98.6856 149.836 97.6534 150.783 96.9148C151.739 96.1667 152.781 95.6458 153.908 95.3523C155.044 95.0492 156.162 94.8977 157.26 94.8977C157.961 94.8977 158.766 94.983 159.675 95.1534C160.594 95.3144 161.479 95.6506 162.331 96.1619C163.193 96.6733 163.908 97.4451 164.476 98.4773C165.044 99.5095 165.328 100.892 165.328 102.625V117H161.976V114.045H161.806C161.578 114.519 161.2 115.026 160.669 115.565C160.139 116.105 159.434 116.564 158.553 116.943C157.672 117.322 156.597 117.511 155.328 117.511ZM155.84 114.5C157.166 114.5 158.283 114.24 159.192 113.719C160.111 113.198 160.802 112.526 161.266 111.702C161.739 110.878 161.976 110.011 161.976 109.102V106.034C161.834 106.205 161.522 106.361 161.039 106.503C160.565 106.635 160.016 106.754 159.391 106.858C158.775 106.953 158.174 107.038 157.587 107.114C157.009 107.18 156.541 107.237 156.181 107.284C155.31 107.398 154.495 107.582 153.738 107.838C152.989 108.084 152.383 108.458 151.919 108.96C151.465 109.453 151.238 110.125 151.238 110.977C151.238 112.142 151.668 113.023 152.53 113.619C153.401 114.206 154.505 114.5 155.84 114.5ZM171.447 117V95.1818H174.686V98.4773H174.913C175.311 97.3977 176.03 96.5218 177.072 95.8494C178.114 95.1771 179.288 94.8409 180.595 94.8409C180.841 94.8409 181.149 94.8456 181.518 94.8551C181.887 94.8646 182.167 94.8788 182.356 94.8977V98.3068C182.243 98.2784 181.982 98.2358 181.575 98.179C181.177 98.1127 180.756 98.0795 180.311 98.0795C179.25 98.0795 178.303 98.3021 177.47 98.7472C176.646 99.1828 175.993 99.7888 175.51 100.565C175.036 101.332 174.799 102.208 174.799 103.193V117H171.447ZM118.011 200.727C118.011 197.148 118.475 193.857 119.403 190.855C120.341 187.844 121.676 185.074 123.409 182.545H126.364C125.682 183.483 125.043 184.638 124.446 186.011C123.859 187.375 123.343 188.876 122.898 190.514C122.453 192.143 122.102 193.829 121.847 195.571C121.6 197.313 121.477 199.032 121.477 200.727C121.477 202.981 121.695 205.268 122.131 207.588C122.566 209.908 123.153 212.062 123.892 214.051C124.631 216.04 125.455 217.659 126.364 218.909H123.409C121.676 216.381 120.341 213.616 119.403 210.614C118.475 207.602 118.011 204.307 118.011 200.727ZM139.705 213.455C137.66 213.455 135.898 212.972 134.421 212.006C132.944 211.04 131.808 209.709 131.012 208.014C130.217 206.319 129.819 204.383 129.819 202.205C129.819 199.989 130.226 198.033 131.04 196.338C131.864 194.634 133.01 193.303 134.478 192.347C135.955 191.381 137.679 190.898 139.648 190.898C141.183 190.898 142.565 191.182 143.796 191.75C145.027 192.318 146.036 193.114 146.822 194.136C147.608 195.159 148.095 196.352 148.285 197.716H144.933C144.677 196.722 144.109 195.841 143.228 195.074C142.357 194.297 141.183 193.909 139.705 193.909C138.398 193.909 137.253 194.25 136.268 194.932C135.292 195.604 134.53 196.556 133.981 197.787C133.441 199.009 133.171 200.443 133.171 202.091C133.171 203.777 133.436 205.244 133.967 206.494C134.506 207.744 135.264 208.715 136.239 209.406C137.224 210.098 138.379 210.443 139.705 210.443C140.576 210.443 141.367 210.292 142.077 209.989C142.788 209.686 143.389 209.25 143.881 208.682C144.374 208.114 144.724 207.432 144.933 206.636H148.285C148.095 207.924 147.627 209.084 146.879 210.116C146.14 211.139 145.16 211.954 143.938 212.56C142.726 213.156 141.315 213.455 139.705 213.455ZM152.56 213V210.443L164.947 194.534V194.307H152.958V191.182H169.265V193.852L157.219 209.648V209.875H169.663V213H152.56ZM181.985 200.727C181.985 204.307 181.516 207.602 180.579 210.614C179.651 213.616 178.32 216.381 176.587 218.909H173.633C174.315 217.972 174.949 216.816 175.536 215.443C176.133 214.08 176.654 212.583 177.099 210.955C177.544 209.316 177.889 207.626 178.136 205.884C178.391 204.132 178.519 202.413 178.519 200.727C178.519 198.473 178.301 196.187 177.866 193.866C177.43 191.546 176.843 189.392 176.104 187.403C175.366 185.415 174.542 183.795 173.633 182.545H176.587C178.32 185.074 179.651 187.844 180.579 190.855C181.516 193.857 181.985 197.148 181.985 200.727Z" fill="#F1D95B"/>
</svg>
