<svg width="310" height="310" viewBox="0 0 310 310" fill="none" xmlns="http://www.w3.org/2000/svg">
<rect x="2.5" y="2.5" width="305" height="305" rx="17.5" fill="black"/>
<rect x="2.5" y="2.5" width="305" height="305" rx="17.5" stroke="#F1D95B" stroke-width="5"/>
<path d="M110.625 122H101.648V92.9091H111.023C113.845 92.9091 116.259 93.4915 118.267 94.6562C120.275 95.8116 121.813 97.4735 122.884 99.642C123.954 101.801 124.489 104.386 124.489 107.398C124.489 110.428 123.949 113.037 122.869 115.224C121.79 117.402 120.218 119.079 118.153 120.253C116.089 121.418 113.58 122 110.625 122ZM105.17 118.875H110.398C112.803 118.875 114.796 118.411 116.378 117.483C117.959 116.555 119.138 115.234 119.915 113.52C120.691 111.806 121.08 109.765 121.08 107.398C121.08 105.049 120.696 103.027 119.929 101.332C119.162 99.6278 118.016 98.321 116.491 97.4119C114.967 96.4934 113.068 96.0341 110.795 96.0341H105.17V118.875ZM129.943 122V100.182H133.182V103.477H133.409C133.807 102.398 134.527 101.522 135.568 100.849C136.61 100.177 137.784 99.8409 139.091 99.8409C139.337 99.8409 139.645 99.8456 140.014 99.8551C140.384 99.8646 140.663 99.8788 140.852 99.8977V103.307C140.739 103.278 140.478 103.236 140.071 103.179C139.673 103.113 139.252 103.08 138.807 103.08C137.746 103.08 136.799 103.302 135.966 103.747C135.142 104.183 134.489 104.789 134.006 105.565C133.532 106.332 133.295 107.208 133.295 108.193V122H129.943ZM153.026 122.455C151.056 122.455 149.328 121.986 147.841 121.048C146.364 120.111 145.208 118.799 144.375 117.114C143.551 115.428 143.139 113.458 143.139 111.205C143.139 108.932 143.551 106.948 144.375 105.253C145.208 103.558 146.364 102.241 147.841 101.304C149.328 100.366 151.056 99.8977 153.026 99.8977C154.995 99.8977 156.719 100.366 158.196 101.304C159.683 102.241 160.838 103.558 161.662 105.253C162.495 106.948 162.912 108.932 162.912 111.205C162.912 113.458 162.495 115.428 161.662 117.114C160.838 118.799 159.683 120.111 158.196 121.048C156.719 121.986 154.995 122.455 153.026 122.455ZM153.026 119.443C154.522 119.443 155.753 119.06 156.719 118.293C157.685 117.526 158.4 116.517 158.864 115.267C159.328 114.017 159.56 112.663 159.56 111.205C159.56 109.746 159.328 108.387 158.864 107.128C158.4 105.868 157.685 104.85 156.719 104.074C155.753 103.297 154.522 102.909 153.026 102.909C151.529 102.909 150.298 103.297 149.332 104.074C148.366 104.85 147.652 105.868 147.188 107.128C146.723 108.387 146.491 109.746 146.491 111.205C146.491 112.663 146.723 114.017 147.188 115.267C147.652 116.517 148.366 117.526 149.332 118.293C150.298 119.06 151.529 119.443 153.026 119.443ZM176.836 130.636C175.217 130.636 173.825 130.428 172.66 130.011C171.495 129.604 170.524 129.064 169.748 128.392C168.981 127.729 168.37 127.019 167.915 126.261L170.586 124.386C170.889 124.784 171.272 125.239 171.737 125.75C172.201 126.271 172.835 126.721 173.64 127.099C174.454 127.488 175.52 127.682 176.836 127.682C178.597 127.682 180.051 127.256 181.197 126.403C182.343 125.551 182.915 124.216 182.915 122.398V117.966H182.631C182.385 118.364 182.035 118.856 181.58 119.443C181.135 120.021 180.491 120.537 179.648 120.991C178.815 121.437 177.688 121.659 176.268 121.659C174.506 121.659 172.925 121.242 171.523 120.409C170.131 119.576 169.028 118.364 168.214 116.773C167.409 115.182 167.006 113.25 167.006 110.977C167.006 108.742 167.399 106.796 168.185 105.139C168.971 103.473 170.065 102.185 171.467 101.276C172.868 100.357 174.487 99.8977 176.325 99.8977C177.745 99.8977 178.872 100.134 179.705 100.608C180.548 101.072 181.192 101.602 181.637 102.199C182.092 102.786 182.442 103.269 182.688 103.648H183.029V100.182H186.268V122.625C186.268 124.5 185.842 126.025 184.989 127.199C184.147 128.383 183.01 129.249 181.58 129.798C180.16 130.357 178.578 130.636 176.836 130.636ZM176.722 118.648C178.067 118.648 179.203 118.34 180.131 117.724C181.059 117.109 181.765 116.223 182.248 115.068C182.731 113.913 182.972 112.53 182.972 110.92C182.972 109.348 182.736 107.961 182.262 106.759C181.789 105.556 181.088 104.614 180.16 103.932C179.232 103.25 178.086 102.909 176.722 102.909C175.302 102.909 174.118 103.269 173.171 103.989C172.234 104.708 171.528 105.674 171.055 106.886C170.591 108.098 170.359 109.443 170.359 110.92C170.359 112.436 170.595 113.776 171.069 114.94C171.552 116.096 172.262 117.005 173.2 117.668C174.147 118.321 175.321 118.648 176.722 118.648ZM198.825 122.511C197.442 122.511 196.187 122.251 195.06 121.73C193.933 121.2 193.039 120.438 192.376 119.443C191.713 118.439 191.381 117.227 191.381 115.807C191.381 114.557 191.628 113.544 192.12 112.767C192.612 111.981 193.271 111.366 194.094 110.92C194.918 110.475 195.827 110.144 196.822 109.926C197.826 109.699 198.834 109.519 199.847 109.386C201.173 109.216 202.248 109.088 203.072 109.003C203.905 108.908 204.511 108.752 204.89 108.534C205.278 108.316 205.472 107.937 205.472 107.398V107.284C205.472 105.883 205.089 104.794 204.322 104.017C203.564 103.241 202.414 102.852 200.87 102.852C199.27 102.852 198.015 103.203 197.106 103.903C196.197 104.604 195.558 105.352 195.188 106.148L192.006 105.011C192.575 103.686 193.332 102.653 194.279 101.915C195.236 101.167 196.277 100.646 197.404 100.352C198.54 100.049 199.658 99.8977 200.756 99.8977C201.457 99.8977 202.262 99.983 203.171 100.153C204.09 100.314 204.975 100.651 205.827 101.162C206.689 101.673 207.404 102.445 207.972 103.477C208.54 104.509 208.825 105.892 208.825 107.625V122H205.472V119.045H205.302C205.075 119.519 204.696 120.026 204.165 120.565C203.635 121.105 202.93 121.564 202.049 121.943C201.168 122.322 200.094 122.511 198.825 122.511ZM199.336 119.5C200.662 119.5 201.779 119.24 202.688 118.719C203.607 118.198 204.298 117.526 204.762 116.702C205.236 115.878 205.472 115.011 205.472 114.102V111.034C205.33 111.205 205.018 111.361 204.535 111.503C204.061 111.635 203.512 111.754 202.887 111.858C202.272 111.953 201.67 112.038 201.083 112.114C200.505 112.18 200.037 112.237 199.677 112.284C198.806 112.398 197.991 112.582 197.234 112.838C196.486 113.084 195.879 113.458 195.415 113.96C194.961 114.453 194.734 115.125 194.734 115.977C194.734 117.142 195.165 118.023 196.026 118.619C196.897 119.206 198.001 119.5 199.336 119.5ZM127.836 205.727C127.836 202.148 128.3 198.857 129.228 195.855C130.165 192.844 131.5 190.074 133.233 187.545H136.188C135.506 188.483 134.867 189.638 134.27 191.011C133.683 192.375 133.167 193.876 132.722 195.514C132.277 197.143 131.926 198.829 131.671 200.571C131.425 202.313 131.301 204.032 131.301 205.727C131.301 207.981 131.519 210.268 131.955 212.588C132.391 214.908 132.978 217.062 133.716 219.051C134.455 221.04 135.279 222.659 136.188 223.909H133.233C131.5 221.381 130.165 218.616 129.228 215.614C128.3 212.602 127.836 209.307 127.836 205.727ZM141.135 226.182V196.182H144.373V199.648H144.771C145.017 199.269 145.358 198.786 145.794 198.199C146.239 197.602 146.873 197.072 147.697 196.608C148.53 196.134 149.657 195.898 151.078 195.898C152.915 195.898 154.534 196.357 155.936 197.276C157.337 198.194 158.431 199.496 159.217 201.182C160.003 202.867 160.396 204.856 160.396 207.148C160.396 209.458 160.003 211.461 159.217 213.156C158.431 214.842 157.342 216.149 155.95 217.077C154.558 217.995 152.953 218.455 151.135 218.455C149.733 218.455 148.611 218.223 147.768 217.759C146.925 217.285 146.277 216.75 145.822 216.153C145.368 215.547 145.017 215.045 144.771 214.648H144.487V226.182H141.135ZM144.43 207.091C144.43 208.739 144.672 210.192 145.154 211.452C145.637 212.702 146.343 213.682 147.271 214.392C148.199 215.093 149.335 215.443 150.68 215.443C152.082 215.443 153.251 215.074 154.189 214.335C155.136 213.587 155.846 212.583 156.319 211.324C156.802 210.055 157.044 208.644 157.044 207.091C157.044 205.557 156.807 204.174 156.333 202.943C155.869 201.703 155.164 200.723 154.217 200.003C153.279 199.274 152.1 198.909 150.68 198.909C149.316 198.909 148.171 199.255 147.243 199.946C146.315 200.628 145.614 201.584 145.14 202.815C144.667 204.037 144.43 205.462 144.43 207.091ZM168.862 188.909V218H165.51V188.909H168.862ZM182.161 205.727C182.161 209.307 181.692 212.602 180.755 215.614C179.827 218.616 178.496 221.381 176.763 223.909H173.809C174.49 222.972 175.125 221.816 175.712 220.443C176.309 219.08 176.829 217.583 177.275 215.955C177.72 214.316 178.065 212.626 178.311 210.884C178.567 209.132 178.695 207.413 178.695 205.727C178.695 203.473 178.477 201.187 178.042 198.866C177.606 196.546 177.019 194.392 176.28 192.403C175.542 190.415 174.718 188.795 173.809 187.545H176.763C178.496 190.074 179.827 192.844 180.755 195.855C181.692 198.857 182.161 202.148 182.161 205.727Z" fill="#F1D95B"/>
</svg>
