<svg width="310" height="310" viewBox="0 0 310 310" fill="none" xmlns="http://www.w3.org/2000/svg">
<rect x="2.5" y="2.5" width="305" height="305" rx="17.5" fill="black"/>
<rect x="2.5" y="2.5" width="305" height="305" rx="17.5" stroke="#F1D95B" stroke-width="5"/>
<path d="M110.625 122H101.648V92.9091H111.023C113.845 92.9091 116.259 93.4915 118.267 94.6562C120.275 95.8116 121.813 97.4735 122.884 99.642C123.954 101.801 124.489 104.386 124.489 107.398C124.489 110.428 123.949 113.037 122.869 115.224C121.79 117.402 120.218 119.079 118.153 120.253C116.089 121.418 113.58 122 110.625 122ZM105.17 118.875H110.398C112.803 118.875 114.796 118.411 116.378 117.483C117.959 116.555 119.138 115.234 119.915 113.52C120.691 111.806 121.08 109.765 121.08 107.398C121.08 105.049 120.696 103.027 119.929 101.332C119.162 99.6278 118.016 98.321 116.491 97.4119C114.967 96.4934 113.068 96.0341 110.795 96.0341H105.17V118.875ZM129.943 122V100.182H133.182V103.477H133.409C133.807 102.398 134.527 101.522 135.568 100.849C136.61 100.177 137.784 99.8409 139.091 99.8409C139.337 99.8409 139.645 99.8456 140.014 99.8551C140.384 99.8646 140.663 99.8788 140.852 99.8977V103.307C140.739 103.278 140.478 103.236 140.071 103.179C139.673 103.113 139.252 103.08 138.807 103.08C137.746 103.08 136.799 103.302 135.966 103.747C135.142 104.183 134.489 104.789 134.006 105.565C133.532 106.332 133.295 107.208 133.295 108.193V122H129.943ZM153.026 122.455C151.056 122.455 149.328 121.986 147.841 121.048C146.364 120.111 145.208 118.799 144.375 117.114C143.551 115.428 143.139 113.458 143.139 111.205C143.139 108.932 143.551 106.948 144.375 105.253C145.208 103.558 146.364 102.241 147.841 101.304C149.328 100.366 151.056 99.8977 153.026 99.8977C154.995 99.8977 156.719 100.366 158.196 101.304C159.683 102.241 160.838 103.558 161.662 105.253C162.495 106.948 162.912 108.932 162.912 111.205C162.912 113.458 162.495 115.428 161.662 117.114C160.838 118.799 159.683 120.111 158.196 121.048C156.719 121.986 154.995 122.455 153.026 122.455ZM153.026 119.443C154.522 119.443 155.753 119.06 156.719 118.293C157.685 117.526 158.4 116.517 158.864 115.267C159.328 114.017 159.56 112.663 159.56 111.205C159.56 109.746 159.328 108.387 158.864 107.128C158.4 105.868 157.685 104.85 156.719 104.074C155.753 103.297 154.522 102.909 153.026 102.909C151.529 102.909 150.298 103.297 149.332 104.074C148.366 104.85 147.652 105.868 147.188 107.128C146.723 108.387 146.491 109.746 146.491 111.205C146.491 112.663 146.723 114.017 147.188 115.267C147.652 116.517 148.366 117.526 149.332 118.293C150.298 119.06 151.529 119.443 153.026 119.443ZM176.836 130.636C175.217 130.636 173.825 130.428 172.66 130.011C171.495 129.604 170.524 129.064 169.748 128.392C168.981 127.729 168.37 127.019 167.915 126.261L170.586 124.386C170.889 124.784 171.272 125.239 171.737 125.75C172.201 126.271 172.835 126.721 173.64 127.099C174.454 127.488 175.52 127.682 176.836 127.682C178.597 127.682 180.051 127.256 181.197 126.403C182.343 125.551 182.915 124.216 182.915 122.398V117.966H182.631C182.385 118.364 182.035 118.856 181.58 119.443C181.135 120.021 180.491 120.537 179.648 120.991C178.815 121.437 177.688 121.659 176.268 121.659C174.506 121.659 172.925 121.242 171.523 120.409C170.131 119.576 169.028 118.364 168.214 116.773C167.409 115.182 167.006 113.25 167.006 110.977C167.006 108.742 167.399 106.796 168.185 105.139C168.971 103.473 170.065 102.185 171.467 101.276C172.868 100.357 174.487 99.8977 176.325 99.8977C177.745 99.8977 178.872 100.134 179.705 100.608C180.548 101.072 181.192 101.602 181.637 102.199C182.092 102.786 182.442 103.269 182.688 103.648H183.029V100.182H186.268V122.625C186.268 124.5 185.842 126.025 184.989 127.199C184.147 128.383 183.01 129.249 181.58 129.798C180.16 130.357 178.578 130.636 176.836 130.636ZM176.722 118.648C178.067 118.648 179.203 118.34 180.131 117.724C181.059 117.109 181.765 116.223 182.248 115.068C182.731 113.913 182.972 112.53 182.972 110.92C182.972 109.348 182.736 107.961 182.262 106.759C181.789 105.556 181.088 104.614 180.16 103.932C179.232 103.25 178.086 102.909 176.722 102.909C175.302 102.909 174.118 103.269 173.171 103.989C172.234 104.708 171.528 105.674 171.055 106.886C170.591 108.098 170.359 109.443 170.359 110.92C170.359 112.436 170.595 113.776 171.069 114.94C171.552 116.096 172.262 117.005 173.2 117.668C174.147 118.321 175.321 118.648 176.722 118.648ZM198.825 122.511C197.442 122.511 196.187 122.251 195.06 121.73C193.933 121.2 193.039 120.438 192.376 119.443C191.713 118.439 191.381 117.227 191.381 115.807C191.381 114.557 191.628 113.544 192.12 112.767C192.612 111.981 193.271 111.366 194.094 110.92C194.918 110.475 195.827 110.144 196.822 109.926C197.826 109.699 198.834 109.519 199.847 109.386C201.173 109.216 202.248 109.088 203.072 109.003C203.905 108.908 204.511 108.752 204.89 108.534C205.278 108.316 205.472 107.937 205.472 107.398V107.284C205.472 105.883 205.089 104.794 204.322 104.017C203.564 103.241 202.414 102.852 200.87 102.852C199.27 102.852 198.015 103.203 197.106 103.903C196.197 104.604 195.558 105.352 195.188 106.148L192.006 105.011C192.575 103.686 193.332 102.653 194.279 101.915C195.236 101.167 196.277 100.646 197.404 100.352C198.54 100.049 199.658 99.8977 200.756 99.8977C201.457 99.8977 202.262 99.983 203.171 100.153C204.09 100.314 204.975 100.651 205.827 101.162C206.689 101.673 207.404 102.445 207.972 103.477C208.54 104.509 208.825 105.892 208.825 107.625V122H205.472V119.045H205.302C205.075 119.519 204.696 120.026 204.165 120.565C203.635 121.105 202.93 121.564 202.049 121.943C201.168 122.322 200.094 122.511 198.825 122.511ZM199.336 119.5C200.662 119.5 201.779 119.24 202.688 118.719C203.607 118.198 204.298 117.526 204.762 116.702C205.236 115.878 205.472 115.011 205.472 114.102V111.034C205.33 111.205 205.018 111.361 204.535 111.503C204.061 111.635 203.512 111.754 202.887 111.858C202.272 111.953 201.67 112.038 201.083 112.114C200.505 112.18 200.037 112.237 199.677 112.284C198.806 112.398 197.991 112.582 197.234 112.838C196.486 113.084 195.879 113.458 195.415 113.96C194.961 114.453 194.734 115.125 194.734 115.977C194.734 117.142 195.165 118.023 196.026 118.619C196.897 119.206 198.001 119.5 199.336 119.5ZM123.011 205.727C123.011 202.148 123.475 198.857 124.403 195.855C125.341 192.844 126.676 190.074 128.409 187.545H131.364C130.682 188.483 130.043 189.638 129.446 191.011C128.859 192.375 128.343 193.876 127.898 195.514C127.453 197.143 127.102 198.829 126.847 200.571C126.6 202.313 126.477 204.032 126.477 205.727C126.477 207.981 126.695 210.268 127.131 212.588C127.566 214.908 128.153 217.062 128.892 219.051C129.631 221.04 130.455 222.659 131.364 223.909H128.409C126.676 221.381 125.341 218.616 124.403 215.614C123.475 212.602 123.011 209.307 123.011 205.727ZM144.705 218.455C142.66 218.455 140.898 217.972 139.421 217.006C137.944 216.04 136.808 214.709 136.012 213.014C135.217 211.319 134.819 209.383 134.819 207.205C134.819 204.989 135.226 203.033 136.04 201.338C136.864 199.634 138.01 198.303 139.478 197.347C140.955 196.381 142.679 195.898 144.648 195.898C146.183 195.898 147.565 196.182 148.796 196.75C150.027 197.318 151.036 198.114 151.822 199.136C152.608 200.159 153.095 201.352 153.285 202.716H149.933C149.677 201.722 149.109 200.841 148.228 200.074C147.357 199.297 146.183 198.909 144.705 198.909C143.398 198.909 142.253 199.25 141.268 199.932C140.292 200.604 139.53 201.556 138.981 202.787C138.441 204.009 138.171 205.443 138.171 207.091C138.171 208.777 138.436 210.244 138.967 211.494C139.506 212.744 140.264 213.715 141.239 214.406C142.224 215.098 143.379 215.443 144.705 215.443C145.576 215.443 146.367 215.292 147.077 214.989C147.788 214.686 148.389 214.25 148.881 213.682C149.374 213.114 149.724 212.432 149.933 211.636H153.285C153.095 212.924 152.627 214.084 151.879 215.116C151.14 216.139 150.16 216.954 148.938 217.56C147.726 218.156 146.315 218.455 144.705 218.455ZM157.56 218V215.443L169.947 199.534V199.307H157.958V196.182H174.265V198.852L162.219 214.648V214.875H174.663V218H157.56ZM186.985 205.727C186.985 209.307 186.516 212.602 185.579 215.614C184.651 218.616 183.32 221.381 181.587 223.909H178.633C179.315 222.972 179.949 221.816 180.536 220.443C181.133 219.08 181.654 217.583 182.099 215.955C182.544 214.316 182.889 212.626 183.136 210.884C183.391 209.132 183.519 207.413 183.519 205.727C183.519 203.473 183.301 201.187 182.866 198.866C182.43 196.546 181.843 194.392 181.104 192.403C180.366 190.415 179.542 188.795 178.633 187.545H181.587C183.32 190.074 184.651 192.844 185.579 195.855C186.516 198.857 186.985 202.148 186.985 205.727Z" fill="#F1D95B"/>
</svg>
