<svg width="300" height="300" viewBox="0 0 300 300" fill="none" xmlns="http://www.w3.org/2000/svg">
<rect x="2.5" y="2.5" width="295" height="295" rx="12.5" fill="black"/>
<rect x="2.5" y="2.5" width="295" height="295" rx="12.5" stroke="#F1D95B" stroke-width="5"/>
<path d="M105.625 117H96.6477V87.9091H106.023C108.845 87.9091 111.259 88.4915 113.267 89.6562C115.275 90.8116 116.813 92.4735 117.884 94.642C118.954 96.8011 119.489 99.3864 119.489 102.398C119.489 105.428 118.949 108.037 117.869 110.224C116.79 112.402 115.218 114.079 113.153 115.253C111.089 116.418 108.58 117 105.625 117ZM100.17 113.875H105.398C107.803 113.875 109.796 113.411 111.378 112.483C112.959 111.555 114.138 110.234 114.915 108.52C115.691 106.806 116.08 104.765 116.08 102.398C116.08 100.049 115.696 98.0275 114.929 96.3324C114.162 94.6278 113.016 93.321 111.491 92.4119C109.967 91.4934 108.068 91.0341 105.795 91.0341H100.17V113.875ZM124.943 117V95.1818H128.182V98.4773H128.409C128.807 97.3977 129.527 96.5218 130.568 95.8494C131.61 95.1771 132.784 94.8409 134.091 94.8409C134.337 94.8409 134.645 94.8456 135.014 94.8551C135.384 94.8646 135.663 94.8788 135.852 94.8977V98.3068C135.739 98.2784 135.478 98.2358 135.071 98.179C134.673 98.1127 134.252 98.0795 133.807 98.0795C132.746 98.0795 131.799 98.3021 130.966 98.7472C130.142 99.1828 129.489 99.7888 129.006 100.565C128.532 101.332 128.295 102.208 128.295 103.193V117H124.943ZM148.026 117.455C146.056 117.455 144.328 116.986 142.841 116.048C141.364 115.111 140.208 113.799 139.375 112.114C138.551 110.428 138.139 108.458 138.139 106.205C138.139 103.932 138.551 101.948 139.375 100.253C140.208 98.5578 141.364 97.2415 142.841 96.304C144.328 95.3665 146.056 94.8977 148.026 94.8977C149.995 94.8977 151.719 95.3665 153.196 96.304C154.683 97.2415 155.838 98.5578 156.662 100.253C157.495 101.948 157.912 103.932 157.912 106.205C157.912 108.458 157.495 110.428 156.662 112.114C155.838 113.799 154.683 115.111 153.196 116.048C151.719 116.986 149.995 117.455 148.026 117.455ZM148.026 114.443C149.522 114.443 150.753 114.06 151.719 113.293C152.685 112.526 153.4 111.517 153.864 110.267C154.328 109.017 154.56 107.663 154.56 106.205C154.56 104.746 154.328 103.387 153.864 102.128C153.4 100.868 152.685 99.8504 151.719 99.0739C150.753 98.2973 149.522 97.9091 148.026 97.9091C146.529 97.9091 145.298 98.2973 144.332 99.0739C143.366 99.8504 142.652 100.868 142.188 102.128C141.723 103.387 141.491 104.746 141.491 106.205C141.491 107.663 141.723 109.017 142.188 110.267C142.652 111.517 143.366 112.526 144.332 113.293C145.298 114.06 146.529 114.443 148.026 114.443ZM171.836 125.636C170.217 125.636 168.825 125.428 167.66 125.011C166.495 124.604 165.524 124.064 164.748 123.392C163.981 122.729 163.37 122.019 162.915 121.261L165.586 119.386C165.889 119.784 166.272 120.239 166.737 120.75C167.201 121.271 167.835 121.721 168.64 122.099C169.454 122.488 170.52 122.682 171.836 122.682C173.597 122.682 175.051 122.256 176.197 121.403C177.343 120.551 177.915 119.216 177.915 117.398V112.966H177.631C177.385 113.364 177.035 113.856 176.58 114.443C176.135 115.021 175.491 115.537 174.648 115.991C173.815 116.437 172.688 116.659 171.268 116.659C169.506 116.659 167.925 116.242 166.523 115.409C165.131 114.576 164.028 113.364 163.214 111.773C162.409 110.182 162.006 108.25 162.006 105.977C162.006 103.742 162.399 101.796 163.185 100.139C163.971 98.4725 165.065 97.1847 166.467 96.2756C167.868 95.357 169.487 94.8977 171.325 94.8977C172.745 94.8977 173.872 95.1345 174.705 95.608C175.548 96.072 176.192 96.6023 176.637 97.1989C177.092 97.786 177.442 98.2689 177.688 98.6477H178.029V95.1818H181.268V117.625C181.268 119.5 180.842 121.025 179.989 122.199C179.147 123.383 178.01 124.249 176.58 124.798C175.16 125.357 173.578 125.636 171.836 125.636ZM171.722 113.648C173.067 113.648 174.203 113.34 175.131 112.724C176.059 112.109 176.765 111.223 177.248 110.068C177.731 108.913 177.972 107.53 177.972 105.92C177.972 104.348 177.736 102.961 177.262 101.759C176.789 100.556 176.088 99.6136 175.16 98.9318C174.232 98.25 173.086 97.9091 171.722 97.9091C170.302 97.9091 169.118 98.2689 168.171 98.9886C167.234 99.7083 166.528 100.674 166.055 101.886C165.591 103.098 165.359 104.443 165.359 105.92C165.359 107.436 165.595 108.776 166.069 109.94C166.552 111.096 167.262 112.005 168.2 112.668C169.147 113.321 170.321 113.648 171.722 113.648ZM193.825 117.511C192.442 117.511 191.187 117.251 190.06 116.73C188.933 116.2 188.039 115.438 187.376 114.443C186.713 113.439 186.381 112.227 186.381 110.807C186.381 109.557 186.628 108.544 187.12 107.767C187.612 106.981 188.271 106.366 189.094 105.92C189.918 105.475 190.827 105.144 191.822 104.926C192.826 104.699 193.834 104.519 194.847 104.386C196.173 104.216 197.248 104.088 198.072 104.003C198.905 103.908 199.511 103.752 199.89 103.534C200.278 103.316 200.472 102.937 200.472 102.398V102.284C200.472 100.883 200.089 99.7936 199.322 99.017C198.564 98.2405 197.414 97.8523 195.87 97.8523C194.27 97.8523 193.015 98.2027 192.106 98.9034C191.197 99.6042 190.558 100.352 190.188 101.148L187.006 100.011C187.575 98.6856 188.332 97.6534 189.279 96.9148C190.236 96.1667 191.277 95.6458 192.404 95.3523C193.54 95.0492 194.658 94.8977 195.756 94.8977C196.457 94.8977 197.262 94.983 198.171 95.1534C199.09 95.3144 199.975 95.6506 200.827 96.1619C201.689 96.6733 202.404 97.4451 202.972 98.4773C203.54 99.5095 203.825 100.892 203.825 102.625V117H200.472V114.045H200.302C200.075 114.519 199.696 115.026 199.165 115.565C198.635 116.105 197.93 116.564 197.049 116.943C196.168 117.322 195.094 117.511 193.825 117.511ZM194.336 114.5C195.662 114.5 196.779 114.24 197.688 113.719C198.607 113.198 199.298 112.526 199.762 111.702C200.236 110.878 200.472 110.011 200.472 109.102V106.034C200.33 106.205 200.018 106.361 199.535 106.503C199.061 106.635 198.512 106.754 197.887 106.858C197.272 106.953 196.67 107.038 196.083 107.114C195.505 107.18 195.037 107.237 194.677 107.284C193.806 107.398 192.991 107.582 192.234 107.838C191.486 108.084 190.879 108.458 190.415 108.96C189.961 109.453 189.734 110.125 189.734 110.977C189.734 112.142 190.165 113.023 191.026 113.619C191.897 114.206 193.001 114.5 194.336 114.5ZM118.011 200.727C118.011 197.148 118.475 193.857 119.403 190.855C120.341 187.844 121.676 185.074 123.409 182.545H126.364C125.682 183.483 125.043 184.638 124.446 186.011C123.859 187.375 123.343 188.876 122.898 190.514C122.453 192.143 122.102 193.829 121.847 195.571C121.6 197.313 121.477 199.032 121.477 200.727C121.477 202.981 121.695 205.268 122.131 207.588C122.566 209.908 123.153 212.062 123.892 214.051C124.631 216.04 125.455 217.659 126.364 218.909H123.409C121.676 216.381 120.341 213.616 119.403 210.614C118.475 207.602 118.011 204.307 118.011 200.727ZM139.705 213.455C137.66 213.455 135.898 212.972 134.421 212.006C132.944 211.04 131.808 209.709 131.012 208.014C130.217 206.319 129.819 204.383 129.819 202.205C129.819 199.989 130.226 198.033 131.04 196.338C131.864 194.634 133.01 193.303 134.478 192.347C135.955 191.381 137.679 190.898 139.648 190.898C141.183 190.898 142.565 191.182 143.796 191.75C145.027 192.318 146.036 193.114 146.822 194.136C147.608 195.159 148.095 196.352 148.285 197.716H144.933C144.677 196.722 144.109 195.841 143.228 195.074C142.357 194.297 141.183 193.909 139.705 193.909C138.398 193.909 137.253 194.25 136.268 194.932C135.292 195.604 134.53 196.556 133.981 197.787C133.441 199.009 133.171 200.443 133.171 202.091C133.171 203.777 133.436 205.244 133.967 206.494C134.506 207.744 135.264 208.715 136.239 209.406C137.224 210.098 138.379 210.443 139.705 210.443C140.576 210.443 141.367 210.292 142.077 209.989C142.788 209.686 143.389 209.25 143.881 208.682C144.374 208.114 144.724 207.432 144.933 206.636H148.285C148.095 207.924 147.627 209.084 146.879 210.116C146.14 211.139 145.16 211.954 143.938 212.56C142.726 213.156 141.315 213.455 139.705 213.455ZM152.56 213V210.443L164.947 194.534V194.307H152.958V191.182H169.265V193.852L157.219 209.648V209.875H169.663V213H152.56ZM181.985 200.727C181.985 204.307 181.516 207.602 180.579 210.614C179.651 213.616 178.32 216.381 176.587 218.909H173.633C174.315 217.972 174.949 216.816 175.536 215.443C176.133 214.08 176.654 212.583 177.099 210.955C177.544 209.316 177.889 207.626 178.136 205.884C178.391 204.132 178.519 202.413 178.519 200.727C178.519 198.473 178.301 196.187 177.866 193.866C177.43 191.546 176.843 189.392 176.104 187.403C175.366 185.415 174.542 183.795 173.633 182.545H176.587C178.32 185.074 179.651 187.844 180.579 190.855C181.516 193.857 181.985 197.148 181.985 200.727Z" fill="#F1D95B"/>
</svg>
