<svg width="310" height="310" viewBox="0 0 310 310" fill="none" xmlns="http://www.w3.org/2000/svg">
<rect x="2.5" y="2.5" width="305" height="305" rx="17.5" fill="black"/>
<rect x="2.5" y="2.5" width="305" height="305" rx="17.5" stroke="#F1D95B" stroke-width="5"/>
<path d="M129.178 122V119.443L144.86 96.0341H129.007V92.9091H149.064V95.4659L133.382 118.875H149.235V122H129.178ZM158.042 92.9091V122H154.689V92.9091H158.042ZM166.341 130.182C165.772 130.182 165.266 130.134 164.821 130.04C164.376 129.955 164.068 129.869 163.897 129.784L164.75 126.83C165.564 127.038 166.284 127.114 166.909 127.057C167.534 127 168.088 126.721 168.571 126.219C169.063 125.726 169.513 124.926 169.92 123.818L170.545 122.114L162.477 100.182H166.113L172.136 117.568H172.363L178.386 100.182H182.022L172.761 125.182C172.344 126.309 171.828 127.241 171.213 127.98C170.597 128.728 169.882 129.282 169.068 129.642C168.263 130.002 167.354 130.182 166.341 130.182ZM170.716 97.2273L174.181 90.6364H178.102L173.67 97.2273H170.716ZM123.011 205.727C123.011 202.148 123.475 198.857 124.403 195.855C125.341 192.844 126.676 190.074 128.409 187.545H131.364C130.682 188.483 130.043 189.638 129.446 191.011C128.859 192.375 128.343 193.876 127.898 195.514C127.453 197.143 127.102 198.829 126.847 200.571C126.6 202.313 126.477 204.032 126.477 205.727C126.477 207.981 126.695 210.268 127.131 212.588C127.566 214.908 128.153 217.062 128.892 219.051C129.631 221.04 130.455 222.659 131.364 223.909H128.409C126.676 221.381 125.341 218.616 124.403 215.614C123.475 212.602 123.011 209.307 123.011 205.727ZM144.705 218.455C142.66 218.455 140.898 217.972 139.421 217.006C137.944 216.04 136.808 214.709 136.012 213.014C135.217 211.319 134.819 209.383 134.819 207.205C134.819 204.989 135.226 203.033 136.04 201.338C136.864 199.634 138.01 198.303 139.478 197.347C140.955 196.381 142.679 195.898 144.648 195.898C146.183 195.898 147.565 196.182 148.796 196.75C150.027 197.318 151.036 198.114 151.822 199.136C152.608 200.159 153.095 201.352 153.285 202.716H149.933C149.677 201.722 149.109 200.841 148.228 200.074C147.357 199.297 146.183 198.909 144.705 198.909C143.398 198.909 142.253 199.25 141.268 199.932C140.292 200.604 139.53 201.556 138.981 202.787C138.441 204.009 138.171 205.443 138.171 207.091C138.171 208.777 138.436 210.244 138.967 211.494C139.506 212.744 140.264 213.715 141.239 214.406C142.224 215.098 143.379 215.443 144.705 215.443C145.576 215.443 146.367 215.292 147.077 214.989C147.788 214.686 148.389 214.25 148.881 213.682C149.374 213.114 149.724 212.432 149.933 211.636H153.285C153.095 212.924 152.627 214.084 151.879 215.116C151.14 216.139 150.16 216.954 148.938 217.56C147.726 218.156 146.315 218.455 144.705 218.455ZM157.56 218V215.443L169.947 199.534V199.307H157.958V196.182H174.265V198.852L162.219 214.648V214.875H174.663V218H157.56ZM186.985 205.727C186.985 209.307 186.516 212.602 185.579 215.614C184.651 218.616 183.32 221.381 181.587 223.909H178.633C179.315 222.972 179.949 221.816 180.536 220.443C181.133 219.08 181.654 217.583 182.099 215.955C182.544 214.316 182.889 212.626 183.136 210.884C183.391 209.132 183.519 207.413 183.519 205.727C183.519 203.473 183.301 201.187 182.866 198.866C182.43 196.546 181.843 194.392 181.104 192.403C180.366 190.415 179.542 188.795 178.633 187.545H181.587C183.32 190.074 184.651 192.844 185.579 195.855C186.516 198.857 186.985 202.148 186.985 205.727Z" fill="#F1D95B"/>
</svg>
