<svg width="310" height="310" viewBox="0 0 310 310" fill="none" xmlns="http://www.w3.org/2000/svg">
<rect x="2.5" y="2.5" width="305" height="305" rx="17.5" fill="black"/>
<rect x="2.5" y="2.5" width="305" height="305" rx="17.5" stroke="#F1D95B" stroke-width="5"/>
<path d="M92.6935 102H89.1708C88.9625 100.987 88.5979 100.097 88.0771 99.3295C87.5657 98.5625 86.9407 97.9186 86.2021 97.3977C85.4729 96.8674 84.6632 96.4697 83.7731 96.2045C82.8829 95.9394 81.9549 95.8068 80.989 95.8068C79.2276 95.8068 77.632 96.2519 76.2021 97.142C74.7816 98.0322 73.65 99.3438 72.8072 101.077C71.9738 102.81 71.5572 104.936 71.5572 107.455C71.5572 109.973 71.9738 112.099 72.8072 113.832C73.65 115.565 74.7816 116.877 76.2021 117.767C77.632 118.657 79.2276 119.102 80.989 119.102C81.9549 119.102 82.8829 118.97 83.7731 118.705C84.6632 118.439 85.4729 118.046 86.2021 117.526C86.9407 116.995 87.5657 116.347 88.0771 115.58C88.5979 114.803 88.9625 113.913 89.1708 112.909H92.6935C92.4284 114.396 91.9454 115.726 91.2447 116.901C90.5439 118.075 89.6727 119.074 88.631 119.898C87.5894 120.712 86.4199 121.332 85.1225 121.759C83.8346 122.185 82.4568 122.398 80.989 122.398C78.5079 122.398 76.3015 121.792 74.3697 120.58C72.4379 119.367 70.918 117.644 69.81 115.409C68.7021 113.174 68.1481 110.523 68.1481 107.455C68.1481 104.386 68.7021 101.735 69.81 99.5C70.918 97.2652 72.4379 95.5417 74.3697 94.3295C76.3015 93.1174 78.5079 92.5114 80.989 92.5114C82.4568 92.5114 83.8346 92.7244 85.1225 93.1506C86.4199 93.5767 87.5894 94.2017 88.631 95.0256C89.6727 95.84 90.5439 96.8343 91.2447 98.0085C91.9454 99.1733 92.4284 100.504 92.6935 102ZM97.3065 122V119.443L109.693 103.534V103.307H97.7042V100.182H114.011V102.852L101.966 118.648V118.875H114.409V122H97.3065ZM128.095 122.455C125.993 122.455 124.179 121.991 122.654 121.062C121.139 120.125 119.97 118.818 119.146 117.142C118.332 115.456 117.924 113.496 117.924 111.261C117.924 109.027 118.332 107.057 119.146 105.352C119.97 103.638 121.116 102.303 122.583 101.347C124.061 100.381 125.784 99.8977 127.754 99.8977C128.89 99.8977 130.012 100.087 131.12 100.466C132.228 100.845 133.237 101.46 134.146 102.312C135.055 103.155 135.779 104.273 136.319 105.665C136.859 107.057 137.129 108.771 137.129 110.807V112.227H120.311V109.33H133.72C133.72 108.098 133.474 107 132.981 106.034C132.498 105.068 131.807 104.306 130.907 103.747C130.017 103.188 128.966 102.909 127.754 102.909C126.419 102.909 125.263 103.241 124.288 103.903C123.322 104.557 122.579 105.409 122.058 106.46C121.537 107.511 121.277 108.638 121.277 109.841V111.773C121.277 113.42 121.561 114.817 122.129 115.963C122.707 117.099 123.507 117.966 124.529 118.562C125.552 119.15 126.741 119.443 128.095 119.443C128.975 119.443 129.771 119.32 130.481 119.074C131.201 118.818 131.821 118.439 132.342 117.938C132.863 117.426 133.265 116.792 133.549 116.034L136.788 116.943C136.447 118.042 135.874 119.008 135.069 119.841C134.264 120.665 133.27 121.309 132.086 121.773C130.903 122.227 129.572 122.455 128.095 122.455ZM142.228 122V100.182H145.467V103.477H145.694C146.092 102.398 146.812 101.522 147.853 100.849C148.895 100.177 150.069 99.8409 151.376 99.8409C151.622 99.8409 151.93 99.8456 152.299 99.8551C152.669 99.8646 152.948 99.8788 153.137 99.8977V103.307C153.024 103.278 152.763 103.236 152.356 103.179C151.958 103.113 151.537 103.08 151.092 103.08C150.031 103.08 149.084 103.302 148.251 103.747C147.427 104.183 146.774 104.789 146.291 105.565C145.817 106.332 145.581 107.208 145.581 108.193V122H142.228ZM172.566 105.068L169.554 105.92C169.365 105.419 169.086 104.931 168.716 104.457C168.356 103.974 167.864 103.577 167.239 103.264C166.614 102.952 165.814 102.795 164.838 102.795C163.503 102.795 162.391 103.103 161.5 103.719C160.62 104.325 160.179 105.097 160.179 106.034C160.179 106.867 160.482 107.526 161.088 108.009C161.694 108.491 162.641 108.894 163.929 109.216L167.168 110.011C169.119 110.485 170.572 111.209 171.529 112.185C172.485 113.151 172.963 114.396 172.963 115.92C172.963 117.17 172.604 118.288 171.884 119.273C171.174 120.258 170.179 121.034 168.901 121.602C167.623 122.17 166.136 122.455 164.441 122.455C162.215 122.455 160.373 121.972 158.915 121.006C157.457 120.04 156.533 118.629 156.145 116.773L159.327 115.977C159.63 117.152 160.203 118.032 161.046 118.619C161.898 119.206 163.011 119.5 164.384 119.5C165.946 119.5 167.187 119.169 168.105 118.506C169.033 117.833 169.498 117.028 169.498 116.091C169.498 115.333 169.232 114.699 168.702 114.188C168.172 113.667 167.357 113.278 166.259 113.023L162.623 112.17C160.624 111.697 159.157 110.963 158.219 109.969C157.291 108.965 156.827 107.71 156.827 106.205C156.827 104.973 157.173 103.884 157.864 102.938C158.565 101.991 159.516 101.247 160.719 100.707C161.931 100.168 163.304 99.8977 164.838 99.8977C166.998 99.8977 168.693 100.371 169.924 101.318C171.164 102.265 172.045 103.515 172.566 105.068ZM187.498 100.182V103.023H176.191V100.182H187.498ZM179.487 94.9545H182.839V115.75C182.839 116.697 182.976 117.407 183.251 117.881C183.535 118.345 183.895 118.657 184.331 118.818C184.776 118.97 185.244 119.045 185.737 119.045C186.106 119.045 186.409 119.027 186.646 118.989C186.883 118.941 187.072 118.903 187.214 118.875L187.896 121.886C187.669 121.972 187.351 122.057 186.944 122.142C186.537 122.237 186.021 122.284 185.396 122.284C184.449 122.284 183.521 122.08 182.612 121.673C181.712 121.266 180.964 120.646 180.368 119.812C179.78 118.979 179.487 117.928 179.487 116.659V94.9545ZM197.484 122L190.836 100.182H194.359L199.075 116.886H199.302L203.961 100.182H207.541L212.143 116.83H212.37L217.086 100.182H220.609L213.961 122H210.666L205.893 105.239H205.552L200.779 122H197.484ZM227.2 130.182C226.632 130.182 226.125 130.134 225.68 130.04C225.235 129.955 224.927 129.869 224.757 129.784L225.609 126.83C226.423 127.038 227.143 127.114 227.768 127.057C228.393 127 228.947 126.721 229.43 126.219C229.922 125.726 230.372 124.926 230.779 123.818L231.404 122.114L223.336 100.182H226.973L232.995 117.568H233.223L239.245 100.182H242.882L233.62 125.182C233.204 126.309 232.688 127.241 232.072 127.98C231.457 128.728 230.742 129.282 229.927 129.642C229.122 130.002 228.213 130.182 227.2 130.182ZM127.836 205.727C127.836 202.148 128.3 198.857 129.228 195.855C130.165 192.844 131.5 190.074 133.233 187.545H136.188C135.506 188.483 134.867 189.638 134.27 191.011C133.683 192.375 133.167 193.876 132.722 195.514C132.277 197.143 131.926 198.829 131.671 200.571C131.425 202.313 131.301 204.032 131.301 205.727C131.301 207.981 131.519 210.268 131.955 212.588C132.391 214.908 132.978 217.062 133.716 219.051C134.455 221.04 135.279 222.659 136.188 223.909H133.233C131.5 221.381 130.165 218.616 129.228 215.614C128.3 212.602 127.836 209.307 127.836 205.727ZM141.135 226.182V196.182H144.373V199.648H144.771C145.017 199.269 145.358 198.786 145.794 198.199C146.239 197.602 146.873 197.072 147.697 196.608C148.53 196.134 149.657 195.898 151.078 195.898C152.915 195.898 154.534 196.357 155.936 197.276C157.337 198.194 158.431 199.496 159.217 201.182C160.003 202.867 160.396 204.856 160.396 207.148C160.396 209.458 160.003 211.461 159.217 213.156C158.431 214.842 157.342 216.149 155.95 217.077C154.558 217.995 152.953 218.455 151.135 218.455C149.733 218.455 148.611 218.223 147.768 217.759C146.925 217.285 146.277 216.75 145.822 216.153C145.368 215.547 145.017 215.045 144.771 214.648H144.487V226.182H141.135ZM144.43 207.091C144.43 208.739 144.672 210.192 145.154 211.452C145.637 212.702 146.343 213.682 147.271 214.392C148.199 215.093 149.335 215.443 150.68 215.443C152.082 215.443 153.251 215.074 154.189 214.335C155.136 213.587 155.846 212.583 156.319 211.324C156.802 210.055 157.044 208.644 157.044 207.091C157.044 205.557 156.807 204.174 156.333 202.943C155.869 201.703 155.164 200.723 154.217 200.003C153.279 199.274 152.1 198.909 150.68 198.909C149.316 198.909 148.171 199.255 147.243 199.946C146.315 200.628 145.614 201.584 145.14 202.815C144.667 204.037 144.43 205.462 144.43 207.091ZM168.862 188.909V218H165.51V188.909H168.862ZM182.161 205.727C182.161 209.307 181.692 212.602 180.755 215.614C179.827 218.616 178.496 221.381 176.763 223.909H173.809C174.49 222.972 175.125 221.816 175.712 220.443C176.309 219.08 176.829 217.583 177.275 215.955C177.72 214.316 178.065 212.626 178.311 210.884C178.567 209.132 178.695 207.413 178.695 205.727C178.695 203.473 178.477 201.187 178.042 198.866C177.606 196.546 177.019 194.392 176.28 192.403C175.542 190.415 174.718 188.795 173.809 187.545H176.763C178.496 190.074 179.827 192.844 180.755 195.855C181.692 198.857 182.161 202.148 182.161 205.727Z" fill="#F1D95B"/>
</svg>
