<svg width="310" height="310" viewBox="0 0 310 310" fill="none" xmlns="http://www.w3.org/2000/svg">
<rect x="2.5" y="2.5" width="305" height="305" rx="17.5" fill="black"/>
<rect x="2.5" y="2.5" width="305" height="305" rx="17.5" stroke="#F1D95B" stroke-width="5"/>
<path d="M108.319 102H104.796C104.587 100.987 104.223 100.097 103.702 99.3295C103.191 98.5625 102.566 97.9186 101.827 97.3977C101.098 96.8674 100.288 96.4697 99.3981 96.2045C98.5079 95.9394 97.5799 95.8068 96.614 95.8068C94.8526 95.8068 93.257 96.2519 91.8271 97.142C90.4066 98.0322 89.275 99.3438 88.4322 101.077C87.5988 102.81 87.1822 104.936 87.1822 107.455C87.1822 109.973 87.5988 112.099 88.4322 113.832C89.275 115.565 90.4066 116.877 91.8271 117.767C93.257 118.657 94.8526 119.102 96.614 119.102C97.5799 119.102 98.5079 118.97 99.3981 118.705C100.288 118.439 101.098 118.046 101.827 117.526C102.566 116.995 103.191 116.347 103.702 115.58C104.223 114.803 104.587 113.913 104.796 112.909H108.319C108.053 114.396 107.57 115.726 106.87 116.901C106.169 118.075 105.298 119.074 104.256 119.898C103.214 120.712 102.045 121.332 100.748 121.759C99.4596 122.185 98.0818 122.398 96.614 122.398C94.1329 122.398 91.9265 121.792 89.9947 120.58C88.0629 119.367 86.543 117.644 85.435 115.409C84.3271 113.174 83.7731 110.523 83.7731 107.455C83.7731 104.386 84.3271 101.735 85.435 99.5C86.543 97.2652 88.0629 95.5417 89.9947 94.3295C91.9265 93.1174 94.1329 92.5114 96.614 92.5114C98.0818 92.5114 99.4596 92.7244 100.748 93.1506C102.045 93.5767 103.214 94.2017 104.256 95.0256C105.298 95.84 106.169 96.8343 106.87 98.0085C107.57 99.1733 108.053 100.504 108.319 102ZM93.6594 84.1591L96.614 88.1364L99.5685 84.1591H102.75V84.3864L98.1481 90.2955H95.0799L90.4776 84.3864V84.1591H93.6594ZM122.704 122.455C120.602 122.455 118.788 121.991 117.264 121.062C115.749 120.125 114.579 118.818 113.755 117.142C112.941 115.456 112.534 113.496 112.534 111.261C112.534 109.027 112.941 107.057 113.755 105.352C114.579 103.638 115.725 102.303 117.193 101.347C118.67 100.381 120.394 99.8977 122.363 99.8977C123.5 99.8977 124.622 100.087 125.73 100.466C126.838 100.845 127.846 101.46 128.755 102.312C129.664 103.155 130.389 104.273 130.929 105.665C131.468 107.057 131.738 108.771 131.738 110.807V112.227H114.92V109.33H128.329C128.329 108.098 128.083 107 127.591 106.034C127.108 105.068 126.416 104.306 125.517 103.747C124.627 103.188 123.575 102.909 122.363 102.909C121.028 102.909 119.873 103.241 118.897 103.903C117.931 104.557 117.188 105.409 116.667 106.46C116.146 107.511 115.886 108.638 115.886 109.841V111.773C115.886 113.42 116.17 114.817 116.738 115.963C117.316 117.099 118.116 117.966 119.139 118.562C120.162 119.15 121.35 119.443 122.704 119.443C123.585 119.443 124.38 119.32 125.091 119.074C125.81 118.818 126.431 118.439 126.951 117.938C127.472 117.426 127.875 116.792 128.159 116.034L131.397 116.943C131.056 118.042 130.484 119.008 129.679 119.841C128.874 120.665 127.879 121.309 126.696 121.773C125.512 122.227 124.181 122.455 122.704 122.455ZM136.838 122V100.182H140.076V103.477H140.304C140.701 102.398 141.421 101.522 142.463 100.849C143.504 100.177 144.679 99.8409 145.985 99.8409C146.232 99.8409 146.539 99.8456 146.909 99.8551C147.278 99.8646 147.557 99.8788 147.747 99.8977V103.307C147.633 103.278 147.373 103.236 146.966 103.179C146.568 103.113 146.146 103.08 145.701 103.08C144.641 103.08 143.694 103.302 142.86 103.747C142.037 104.183 141.383 104.789 140.9 105.565C140.427 106.332 140.19 107.208 140.19 108.193V122H136.838ZM167.175 105.068L164.164 105.92C163.974 105.419 163.695 104.931 163.326 104.457C162.966 103.974 162.473 103.577 161.848 103.264C161.223 102.952 160.423 102.795 159.448 102.795C158.113 102.795 157 103.103 156.11 103.719C155.229 104.325 154.789 105.097 154.789 106.034C154.789 106.867 155.092 107.526 155.698 108.009C156.304 108.491 157.251 108.894 158.539 109.216L161.777 110.011C163.728 110.485 165.182 111.209 166.138 112.185C167.095 113.151 167.573 114.396 167.573 115.92C167.573 117.17 167.213 118.288 166.493 119.273C165.783 120.258 164.789 121.034 163.51 121.602C162.232 122.17 160.745 122.455 159.05 122.455C156.825 122.455 154.983 121.972 153.525 121.006C152.066 120.04 151.143 118.629 150.755 116.773L153.936 115.977C154.239 117.152 154.812 118.032 155.655 118.619C156.507 119.206 157.62 119.5 158.993 119.5C160.556 119.5 161.796 119.169 162.715 118.506C163.643 117.833 164.107 117.028 164.107 116.091C164.107 115.333 163.842 114.699 163.311 114.188C162.781 113.667 161.967 113.278 160.868 113.023L157.232 112.17C155.234 111.697 153.766 110.963 152.828 109.969C151.9 108.965 151.436 107.71 151.436 106.205C151.436 104.973 151.782 103.884 152.473 102.938C153.174 101.991 154.126 101.247 155.328 100.707C156.541 100.168 157.914 99.8977 159.448 99.8977C161.607 99.8977 163.302 100.371 164.533 101.318C165.774 102.265 166.654 103.515 167.175 105.068ZM182.108 100.182V103.023H170.801V100.182H182.108ZM174.096 94.9545H177.449V115.75C177.449 116.697 177.586 117.407 177.86 117.881C178.145 118.345 178.504 118.657 178.94 118.818C179.385 118.97 179.854 119.045 180.346 119.045C180.716 119.045 181.019 119.027 181.255 118.989C181.492 118.941 181.681 118.903 181.824 118.875L182.505 121.886C182.278 121.972 181.961 122.057 181.554 122.142C181.146 122.237 180.63 122.284 180.005 122.284C179.058 122.284 178.13 122.08 177.221 121.673C176.322 121.266 175.574 120.646 174.977 119.812C174.39 118.979 174.096 117.928 174.096 116.659V94.9545ZM204.991 100.182L196.923 122H193.514L185.446 100.182H189.082L195.105 117.568H195.332L201.355 100.182H204.991ZM211.575 130.182C211.007 130.182 210.5 130.134 210.055 130.04C209.61 129.955 209.302 129.869 209.132 129.784L209.984 126.83C210.798 127.038 211.518 127.114 212.143 127.057C212.768 127 213.322 126.721 213.805 126.219C214.297 125.726 214.747 124.926 215.154 123.818L215.779 122.114L207.711 100.182H211.348L217.37 117.568H217.598L223.62 100.182H227.257L217.995 125.182C217.579 126.309 217.063 127.241 216.447 127.98C215.832 128.728 215.117 129.282 214.302 129.642C213.497 130.002 212.588 130.182 211.575 130.182ZM215.95 97.2273L219.416 90.6364H223.336L218.904 97.2273H215.95ZM123.011 205.727C123.011 202.148 123.475 198.857 124.403 195.855C125.341 192.844 126.676 190.074 128.409 187.545H131.364C130.682 188.483 130.043 189.638 129.446 191.011C128.859 192.375 128.343 193.876 127.898 195.514C127.453 197.143 127.102 198.829 126.847 200.571C126.6 202.313 126.477 204.032 126.477 205.727C126.477 207.981 126.695 210.268 127.131 212.588C127.566 214.908 128.153 217.062 128.892 219.051C129.631 221.04 130.455 222.659 131.364 223.909H128.409C126.676 221.381 125.341 218.616 124.403 215.614C123.475 212.602 123.011 209.307 123.011 205.727ZM144.705 218.455C142.66 218.455 140.898 217.972 139.421 217.006C137.944 216.04 136.808 214.709 136.012 213.014C135.217 211.319 134.819 209.383 134.819 207.205C134.819 204.989 135.226 203.033 136.04 201.338C136.864 199.634 138.01 198.303 139.478 197.347C140.955 196.381 142.679 195.898 144.648 195.898C146.183 195.898 147.565 196.182 148.796 196.75C150.027 197.318 151.036 198.114 151.822 199.136C152.608 200.159 153.095 201.352 153.285 202.716H149.933C149.677 201.722 149.109 200.841 148.228 200.074C147.357 199.297 146.183 198.909 144.705 198.909C143.398 198.909 142.253 199.25 141.268 199.932C140.292 200.604 139.53 201.556 138.981 202.787C138.441 204.009 138.171 205.443 138.171 207.091C138.171 208.777 138.436 210.244 138.967 211.494C139.506 212.744 140.264 213.715 141.239 214.406C142.224 215.098 143.379 215.443 144.705 215.443C145.576 215.443 146.367 215.292 147.077 214.989C147.788 214.686 148.389 214.25 148.881 213.682C149.374 213.114 149.724 212.432 149.933 211.636H153.285C153.095 212.924 152.627 214.084 151.879 215.116C151.14 216.139 150.16 216.954 148.938 217.56C147.726 218.156 146.315 218.455 144.705 218.455ZM157.56 218V215.443L169.947 199.534V199.307H157.958V196.182H174.265V198.852L162.219 214.648V214.875H174.663V218H157.56ZM186.985 205.727C186.985 209.307 186.516 212.602 185.579 215.614C184.651 218.616 183.32 221.381 181.587 223.909H178.633C179.315 222.972 179.949 221.816 180.536 220.443C181.133 219.08 181.654 217.583 182.099 215.955C182.544 214.316 182.889 212.626 183.136 210.884C183.391 209.132 183.519 207.413 183.519 205.727C183.519 203.473 183.301 201.187 182.866 198.866C182.43 196.546 181.843 194.392 181.104 192.403C180.366 190.415 179.542 188.795 178.633 187.545H181.587C183.32 190.074 184.651 192.844 185.579 195.855C186.516 198.857 186.985 202.148 186.985 205.727Z" fill="#F1D95B"/>
</svg>
