<svg width="310" height="310" viewBox="0 0 310 310" fill="none" xmlns="http://www.w3.org/2000/svg">
<rect x="2.5" y="2.5" width="305" height="305" rx="17.5" fill="black"/>
<rect x="2.5" y="2.5" width="305" height="305" rx="17.5" stroke="#F1D95B" stroke-width="5"/>
<path d="M91.3477 122H82.3704V92.9091H91.7454C94.5674 92.9091 96.9821 93.4915 98.9897 94.6562C100.997 95.8116 102.536 97.4735 103.606 99.642C104.676 101.801 105.211 104.386 105.211 107.398C105.211 110.428 104.672 113.037 103.592 115.224C102.512 117.402 100.94 119.079 98.8761 120.253C96.8117 121.418 94.3022 122 91.3477 122ZM85.8931 118.875H91.1204C93.5257 118.875 95.5191 118.411 97.1005 117.483C98.6819 116.555 99.8609 115.234 100.637 113.52C101.414 111.806 101.802 109.765 101.802 107.398C101.802 105.049 101.419 103.027 100.652 101.332C99.8846 99.6278 98.7388 98.321 97.2141 97.4119C95.6895 96.4934 93.7908 96.0341 91.5181 96.0341H85.8931V118.875ZM110.041 122V119.443L122.427 103.534V103.307H110.439V100.182H126.745V102.852L114.7 118.648V118.875H127.143V122H110.041ZM132.306 122V100.182H135.659V122H132.306ZM134.011 96.5455C133.358 96.5455 132.794 96.3229 132.321 95.8778C131.857 95.4328 131.625 94.8977 131.625 94.2727C131.625 93.6477 131.857 93.1127 132.321 92.6676C132.794 92.2225 133.358 92 134.011 92C134.664 92 135.223 92.2225 135.687 92.6676C136.161 93.1127 136.397 93.6477 136.397 94.2727C136.397 94.8977 136.161 95.4328 135.687 95.8778C135.223 96.3229 134.664 96.5455 134.011 96.5455ZM148.219 122.511C146.837 122.511 145.582 122.251 144.455 121.73C143.328 121.2 142.433 120.438 141.77 119.443C141.107 118.439 140.776 117.227 140.776 115.807C140.776 114.557 141.022 113.544 141.515 112.767C142.007 111.981 142.665 111.366 143.489 110.92C144.313 110.475 145.222 110.144 146.216 109.926C147.22 109.699 148.229 109.519 149.242 109.386C150.568 109.216 151.642 109.088 152.466 109.003C153.3 108.908 153.906 108.752 154.284 108.534C154.673 108.316 154.867 107.937 154.867 107.398V107.284C154.867 105.883 154.483 104.794 153.716 104.017C152.959 103.241 151.808 102.852 150.265 102.852C148.664 102.852 147.409 103.203 146.5 103.903C145.591 104.604 144.952 105.352 144.583 106.148L141.401 105.011C141.969 103.686 142.727 102.653 143.674 101.915C144.63 101.167 145.672 100.646 146.799 100.352C147.935 100.049 149.052 99.8977 150.151 99.8977C150.852 99.8977 151.657 99.983 152.566 100.153C153.484 100.314 154.37 100.651 155.222 101.162C156.084 101.673 156.799 102.445 157.367 103.477C157.935 104.509 158.219 105.892 158.219 107.625V122H154.867V119.045H154.696C154.469 119.519 154.09 120.026 153.56 120.565C153.03 121.105 152.324 121.564 151.444 121.943C150.563 122.322 149.488 122.511 148.219 122.511ZM148.73 119.5C150.056 119.5 151.174 119.24 152.083 118.719C153.001 118.198 153.693 117.526 154.157 116.702C154.63 115.878 154.867 115.011 154.867 114.102V111.034C154.725 111.205 154.412 111.361 153.929 111.503C153.456 111.635 152.907 111.754 152.282 111.858C151.666 111.953 151.065 112.038 150.478 112.114C149.9 112.18 149.431 112.237 149.071 112.284C148.2 112.398 147.386 112.582 146.628 112.838C145.88 113.084 145.274 113.458 144.81 113.96C144.355 114.453 144.128 115.125 144.128 115.977C144.128 117.142 144.559 118.023 145.421 118.619C146.292 119.206 147.395 119.5 148.73 119.5ZM172.576 122.455C170.758 122.455 169.153 121.995 167.761 121.077C166.369 120.149 165.28 118.842 164.494 117.156C163.708 115.461 163.315 113.458 163.315 111.148C163.315 108.856 163.708 106.867 164.494 105.182C165.28 103.496 166.374 102.194 167.775 101.276C169.177 100.357 170.796 99.8977 172.633 99.8977C174.054 99.8977 175.176 100.134 176 100.608C176.833 101.072 177.467 101.602 177.903 102.199C178.348 102.786 178.694 103.269 178.94 103.648H179.224V92.9091H182.576V122H179.338V118.648H178.94C178.694 119.045 178.343 119.547 177.889 120.153C177.434 120.75 176.786 121.285 175.943 121.759C175.1 122.223 173.978 122.455 172.576 122.455ZM173.031 119.443C174.376 119.443 175.512 119.093 176.44 118.392C177.368 117.682 178.074 116.702 178.556 115.452C179.039 114.192 179.281 112.739 179.281 111.091C179.281 109.462 179.044 108.037 178.571 106.815C178.097 105.584 177.396 104.628 176.468 103.946C175.54 103.255 174.395 102.909 173.031 102.909C171.61 102.909 170.427 103.274 169.48 104.003C168.542 104.723 167.837 105.703 167.363 106.943C166.899 108.174 166.667 109.557 166.667 111.091C166.667 112.644 166.904 114.055 167.377 115.324C167.86 116.583 168.571 117.587 169.508 118.335C170.455 119.074 171.629 119.443 173.031 119.443ZM198.329 122.455C196.227 122.455 194.413 121.991 192.889 121.062C191.374 120.125 190.204 118.818 189.38 117.142C188.566 115.456 188.159 113.496 188.159 111.261C188.159 109.027 188.566 107.057 189.38 105.352C190.204 103.638 191.35 102.303 192.818 101.347C194.295 100.381 196.019 99.8977 197.988 99.8977C199.125 99.8977 200.247 100.087 201.355 100.466C202.463 100.845 203.471 101.46 204.38 102.312C205.289 103.155 206.014 104.273 206.554 105.665C207.093 107.057 207.363 108.771 207.363 110.807V112.227H190.545V109.33H203.954C203.954 108.098 203.708 107 203.216 106.034C202.733 105.068 202.041 104.306 201.142 103.747C200.252 103.188 199.2 102.909 197.988 102.909C196.653 102.909 195.498 103.241 194.522 103.903C193.556 104.557 192.813 105.409 192.292 106.46C191.771 107.511 191.511 108.638 191.511 109.841V111.773C191.511 113.42 191.795 114.817 192.363 115.963C192.941 117.099 193.741 117.966 194.764 118.562C195.787 119.15 196.975 119.443 198.329 119.443C199.21 119.443 200.005 119.32 200.716 119.074C201.435 118.818 202.056 118.439 202.576 117.938C203.097 117.426 203.5 116.792 203.784 116.034L207.022 116.943C206.681 118.042 206.109 119.008 205.304 119.841C204.499 120.665 203.504 121.309 202.321 121.773C201.137 122.227 199.806 122.455 198.329 122.455ZM215.588 114.045L215.531 109.898H216.213L225.758 100.182H229.906L219.735 110.466H219.451L215.588 114.045ZM212.463 122V92.9091H215.815V122H212.463ZM226.326 122L217.804 111.205L220.19 108.875L230.588 122H226.326ZM127.836 205.727C127.836 202.148 128.3 198.857 129.228 195.855C130.165 192.844 131.5 190.074 133.233 187.545H136.188C135.506 188.483 134.867 189.638 134.27 191.011C133.683 192.375 133.167 193.876 132.722 195.514C132.277 197.143 131.926 198.829 131.671 200.571C131.425 202.313 131.301 204.032 131.301 205.727C131.301 207.981 131.519 210.268 131.955 212.588C132.391 214.908 132.978 217.062 133.716 219.051C134.455 221.04 135.279 222.659 136.188 223.909H133.233C131.5 221.381 130.165 218.616 129.228 215.614C128.3 212.602 127.836 209.307 127.836 205.727ZM141.135 226.182V196.182H144.373V199.648H144.771C145.017 199.269 145.358 198.786 145.794 198.199C146.239 197.602 146.873 197.072 147.697 196.608C148.53 196.134 149.657 195.898 151.078 195.898C152.915 195.898 154.534 196.357 155.936 197.276C157.337 198.194 158.431 199.496 159.217 201.182C160.003 202.867 160.396 204.856 160.396 207.148C160.396 209.458 160.003 211.461 159.217 213.156C158.431 214.842 157.342 216.149 155.95 217.077C154.558 217.995 152.953 218.455 151.135 218.455C149.733 218.455 148.611 218.223 147.768 217.759C146.925 217.285 146.277 216.75 145.822 216.153C145.368 215.547 145.017 215.045 144.771 214.648H144.487V226.182H141.135ZM144.43 207.091C144.43 208.739 144.672 210.192 145.154 211.452C145.637 212.702 146.343 213.682 147.271 214.392C148.199 215.093 149.335 215.443 150.68 215.443C152.082 215.443 153.251 215.074 154.189 214.335C155.136 213.587 155.846 212.583 156.319 211.324C156.802 210.055 157.044 208.644 157.044 207.091C157.044 205.557 156.807 204.174 156.333 202.943C155.869 201.703 155.164 200.723 154.217 200.003C153.279 199.274 152.1 198.909 150.68 198.909C149.316 198.909 148.171 199.255 147.243 199.946C146.315 200.628 145.614 201.584 145.14 202.815C144.667 204.037 144.43 205.462 144.43 207.091ZM168.862 188.909V218H165.51V188.909H168.862ZM182.161 205.727C182.161 209.307 181.692 212.602 180.755 215.614C179.827 218.616 178.496 221.381 176.763 223.909H173.809C174.49 222.972 175.125 221.816 175.712 220.443C176.309 219.08 176.829 217.583 177.275 215.955C177.72 214.316 178.065 212.626 178.311 210.884C178.567 209.132 178.695 207.413 178.695 205.727C178.695 203.473 178.477 201.187 178.042 198.866C177.606 196.546 177.019 194.392 176.28 192.403C175.542 190.415 174.718 188.795 173.809 187.545H176.763C178.496 190.074 179.827 192.844 180.755 195.855C181.692 198.857 182.161 202.148 182.161 205.727Z" fill="#F1D95B"/>
</svg>
