<svg width="300" height="300" viewBox="0 0 300 300" fill="none" xmlns="http://www.w3.org/2000/svg">
<rect x="2.5" y="2.5" width="295" height="295" rx="12.5" fill="black"/>
<rect x="2.5" y="2.5" width="295" height="295" rx="12.5" stroke="#F1D95B" stroke-width="5"/>
<path d="M86.3477 117H77.3704V87.9091H86.7454C89.5674 87.9091 91.9821 88.4915 93.9897 89.6562C95.9973 90.8116 97.5361 92.4735 98.6062 94.642C99.6763 96.8011 100.211 99.3864 100.211 102.398C100.211 105.428 99.6715 108.037 98.592 110.224C97.5124 112.402 95.9405 114.079 93.8761 115.253C91.8117 116.418 89.3022 117 86.3477 117ZM80.8931 113.875H86.1204C88.5257 113.875 90.5191 113.411 92.1005 112.483C93.6819 111.555 94.8609 110.234 95.6374 108.52C96.4139 106.806 96.8022 104.765 96.8022 102.398C96.8022 100.049 96.4187 98.0275 95.6516 96.3324C94.8846 94.6278 93.7388 93.321 92.2141 92.4119C90.6895 91.4934 88.7908 91.0341 86.5181 91.0341H80.8931V113.875ZM105.041 117V114.443L117.427 98.5341V98.3068H105.439V95.1818H121.745V97.8523L109.7 113.648V113.875H122.143V117H105.041ZM127.306 117V95.1818H130.659V117H127.306ZM129.011 91.5455C128.358 91.5455 127.794 91.3229 127.321 90.8778C126.857 90.4328 126.625 89.8977 126.625 89.2727C126.625 88.6477 126.857 88.1127 127.321 87.6676C127.794 87.2225 128.358 87 129.011 87C129.664 87 130.223 87.2225 130.687 87.6676C131.161 88.1127 131.397 88.6477 131.397 89.2727C131.397 89.8977 131.161 90.4328 130.687 90.8778C130.223 91.3229 129.664 91.5455 129.011 91.5455ZM143.219 117.511C141.837 117.511 140.582 117.251 139.455 116.73C138.328 116.2 137.433 115.438 136.77 114.443C136.107 113.439 135.776 112.227 135.776 110.807C135.776 109.557 136.022 108.544 136.515 107.767C137.007 106.981 137.665 106.366 138.489 105.92C139.313 105.475 140.222 105.144 141.216 104.926C142.22 104.699 143.229 104.519 144.242 104.386C145.568 104.216 146.642 104.088 147.466 104.003C148.3 103.908 148.906 103.752 149.284 103.534C149.673 103.316 149.867 102.937 149.867 102.398V102.284C149.867 100.883 149.483 99.7936 148.716 99.017C147.959 98.2405 146.808 97.8523 145.265 97.8523C143.664 97.8523 142.409 98.2027 141.5 98.9034C140.591 99.6042 139.952 100.352 139.583 101.148L136.401 100.011C136.969 98.6856 137.727 97.6534 138.674 96.9148C139.63 96.1667 140.672 95.6458 141.799 95.3523C142.935 95.0492 144.052 94.8977 145.151 94.8977C145.852 94.8977 146.657 94.983 147.566 95.1534C148.484 95.3144 149.37 95.6506 150.222 96.1619C151.084 96.6733 151.799 97.4451 152.367 98.4773C152.935 99.5095 153.219 100.892 153.219 102.625V117H149.867V114.045H149.696C149.469 114.519 149.09 115.026 148.56 115.565C148.03 116.105 147.324 116.564 146.444 116.943C145.563 117.322 144.488 117.511 143.219 117.511ZM143.73 114.5C145.056 114.5 146.174 114.24 147.083 113.719C148.001 113.198 148.693 112.526 149.157 111.702C149.63 110.878 149.867 110.011 149.867 109.102V106.034C149.725 106.205 149.412 106.361 148.929 106.503C148.456 106.635 147.907 106.754 147.282 106.858C146.666 106.953 146.065 107.038 145.478 107.114C144.9 107.18 144.431 107.237 144.071 107.284C143.2 107.398 142.386 107.582 141.628 107.838C140.88 108.084 140.274 108.458 139.81 108.96C139.355 109.453 139.128 110.125 139.128 110.977C139.128 112.142 139.559 113.023 140.421 113.619C141.292 114.206 142.395 114.5 143.73 114.5ZM167.576 117.455C165.758 117.455 164.153 116.995 162.761 116.077C161.369 115.149 160.28 113.842 159.494 112.156C158.708 110.461 158.315 108.458 158.315 106.148C158.315 103.856 158.708 101.867 159.494 100.182C160.28 98.4962 161.374 97.1941 162.775 96.2756C164.177 95.357 165.796 94.8977 167.633 94.8977C169.054 94.8977 170.176 95.1345 171 95.608C171.833 96.072 172.467 96.6023 172.903 97.1989C173.348 97.786 173.694 98.2689 173.94 98.6477H174.224V87.9091H177.576V117H174.338V113.648H173.94C173.694 114.045 173.343 114.547 172.889 115.153C172.434 115.75 171.786 116.285 170.943 116.759C170.1 117.223 168.978 117.455 167.576 117.455ZM168.031 114.443C169.376 114.443 170.512 114.093 171.44 113.392C172.368 112.682 173.074 111.702 173.556 110.452C174.039 109.192 174.281 107.739 174.281 106.091C174.281 104.462 174.044 103.037 173.571 101.815C173.097 100.584 172.396 99.6278 171.468 98.946C170.54 98.2547 169.395 97.9091 168.031 97.9091C166.61 97.9091 165.427 98.2737 164.48 99.0028C163.542 99.7225 162.837 100.703 162.363 101.943C161.899 103.174 161.667 104.557 161.667 106.091C161.667 107.644 161.904 109.055 162.377 110.324C162.86 111.583 163.571 112.587 164.508 113.335C165.455 114.074 166.629 114.443 168.031 114.443ZM193.329 117.455C191.227 117.455 189.413 116.991 187.889 116.062C186.374 115.125 185.204 113.818 184.38 112.142C183.566 110.456 183.159 108.496 183.159 106.261C183.159 104.027 183.566 102.057 184.38 100.352C185.204 98.6383 186.35 97.303 187.818 96.3466C189.295 95.3807 191.019 94.8977 192.988 94.8977C194.125 94.8977 195.247 95.0871 196.355 95.4659C197.463 95.8447 198.471 96.4602 199.38 97.3125C200.289 98.1553 201.014 99.2727 201.554 100.665C202.093 102.057 202.363 103.771 202.363 105.807V107.227H185.545V104.33H198.954C198.954 103.098 198.708 102 198.216 101.034C197.733 100.068 197.041 99.3059 196.142 98.7472C195.252 98.1884 194.2 97.9091 192.988 97.9091C191.653 97.9091 190.498 98.2405 189.522 98.9034C188.556 99.5568 187.813 100.409 187.292 101.46C186.771 102.511 186.511 103.638 186.511 104.841V106.773C186.511 108.42 186.795 109.817 187.363 110.963C187.941 112.099 188.741 112.966 189.764 113.562C190.787 114.15 191.975 114.443 193.329 114.443C194.21 114.443 195.005 114.32 195.716 114.074C196.435 113.818 197.056 113.439 197.576 112.938C198.097 112.426 198.5 111.792 198.784 111.034L202.022 111.943C201.681 113.042 201.109 114.008 200.304 114.841C199.499 115.665 198.504 116.309 197.321 116.773C196.137 117.227 194.806 117.455 193.329 117.455ZM210.588 109.045L210.531 104.898H211.213L220.758 95.1818H224.906L214.735 105.466H214.451L210.588 109.045ZM207.463 117V87.9091H210.815V117H207.463ZM221.326 117L212.804 106.205L215.19 103.875L225.588 117H221.326ZM122.836 200.727C122.836 197.148 123.3 193.857 124.228 190.855C125.165 187.844 126.5 185.074 128.233 182.545H131.188C130.506 183.483 129.867 184.638 129.27 186.011C128.683 187.375 128.167 188.876 127.722 190.514C127.277 192.143 126.926 193.829 126.671 195.571C126.425 197.313 126.301 199.032 126.301 200.727C126.301 202.981 126.519 205.268 126.955 207.588C127.391 209.908 127.978 212.062 128.716 214.051C129.455 216.04 130.279 217.659 131.188 218.909H128.233C126.5 216.381 125.165 213.616 124.228 210.614C123.3 207.602 122.836 204.307 122.836 200.727ZM136.135 221.182V191.182H139.373V194.648H139.771C140.017 194.269 140.358 193.786 140.794 193.199C141.239 192.602 141.873 192.072 142.697 191.608C143.53 191.134 144.657 190.898 146.078 190.898C147.915 190.898 149.534 191.357 150.936 192.276C152.337 193.194 153.431 194.496 154.217 196.182C155.003 197.867 155.396 199.856 155.396 202.148C155.396 204.458 155.003 206.461 154.217 208.156C153.431 209.842 152.342 211.149 150.95 212.077C149.558 212.995 147.953 213.455 146.135 213.455C144.733 213.455 143.611 213.223 142.768 212.759C141.925 212.285 141.277 211.75 140.822 211.153C140.368 210.547 140.017 210.045 139.771 209.648H139.487V221.182H136.135ZM139.43 202.091C139.43 203.739 139.672 205.192 140.154 206.452C140.637 207.702 141.343 208.682 142.271 209.392C143.199 210.093 144.335 210.443 145.68 210.443C147.082 210.443 148.251 210.074 149.189 209.335C150.136 208.587 150.846 207.583 151.319 206.324C151.802 205.055 152.044 203.644 152.044 202.091C152.044 200.557 151.807 199.174 151.333 197.943C150.869 196.703 150.164 195.723 149.217 195.003C148.279 194.274 147.1 193.909 145.68 193.909C144.316 193.909 143.171 194.255 142.243 194.946C141.315 195.628 140.614 196.584 140.14 197.815C139.667 199.037 139.43 200.462 139.43 202.091ZM163.862 183.909V213H160.51V183.909H163.862ZM177.161 200.727C177.161 204.307 176.692 207.602 175.755 210.614C174.827 213.616 173.496 216.381 171.763 218.909H168.809C169.49 217.972 170.125 216.816 170.712 215.443C171.309 214.08 171.829 212.583 172.275 210.955C172.72 209.316 173.065 207.626 173.311 205.884C173.567 204.132 173.695 202.413 173.695 200.727C173.695 198.473 173.477 196.187 173.042 193.866C172.606 191.546 172.019 189.392 171.28 187.403C170.542 185.415 169.718 183.795 168.809 182.545H171.763C173.496 185.074 174.827 187.844 175.755 190.855C176.692 193.857 177.161 197.148 177.161 200.727Z" fill="#F1D95B"/>
</svg>
