<svg width="310" height="310" viewBox="0 0 310 310" fill="none" xmlns="http://www.w3.org/2000/svg">
<rect x="2.5" y="2.5" width="305" height="305" rx="17.5" fill="black"/>
<rect x="2.5" y="2.5" width="305" height="305" rx="17.5" stroke="#F1D95B" stroke-width="5"/>
<path d="M106.543 122H97.5657V92.9091H106.941C109.763 92.9091 112.177 93.4915 114.185 94.6562C116.193 95.8116 117.731 97.4735 118.801 99.642C119.872 101.801 120.407 104.386 120.407 107.398C120.407 110.428 119.867 113.037 118.787 115.224C117.708 117.402 116.136 119.079 114.071 120.253C112.007 121.418 109.498 122 106.543 122ZM101.088 118.875H106.316C108.721 118.875 110.714 118.411 112.296 117.483C113.877 116.555 115.056 115.234 115.833 113.52C116.609 111.806 116.998 109.765 116.998 107.398C116.998 105.049 116.614 103.027 115.847 101.332C115.08 99.6278 113.934 98.321 112.409 97.4119C110.885 96.4934 108.986 96.0341 106.713 96.0341H101.088V118.875ZM135.009 122.455C132.907 122.455 131.093 121.991 129.569 121.062C128.053 120.125 126.884 118.818 126.06 117.142C125.246 115.456 124.838 113.496 124.838 111.261C124.838 109.027 125.246 107.057 126.06 105.352C126.884 103.638 128.03 102.303 129.498 101.347C130.975 100.381 132.698 99.8977 134.668 99.8977C135.804 99.8977 136.926 100.087 138.034 100.466C139.142 100.845 140.151 101.46 141.06 102.312C141.969 103.155 142.694 104.273 143.233 105.665C143.773 107.057 144.043 108.771 144.043 110.807V112.227H127.225V109.33H140.634C140.634 108.098 140.388 107 139.895 106.034C139.412 105.068 138.721 104.306 137.821 103.747C136.931 103.188 135.88 102.909 134.668 102.909C133.333 102.909 132.177 103.241 131.202 103.903C130.236 104.557 129.493 105.409 128.972 106.46C128.451 107.511 128.191 108.638 128.191 109.841V111.773C128.191 113.42 128.475 114.817 129.043 115.963C129.621 117.099 130.421 117.966 131.444 118.562C132.466 119.15 133.655 119.443 135.009 119.443C135.89 119.443 136.685 119.32 137.395 119.074C138.115 118.818 138.735 118.439 139.256 117.938C139.777 117.426 140.179 116.792 140.463 116.034L143.702 116.943C143.361 118.042 142.788 119.008 141.983 119.841C141.178 120.665 140.184 121.309 139 121.773C137.817 122.227 136.486 122.455 135.009 122.455ZM131.543 91.4318L134.498 95.4091L137.452 91.4318H140.634V91.6591L136.032 97.5682H132.963L128.361 91.6591V91.4318H131.543ZM157.381 122.455C155.563 122.455 153.958 121.995 152.566 121.077C151.174 120.149 150.085 118.842 149.299 117.156C148.513 115.461 148.12 113.458 148.12 111.148C148.12 108.856 148.513 106.867 149.299 105.182C150.085 103.496 151.178 102.194 152.58 101.276C153.981 100.357 155.601 99.8977 157.438 99.8977C158.858 99.8977 159.98 100.134 160.804 100.608C161.638 101.072 162.272 101.602 162.708 102.199C163.153 102.786 163.498 103.269 163.745 103.648H164.029V92.9091H167.381V122H164.142V118.648H163.745C163.498 119.045 163.148 119.547 162.694 120.153C162.239 120.75 161.59 121.285 160.748 121.759C159.905 122.223 158.783 122.455 157.381 122.455ZM157.836 119.443C159.18 119.443 160.317 119.093 161.245 118.392C162.173 117.682 162.878 116.702 163.361 115.452C163.844 114.192 164.086 112.739 164.086 111.091C164.086 109.462 163.849 108.037 163.375 106.815C162.902 105.584 162.201 104.628 161.273 103.946C160.345 103.255 159.199 102.909 157.836 102.909C156.415 102.909 155.231 103.274 154.284 104.003C153.347 104.723 152.641 105.703 152.168 106.943C151.704 108.174 151.472 109.557 151.472 111.091C151.472 112.644 151.709 114.055 152.182 115.324C152.665 116.583 153.375 117.587 154.313 118.335C155.26 119.074 156.434 119.443 157.836 119.443ZM183.134 122.455C181.032 122.455 179.218 121.991 177.694 121.062C176.178 120.125 175.009 118.818 174.185 117.142C173.371 115.456 172.963 113.496 172.963 111.261C172.963 109.027 173.371 107.057 174.185 105.352C175.009 103.638 176.155 102.303 177.623 101.347C179.1 100.381 180.823 99.8977 182.793 99.8977C183.929 99.8977 185.051 100.087 186.159 100.466C187.267 100.845 188.276 101.46 189.185 102.312C190.094 103.155 190.819 104.273 191.358 105.665C191.898 107.057 192.168 108.771 192.168 110.807V112.227H175.35V109.33H188.759C188.759 108.098 188.513 107 188.02 106.034C187.537 105.068 186.846 104.306 185.946 103.747C185.056 103.188 184.005 102.909 182.793 102.909C181.458 102.909 180.302 103.241 179.327 103.903C178.361 104.557 177.618 105.409 177.097 106.46C176.576 107.511 176.316 108.638 176.316 109.841V111.773C176.316 113.42 176.6 114.817 177.168 115.963C177.746 117.099 178.546 117.966 179.569 118.562C180.591 119.15 181.78 119.443 183.134 119.443C184.015 119.443 184.81 119.32 185.52 119.074C186.24 118.818 186.86 118.439 187.381 117.938C187.902 117.426 188.304 116.792 188.588 116.034L191.827 116.943C191.486 118.042 190.913 119.008 190.108 119.841C189.303 120.665 188.309 121.309 187.125 121.773C185.942 122.227 184.611 122.455 183.134 122.455ZM200.392 114.045L200.336 109.898H201.017L210.563 100.182H214.711L204.54 110.466H204.256L200.392 114.045ZM197.267 122V92.9091H200.62V122H197.267ZM211.131 122L202.608 111.205L204.995 108.875L215.392 122H211.131ZM123.011 205.727C123.011 202.148 123.475 198.857 124.403 195.855C125.341 192.844 126.676 190.074 128.409 187.545H131.364C130.682 188.483 130.043 189.638 129.446 191.011C128.859 192.375 128.343 193.876 127.898 195.514C127.453 197.143 127.102 198.829 126.847 200.571C126.6 202.313 126.477 204.032 126.477 205.727C126.477 207.981 126.695 210.268 127.131 212.588C127.566 214.908 128.153 217.062 128.892 219.051C129.631 221.04 130.455 222.659 131.364 223.909H128.409C126.676 221.381 125.341 218.616 124.403 215.614C123.475 212.602 123.011 209.307 123.011 205.727ZM144.705 218.455C142.66 218.455 140.898 217.972 139.421 217.006C137.944 216.04 136.808 214.709 136.012 213.014C135.217 211.319 134.819 209.383 134.819 207.205C134.819 204.989 135.226 203.033 136.04 201.338C136.864 199.634 138.01 198.303 139.478 197.347C140.955 196.381 142.679 195.898 144.648 195.898C146.183 195.898 147.565 196.182 148.796 196.75C150.027 197.318 151.036 198.114 151.822 199.136C152.608 200.159 153.095 201.352 153.285 202.716H149.933C149.677 201.722 149.109 200.841 148.228 200.074C147.357 199.297 146.183 198.909 144.705 198.909C143.398 198.909 142.253 199.25 141.268 199.932C140.292 200.604 139.53 201.556 138.981 202.787C138.441 204.009 138.171 205.443 138.171 207.091C138.171 208.777 138.436 210.244 138.967 211.494C139.506 212.744 140.264 213.715 141.239 214.406C142.224 215.098 143.379 215.443 144.705 215.443C145.576 215.443 146.367 215.292 147.077 214.989C147.788 214.686 148.389 214.25 148.881 213.682C149.374 213.114 149.724 212.432 149.933 211.636H153.285C153.095 212.924 152.627 214.084 151.879 215.116C151.14 216.139 150.16 216.954 148.938 217.56C147.726 218.156 146.315 218.455 144.705 218.455ZM157.56 218V215.443L169.947 199.534V199.307H157.958V196.182H174.265V198.852L162.219 214.648V214.875H174.663V218H157.56ZM186.985 205.727C186.985 209.307 186.516 212.602 185.579 215.614C184.651 218.616 183.32 221.381 181.587 223.909H178.633C179.315 222.972 179.949 221.816 180.536 220.443C181.133 219.08 181.654 217.583 182.099 215.955C182.544 214.316 182.889 212.626 183.136 210.884C183.391 209.132 183.519 207.413 183.519 205.727C183.519 203.473 183.301 201.187 182.866 198.866C182.43 196.546 181.843 194.392 181.104 192.403C180.366 190.415 179.542 188.795 178.633 187.545H181.587C183.32 190.074 184.651 192.844 185.579 195.855C186.516 198.857 186.985 202.148 186.985 205.727Z" fill="#F1D95B"/>
</svg>
