<svg width="310" height="310" viewBox="0 0 310 310" fill="none" xmlns="http://www.w3.org/2000/svg">
<rect x="2.5" y="2.5" width="305" height="305" rx="17.5" fill="black"/>
<rect x="2.5" y="2.5" width="305" height="305" rx="17.5" stroke="#F1D95B" stroke-width="5"/>
<path d="M112.312 122V92.9091H115.835V118.875H129.357V122H112.312ZM140.778 122.511C139.395 122.511 138.14 122.251 137.013 121.73C135.887 121.2 134.992 120.438 134.329 119.443C133.666 118.439 133.335 117.227 133.335 115.807C133.335 114.557 133.581 113.544 134.073 112.767C134.566 111.981 135.224 111.366 136.048 110.92C136.871 110.475 137.781 110.144 138.775 109.926C139.779 109.699 140.787 109.519 141.8 109.386C143.126 109.216 144.201 109.088 145.025 109.003C145.858 108.908 146.464 108.752 146.843 108.534C147.231 108.316 147.425 107.937 147.425 107.398V107.284C147.425 105.883 147.042 104.794 146.275 104.017C145.517 103.241 144.367 102.852 142.823 102.852C141.223 102.852 139.968 103.203 139.059 103.903C138.15 104.604 137.511 105.352 137.141 106.148L133.96 105.011C134.528 103.686 135.285 102.653 136.232 101.915C137.189 101.167 138.23 100.646 139.357 100.352C140.494 100.049 141.611 99.8977 142.71 99.8977C143.41 99.8977 144.215 99.983 145.124 100.153C146.043 100.314 146.928 100.651 147.781 101.162C148.642 101.673 149.357 102.445 149.925 103.477C150.494 104.509 150.778 105.892 150.778 107.625V122H147.425V119.045H147.255C147.028 119.519 146.649 120.026 146.119 120.565C145.588 121.105 144.883 121.564 144.002 121.943C143.121 122.322 142.047 122.511 140.778 122.511ZM141.289 119.5C142.615 119.5 143.732 119.24 144.641 118.719C145.56 118.198 146.251 117.526 146.715 116.702C147.189 115.878 147.425 115.011 147.425 114.102V111.034C147.283 111.205 146.971 111.361 146.488 111.503C146.014 111.635 145.465 111.754 144.84 111.858C144.225 111.953 143.623 112.038 143.036 112.114C142.459 112.18 141.99 112.237 141.63 112.284C140.759 112.398 139.944 112.582 139.187 112.838C138.439 113.084 137.833 113.458 137.369 113.96C136.914 114.453 136.687 115.125 136.687 115.977C136.687 117.142 137.118 118.023 137.979 118.619C138.851 119.206 139.954 119.5 141.289 119.5ZM165.135 122.455C163.317 122.455 161.712 121.995 160.32 121.077C158.928 120.149 157.839 118.842 157.053 117.156C156.267 115.461 155.874 113.458 155.874 111.148C155.874 108.856 156.267 106.867 157.053 105.182C157.839 103.496 158.932 102.194 160.334 101.276C161.735 100.357 163.355 99.8977 165.192 99.8977C166.612 99.8977 167.734 100.134 168.558 100.608C169.392 101.072 170.026 101.602 170.462 102.199C170.907 102.786 171.252 103.269 171.499 103.648H171.783V92.9091H175.135V122H171.896V118.648H171.499C171.252 119.045 170.902 119.547 170.447 120.153C169.993 120.75 169.344 121.285 168.501 121.759C167.659 122.223 166.536 122.455 165.135 122.455ZM165.589 119.443C166.934 119.443 168.071 119.093 168.999 118.392C169.927 117.682 170.632 116.702 171.115 115.452C171.598 114.192 171.839 112.739 171.839 111.091C171.839 109.462 171.603 108.037 171.129 106.815C170.656 105.584 169.955 104.628 169.027 103.946C168.099 103.255 166.953 102.909 165.589 102.909C164.169 102.909 162.985 103.274 162.038 104.003C161.101 104.723 160.395 105.703 159.922 106.943C159.458 108.174 159.226 109.557 159.226 111.091C159.226 112.644 159.463 114.055 159.936 115.324C160.419 116.583 161.129 117.587 162.067 118.335C163.014 119.074 164.188 119.443 165.589 119.443ZM188.161 122.511C186.778 122.511 185.523 122.251 184.396 121.73C183.269 121.2 182.375 120.438 181.712 119.443C181.049 118.439 180.717 117.227 180.717 115.807C180.717 114.557 180.964 113.544 181.456 112.767C181.948 111.981 182.607 111.366 183.43 110.92C184.254 110.475 185.163 110.144 186.158 109.926C187.161 109.699 188.17 109.519 189.183 109.386C190.509 109.216 191.584 109.088 192.408 109.003C193.241 108.908 193.847 108.752 194.226 108.534C194.614 108.316 194.808 107.937 194.808 107.398V107.284C194.808 105.883 194.425 104.794 193.658 104.017C192.9 103.241 191.75 102.852 190.206 102.852C188.606 102.852 187.351 103.203 186.442 103.903C185.533 104.604 184.893 105.352 184.524 106.148L181.342 105.011C181.911 103.686 182.668 102.653 183.615 101.915C184.571 101.167 185.613 100.646 186.74 100.352C187.876 100.049 188.994 99.8977 190.092 99.8977C190.793 99.8977 191.598 99.983 192.507 100.153C193.426 100.314 194.311 100.651 195.163 101.162C196.025 101.673 196.74 102.445 197.308 103.477C197.876 104.509 198.161 105.892 198.161 107.625V122H194.808V119.045H194.638C194.411 119.519 194.032 120.026 193.501 120.565C192.971 121.105 192.266 121.564 191.385 121.943C190.504 122.322 189.429 122.511 188.161 122.511ZM188.672 119.5C189.998 119.5 191.115 119.24 192.024 118.719C192.943 118.198 193.634 117.526 194.098 116.702C194.571 115.878 194.808 115.011 194.808 114.102V111.034C194.666 111.205 194.354 111.361 193.871 111.503C193.397 111.635 192.848 111.754 192.223 111.858C191.607 111.953 191.006 112.038 190.419 112.114C189.841 112.18 189.373 112.237 189.013 112.284C188.142 112.398 187.327 112.582 186.57 112.838C185.821 113.084 185.215 113.458 184.751 113.96C184.297 114.453 184.07 115.125 184.07 115.977C184.07 117.142 184.5 118.023 185.362 118.619C186.233 119.206 187.337 119.5 188.672 119.5ZM127.836 205.727C127.836 202.148 128.3 198.857 129.228 195.855C130.165 192.844 131.5 190.074 133.233 187.545H136.188C135.506 188.483 134.867 189.638 134.27 191.011C133.683 192.375 133.167 193.876 132.722 195.514C132.277 197.143 131.926 198.829 131.671 200.571C131.425 202.313 131.301 204.032 131.301 205.727C131.301 207.981 131.519 210.268 131.955 212.588C132.391 214.908 132.978 217.062 133.716 219.051C134.455 221.04 135.279 222.659 136.188 223.909H133.233C131.5 221.381 130.165 218.616 129.228 215.614C128.3 212.602 127.836 209.307 127.836 205.727ZM141.135 226.182V196.182H144.373V199.648H144.771C145.017 199.269 145.358 198.786 145.794 198.199C146.239 197.602 146.873 197.072 147.697 196.608C148.53 196.134 149.657 195.898 151.078 195.898C152.915 195.898 154.534 196.357 155.936 197.276C157.337 198.194 158.431 199.496 159.217 201.182C160.003 202.867 160.396 204.856 160.396 207.148C160.396 209.458 160.003 211.461 159.217 213.156C158.431 214.842 157.342 216.149 155.95 217.077C154.558 217.995 152.953 218.455 151.135 218.455C149.733 218.455 148.611 218.223 147.768 217.759C146.925 217.285 146.277 216.75 145.822 216.153C145.368 215.547 145.017 215.045 144.771 214.648H144.487V226.182H141.135ZM144.43 207.091C144.43 208.739 144.672 210.192 145.154 211.452C145.637 212.702 146.343 213.682 147.271 214.392C148.199 215.093 149.335 215.443 150.68 215.443C152.082 215.443 153.251 215.074 154.189 214.335C155.136 213.587 155.846 212.583 156.319 211.324C156.802 210.055 157.044 208.644 157.044 207.091C157.044 205.557 156.807 204.174 156.333 202.943C155.869 201.703 155.164 200.723 154.217 200.003C153.279 199.274 152.1 198.909 150.68 198.909C149.316 198.909 148.171 199.255 147.243 199.946C146.315 200.628 145.614 201.584 145.14 202.815C144.667 204.037 144.43 205.462 144.43 207.091ZM168.862 188.909V218H165.51V188.909H168.862ZM182.161 205.727C182.161 209.307 181.692 212.602 180.755 215.614C179.827 218.616 178.496 221.381 176.763 223.909H173.809C174.49 222.972 175.125 221.816 175.712 220.443C176.309 219.08 176.829 217.583 177.275 215.955C177.72 214.316 178.065 212.626 178.311 210.884C178.567 209.132 178.695 207.413 178.695 205.727C178.695 203.473 178.477 201.187 178.042 198.866C177.606 196.546 177.019 194.392 176.28 192.403C175.542 190.415 174.718 188.795 173.809 187.545H176.763C178.496 190.074 179.827 192.844 180.755 195.855C181.692 198.857 182.161 202.148 182.161 205.727Z" fill="#F1D95B"/>
</svg>
