<svg width="310" height="310" viewBox="0 0 310 310" fill="none" xmlns="http://www.w3.org/2000/svg">
<rect x="2.5" y="2.5" width="305" height="305" rx="17.5" fill="black"/>
<rect x="2.5" y="2.5" width="305" height="305" rx="17.5" stroke="#F1D95B" stroke-width="5"/>
<path d="M112.312 122V92.9091H115.835V118.875H129.357V122H112.312ZM140.778 122.511C139.395 122.511 138.14 122.251 137.013 121.73C135.887 121.2 134.992 120.438 134.329 119.443C133.666 118.439 133.335 117.227 133.335 115.807C133.335 114.557 133.581 113.544 134.073 112.767C134.566 111.981 135.224 111.366 136.048 110.92C136.871 110.475 137.781 110.144 138.775 109.926C139.779 109.699 140.787 109.519 141.8 109.386C143.126 109.216 144.201 109.088 145.025 109.003C145.858 108.908 146.464 108.752 146.843 108.534C147.231 108.316 147.425 107.937 147.425 107.398V107.284C147.425 105.883 147.042 104.794 146.275 104.017C145.517 103.241 144.367 102.852 142.823 102.852C141.223 102.852 139.968 103.203 139.059 103.903C138.15 104.604 137.511 105.352 137.141 106.148L133.96 105.011C134.528 103.686 135.285 102.653 136.232 101.915C137.189 101.167 138.23 100.646 139.357 100.352C140.494 100.049 141.611 99.8977 142.71 99.8977C143.41 99.8977 144.215 99.983 145.124 100.153C146.043 100.314 146.928 100.651 147.781 101.162C148.642 101.673 149.357 102.445 149.925 103.477C150.494 104.509 150.778 105.892 150.778 107.625V122H147.425V119.045H147.255C147.028 119.519 146.649 120.026 146.119 120.565C145.588 121.105 144.883 121.564 144.002 121.943C143.121 122.322 142.047 122.511 140.778 122.511ZM141.289 119.5C142.615 119.5 143.732 119.24 144.641 118.719C145.56 118.198 146.251 117.526 146.715 116.702C147.189 115.878 147.425 115.011 147.425 114.102V111.034C147.283 111.205 146.971 111.361 146.488 111.503C146.014 111.635 145.465 111.754 144.84 111.858C144.225 111.953 143.623 112.038 143.036 112.114C142.459 112.18 141.99 112.237 141.63 112.284C140.759 112.398 139.944 112.582 139.187 112.838C138.439 113.084 137.833 113.458 137.369 113.96C136.914 114.453 136.687 115.125 136.687 115.977C136.687 117.142 137.118 118.023 137.979 118.619C138.851 119.206 139.954 119.5 141.289 119.5ZM165.135 122.455C163.317 122.455 161.712 121.995 160.32 121.077C158.928 120.149 157.839 118.842 157.053 117.156C156.267 115.461 155.874 113.458 155.874 111.148C155.874 108.856 156.267 106.867 157.053 105.182C157.839 103.496 158.932 102.194 160.334 101.276C161.735 100.357 163.355 99.8977 165.192 99.8977C166.612 99.8977 167.734 100.134 168.558 100.608C169.392 101.072 170.026 101.602 170.462 102.199C170.907 102.786 171.252 103.269 171.499 103.648H171.783V92.9091H175.135V122H171.896V118.648H171.499C171.252 119.045 170.902 119.547 170.447 120.153C169.993 120.75 169.344 121.285 168.501 121.759C167.659 122.223 166.536 122.455 165.135 122.455ZM165.589 119.443C166.934 119.443 168.071 119.093 168.999 118.392C169.927 117.682 170.632 116.702 171.115 115.452C171.598 114.192 171.839 112.739 171.839 111.091C171.839 109.462 171.603 108.037 171.129 106.815C170.656 105.584 169.955 104.628 169.027 103.946C168.099 103.255 166.953 102.909 165.589 102.909C164.169 102.909 162.985 103.274 162.038 104.003C161.101 104.723 160.395 105.703 159.922 106.943C159.458 108.174 159.226 109.557 159.226 111.091C159.226 112.644 159.463 114.055 159.936 115.324C160.419 116.583 161.129 117.587 162.067 118.335C163.014 119.074 164.188 119.443 165.589 119.443ZM188.161 122.511C186.778 122.511 185.523 122.251 184.396 121.73C183.269 121.2 182.375 120.438 181.712 119.443C181.049 118.439 180.717 117.227 180.717 115.807C180.717 114.557 180.964 113.544 181.456 112.767C181.948 111.981 182.607 111.366 183.43 110.92C184.254 110.475 185.163 110.144 186.158 109.926C187.161 109.699 188.17 109.519 189.183 109.386C190.509 109.216 191.584 109.088 192.408 109.003C193.241 108.908 193.847 108.752 194.226 108.534C194.614 108.316 194.808 107.937 194.808 107.398V107.284C194.808 105.883 194.425 104.794 193.658 104.017C192.9 103.241 191.75 102.852 190.206 102.852C188.606 102.852 187.351 103.203 186.442 103.903C185.533 104.604 184.893 105.352 184.524 106.148L181.342 105.011C181.911 103.686 182.668 102.653 183.615 101.915C184.571 101.167 185.613 100.646 186.74 100.352C187.876 100.049 188.994 99.8977 190.092 99.8977C190.793 99.8977 191.598 99.983 192.507 100.153C193.426 100.314 194.311 100.651 195.163 101.162C196.025 101.673 196.74 102.445 197.308 103.477C197.876 104.509 198.161 105.892 198.161 107.625V122H194.808V119.045H194.638C194.411 119.519 194.032 120.026 193.501 120.565C192.971 121.105 192.266 121.564 191.385 121.943C190.504 122.322 189.429 122.511 188.161 122.511ZM188.672 119.5C189.998 119.5 191.115 119.24 192.024 118.719C192.943 118.198 193.634 117.526 194.098 116.702C194.571 115.878 194.808 115.011 194.808 114.102V111.034C194.666 111.205 194.354 111.361 193.871 111.503C193.397 111.635 192.848 111.754 192.223 111.858C191.607 111.953 191.006 112.038 190.419 112.114C189.841 112.18 189.373 112.237 189.013 112.284C188.142 112.398 187.327 112.582 186.57 112.838C185.821 113.084 185.215 113.458 184.751 113.96C184.297 114.453 184.07 115.125 184.07 115.977C184.07 117.142 184.5 118.023 185.362 118.619C186.233 119.206 187.337 119.5 188.672 119.5ZM123.011 205.727C123.011 202.148 123.475 198.857 124.403 195.855C125.341 192.844 126.676 190.074 128.409 187.545H131.364C130.682 188.483 130.043 189.638 129.446 191.011C128.859 192.375 128.343 193.876 127.898 195.514C127.453 197.143 127.102 198.829 126.847 200.571C126.6 202.313 126.477 204.032 126.477 205.727C126.477 207.981 126.695 210.268 127.131 212.588C127.566 214.908 128.153 217.062 128.892 219.051C129.631 221.04 130.455 222.659 131.364 223.909H128.409C126.676 221.381 125.341 218.616 124.403 215.614C123.475 212.602 123.011 209.307 123.011 205.727ZM144.705 218.455C142.66 218.455 140.898 217.972 139.421 217.006C137.944 216.04 136.808 214.709 136.012 213.014C135.217 211.319 134.819 209.383 134.819 207.205C134.819 204.989 135.226 203.033 136.04 201.338C136.864 199.634 138.01 198.303 139.478 197.347C140.955 196.381 142.679 195.898 144.648 195.898C146.183 195.898 147.565 196.182 148.796 196.75C150.027 197.318 151.036 198.114 151.822 199.136C152.608 200.159 153.095 201.352 153.285 202.716H149.933C149.677 201.722 149.109 200.841 148.228 200.074C147.357 199.297 146.183 198.909 144.705 198.909C143.398 198.909 142.253 199.25 141.268 199.932C140.292 200.604 139.53 201.556 138.981 202.787C138.441 204.009 138.171 205.443 138.171 207.091C138.171 208.777 138.436 210.244 138.967 211.494C139.506 212.744 140.264 213.715 141.239 214.406C142.224 215.098 143.379 215.443 144.705 215.443C145.576 215.443 146.367 215.292 147.077 214.989C147.788 214.686 148.389 214.25 148.881 213.682C149.374 213.114 149.724 212.432 149.933 211.636H153.285C153.095 212.924 152.627 214.084 151.879 215.116C151.14 216.139 150.16 216.954 148.938 217.56C147.726 218.156 146.315 218.455 144.705 218.455ZM157.56 218V215.443L169.947 199.534V199.307H157.958V196.182H174.265V198.852L162.219 214.648V214.875H174.663V218H157.56ZM186.985 205.727C186.985 209.307 186.516 212.602 185.579 215.614C184.651 218.616 183.32 221.381 181.587 223.909H178.633C179.315 222.972 179.949 221.816 180.536 220.443C181.133 219.08 181.654 217.583 182.099 215.955C182.544 214.316 182.889 212.626 183.136 210.884C183.391 209.132 183.519 207.413 183.519 205.727C183.519 203.473 183.301 201.187 182.866 198.866C182.43 196.546 181.843 194.392 181.104 192.403C180.366 190.415 179.542 188.795 178.633 187.545H181.587C183.32 190.074 184.651 192.844 185.579 195.855C186.516 198.857 186.985 202.148 186.985 205.727Z" fill="#F1D95B"/>
</svg>
