<svg width="310" height="310" viewBox="0 0 310 310" fill="none" xmlns="http://www.w3.org/2000/svg">
<rect x="2.5" y="2.5" width="305" height="305" rx="17.5" fill="black"/>
<rect x="2.5" y="2.5" width="305" height="305" rx="17.5" stroke="#F1D95B" stroke-width="5"/>
<path d="M106.999 122V92.9091H116.829C119.111 92.9091 120.977 93.321 122.425 94.1449C123.884 94.9593 124.963 96.0625 125.664 97.4545C126.365 98.8466 126.715 100.4 126.715 102.114C126.715 103.828 126.365 105.385 125.664 106.787C124.973 108.188 123.903 109.306 122.454 110.139C121.005 110.963 119.149 111.375 116.886 111.375H109.84V108.25H116.772C118.335 108.25 119.589 107.98 120.536 107.44C121.483 106.901 122.17 106.171 122.596 105.253C123.031 104.325 123.249 103.278 123.249 102.114C123.249 100.949 123.031 99.9072 122.596 98.9886C122.17 98.0701 121.478 97.3504 120.522 96.8295C119.566 96.2992 118.297 96.0341 116.715 96.0341H110.522V122H106.999ZM138.356 122.511C136.973 122.511 135.719 122.251 134.592 121.73C133.465 121.2 132.57 120.438 131.907 119.443C131.244 118.439 130.913 117.227 130.913 115.807C130.913 114.557 131.159 113.544 131.651 112.767C132.144 111.981 132.802 111.366 133.626 110.92C134.45 110.475 135.359 110.144 136.353 109.926C137.357 109.699 138.365 109.519 139.379 109.386C140.704 109.216 141.779 109.088 142.603 109.003C143.436 108.908 144.042 108.752 144.421 108.534C144.809 108.316 145.004 107.937 145.004 107.398V107.284C145.004 105.883 144.62 104.794 143.853 104.017C143.095 103.241 141.945 102.852 140.401 102.852C138.801 102.852 137.546 103.203 136.637 103.903C135.728 104.604 135.089 105.352 134.719 106.148L131.538 105.011C132.106 103.686 132.863 102.653 133.81 101.915C134.767 101.167 135.808 100.646 136.935 100.352C138.072 100.049 139.189 99.8977 140.288 99.8977C140.988 99.8977 141.793 99.983 142.702 100.153C143.621 100.314 144.506 100.651 145.359 101.162C146.22 101.673 146.935 102.445 147.504 103.477C148.072 104.509 148.356 105.892 148.356 107.625V122H145.004V119.045H144.833C144.606 119.519 144.227 120.026 143.697 120.565C143.166 121.105 142.461 121.564 141.58 121.943C140.7 122.322 139.625 122.511 138.356 122.511ZM138.867 119.5C140.193 119.5 141.31 119.24 142.219 118.719C143.138 118.198 143.829 117.526 144.293 116.702C144.767 115.878 145.004 115.011 145.004 114.102V111.034C144.862 111.205 144.549 111.361 144.066 111.503C143.593 111.635 143.043 111.754 142.418 111.858C141.803 111.953 141.201 112.038 140.614 112.114C140.037 112.18 139.568 112.237 139.208 112.284C138.337 112.398 137.522 112.582 136.765 112.838C136.017 113.084 135.411 113.458 134.947 113.96C134.492 114.453 134.265 115.125 134.265 115.977C134.265 117.142 134.696 118.023 135.558 118.619C136.429 119.206 137.532 119.5 138.867 119.5ZM157.827 92.9091V122H154.474V92.9091H157.827ZM173.114 122.455C171.012 122.455 169.199 121.991 167.674 121.062C166.159 120.125 164.989 118.818 164.165 117.142C163.351 115.456 162.944 113.496 162.944 111.261C162.944 109.027 163.351 107.057 164.165 105.352C164.989 103.638 166.135 102.303 167.603 101.347C169.08 100.381 170.804 99.8977 172.773 99.8977C173.91 99.8977 175.032 100.087 176.14 100.466C177.248 100.845 178.256 101.46 179.165 102.312C180.075 103.155 180.799 104.273 181.339 105.665C181.879 107.057 182.148 108.771 182.148 110.807V112.227H165.33V109.33H178.739C178.739 108.098 178.493 107 178.001 106.034C177.518 105.068 176.826 104.306 175.927 103.747C175.037 103.188 173.986 102.909 172.773 102.909C171.438 102.909 170.283 103.241 169.308 103.903C168.342 104.557 167.598 105.409 167.077 106.46C166.557 107.511 166.296 108.638 166.296 109.841V111.773C166.296 113.42 166.58 114.817 167.148 115.963C167.726 117.099 168.526 117.966 169.549 118.562C170.572 119.15 171.76 119.443 173.114 119.443C173.995 119.443 174.79 119.32 175.501 119.074C176.22 118.818 176.841 118.439 177.362 117.938C177.882 117.426 178.285 116.792 178.569 116.034L181.808 116.943C181.467 118.042 180.894 119.008 180.089 119.841C179.284 120.665 178.29 121.309 177.106 121.773C175.922 122.227 174.592 122.455 173.114 122.455ZM196.112 122.455C194.066 122.455 192.305 121.972 190.827 121.006C189.35 120.04 188.214 118.709 187.418 117.014C186.623 115.319 186.225 113.383 186.225 111.205C186.225 108.989 186.632 107.033 187.447 105.338C188.271 103.634 189.416 102.303 190.884 101.347C192.362 100.381 194.085 99.8977 196.055 99.8977C197.589 99.8977 198.971 100.182 200.202 100.75C201.433 101.318 202.442 102.114 203.228 103.136C204.014 104.159 204.502 105.352 204.691 106.716H201.339C201.083 105.722 200.515 104.841 199.634 104.074C198.763 103.297 197.589 102.909 196.112 102.909C194.805 102.909 193.659 103.25 192.674 103.932C191.699 104.604 190.936 105.556 190.387 106.787C189.847 108.009 189.577 109.443 189.577 111.091C189.577 112.777 189.843 114.244 190.373 115.494C190.913 116.744 191.67 117.715 192.646 118.406C193.63 119.098 194.786 119.443 196.112 119.443C196.983 119.443 197.773 119.292 198.484 118.989C199.194 118.686 199.795 118.25 200.288 117.682C200.78 117.114 201.13 116.432 201.339 115.636H204.691C204.502 116.924 204.033 118.084 203.285 119.116C202.546 120.139 201.566 120.954 200.344 121.56C199.132 122.156 197.721 122.455 196.112 122.455ZM123.011 205.727C123.011 202.148 123.475 198.857 124.403 195.855C125.341 192.844 126.676 190.074 128.409 187.545H131.364C130.682 188.483 130.043 189.638 129.446 191.011C128.859 192.375 128.343 193.876 127.898 195.514C127.453 197.143 127.102 198.829 126.847 200.571C126.6 202.313 126.477 204.032 126.477 205.727C126.477 207.981 126.695 210.268 127.131 212.588C127.566 214.908 128.153 217.062 128.892 219.051C129.631 221.04 130.455 222.659 131.364 223.909H128.409C126.676 221.381 125.341 218.616 124.403 215.614C123.475 212.602 123.011 209.307 123.011 205.727ZM144.705 218.455C142.66 218.455 140.898 217.972 139.421 217.006C137.944 216.04 136.808 214.709 136.012 213.014C135.217 211.319 134.819 209.383 134.819 207.205C134.819 204.989 135.226 203.033 136.04 201.338C136.864 199.634 138.01 198.303 139.478 197.347C140.955 196.381 142.679 195.898 144.648 195.898C146.183 195.898 147.565 196.182 148.796 196.75C150.027 197.318 151.036 198.114 151.822 199.136C152.608 200.159 153.095 201.352 153.285 202.716H149.933C149.677 201.722 149.109 200.841 148.228 200.074C147.357 199.297 146.183 198.909 144.705 198.909C143.398 198.909 142.253 199.25 141.268 199.932C140.292 200.604 139.53 201.556 138.981 202.787C138.441 204.009 138.171 205.443 138.171 207.091C138.171 208.777 138.436 210.244 138.967 211.494C139.506 212.744 140.264 213.715 141.239 214.406C142.224 215.098 143.379 215.443 144.705 215.443C145.576 215.443 146.367 215.292 147.077 214.989C147.788 214.686 148.389 214.25 148.881 213.682C149.374 213.114 149.724 212.432 149.933 211.636H153.285C153.095 212.924 152.627 214.084 151.879 215.116C151.14 216.139 150.16 216.954 148.938 217.56C147.726 218.156 146.315 218.455 144.705 218.455ZM157.56 218V215.443L169.947 199.534V199.307H157.958V196.182H174.265V198.852L162.219 214.648V214.875H174.663V218H157.56ZM186.985 205.727C186.985 209.307 186.516 212.602 185.579 215.614C184.651 218.616 183.32 221.381 181.587 223.909H178.633C179.315 222.972 179.949 221.816 180.536 220.443C181.133 219.08 181.654 217.583 182.099 215.955C182.544 214.316 182.889 212.626 183.136 210.884C183.391 209.132 183.519 207.413 183.519 205.727C183.519 203.473 183.301 201.187 182.866 198.866C182.43 196.546 181.843 194.392 181.104 192.403C180.366 190.415 179.542 188.795 178.633 187.545H181.587C183.32 190.074 184.651 192.844 185.579 195.855C186.516 198.857 186.985 202.148 186.985 205.727Z" fill="#F1D95B"/>
</svg>
