<svg width="310" height="310" viewBox="0 0 310 310" fill="none" xmlns="http://www.w3.org/2000/svg">
<rect x="2.5" y="2.5" width="305" height="305" rx="17.5" fill="black"/>
<rect x="2.5" y="2.5" width="305" height="305" rx="17.5" stroke="#F1D95B" stroke-width="5"/>
<path d="M107.674 122L99.7195 92.9091H103.299L109.379 116.602H109.663L115.856 92.9091H119.833L126.026 116.602H126.31L132.39 92.9091H135.969L128.015 122H124.379L117.958 98.8182H117.731L111.31 122H107.674ZM144.293 122.511C142.911 122.511 141.656 122.251 140.529 121.73C139.402 121.2 138.507 120.438 137.844 119.443C137.182 118.439 136.85 117.227 136.85 115.807C136.85 114.557 137.096 113.544 137.589 112.767C138.081 111.981 138.739 111.366 139.563 110.92C140.387 110.475 141.296 110.144 142.29 109.926C143.294 109.699 144.303 109.519 145.316 109.386C146.642 109.216 147.717 109.088 148.54 109.003C149.374 108.908 149.98 108.752 150.359 108.534C150.747 108.316 150.941 107.937 150.941 107.398V107.284C150.941 105.883 150.558 104.794 149.79 104.017C149.033 103.241 147.882 102.852 146.339 102.852C144.738 102.852 143.484 103.203 142.575 103.903C141.665 104.604 141.026 105.352 140.657 106.148L137.475 105.011C138.043 103.686 138.801 102.653 139.748 101.915C140.704 101.167 141.746 100.646 142.873 100.352C144.009 100.049 145.127 99.8977 146.225 99.8977C146.926 99.8977 147.731 99.983 148.64 100.153C149.558 100.314 150.444 100.651 151.296 101.162C152.158 101.673 152.873 102.445 153.441 103.477C154.009 104.509 154.293 105.892 154.293 107.625V122H150.941V119.045H150.771C150.543 119.519 150.165 120.026 149.634 120.565C149.104 121.105 148.398 121.564 147.518 121.943C146.637 122.322 145.562 122.511 144.293 122.511ZM144.805 119.5C146.13 119.5 147.248 119.24 148.157 118.719C149.076 118.198 149.767 117.526 150.231 116.702C150.704 115.878 150.941 115.011 150.941 114.102V111.034C150.799 111.205 150.487 111.361 150.004 111.503C149.53 111.635 148.981 111.754 148.356 111.858C147.74 111.953 147.139 112.038 146.552 112.114C145.974 112.18 145.505 112.237 145.146 112.284C144.274 112.398 143.46 112.582 142.702 112.838C141.954 113.084 141.348 113.458 140.884 113.96C140.43 114.453 140.202 115.125 140.202 115.977C140.202 117.142 140.633 118.023 141.495 118.619C142.366 119.206 143.469 119.5 144.805 119.5ZM163.764 92.9091V122H160.412V92.9091H163.764ZM173.029 114.045L172.972 109.898H173.654L183.2 100.182H187.347L177.177 110.466H176.893L173.029 114.045ZM169.904 122V92.9091H173.256V122H169.904ZM183.768 122L175.245 111.205L177.631 108.875L188.029 122H183.768ZM198.082 122.511C196.7 122.511 195.445 122.251 194.318 121.73C193.191 121.2 192.296 120.438 191.634 119.443C190.971 118.439 190.639 117.227 190.639 115.807C190.639 114.557 190.885 113.544 191.378 112.767C191.87 111.981 192.528 111.366 193.352 110.92C194.176 110.475 195.085 110.144 196.08 109.926C197.083 109.699 198.092 109.519 199.105 109.386C200.431 109.216 201.506 109.088 202.33 109.003C203.163 108.908 203.769 108.752 204.148 108.534C204.536 108.316 204.73 107.937 204.73 107.398V107.284C204.73 105.883 204.347 104.794 203.58 104.017C202.822 103.241 201.671 102.852 200.128 102.852C198.527 102.852 197.273 103.203 196.364 103.903C195.455 104.604 194.815 105.352 194.446 106.148L191.264 105.011C191.832 103.686 192.59 102.653 193.537 101.915C194.493 101.167 195.535 100.646 196.662 100.352C197.798 100.049 198.916 99.8977 200.014 99.8977C200.715 99.8977 201.52 99.983 202.429 100.153C203.348 100.314 204.233 100.651 205.085 101.162C205.947 101.673 206.662 102.445 207.23 103.477C207.798 104.509 208.082 105.892 208.082 107.625V122H204.73V119.045H204.56C204.332 119.519 203.954 120.026 203.423 120.565C202.893 121.105 202.188 121.564 201.307 121.943C200.426 122.322 199.351 122.511 198.082 122.511ZM198.594 119.5C199.92 119.5 201.037 119.24 201.946 118.719C202.865 118.198 203.556 117.526 204.02 116.702C204.493 115.878 204.73 115.011 204.73 114.102V111.034C204.588 111.205 204.276 111.361 203.793 111.503C203.319 111.635 202.77 111.754 202.145 111.858C201.529 111.953 200.928 112.038 200.341 112.114C199.763 112.18 199.295 112.237 198.935 112.284C198.063 112.398 197.249 112.582 196.491 112.838C195.743 113.084 195.137 113.458 194.673 113.96C194.219 114.453 193.991 115.125 193.991 115.977C193.991 117.142 194.422 118.023 195.284 118.619C196.155 119.206 197.259 119.5 198.594 119.5ZM127.836 205.727C127.836 202.148 128.3 198.857 129.228 195.855C130.165 192.844 131.5 190.074 133.233 187.545H136.188C135.506 188.483 134.867 189.638 134.27 191.011C133.683 192.375 133.167 193.876 132.722 195.514C132.277 197.143 131.926 198.829 131.671 200.571C131.425 202.313 131.301 204.032 131.301 205.727C131.301 207.981 131.519 210.268 131.955 212.588C132.391 214.908 132.978 217.062 133.716 219.051C134.455 221.04 135.279 222.659 136.188 223.909H133.233C131.5 221.381 130.165 218.616 129.228 215.614C128.3 212.602 127.836 209.307 127.836 205.727ZM141.135 226.182V196.182H144.373V199.648H144.771C145.017 199.269 145.358 198.786 145.794 198.199C146.239 197.602 146.873 197.072 147.697 196.608C148.53 196.134 149.657 195.898 151.078 195.898C152.915 195.898 154.534 196.357 155.936 197.276C157.337 198.194 158.431 199.496 159.217 201.182C160.003 202.867 160.396 204.856 160.396 207.148C160.396 209.458 160.003 211.461 159.217 213.156C158.431 214.842 157.342 216.149 155.95 217.077C154.558 217.995 152.953 218.455 151.135 218.455C149.733 218.455 148.611 218.223 147.768 217.759C146.925 217.285 146.277 216.75 145.822 216.153C145.368 215.547 145.017 215.045 144.771 214.648H144.487V226.182H141.135ZM144.43 207.091C144.43 208.739 144.672 210.192 145.154 211.452C145.637 212.702 146.343 213.682 147.271 214.392C148.199 215.093 149.335 215.443 150.68 215.443C152.082 215.443 153.251 215.074 154.189 214.335C155.136 213.587 155.846 212.583 156.319 211.324C156.802 210.055 157.044 208.644 157.044 207.091C157.044 205.557 156.807 204.174 156.333 202.943C155.869 201.703 155.164 200.723 154.217 200.003C153.279 199.274 152.1 198.909 150.68 198.909C149.316 198.909 148.171 199.255 147.243 199.946C146.315 200.628 145.614 201.584 145.14 202.815C144.667 204.037 144.43 205.462 144.43 207.091ZM168.862 188.909V218H165.51V188.909H168.862ZM182.161 205.727C182.161 209.307 181.692 212.602 180.755 215.614C179.827 218.616 178.496 221.381 176.763 223.909H173.809C174.49 222.972 175.125 221.816 175.712 220.443C176.309 219.08 176.829 217.583 177.275 215.955C177.72 214.316 178.065 212.626 178.311 210.884C178.567 209.132 178.695 207.413 178.695 205.727C178.695 203.473 178.477 201.187 178.042 198.866C177.606 196.546 177.019 194.392 176.28 192.403C175.542 190.415 174.718 188.795 173.809 187.545H176.763C178.496 190.074 179.827 192.844 180.755 195.855C181.692 198.857 182.161 202.148 182.161 205.727Z" fill="#F1D95B"/>
</svg>
