<svg width="300" height="300" viewBox="0 0 300 300" fill="none" xmlns="http://www.w3.org/2000/svg">
<rect x="2.5" y="2.5" width="295" height="295" rx="12.5" fill="black"/>
<rect x="2.5" y="2.5" width="295" height="295" rx="12.5" stroke="#F1D95B" stroke-width="5"/>
<path d="M104.052 87.9091L112.688 112.398H113.029L121.665 87.9091H125.359L114.677 117H111.04L100.359 87.9091H104.052ZM133.825 117.511C132.442 117.511 131.187 117.251 130.06 116.73C128.933 116.2 128.039 115.438 127.376 114.443C126.713 113.439 126.381 112.227 126.381 110.807C126.381 109.557 126.628 108.544 127.12 107.767C127.612 106.981 128.271 106.366 129.094 105.92C129.918 105.475 130.827 105.144 131.822 104.926C132.826 104.699 133.834 104.519 134.847 104.386C136.173 104.216 137.248 104.088 138.072 104.003C138.905 103.908 139.511 103.752 139.89 103.534C140.278 103.316 140.472 102.937 140.472 102.398V102.284C140.472 100.883 140.089 99.7936 139.322 99.017C138.564 98.2405 137.414 97.8523 135.87 97.8523C134.27 97.8523 133.015 98.2027 132.106 98.9034C131.197 99.6042 130.558 100.352 130.188 101.148L127.006 100.011C127.575 98.6856 128.332 97.6534 129.279 96.9148C130.236 96.1667 131.277 95.6458 132.404 95.3523C133.54 95.0492 134.658 94.8977 135.756 94.8977C136.457 94.8977 137.262 94.983 138.171 95.1534C139.09 95.3144 139.975 95.6506 140.827 96.1619C141.689 96.6733 142.404 97.4451 142.972 98.4773C143.54 99.5095 143.825 100.892 143.825 102.625V117H140.472V114.045H140.302C140.075 114.519 139.696 115.026 139.165 115.565C138.635 116.105 137.93 116.564 137.049 116.943C136.168 117.322 135.094 117.511 133.825 117.511ZM134.336 114.5C135.662 114.5 136.779 114.24 137.688 113.719C138.607 113.198 139.298 112.526 139.762 111.702C140.236 110.878 140.472 110.011 140.472 109.102V106.034C140.33 106.205 140.018 106.361 139.535 106.503C139.061 106.635 138.512 106.754 137.887 106.858C137.272 106.953 136.67 107.038 136.083 107.114C135.505 107.18 135.037 107.237 134.677 107.284C133.806 107.398 132.991 107.582 132.234 107.838C131.486 108.084 130.879 108.458 130.415 108.96C129.961 109.453 129.734 110.125 129.734 110.977C129.734 112.142 130.165 113.023 131.026 113.619C131.897 114.206 133.001 114.5 134.336 114.5ZM134.45 92.2273L137.915 85.6364H141.836L137.404 92.2273H134.45ZM153.295 87.9091V117H149.943V87.9091H153.295ZM162.56 109.045L162.504 104.898H163.185L172.731 95.1818H176.879L166.708 105.466H166.424L162.56 109.045ZM159.435 117V87.9091H162.788V117H159.435ZM173.299 117L164.776 106.205L167.163 103.875L177.56 117H173.299ZM187.614 117.511C186.231 117.511 184.976 117.251 183.849 116.73C182.723 116.2 181.828 115.438 181.165 114.443C180.502 113.439 180.17 112.227 180.17 110.807C180.17 109.557 180.417 108.544 180.909 107.767C181.402 106.981 182.06 106.366 182.884 105.92C183.707 105.475 184.616 105.144 185.611 104.926C186.615 104.699 187.623 104.519 188.636 104.386C189.962 104.216 191.037 104.088 191.861 104.003C192.694 103.908 193.3 103.752 193.679 103.534C194.067 103.316 194.261 102.937 194.261 102.398V102.284C194.261 100.883 193.878 99.7936 193.111 99.017C192.353 98.2405 191.203 97.8523 189.659 97.8523C188.059 97.8523 186.804 98.2027 185.895 98.9034C184.986 99.6042 184.347 100.352 183.977 101.148L180.795 100.011C181.364 98.6856 182.121 97.6534 183.068 96.9148C184.025 96.1667 185.066 95.6458 186.193 95.3523C187.33 95.0492 188.447 94.8977 189.545 94.8977C190.246 94.8977 191.051 94.983 191.96 95.1534C192.879 95.3144 193.764 95.6506 194.616 96.1619C195.478 96.6733 196.193 97.4451 196.761 98.4773C197.33 99.5095 197.614 100.892 197.614 102.625V117H194.261V114.045H194.091C193.864 114.519 193.485 115.026 192.955 115.565C192.424 116.105 191.719 116.564 190.838 116.943C189.957 117.322 188.883 117.511 187.614 117.511ZM188.125 114.5C189.451 114.5 190.568 114.24 191.477 113.719C192.396 113.198 193.087 112.526 193.551 111.702C194.025 110.878 194.261 110.011 194.261 109.102V106.034C194.119 106.205 193.807 106.361 193.324 106.503C192.85 106.635 192.301 106.754 191.676 106.858C191.061 106.953 190.459 107.038 189.872 107.114C189.295 107.18 188.826 107.237 188.466 107.284C187.595 107.398 186.78 107.582 186.023 107.838C185.275 108.084 184.669 108.458 184.205 108.96C183.75 109.453 183.523 110.125 183.523 110.977C183.523 112.142 183.954 113.023 184.815 113.619C185.687 114.206 186.79 114.5 188.125 114.5ZM118.011 200.727C118.011 197.148 118.475 193.857 119.403 190.855C120.341 187.844 121.676 185.074 123.409 182.545H126.364C125.682 183.483 125.043 184.638 124.446 186.011C123.859 187.375 123.343 188.876 122.898 190.514C122.453 192.143 122.102 193.829 121.847 195.571C121.6 197.313 121.477 199.032 121.477 200.727C121.477 202.981 121.695 205.268 122.131 207.588C122.566 209.908 123.153 212.062 123.892 214.051C124.631 216.04 125.455 217.659 126.364 218.909H123.409C121.676 216.381 120.341 213.616 119.403 210.614C118.475 207.602 118.011 204.307 118.011 200.727ZM139.705 213.455C137.66 213.455 135.898 212.972 134.421 212.006C132.944 211.04 131.808 209.709 131.012 208.014C130.217 206.319 129.819 204.383 129.819 202.205C129.819 199.989 130.226 198.033 131.04 196.338C131.864 194.634 133.01 193.303 134.478 192.347C135.955 191.381 137.679 190.898 139.648 190.898C141.183 190.898 142.565 191.182 143.796 191.75C145.027 192.318 146.036 193.114 146.822 194.136C147.608 195.159 148.095 196.352 148.285 197.716H144.933C144.677 196.722 144.109 195.841 143.228 195.074C142.357 194.297 141.183 193.909 139.705 193.909C138.398 193.909 137.253 194.25 136.268 194.932C135.292 195.604 134.53 196.556 133.981 197.787C133.441 199.009 133.171 200.443 133.171 202.091C133.171 203.777 133.436 205.244 133.967 206.494C134.506 207.744 135.264 208.715 136.239 209.406C137.224 210.098 138.379 210.443 139.705 210.443C140.576 210.443 141.367 210.292 142.077 209.989C142.788 209.686 143.389 209.25 143.881 208.682C144.374 208.114 144.724 207.432 144.933 206.636H148.285C148.095 207.924 147.627 209.084 146.879 210.116C146.14 211.139 145.16 211.954 143.938 212.56C142.726 213.156 141.315 213.455 139.705 213.455ZM152.56 213V210.443L164.947 194.534V194.307H152.958V191.182H169.265V193.852L157.219 209.648V209.875H169.663V213H152.56ZM181.985 200.727C181.985 204.307 181.516 207.602 180.579 210.614C179.651 213.616 178.32 216.381 176.587 218.909H173.633C174.315 217.972 174.949 216.816 175.536 215.443C176.133 214.08 176.654 212.583 177.099 210.955C177.544 209.316 177.889 207.626 178.136 205.884C178.391 204.132 178.519 202.413 178.519 200.727C178.519 198.473 178.301 196.187 177.866 193.866C177.43 191.546 176.843 189.392 176.104 187.403C175.366 185.415 174.542 183.795 173.633 182.545H176.587C178.32 185.074 179.651 187.844 180.579 190.855C181.516 193.857 181.985 197.148 181.985 200.727Z" fill="#F1D95B"/>
</svg>
