<svg width="310" height="310" viewBox="0 0 310 310" fill="none" xmlns="http://www.w3.org/2000/svg">
<rect x="2.5" y="2.5" width="305" height="305" rx="17.5" fill="black"/>
<rect x="2.5" y="2.5" width="305" height="305" rx="17.5" stroke="#F1D95B" stroke-width="5"/>
<path d="M109.052 92.9091L117.688 117.398H118.029L126.665 92.9091H130.359L119.677 122H116.04L105.359 92.9091H109.052ZM138.825 122.511C137.442 122.511 136.187 122.251 135.06 121.73C133.933 121.2 133.039 120.438 132.376 119.443C131.713 118.439 131.381 117.227 131.381 115.807C131.381 114.557 131.628 113.544 132.12 112.767C132.612 111.981 133.271 111.366 134.094 110.92C134.918 110.475 135.827 110.144 136.822 109.926C137.826 109.699 138.834 109.519 139.847 109.386C141.173 109.216 142.248 109.088 143.072 109.003C143.905 108.908 144.511 108.752 144.89 108.534C145.278 108.316 145.472 107.937 145.472 107.398V107.284C145.472 105.883 145.089 104.794 144.322 104.017C143.564 103.241 142.414 102.852 140.87 102.852C139.27 102.852 138.015 103.203 137.106 103.903C136.197 104.604 135.558 105.352 135.188 106.148L132.006 105.011C132.575 103.686 133.332 102.653 134.279 101.915C135.236 101.167 136.277 100.646 137.404 100.352C138.54 100.049 139.658 99.8977 140.756 99.8977C141.457 99.8977 142.262 99.983 143.171 100.153C144.09 100.314 144.975 100.651 145.827 101.162C146.689 101.673 147.404 102.445 147.972 103.477C148.54 104.509 148.825 105.892 148.825 107.625V122H145.472V119.045H145.302C145.075 119.519 144.696 120.026 144.165 120.565C143.635 121.105 142.93 121.564 142.049 121.943C141.168 122.322 140.094 122.511 138.825 122.511ZM139.336 119.5C140.662 119.5 141.779 119.24 142.688 118.719C143.607 118.198 144.298 117.526 144.762 116.702C145.236 115.878 145.472 115.011 145.472 114.102V111.034C145.33 111.205 145.018 111.361 144.535 111.503C144.061 111.635 143.512 111.754 142.887 111.858C142.272 111.953 141.67 112.038 141.083 112.114C140.505 112.18 140.037 112.237 139.677 112.284C138.806 112.398 137.991 112.582 137.234 112.838C136.486 113.084 135.879 113.458 135.415 113.96C134.961 114.453 134.734 115.125 134.734 115.977C134.734 117.142 135.165 118.023 136.026 118.619C136.897 119.206 138.001 119.5 139.336 119.5ZM139.45 97.2273L142.915 90.6364H146.836L142.404 97.2273H139.45ZM158.295 92.9091V122H154.943V92.9091H158.295ZM167.56 114.045L167.504 109.898H168.185L177.731 100.182H181.879L171.708 110.466H171.424L167.56 114.045ZM164.435 122V92.9091H167.788V122H164.435ZM178.299 122L169.776 111.205L172.163 108.875L182.56 122H178.299ZM192.614 122.511C191.231 122.511 189.976 122.251 188.849 121.73C187.723 121.2 186.828 120.438 186.165 119.443C185.502 118.439 185.17 117.227 185.17 115.807C185.17 114.557 185.417 113.544 185.909 112.767C186.402 111.981 187.06 111.366 187.884 110.92C188.707 110.475 189.616 110.144 190.611 109.926C191.615 109.699 192.623 109.519 193.636 109.386C194.962 109.216 196.037 109.088 196.861 109.003C197.694 108.908 198.3 108.752 198.679 108.534C199.067 108.316 199.261 107.937 199.261 107.398V107.284C199.261 105.883 198.878 104.794 198.111 104.017C197.353 103.241 196.203 102.852 194.659 102.852C193.059 102.852 191.804 103.203 190.895 103.903C189.986 104.604 189.347 105.352 188.977 106.148L185.795 105.011C186.364 103.686 187.121 102.653 188.068 101.915C189.025 101.167 190.066 100.646 191.193 100.352C192.33 100.049 193.447 99.8977 194.545 99.8977C195.246 99.8977 196.051 99.983 196.96 100.153C197.879 100.314 198.764 100.651 199.616 101.162C200.478 101.673 201.193 102.445 201.761 103.477C202.33 104.509 202.614 105.892 202.614 107.625V122H199.261V119.045H199.091C198.864 119.519 198.485 120.026 197.955 120.565C197.424 121.105 196.719 121.564 195.838 121.943C194.957 122.322 193.883 122.511 192.614 122.511ZM193.125 119.5C194.451 119.5 195.568 119.24 196.477 118.719C197.396 118.198 198.087 117.526 198.551 116.702C199.025 115.878 199.261 115.011 199.261 114.102V111.034C199.119 111.205 198.807 111.361 198.324 111.503C197.85 111.635 197.301 111.754 196.676 111.858C196.061 111.953 195.459 112.038 194.872 112.114C194.295 112.18 193.826 112.237 193.466 112.284C192.595 112.398 191.78 112.582 191.023 112.838C190.275 113.084 189.669 113.458 189.205 113.96C188.75 114.453 188.523 115.125 188.523 115.977C188.523 117.142 188.954 118.023 189.815 118.619C190.687 119.206 191.79 119.5 193.125 119.5ZM123.011 205.727C123.011 202.148 123.475 198.857 124.403 195.855C125.341 192.844 126.676 190.074 128.409 187.545H131.364C130.682 188.483 130.043 189.638 129.446 191.011C128.859 192.375 128.343 193.876 127.898 195.514C127.453 197.143 127.102 198.829 126.847 200.571C126.6 202.313 126.477 204.032 126.477 205.727C126.477 207.981 126.695 210.268 127.131 212.588C127.566 214.908 128.153 217.062 128.892 219.051C129.631 221.04 130.455 222.659 131.364 223.909H128.409C126.676 221.381 125.341 218.616 124.403 215.614C123.475 212.602 123.011 209.307 123.011 205.727ZM144.705 218.455C142.66 218.455 140.898 217.972 139.421 217.006C137.944 216.04 136.808 214.709 136.012 213.014C135.217 211.319 134.819 209.383 134.819 207.205C134.819 204.989 135.226 203.033 136.04 201.338C136.864 199.634 138.01 198.303 139.478 197.347C140.955 196.381 142.679 195.898 144.648 195.898C146.183 195.898 147.565 196.182 148.796 196.75C150.027 197.318 151.036 198.114 151.822 199.136C152.608 200.159 153.095 201.352 153.285 202.716H149.933C149.677 201.722 149.109 200.841 148.228 200.074C147.357 199.297 146.183 198.909 144.705 198.909C143.398 198.909 142.253 199.25 141.268 199.932C140.292 200.604 139.53 201.556 138.981 202.787C138.441 204.009 138.171 205.443 138.171 207.091C138.171 208.777 138.436 210.244 138.967 211.494C139.506 212.744 140.264 213.715 141.239 214.406C142.224 215.098 143.379 215.443 144.705 215.443C145.576 215.443 146.367 215.292 147.077 214.989C147.788 214.686 148.389 214.25 148.881 213.682C149.374 213.114 149.724 212.432 149.933 211.636H153.285C153.095 212.924 152.627 214.084 151.879 215.116C151.14 216.139 150.16 216.954 148.938 217.56C147.726 218.156 146.315 218.455 144.705 218.455ZM157.56 218V215.443L169.947 199.534V199.307H157.958V196.182H174.265V198.852L162.219 214.648V214.875H174.663V218H157.56ZM186.985 205.727C186.985 209.307 186.516 212.602 185.579 215.614C184.651 218.616 183.32 221.381 181.587 223.909H178.633C179.315 222.972 179.949 221.816 180.536 220.443C181.133 219.08 181.654 217.583 182.099 215.955C182.544 214.316 182.889 212.626 183.136 210.884C183.391 209.132 183.519 207.413 183.519 205.727C183.519 203.473 183.301 201.187 182.866 198.866C182.43 196.546 181.843 194.392 181.104 192.403C180.366 190.415 179.542 188.795 178.633 187.545H181.587C183.32 190.074 184.651 192.844 185.579 195.855C186.516 198.857 186.985 202.148 186.985 205.727Z" fill="#F1D95B"/>
</svg>
