<svg width="310" height="310" viewBox="0 0 310 310" fill="none" xmlns="http://www.w3.org/2000/svg">
<rect x="2.5" y="2.5" width="305" height="305" rx="17.5" fill="black"/>
<rect x="2.5" y="2.5" width="305" height="305" rx="17.5" stroke="#F1D95B" stroke-width="5"/>
<path d="M122.225 100.182C122.054 98.7424 121.363 97.625 120.151 96.8295C118.939 96.0341 117.452 95.6364 115.691 95.6364C114.403 95.6364 113.276 95.8447 112.31 96.2614C111.354 96.678 110.605 97.2509 110.066 97.9801C109.535 98.7093 109.27 99.5379 109.27 100.466C109.27 101.242 109.455 101.91 109.824 102.469C110.203 103.018 110.686 103.477 111.273 103.847C111.86 104.206 112.476 104.505 113.12 104.741C113.764 104.969 114.355 105.153 114.895 105.295L117.85 106.091C118.607 106.29 119.45 106.564 120.378 106.915C121.316 107.265 122.211 107.743 123.063 108.349C123.925 108.946 124.635 109.713 125.194 110.651C125.752 111.588 126.032 112.739 126.032 114.102C126.032 115.674 125.62 117.095 124.796 118.364C123.981 119.633 122.788 120.641 121.216 121.389C119.654 122.137 117.755 122.511 115.52 122.511C113.437 122.511 111.633 122.175 110.108 121.503C108.593 120.83 107.4 119.893 106.529 118.69C105.667 117.488 105.179 116.091 105.066 114.5H108.702C108.797 115.598 109.166 116.508 109.81 117.227C110.463 117.937 111.287 118.468 112.282 118.818C113.285 119.159 114.365 119.33 115.52 119.33C116.865 119.33 118.072 119.112 119.142 118.676C120.212 118.231 121.06 117.616 121.685 116.83C122.31 116.034 122.623 115.106 122.623 114.045C122.623 113.08 122.353 112.294 121.813 111.688C121.273 111.081 120.563 110.589 119.682 110.21C118.801 109.831 117.85 109.5 116.827 109.216L113.248 108.193C110.975 107.54 109.176 106.607 107.85 105.395C106.524 104.183 105.861 102.597 105.861 100.636C105.861 99.0076 106.301 97.5871 107.182 96.375C108.072 95.1534 109.266 94.2064 110.762 93.5341C112.267 92.8523 113.948 92.5114 115.804 92.5114C117.679 92.5114 119.346 92.8475 120.804 93.5199C122.263 94.1828 123.418 95.0919 124.27 96.2472C125.132 97.4025 125.587 98.714 125.634 100.182H122.225ZM134.494 114.045L134.437 109.898H135.119L144.664 100.182H148.812L138.642 110.466H138.358L134.494 114.045ZM131.369 122V92.9091H134.721V122H131.369ZM145.233 122L136.71 111.205L139.096 108.875L149.494 122H145.233ZM156.479 92.9091V122H153.127V92.9091H156.479ZM171.767 122.455C169.664 122.455 167.851 121.991 166.326 121.062C164.811 120.125 163.642 118.818 162.818 117.142C162.003 115.456 161.596 113.496 161.596 111.261C161.596 109.027 162.003 107.057 162.818 105.352C163.642 103.638 164.788 102.303 166.255 101.347C167.733 100.381 169.456 99.8977 171.426 99.8977C172.562 99.8977 173.684 100.087 174.792 100.466C175.9 100.845 176.909 101.46 177.818 102.312C178.727 103.155 179.451 104.273 179.991 105.665C180.531 107.057 180.801 108.771 180.801 110.807V112.227H163.983V109.33H177.392C177.392 108.098 177.145 107 176.653 106.034C176.17 105.068 175.479 104.306 174.579 103.747C173.689 103.188 172.638 102.909 171.426 102.909C170.091 102.909 168.935 103.241 167.96 103.903C166.994 104.557 166.251 105.409 165.73 106.46C165.209 107.511 164.949 108.638 164.949 109.841V111.773C164.949 113.42 165.233 114.817 165.801 115.963C166.378 117.099 167.179 117.966 168.201 118.562C169.224 119.15 170.413 119.443 171.767 119.443C172.647 119.443 173.443 119.32 174.153 119.074C174.873 118.818 175.493 118.439 176.014 117.938C176.535 117.426 176.937 116.792 177.221 116.034L180.46 116.943C180.119 118.042 179.546 119.008 178.741 119.841C177.936 120.665 176.942 121.309 175.758 121.773C174.574 122.227 173.244 122.455 171.767 122.455ZM185.9 130.182V100.182H189.139V103.648H189.537C189.783 103.269 190.124 102.786 190.559 102.199C191.004 101.602 191.639 101.072 192.463 100.608C193.296 100.134 194.423 99.8977 195.843 99.8977C197.681 99.8977 199.3 100.357 200.701 101.276C202.103 102.194 203.197 103.496 203.983 105.182C204.769 106.867 205.162 108.856 205.162 111.148C205.162 113.458 204.769 115.461 203.983 117.156C203.197 118.842 202.108 120.149 200.716 121.077C199.324 121.995 197.718 122.455 195.9 122.455C194.499 122.455 193.377 122.223 192.534 121.759C191.691 121.285 191.042 120.75 190.588 120.153C190.133 119.547 189.783 119.045 189.537 118.648H189.252V130.182H185.9ZM189.196 111.091C189.196 112.739 189.437 114.192 189.92 115.452C190.403 116.702 191.109 117.682 192.037 118.392C192.965 119.093 194.101 119.443 195.446 119.443C196.847 119.443 198.017 119.074 198.954 118.335C199.901 117.587 200.611 116.583 201.085 115.324C201.568 114.055 201.809 112.644 201.809 111.091C201.809 109.557 201.573 108.174 201.099 106.943C200.635 105.703 199.93 104.723 198.983 104.003C198.045 103.274 196.866 102.909 195.446 102.909C194.082 102.909 192.936 103.255 192.008 103.946C191.08 104.628 190.379 105.584 189.906 106.815C189.432 108.037 189.196 109.462 189.196 111.091ZM127.836 205.727C127.836 202.148 128.3 198.857 129.228 195.855C130.165 192.844 131.5 190.074 133.233 187.545H136.188C135.506 188.483 134.867 189.638 134.27 191.011C133.683 192.375 133.167 193.876 132.722 195.514C132.277 197.143 131.926 198.829 131.671 200.571C131.425 202.313 131.301 204.032 131.301 205.727C131.301 207.981 131.519 210.268 131.955 212.588C132.391 214.908 132.978 217.062 133.716 219.051C134.455 221.04 135.279 222.659 136.188 223.909H133.233C131.5 221.381 130.165 218.616 129.228 215.614C128.3 212.602 127.836 209.307 127.836 205.727ZM141.135 226.182V196.182H144.373V199.648H144.771C145.017 199.269 145.358 198.786 145.794 198.199C146.239 197.602 146.873 197.072 147.697 196.608C148.53 196.134 149.657 195.898 151.078 195.898C152.915 195.898 154.534 196.357 155.936 197.276C157.337 198.194 158.431 199.496 159.217 201.182C160.003 202.867 160.396 204.856 160.396 207.148C160.396 209.458 160.003 211.461 159.217 213.156C158.431 214.842 157.342 216.149 155.95 217.077C154.558 217.995 152.953 218.455 151.135 218.455C149.733 218.455 148.611 218.223 147.768 217.759C146.925 217.285 146.277 216.75 145.822 216.153C145.368 215.547 145.017 215.045 144.771 214.648H144.487V226.182H141.135ZM144.43 207.091C144.43 208.739 144.672 210.192 145.154 211.452C145.637 212.702 146.343 213.682 147.271 214.392C148.199 215.093 149.335 215.443 150.68 215.443C152.082 215.443 153.251 215.074 154.189 214.335C155.136 213.587 155.846 212.583 156.319 211.324C156.802 210.055 157.044 208.644 157.044 207.091C157.044 205.557 156.807 204.174 156.333 202.943C155.869 201.703 155.164 200.723 154.217 200.003C153.279 199.274 152.1 198.909 150.68 198.909C149.316 198.909 148.171 199.255 147.243 199.946C146.315 200.628 145.614 201.584 145.14 202.815C144.667 204.037 144.43 205.462 144.43 207.091ZM168.862 188.909V218H165.51V188.909H168.862ZM182.161 205.727C182.161 209.307 181.692 212.602 180.755 215.614C179.827 218.616 178.496 221.381 176.763 223.909H173.809C174.49 222.972 175.125 221.816 175.712 220.443C176.309 219.08 176.829 217.583 177.275 215.955C177.72 214.316 178.065 212.626 178.311 210.884C178.567 209.132 178.695 207.413 178.695 205.727C178.695 203.473 178.477 201.187 178.042 198.866C177.606 196.546 177.019 194.392 176.28 192.403C175.542 190.415 174.718 188.795 173.809 187.545H176.763C178.496 190.074 179.827 192.844 180.755 195.855C181.692 198.857 182.161 202.148 182.161 205.727Z" fill="#F1D95B"/>
</svg>
