<svg width="300" height="300" viewBox="0 0 300 300" fill="none" xmlns="http://www.w3.org/2000/svg">
<rect x="2.5" y="2.5" width="295" height="295" rx="12.5" fill="black"/>
<rect x="2.5" y="2.5" width="295" height="295" rx="12.5" stroke="#F1D95B" stroke-width="5"/>
<path d="M117.225 95.1818C117.054 93.7424 116.363 92.625 115.151 91.8295C113.939 91.0341 112.452 90.6364 110.691 90.6364C109.403 90.6364 108.276 90.8447 107.31 91.2614C106.354 91.678 105.605 92.2509 105.066 92.9801C104.535 93.7093 104.27 94.5379 104.27 95.4659C104.27 96.2424 104.455 96.91 104.824 97.4688C105.203 98.018 105.686 98.4773 106.273 98.8466C106.86 99.2064 107.476 99.5047 108.12 99.7415C108.764 99.9687 109.355 100.153 109.895 100.295L112.85 101.091C113.607 101.29 114.45 101.564 115.378 101.915C116.316 102.265 117.211 102.743 118.063 103.349C118.925 103.946 119.635 104.713 120.194 105.651C120.752 106.588 121.032 107.739 121.032 109.102C121.032 110.674 120.62 112.095 119.796 113.364C118.981 114.633 117.788 115.641 116.216 116.389C114.654 117.137 112.755 117.511 110.52 117.511C108.437 117.511 106.633 117.175 105.108 116.503C103.593 115.83 102.4 114.893 101.529 113.69C100.667 112.488 100.179 111.091 100.066 109.5H103.702C103.797 110.598 104.166 111.508 104.81 112.227C105.463 112.937 106.287 113.468 107.282 113.818C108.285 114.159 109.365 114.33 110.52 114.33C111.865 114.33 113.072 114.112 114.142 113.676C115.212 113.231 116.06 112.616 116.685 111.83C117.31 111.034 117.623 110.106 117.623 109.045C117.623 108.08 117.353 107.294 116.813 106.688C116.273 106.081 115.563 105.589 114.682 105.21C113.801 104.831 112.85 104.5 111.827 104.216L108.248 103.193C105.975 102.54 104.176 101.607 102.85 100.395C101.524 99.1828 100.861 97.5966 100.861 95.6364C100.861 94.0076 101.301 92.5871 102.182 91.375C103.072 90.1534 104.266 89.2064 105.762 88.5341C107.267 87.8523 108.948 87.5114 110.804 87.5114C112.679 87.5114 114.346 87.8475 115.804 88.5199C117.263 89.1828 118.418 90.0919 119.27 91.2472C120.132 92.4025 120.587 93.714 120.634 95.1818H117.225ZM129.494 109.045L129.437 104.898H130.119L139.664 95.1818H143.812L133.642 105.466H133.358L129.494 109.045ZM126.369 117V87.9091H129.721V117H126.369ZM140.233 117L131.71 106.205L134.096 103.875L144.494 117H140.233ZM151.479 87.9091V117H148.127V87.9091H151.479ZM166.767 117.455C164.664 117.455 162.851 116.991 161.326 116.062C159.811 115.125 158.642 113.818 157.818 112.142C157.003 110.456 156.596 108.496 156.596 106.261C156.596 104.027 157.003 102.057 157.818 100.352C158.642 98.6383 159.788 97.303 161.255 96.3466C162.733 95.3807 164.456 94.8977 166.426 94.8977C167.562 94.8977 168.684 95.0871 169.792 95.4659C170.9 95.8447 171.909 96.4602 172.818 97.3125C173.727 98.1553 174.451 99.2727 174.991 100.665C175.531 102.057 175.801 103.771 175.801 105.807V107.227H158.983V104.33H172.392C172.392 103.098 172.145 102 171.653 101.034C171.17 100.068 170.479 99.3059 169.579 98.7472C168.689 98.1884 167.638 97.9091 166.426 97.9091C165.091 97.9091 163.935 98.2405 162.96 98.9034C161.994 99.5568 161.251 100.409 160.73 101.46C160.209 102.511 159.949 103.638 159.949 104.841V106.773C159.949 108.42 160.233 109.817 160.801 110.963C161.378 112.099 162.179 112.966 163.201 113.562C164.224 114.15 165.413 114.443 166.767 114.443C167.647 114.443 168.443 114.32 169.153 114.074C169.873 113.818 170.493 113.439 171.014 112.938C171.535 112.426 171.937 111.792 172.221 111.034L175.46 111.943C175.119 113.042 174.546 114.008 173.741 114.841C172.936 115.665 171.942 116.309 170.758 116.773C169.574 117.227 168.244 117.455 166.767 117.455ZM180.9 125.182V95.1818H184.139V98.6477H184.537C184.783 98.2689 185.124 97.786 185.559 97.1989C186.004 96.6023 186.639 96.072 187.463 95.608C188.296 95.1345 189.423 94.8977 190.843 94.8977C192.681 94.8977 194.3 95.357 195.701 96.2756C197.103 97.1941 198.197 98.4962 198.983 100.182C199.769 101.867 200.162 103.856 200.162 106.148C200.162 108.458 199.769 110.461 198.983 112.156C198.197 113.842 197.108 115.149 195.716 116.077C194.324 116.995 192.718 117.455 190.9 117.455C189.499 117.455 188.377 117.223 187.534 116.759C186.691 116.285 186.042 115.75 185.588 115.153C185.133 114.547 184.783 114.045 184.537 113.648H184.252V125.182H180.9ZM184.196 106.091C184.196 107.739 184.437 109.192 184.92 110.452C185.403 111.702 186.109 112.682 187.037 113.392C187.965 114.093 189.101 114.443 190.446 114.443C191.847 114.443 193.017 114.074 193.954 113.335C194.901 112.587 195.611 111.583 196.085 110.324C196.568 109.055 196.809 107.644 196.809 106.091C196.809 104.557 196.573 103.174 196.099 101.943C195.635 100.703 194.93 99.7225 193.983 99.0028C193.045 98.2737 191.866 97.9091 190.446 97.9091C189.082 97.9091 187.936 98.2547 187.008 98.946C186.08 99.6278 185.379 100.584 184.906 101.815C184.432 103.037 184.196 104.462 184.196 106.091ZM118.011 200.727C118.011 197.148 118.475 193.857 119.403 190.855C120.341 187.844 121.676 185.074 123.409 182.545H126.364C125.682 183.483 125.043 184.638 124.446 186.011C123.859 187.375 123.343 188.876 122.898 190.514C122.453 192.143 122.102 193.829 121.847 195.571C121.6 197.313 121.477 199.032 121.477 200.727C121.477 202.981 121.695 205.268 122.131 207.588C122.566 209.908 123.153 212.062 123.892 214.051C124.631 216.04 125.455 217.659 126.364 218.909H123.409C121.676 216.381 120.341 213.616 119.403 210.614C118.475 207.602 118.011 204.307 118.011 200.727ZM139.705 213.455C137.66 213.455 135.898 212.972 134.421 212.006C132.944 211.04 131.808 209.709 131.012 208.014C130.217 206.319 129.819 204.383 129.819 202.205C129.819 199.989 130.226 198.033 131.04 196.338C131.864 194.634 133.01 193.303 134.478 192.347C135.955 191.381 137.679 190.898 139.648 190.898C141.183 190.898 142.565 191.182 143.796 191.75C145.027 192.318 146.036 193.114 146.822 194.136C147.608 195.159 148.095 196.352 148.285 197.716H144.933C144.677 196.722 144.109 195.841 143.228 195.074C142.357 194.297 141.183 193.909 139.705 193.909C138.398 193.909 137.253 194.25 136.268 194.932C135.292 195.604 134.53 196.556 133.981 197.787C133.441 199.009 133.171 200.443 133.171 202.091C133.171 203.777 133.436 205.244 133.967 206.494C134.506 207.744 135.264 208.715 136.239 209.406C137.224 210.098 138.379 210.443 139.705 210.443C140.576 210.443 141.367 210.292 142.077 209.989C142.788 209.686 143.389 209.25 143.881 208.682C144.374 208.114 144.724 207.432 144.933 206.636H148.285C148.095 207.924 147.627 209.084 146.879 210.116C146.14 211.139 145.16 211.954 143.938 212.56C142.726 213.156 141.315 213.455 139.705 213.455ZM152.56 213V210.443L164.947 194.534V194.307H152.958V191.182H169.265V193.852L157.219 209.648V209.875H169.663V213H152.56ZM181.985 200.727C181.985 204.307 181.516 207.602 180.579 210.614C179.651 213.616 178.32 216.381 176.587 218.909H173.633C174.315 217.972 174.949 216.816 175.536 215.443C176.133 214.08 176.654 212.583 177.099 210.955C177.544 209.316 177.889 207.626 178.136 205.884C178.391 204.132 178.519 202.413 178.519 200.727C178.519 198.473 178.301 196.187 177.866 193.866C177.43 191.546 176.843 189.392 176.104 187.403C175.366 185.415 174.542 183.795 173.633 182.545H176.587C178.32 185.074 179.651 187.844 180.579 190.855C181.516 193.857 181.985 197.148 181.985 200.727Z" fill="#F1D95B"/>
</svg>
