<svg width="310" height="310" viewBox="0 0 310 310" fill="none" xmlns="http://www.w3.org/2000/svg">
<rect x="2.5" y="2.5" width="305" height="305" rx="17.5" fill="black"/>
<rect x="2.5" y="2.5" width="305" height="305" rx="17.5" stroke="#F1D95B" stroke-width="5"/>
<path d="M122.225 100.182C122.054 98.7424 121.363 97.625 120.151 96.8295C118.939 96.0341 117.452 95.6364 115.691 95.6364C114.403 95.6364 113.276 95.8447 112.31 96.2614C111.354 96.678 110.605 97.2509 110.066 97.9801C109.535 98.7093 109.27 99.5379 109.27 100.466C109.27 101.242 109.455 101.91 109.824 102.469C110.203 103.018 110.686 103.477 111.273 103.847C111.86 104.206 112.476 104.505 113.12 104.741C113.764 104.969 114.355 105.153 114.895 105.295L117.85 106.091C118.607 106.29 119.45 106.564 120.378 106.915C121.316 107.265 122.211 107.743 123.063 108.349C123.925 108.946 124.635 109.713 125.194 110.651C125.752 111.588 126.032 112.739 126.032 114.102C126.032 115.674 125.62 117.095 124.796 118.364C123.981 119.633 122.788 120.641 121.216 121.389C119.654 122.137 117.755 122.511 115.52 122.511C113.437 122.511 111.633 122.175 110.108 121.503C108.593 120.83 107.4 119.893 106.529 118.69C105.667 117.488 105.179 116.091 105.066 114.5H108.702C108.797 115.598 109.166 116.508 109.81 117.227C110.463 117.937 111.287 118.468 112.282 118.818C113.285 119.159 114.365 119.33 115.52 119.33C116.865 119.33 118.072 119.112 119.142 118.676C120.212 118.231 121.06 117.616 121.685 116.83C122.31 116.034 122.623 115.106 122.623 114.045C122.623 113.08 122.353 112.294 121.813 111.688C121.273 111.081 120.563 110.589 119.682 110.21C118.801 109.831 117.85 109.5 116.827 109.216L113.248 108.193C110.975 107.54 109.176 106.607 107.85 105.395C106.524 104.183 105.861 102.597 105.861 100.636C105.861 99.0076 106.301 97.5871 107.182 96.375C108.072 95.1534 109.266 94.2064 110.762 93.5341C112.267 92.8523 113.948 92.5114 115.804 92.5114C117.679 92.5114 119.346 92.8475 120.804 93.5199C122.263 94.1828 123.418 95.0919 124.27 96.2472C125.132 97.4025 125.587 98.714 125.634 100.182H122.225ZM134.494 114.045L134.437 109.898H135.119L144.664 100.182H148.812L138.642 110.466H138.358L134.494 114.045ZM131.369 122V92.9091H134.721V122H131.369ZM145.233 122L136.71 111.205L139.096 108.875L149.494 122H145.233ZM156.479 92.9091V122H153.127V92.9091H156.479ZM171.767 122.455C169.664 122.455 167.851 121.991 166.326 121.062C164.811 120.125 163.642 118.818 162.818 117.142C162.003 115.456 161.596 113.496 161.596 111.261C161.596 109.027 162.003 107.057 162.818 105.352C163.642 103.638 164.788 102.303 166.255 101.347C167.733 100.381 169.456 99.8977 171.426 99.8977C172.562 99.8977 173.684 100.087 174.792 100.466C175.9 100.845 176.909 101.46 177.818 102.312C178.727 103.155 179.451 104.273 179.991 105.665C180.531 107.057 180.801 108.771 180.801 110.807V112.227H163.983V109.33H177.392C177.392 108.098 177.145 107 176.653 106.034C176.17 105.068 175.479 104.306 174.579 103.747C173.689 103.188 172.638 102.909 171.426 102.909C170.091 102.909 168.935 103.241 167.96 103.903C166.994 104.557 166.251 105.409 165.73 106.46C165.209 107.511 164.949 108.638 164.949 109.841V111.773C164.949 113.42 165.233 114.817 165.801 115.963C166.378 117.099 167.179 117.966 168.201 118.562C169.224 119.15 170.413 119.443 171.767 119.443C172.647 119.443 173.443 119.32 174.153 119.074C174.873 118.818 175.493 118.439 176.014 117.938C176.535 117.426 176.937 116.792 177.221 116.034L180.46 116.943C180.119 118.042 179.546 119.008 178.741 119.841C177.936 120.665 176.942 121.309 175.758 121.773C174.574 122.227 173.244 122.455 171.767 122.455ZM185.9 130.182V100.182H189.139V103.648H189.537C189.783 103.269 190.124 102.786 190.559 102.199C191.004 101.602 191.639 101.072 192.463 100.608C193.296 100.134 194.423 99.8977 195.843 99.8977C197.681 99.8977 199.3 100.357 200.701 101.276C202.103 102.194 203.197 103.496 203.983 105.182C204.769 106.867 205.162 108.856 205.162 111.148C205.162 113.458 204.769 115.461 203.983 117.156C203.197 118.842 202.108 120.149 200.716 121.077C199.324 121.995 197.718 122.455 195.9 122.455C194.499 122.455 193.377 122.223 192.534 121.759C191.691 121.285 191.042 120.75 190.588 120.153C190.133 119.547 189.783 119.045 189.537 118.648H189.252V130.182H185.9ZM189.196 111.091C189.196 112.739 189.437 114.192 189.92 115.452C190.403 116.702 191.109 117.682 192.037 118.392C192.965 119.093 194.101 119.443 195.446 119.443C196.847 119.443 198.017 119.074 198.954 118.335C199.901 117.587 200.611 116.583 201.085 115.324C201.568 114.055 201.809 112.644 201.809 111.091C201.809 109.557 201.573 108.174 201.099 106.943C200.635 105.703 199.93 104.723 198.983 104.003C198.045 103.274 196.866 102.909 195.446 102.909C194.082 102.909 192.936 103.255 192.008 103.946C191.08 104.628 190.379 105.584 189.906 106.815C189.432 108.037 189.196 109.462 189.196 111.091ZM123.011 205.727C123.011 202.148 123.475 198.857 124.403 195.855C125.341 192.844 126.676 190.074 128.409 187.545H131.364C130.682 188.483 130.043 189.638 129.446 191.011C128.859 192.375 128.343 193.876 127.898 195.514C127.453 197.143 127.102 198.829 126.847 200.571C126.6 202.313 126.477 204.032 126.477 205.727C126.477 207.981 126.695 210.268 127.131 212.588C127.566 214.908 128.153 217.062 128.892 219.051C129.631 221.04 130.455 222.659 131.364 223.909H128.409C126.676 221.381 125.341 218.616 124.403 215.614C123.475 212.602 123.011 209.307 123.011 205.727ZM144.705 218.455C142.66 218.455 140.898 217.972 139.421 217.006C137.944 216.04 136.808 214.709 136.012 213.014C135.217 211.319 134.819 209.383 134.819 207.205C134.819 204.989 135.226 203.033 136.04 201.338C136.864 199.634 138.01 198.303 139.478 197.347C140.955 196.381 142.679 195.898 144.648 195.898C146.183 195.898 147.565 196.182 148.796 196.75C150.027 197.318 151.036 198.114 151.822 199.136C152.608 200.159 153.095 201.352 153.285 202.716H149.933C149.677 201.722 149.109 200.841 148.228 200.074C147.357 199.297 146.183 198.909 144.705 198.909C143.398 198.909 142.253 199.25 141.268 199.932C140.292 200.604 139.53 201.556 138.981 202.787C138.441 204.009 138.171 205.443 138.171 207.091C138.171 208.777 138.436 210.244 138.967 211.494C139.506 212.744 140.264 213.715 141.239 214.406C142.224 215.098 143.379 215.443 144.705 215.443C145.576 215.443 146.367 215.292 147.077 214.989C147.788 214.686 148.389 214.25 148.881 213.682C149.374 213.114 149.724 212.432 149.933 211.636H153.285C153.095 212.924 152.627 214.084 151.879 215.116C151.14 216.139 150.16 216.954 148.938 217.56C147.726 218.156 146.315 218.455 144.705 218.455ZM157.56 218V215.443L169.947 199.534V199.307H157.958V196.182H174.265V198.852L162.219 214.648V214.875H174.663V218H157.56ZM186.985 205.727C186.985 209.307 186.516 212.602 185.579 215.614C184.651 218.616 183.32 221.381 181.587 223.909H178.633C179.315 222.972 179.949 221.816 180.536 220.443C181.133 219.08 181.654 217.583 182.099 215.955C182.544 214.316 182.889 212.626 183.136 210.884C183.391 209.132 183.519 207.413 183.519 205.727C183.519 203.473 183.301 201.187 182.866 198.866C182.43 196.546 181.843 194.392 181.104 192.403C180.366 190.415 179.542 188.795 178.633 187.545H181.587C183.32 190.074 184.651 192.844 185.579 195.855C186.516 198.857 186.985 202.148 186.985 205.727Z" fill="#F1D95B"/>
</svg>
