<svg width="300" height="300" viewBox="0 0 300 300" fill="none" xmlns="http://www.w3.org/2000/svg">
<rect x="2.5" y="2.5" width="295" height="295" rx="12.5" fill="black"/>
<rect x="2.5" y="2.5" width="295" height="295" rx="12.5" stroke="#F1D95B" stroke-width="5"/>
<path d="M61.2092 97H57.6864C57.4781 95.9867 57.1135 95.0966 56.5927 94.3295C56.0813 93.5625 55.4563 92.9186 54.7177 92.3977C53.9885 91.8674 53.1789 91.4697 52.2887 91.2045C51.3986 90.9394 50.4705 90.8068 49.5046 90.8068C47.7433 90.8068 46.1476 91.2519 44.7177 92.142C43.2972 93.0322 42.1656 94.3438 41.3228 96.0767C40.4895 97.8097 40.0728 99.9356 40.0728 102.455C40.0728 104.973 40.4895 107.099 41.3228 108.832C42.1656 110.565 43.2972 111.877 44.7177 112.767C46.1476 113.657 47.7433 114.102 49.5046 114.102C50.4705 114.102 51.3986 113.97 52.2887 113.705C53.1789 113.439 53.9885 113.046 54.7177 112.526C55.4563 111.995 56.0813 111.347 56.5927 110.58C57.1135 109.803 57.4781 108.913 57.6864 107.909H61.2092C60.944 109.396 60.4611 110.726 59.7603 111.901C59.0595 113.075 58.1883 114.074 57.1467 114.898C56.105 115.712 54.9355 116.332 53.6381 116.759C52.3503 117.185 50.9724 117.398 49.5046 117.398C47.0236 117.398 44.8171 116.792 42.8853 115.58C40.9535 114.367 39.4336 112.644 38.3256 110.409C37.2177 108.174 36.6637 105.523 36.6637 102.455C36.6637 99.3864 37.2177 96.7348 38.3256 94.5C39.4336 92.2652 40.9535 90.5417 42.8853 89.3295C44.8171 88.1174 47.0236 87.5114 49.5046 87.5114C50.9724 87.5114 52.3503 87.7244 53.6381 88.1506C54.9355 88.5767 56.105 89.2017 57.1467 90.0256C58.1883 90.84 59.0595 91.8343 59.7603 93.0085C60.4611 94.1733 60.944 95.5038 61.2092 97ZM65.8221 117V114.443L78.2085 98.5341V98.3068H66.2198V95.1818H82.5266V97.8523L70.4812 113.648V113.875H82.9244V117H65.8221ZM94.5082 117.511C93.1256 117.511 91.8709 117.251 90.744 116.73C89.6171 116.2 88.7222 115.438 88.0593 114.443C87.3964 113.439 87.065 112.227 87.065 110.807C87.065 109.557 87.3112 108.544 87.8036 107.767C88.296 106.981 88.9542 106.366 89.7781 105.92C90.6019 105.475 91.511 105.144 92.5053 104.926C93.5091 104.699 94.5176 104.519 95.5309 104.386C96.8567 104.216 97.9315 104.088 98.7553 104.003C99.5887 103.908 100.195 103.752 100.574 103.534C100.962 103.316 101.156 102.937 101.156 102.398V102.284C101.156 100.883 100.772 99.7936 100.005 99.017C99.2478 98.2405 98.0972 97.8523 96.5536 97.8523C94.9532 97.8523 93.6985 98.2027 92.7894 98.9034C91.8803 99.6042 91.2411 100.352 90.8718 101.148L87.69 100.011C88.2582 98.6856 89.0157 97.6534 89.9627 96.9148C90.9192 96.1667 91.9608 95.6458 93.0877 95.3523C94.2241 95.0492 95.3415 94.8977 96.44 94.8977C97.1407 94.8977 97.9457 94.983 98.8548 95.1534C99.7733 95.3144 100.659 95.6506 101.511 96.1619C102.373 96.6733 103.088 97.4451 103.656 98.4773C104.224 99.5095 104.508 100.892 104.508 102.625V117H101.156V114.045H100.985C100.758 114.519 100.379 115.026 99.8491 115.565C99.3188 116.105 98.6133 116.564 97.7326 116.943C96.8519 117.322 95.7771 117.511 94.5082 117.511ZM95.0195 114.5C96.3453 114.5 97.4627 114.24 98.3718 113.719C99.2904 113.198 99.9817 112.526 100.446 111.702C100.919 110.878 101.156 110.011 101.156 109.102V106.034C101.014 106.205 100.701 106.361 100.218 106.503C99.7449 106.635 99.1957 106.754 98.5707 106.858C97.9551 106.953 97.3538 107.038 96.7667 107.114C96.189 107.18 95.7203 107.237 95.3604 107.284C94.4892 107.398 93.6748 107.582 92.9173 107.838C92.1692 108.084 91.5631 108.458 91.0991 108.96C90.6445 109.453 90.4173 110.125 90.4173 110.977C90.4173 112.142 90.8481 113.023 91.7099 113.619C92.5811 114.206 93.6843 114.5 95.0195 114.5ZM126.081 100.068L123.07 100.92C122.881 100.419 122.601 99.9309 122.232 99.4574C121.872 98.9744 121.38 98.5767 120.755 98.2642C120.13 97.9517 119.329 97.7955 118.354 97.7955C117.019 97.7955 115.906 98.1032 115.016 98.7188C114.135 99.3248 113.695 100.097 113.695 101.034C113.695 101.867 113.998 102.526 114.604 103.009C115.21 103.491 116.157 103.894 117.445 104.216L120.684 105.011C122.634 105.485 124.088 106.209 125.044 107.185C126.001 108.151 126.479 109.396 126.479 110.92C126.479 112.17 126.119 113.288 125.4 114.273C124.689 115.258 123.695 116.034 122.417 116.602C121.138 117.17 119.651 117.455 117.956 117.455C115.731 117.455 113.889 116.972 112.431 116.006C110.972 115.04 110.049 113.629 109.661 111.773L112.843 110.977C113.146 112.152 113.719 113.032 114.561 113.619C115.414 114.206 116.526 114.5 117.9 114.5C119.462 114.5 120.703 114.169 121.621 113.506C122.549 112.833 123.013 112.028 123.013 111.091C123.013 110.333 122.748 109.699 122.218 109.188C121.687 108.667 120.873 108.278 119.775 108.023L116.138 107.17C114.14 106.697 112.672 105.963 111.735 104.969C110.807 103.965 110.343 102.71 110.343 101.205C110.343 99.9735 110.688 98.8845 111.38 97.9375C112.08 96.9905 113.032 96.2472 114.235 95.7074C115.447 95.1676 116.82 94.8977 118.354 94.8977C120.513 94.8977 122.208 95.3712 123.439 96.3182C124.68 97.2652 125.56 98.5152 126.081 100.068ZM140.389 117.455C138.419 117.455 136.691 116.986 135.204 116.048C133.727 115.111 132.572 113.799 131.738 112.114C130.914 110.428 130.502 108.458 130.502 106.205C130.502 103.932 130.914 101.948 131.738 100.253C132.572 98.5578 133.727 97.2415 135.204 96.304C136.691 95.3665 138.419 94.8977 140.389 94.8977C142.359 94.8977 144.082 95.3665 145.559 96.304C147.046 97.2415 148.201 98.5578 149.025 100.253C149.859 101.948 150.275 103.932 150.275 106.205C150.275 108.458 149.859 110.428 149.025 112.114C148.201 113.799 147.046 115.111 145.559 116.048C144.082 116.986 142.359 117.455 140.389 117.455ZM140.389 114.443C141.885 114.443 143.116 114.06 144.082 113.293C145.048 112.526 145.763 111.517 146.227 110.267C146.691 109.017 146.923 107.663 146.923 106.205C146.923 104.746 146.691 103.387 146.227 102.128C145.763 100.868 145.048 99.8504 144.082 99.0739C143.116 98.2973 141.885 97.9091 140.389 97.9091C138.893 97.9091 137.662 98.2973 136.696 99.0739C135.73 99.8504 135.015 100.868 134.551 102.128C134.087 103.387 133.855 104.746 133.855 106.205C133.855 107.663 134.087 109.017 134.551 110.267C135.015 111.517 135.73 112.526 136.696 113.293C137.662 114.06 138.893 114.443 140.389 114.443ZM155.392 125.182V95.1818H158.631V98.6477H159.029C159.275 98.2689 159.616 97.786 160.051 97.1989C160.497 96.6023 161.131 96.072 161.955 95.608C162.788 95.1345 163.915 94.8977 165.336 94.8977C167.173 94.8977 168.792 95.357 170.194 96.2756C171.595 97.1941 172.689 98.4962 173.475 100.182C174.261 101.867 174.654 103.856 174.654 106.148C174.654 108.458 174.261 110.461 173.475 112.156C172.689 113.842 171.6 115.149 170.208 116.077C168.816 116.995 167.211 117.455 165.392 117.455C163.991 117.455 162.869 117.223 162.026 116.759C161.183 116.285 160.534 115.75 160.08 115.153C159.625 114.547 159.275 114.045 159.029 113.648H158.745V125.182H155.392ZM158.688 106.091C158.688 107.739 158.929 109.192 159.412 110.452C159.895 111.702 160.601 112.682 161.529 113.392C162.457 114.093 163.593 114.443 164.938 114.443C166.339 114.443 167.509 114.074 168.446 113.335C169.393 112.587 170.104 111.583 170.577 110.324C171.06 109.055 171.301 107.644 171.301 106.091C171.301 104.557 171.065 103.174 170.591 101.943C170.127 100.703 169.422 99.7225 168.475 99.0028C167.537 98.2737 166.358 97.9091 164.938 97.9091C163.574 97.9091 162.428 98.2547 161.5 98.946C160.572 99.6278 159.872 100.584 159.398 101.815C158.925 103.037 158.688 104.462 158.688 106.091ZM179.767 117V95.1818H183.12V117H179.767ZM181.472 91.5455C180.819 91.5455 180.255 91.3229 179.782 90.8778C179.318 90.4328 179.086 89.8977 179.086 89.2727C179.086 88.6477 179.318 88.1127 179.782 87.6676C180.255 87.2225 180.819 87 181.472 87C182.125 87 182.684 87.2225 183.148 87.6676C183.622 88.1127 183.858 88.6477 183.858 89.2727C183.858 89.8977 183.622 90.4328 183.148 90.8778C182.684 91.3229 182.125 91.5455 181.472 91.5455ZM204.714 100.068L201.703 100.92C201.513 100.419 201.234 99.9309 200.865 99.4574C200.505 98.9744 200.012 98.5767 199.387 98.2642C198.762 97.9517 197.962 97.7955 196.987 97.7955C195.652 97.7955 194.539 98.1032 193.649 98.7188C192.768 99.3248 192.328 100.097 192.328 101.034C192.328 101.867 192.631 102.526 193.237 103.009C193.843 103.491 194.79 103.894 196.078 104.216L199.316 105.011C201.267 105.485 202.721 106.209 203.677 107.185C204.634 108.151 205.112 109.396 205.112 110.92C205.112 112.17 204.752 113.288 204.032 114.273C203.322 115.258 202.328 116.034 201.049 116.602C199.771 117.17 198.284 117.455 196.589 117.455C194.364 117.455 192.522 116.972 191.064 116.006C189.605 115.04 188.682 113.629 188.294 111.773L191.475 110.977C191.779 112.152 192.351 113.032 193.194 113.619C194.047 114.206 195.159 114.5 196.532 114.5C198.095 114.5 199.335 114.169 200.254 113.506C201.182 112.833 201.646 112.028 201.646 111.091C201.646 110.333 201.381 109.699 200.85 109.188C200.32 108.667 199.506 108.278 198.407 108.023L194.771 107.17C192.773 106.697 191.305 105.963 190.368 104.969C189.44 103.965 188.975 102.71 188.975 101.205C188.975 99.9735 189.321 98.8845 190.012 97.9375C190.713 96.9905 191.665 96.2472 192.868 95.7074C194.08 95.1676 195.453 94.8977 196.987 94.8977C199.146 94.8977 200.841 95.3712 202.072 96.3182C203.313 97.2652 204.193 98.5152 204.714 100.068ZM210.158 117V95.1818H213.397V98.5909H213.681C214.135 97.4261 214.869 96.5218 215.882 95.8778C216.896 95.2244 218.113 94.8977 219.533 94.8977C220.972 94.8977 222.17 95.2244 223.127 95.8778C224.093 96.5218 224.846 97.4261 225.385 98.5909H225.613C226.171 97.464 227.009 96.5691 228.127 95.9062C229.244 95.2339 230.584 94.8977 232.147 94.8977C234.097 94.8977 235.693 95.5085 236.934 96.7301C238.174 97.9422 238.794 99.8314 238.794 102.398V117H235.442V102.398C235.442 100.788 235.002 99.6373 234.121 98.946C233.24 98.2547 232.203 97.9091 231.01 97.9091C229.476 97.9091 228.288 98.3731 227.445 99.3011C226.602 100.22 226.181 101.384 226.181 102.795V117H222.772V102.057C222.772 100.816 222.369 99.8172 221.564 99.0597C220.759 98.2926 219.722 97.9091 218.453 97.9091C217.582 97.9091 216.768 98.1411 216.01 98.6051C215.262 99.0691 214.656 99.7131 214.192 100.537C213.738 101.351 213.51 102.294 213.51 103.364V117H210.158ZM253.787 117.455C251.818 117.455 250.089 116.986 248.603 116.048C247.125 115.111 245.97 113.799 245.137 112.114C244.313 110.428 243.901 108.458 243.901 106.205C243.901 103.932 244.313 101.948 245.137 100.253C245.97 98.5578 247.125 97.2415 248.603 96.304C250.089 95.3665 251.818 94.8977 253.787 94.8977C255.757 94.8977 257.48 95.3665 258.958 96.304C260.444 97.2415 261.6 98.5578 262.424 100.253C263.257 101.948 263.674 103.932 263.674 106.205C263.674 108.458 263.257 110.428 262.424 112.114C261.6 113.799 260.444 115.111 258.958 116.048C257.48 116.986 255.757 117.455 253.787 117.455ZM253.787 114.443C255.283 114.443 256.515 114.06 257.48 113.293C258.446 112.526 259.161 111.517 259.625 110.267C260.089 109.017 260.321 107.663 260.321 106.205C260.321 104.746 260.089 103.387 259.625 102.128C259.161 100.868 258.446 99.8504 257.48 99.0739C256.515 98.2973 255.283 97.9091 253.787 97.9091C252.291 97.9091 251.06 98.2973 250.094 99.0739C249.128 99.8504 248.413 100.868 247.949 102.128C247.485 103.387 247.253 104.746 247.253 106.205C247.253 107.663 247.485 109.017 247.949 110.267C248.413 111.517 249.128 112.526 250.094 113.293C251.06 114.06 252.291 114.443 253.787 114.443ZM122.836 200.727C122.836 197.148 123.3 193.857 124.228 190.855C125.165 187.844 126.5 185.074 128.233 182.545H131.188C130.506 183.483 129.867 184.638 129.27 186.011C128.683 187.375 128.167 188.876 127.722 190.514C127.277 192.143 126.926 193.829 126.671 195.571C126.425 197.313 126.301 199.032 126.301 200.727C126.301 202.981 126.519 205.268 126.955 207.588C127.391 209.908 127.978 212.062 128.716 214.051C129.455 216.04 130.279 217.659 131.188 218.909H128.233C126.5 216.381 125.165 213.616 124.228 210.614C123.3 207.602 122.836 204.307 122.836 200.727ZM136.135 221.182V191.182H139.373V194.648H139.771C140.017 194.269 140.358 193.786 140.794 193.199C141.239 192.602 141.873 192.072 142.697 191.608C143.53 191.134 144.657 190.898 146.078 190.898C147.915 190.898 149.534 191.357 150.936 192.276C152.337 193.194 153.431 194.496 154.217 196.182C155.003 197.867 155.396 199.856 155.396 202.148C155.396 204.458 155.003 206.461 154.217 208.156C153.431 209.842 152.342 211.149 150.95 212.077C149.558 212.995 147.953 213.455 146.135 213.455C144.733 213.455 143.611 213.223 142.768 212.759C141.925 212.285 141.277 211.75 140.822 211.153C140.368 210.547 140.017 210.045 139.771 209.648H139.487V221.182H136.135ZM139.43 202.091C139.43 203.739 139.672 205.192 140.154 206.452C140.637 207.702 141.343 208.682 142.271 209.392C143.199 210.093 144.335 210.443 145.68 210.443C147.082 210.443 148.251 210.074 149.189 209.335C150.136 208.587 150.846 207.583 151.319 206.324C151.802 205.055 152.044 203.644 152.044 202.091C152.044 200.557 151.807 199.174 151.333 197.943C150.869 196.703 150.164 195.723 149.217 195.003C148.279 194.274 147.1 193.909 145.68 193.909C144.316 193.909 143.171 194.255 142.243 194.946C141.315 195.628 140.614 196.584 140.14 197.815C139.667 199.037 139.43 200.462 139.43 202.091ZM163.862 183.909V213H160.51V183.909H163.862ZM177.161 200.727C177.161 204.307 176.692 207.602 175.755 210.614C174.827 213.616 173.496 216.381 171.763 218.909H168.809C169.49 217.972 170.125 216.816 170.712 215.443C171.309 214.08 171.829 212.583 172.275 210.955C172.72 209.316 173.065 207.626 173.311 205.884C173.567 204.132 173.695 202.413 173.695 200.727C173.695 198.473 173.477 196.187 173.042 193.866C172.606 191.546 172.019 189.392 171.28 187.403C170.542 185.415 169.718 183.795 168.809 182.545H171.763C173.496 185.074 174.827 187.844 175.755 190.855C176.692 193.857 177.161 197.148 177.161 200.727Z" fill="#F1D95B"/>
</svg>
