<svg width="310" height="310" viewBox="0 0 310 310" fill="none" xmlns="http://www.w3.org/2000/svg">
<rect x="2.5" y="2.5" width="305" height="305" rx="17.5" fill="black"/>
<rect x="2.5" y="2.5" width="305" height="305" rx="17.5" stroke="#F1D95B" stroke-width="5"/>
<path d="M66.2092 102H62.6864C62.4781 100.987 62.1135 100.097 61.5927 99.3295C61.0813 98.5625 60.4563 97.9186 59.7177 97.3977C58.9885 96.8674 58.1789 96.4697 57.2887 96.2045C56.3986 95.9394 55.4705 95.8068 54.5046 95.8068C52.7433 95.8068 51.1476 96.2519 49.7177 97.142C48.2972 98.0322 47.1656 99.3438 46.3228 101.077C45.4895 102.81 45.0728 104.936 45.0728 107.455C45.0728 109.973 45.4895 112.099 46.3228 113.832C47.1656 115.565 48.2972 116.877 49.7177 117.767C51.1476 118.657 52.7433 119.102 54.5046 119.102C55.4705 119.102 56.3986 118.97 57.2887 118.705C58.1789 118.439 58.9885 118.046 59.7177 117.526C60.4563 116.995 61.0813 116.347 61.5927 115.58C62.1135 114.803 62.4781 113.913 62.6864 112.909H66.2092C65.944 114.396 65.4611 115.726 64.7603 116.901C64.0595 118.075 63.1883 119.074 62.1467 119.898C61.105 120.712 59.9355 121.332 58.6381 121.759C57.3503 122.185 55.9724 122.398 54.5046 122.398C52.0236 122.398 49.8171 121.792 47.8853 120.58C45.9535 119.367 44.4336 117.644 43.3256 115.409C42.2177 113.174 41.6637 110.523 41.6637 107.455C41.6637 104.386 42.2177 101.735 43.3256 99.5C44.4336 97.2652 45.9535 95.5417 47.8853 94.3295C49.8171 93.1174 52.0236 92.5114 54.5046 92.5114C55.9724 92.5114 57.3503 92.7244 58.6381 93.1506C59.9355 93.5767 61.105 94.2017 62.1467 95.0256C63.1883 95.84 64.0595 96.8343 64.7603 98.0085C65.4611 99.1733 65.944 100.504 66.2092 102ZM70.8221 122V119.443L83.2085 103.534V103.307H71.2198V100.182H87.5266V102.852L75.4812 118.648V118.875H87.9244V122H70.8221ZM99.5082 122.511C98.1256 122.511 96.8709 122.251 95.744 121.73C94.6171 121.2 93.7222 120.438 93.0593 119.443C92.3964 118.439 92.065 117.227 92.065 115.807C92.065 114.557 92.3112 113.544 92.8036 112.767C93.296 111.981 93.9542 111.366 94.7781 110.92C95.6019 110.475 96.511 110.144 97.5053 109.926C98.5091 109.699 99.5176 109.519 100.531 109.386C101.857 109.216 102.931 109.088 103.755 109.003C104.589 108.908 105.195 108.752 105.574 108.534C105.962 108.316 106.156 107.937 106.156 107.398V107.284C106.156 105.883 105.772 104.794 105.005 104.017C104.248 103.241 103.097 102.852 101.554 102.852C99.9532 102.852 98.6985 103.203 97.7894 103.903C96.8803 104.604 96.2411 105.352 95.8718 106.148L92.69 105.011C93.2582 103.686 94.0157 102.653 94.9627 101.915C95.9192 101.167 96.9608 100.646 98.0877 100.352C99.2241 100.049 100.342 99.8977 101.44 99.8977C102.141 99.8977 102.946 99.983 103.855 100.153C104.773 100.314 105.659 100.651 106.511 101.162C107.373 101.673 108.088 102.445 108.656 103.477C109.224 104.509 109.508 105.892 109.508 107.625V122H106.156V119.045H105.985C105.758 119.519 105.379 120.026 104.849 120.565C104.319 121.105 103.613 121.564 102.733 121.943C101.852 122.322 100.777 122.511 99.5082 122.511ZM100.02 119.5C101.345 119.5 102.463 119.24 103.372 118.719C104.29 118.198 104.982 117.526 105.446 116.702C105.919 115.878 106.156 115.011 106.156 114.102V111.034C106.014 111.205 105.701 111.361 105.218 111.503C104.745 111.635 104.196 111.754 103.571 111.858C102.955 111.953 102.354 112.038 101.767 112.114C101.189 112.18 100.72 112.237 100.36 112.284C99.4892 112.398 98.6748 112.582 97.9173 112.838C97.1692 113.084 96.5631 113.458 96.0991 113.96C95.6445 114.453 95.4173 115.125 95.4173 115.977C95.4173 117.142 95.8481 118.023 96.7099 118.619C97.5811 119.206 98.6843 119.5 100.02 119.5ZM131.081 105.068L128.07 105.92C127.881 105.419 127.601 104.931 127.232 104.457C126.872 103.974 126.38 103.577 125.755 103.264C125.13 102.952 124.329 102.795 123.354 102.795C122.019 102.795 120.906 103.103 120.016 103.719C119.135 104.325 118.695 105.097 118.695 106.034C118.695 106.867 118.998 107.526 119.604 108.009C120.21 108.491 121.157 108.894 122.445 109.216L125.684 110.011C127.634 110.485 129.088 111.209 130.044 112.185C131.001 113.151 131.479 114.396 131.479 115.92C131.479 117.17 131.119 118.288 130.4 119.273C129.689 120.258 128.695 121.034 127.417 121.602C126.138 122.17 124.651 122.455 122.956 122.455C120.731 122.455 118.889 121.972 117.431 121.006C115.972 120.04 115.049 118.629 114.661 116.773L117.843 115.977C118.146 117.152 118.719 118.032 119.561 118.619C120.414 119.206 121.526 119.5 122.9 119.5C124.462 119.5 125.703 119.169 126.621 118.506C127.549 117.833 128.013 117.028 128.013 116.091C128.013 115.333 127.748 114.699 127.218 114.188C126.687 113.667 125.873 113.278 124.775 113.023L121.138 112.17C119.14 111.697 117.672 110.963 116.735 109.969C115.807 108.965 115.343 107.71 115.343 106.205C115.343 104.973 115.688 103.884 116.38 102.938C117.08 101.991 118.032 101.247 119.235 100.707C120.447 100.168 121.82 99.8977 123.354 99.8977C125.513 99.8977 127.208 100.371 128.439 101.318C129.68 102.265 130.56 103.515 131.081 105.068ZM145.389 122.455C143.419 122.455 141.691 121.986 140.204 121.048C138.727 120.111 137.572 118.799 136.738 117.114C135.914 115.428 135.502 113.458 135.502 111.205C135.502 108.932 135.914 106.948 136.738 105.253C137.572 103.558 138.727 102.241 140.204 101.304C141.691 100.366 143.419 99.8977 145.389 99.8977C147.359 99.8977 149.082 100.366 150.559 101.304C152.046 102.241 153.201 103.558 154.025 105.253C154.859 106.948 155.275 108.932 155.275 111.205C155.275 113.458 154.859 115.428 154.025 117.114C153.201 118.799 152.046 120.111 150.559 121.048C149.082 121.986 147.359 122.455 145.389 122.455ZM145.389 119.443C146.885 119.443 148.116 119.06 149.082 118.293C150.048 117.526 150.763 116.517 151.227 115.267C151.691 114.017 151.923 112.663 151.923 111.205C151.923 109.746 151.691 108.387 151.227 107.128C150.763 105.868 150.048 104.85 149.082 104.074C148.116 103.297 146.885 102.909 145.389 102.909C143.893 102.909 142.662 103.297 141.696 104.074C140.73 104.85 140.015 105.868 139.551 107.128C139.087 108.387 138.855 109.746 138.855 111.205C138.855 112.663 139.087 114.017 139.551 115.267C140.015 116.517 140.73 117.526 141.696 118.293C142.662 119.06 143.893 119.443 145.389 119.443ZM160.392 130.182V100.182H163.631V103.648H164.029C164.275 103.269 164.616 102.786 165.051 102.199C165.497 101.602 166.131 101.072 166.955 100.608C167.788 100.134 168.915 99.8977 170.336 99.8977C172.173 99.8977 173.792 100.357 175.194 101.276C176.595 102.194 177.689 103.496 178.475 105.182C179.261 106.867 179.654 108.856 179.654 111.148C179.654 113.458 179.261 115.461 178.475 117.156C177.689 118.842 176.6 120.149 175.208 121.077C173.816 121.995 172.211 122.455 170.392 122.455C168.991 122.455 167.869 122.223 167.026 121.759C166.183 121.285 165.534 120.75 165.08 120.153C164.625 119.547 164.275 119.045 164.029 118.648H163.745V130.182H160.392ZM163.688 111.091C163.688 112.739 163.929 114.192 164.412 115.452C164.895 116.702 165.601 117.682 166.529 118.392C167.457 119.093 168.593 119.443 169.938 119.443C171.339 119.443 172.509 119.074 173.446 118.335C174.393 117.587 175.104 116.583 175.577 115.324C176.06 114.055 176.301 112.644 176.301 111.091C176.301 109.557 176.065 108.174 175.591 106.943C175.127 105.703 174.422 104.723 173.475 104.003C172.537 103.274 171.358 102.909 169.938 102.909C168.574 102.909 167.428 103.255 166.5 103.946C165.572 104.628 164.872 105.584 164.398 106.815C163.925 108.037 163.688 109.462 163.688 111.091ZM184.767 122V100.182H188.12V122H184.767ZM186.472 96.5455C185.819 96.5455 185.255 96.3229 184.782 95.8778C184.318 95.4328 184.086 94.8977 184.086 94.2727C184.086 93.6477 184.318 93.1127 184.782 92.6676C185.255 92.2225 185.819 92 186.472 92C187.125 92 187.684 92.2225 188.148 92.6676C188.622 93.1127 188.858 93.6477 188.858 94.2727C188.858 94.8977 188.622 95.4328 188.148 95.8778C187.684 96.3229 187.125 96.5455 186.472 96.5455ZM209.714 105.068L206.703 105.92C206.513 105.419 206.234 104.931 205.865 104.457C205.505 103.974 205.012 103.577 204.387 103.264C203.762 102.952 202.962 102.795 201.987 102.795C200.652 102.795 199.539 103.103 198.649 103.719C197.768 104.325 197.328 105.097 197.328 106.034C197.328 106.867 197.631 107.526 198.237 108.009C198.843 108.491 199.79 108.894 201.078 109.216L204.316 110.011C206.267 110.485 207.721 111.209 208.677 112.185C209.634 113.151 210.112 114.396 210.112 115.92C210.112 117.17 209.752 118.288 209.032 119.273C208.322 120.258 207.328 121.034 206.049 121.602C204.771 122.17 203.284 122.455 201.589 122.455C199.364 122.455 197.522 121.972 196.064 121.006C194.605 120.04 193.682 118.629 193.294 116.773L196.475 115.977C196.779 117.152 197.351 118.032 198.194 118.619C199.047 119.206 200.159 119.5 201.532 119.5C203.095 119.5 204.335 119.169 205.254 118.506C206.182 117.833 206.646 117.028 206.646 116.091C206.646 115.333 206.381 114.699 205.85 114.188C205.32 113.667 204.506 113.278 203.407 113.023L199.771 112.17C197.773 111.697 196.305 110.963 195.368 109.969C194.44 108.965 193.975 107.71 193.975 106.205C193.975 104.973 194.321 103.884 195.012 102.938C195.713 101.991 196.665 101.247 197.868 100.707C199.08 100.168 200.453 99.8977 201.987 99.8977C204.146 99.8977 205.841 100.371 207.072 101.318C208.313 102.265 209.193 103.515 209.714 105.068ZM215.158 122V100.182H218.397V103.591H218.681C219.135 102.426 219.869 101.522 220.882 100.878C221.896 100.224 223.113 99.8977 224.533 99.8977C225.972 99.8977 227.17 100.224 228.127 100.878C229.093 101.522 229.846 102.426 230.385 103.591H230.613C231.171 102.464 232.009 101.569 233.127 100.906C234.244 100.234 235.584 99.8977 237.147 99.8977C239.097 99.8977 240.693 100.509 241.934 101.73C243.174 102.942 243.794 104.831 243.794 107.398V122H240.442V107.398C240.442 105.788 240.002 104.637 239.121 103.946C238.24 103.255 237.203 102.909 236.01 102.909C234.476 102.909 233.288 103.373 232.445 104.301C231.602 105.22 231.181 106.384 231.181 107.795V122H227.772V107.057C227.772 105.816 227.369 104.817 226.564 104.06C225.759 103.293 224.722 102.909 223.453 102.909C222.582 102.909 221.768 103.141 221.01 103.605C220.262 104.069 219.656 104.713 219.192 105.537C218.738 106.351 218.51 107.294 218.51 108.364V122H215.158ZM258.787 122.455C256.818 122.455 255.089 121.986 253.603 121.048C252.125 120.111 250.97 118.799 250.137 117.114C249.313 115.428 248.901 113.458 248.901 111.205C248.901 108.932 249.313 106.948 250.137 105.253C250.97 103.558 252.125 102.241 253.603 101.304C255.089 100.366 256.818 99.8977 258.787 99.8977C260.757 99.8977 262.48 100.366 263.958 101.304C265.444 102.241 266.6 103.558 267.424 105.253C268.257 106.948 268.674 108.932 268.674 111.205C268.674 113.458 268.257 115.428 267.424 117.114C266.6 118.799 265.444 120.111 263.958 121.048C262.48 121.986 260.757 122.455 258.787 122.455ZM258.787 119.443C260.283 119.443 261.515 119.06 262.48 118.293C263.446 117.526 264.161 116.517 264.625 115.267C265.089 114.017 265.321 112.663 265.321 111.205C265.321 109.746 265.089 108.387 264.625 107.128C264.161 105.868 263.446 104.85 262.48 104.074C261.515 103.297 260.283 102.909 258.787 102.909C257.291 102.909 256.06 103.297 255.094 104.074C254.128 104.85 253.413 105.868 252.949 107.128C252.485 108.387 252.253 109.746 252.253 111.205C252.253 112.663 252.485 114.017 252.949 115.267C253.413 116.517 254.128 117.526 255.094 118.293C256.06 119.06 257.291 119.443 258.787 119.443ZM127.836 205.727C127.836 202.148 128.3 198.857 129.228 195.855C130.165 192.844 131.5 190.074 133.233 187.545H136.188C135.506 188.483 134.867 189.638 134.27 191.011C133.683 192.375 133.167 193.876 132.722 195.514C132.277 197.143 131.926 198.829 131.671 200.571C131.425 202.313 131.301 204.032 131.301 205.727C131.301 207.981 131.519 210.268 131.955 212.588C132.391 214.908 132.978 217.062 133.716 219.051C134.455 221.04 135.279 222.659 136.188 223.909H133.233C131.5 221.381 130.165 218.616 129.228 215.614C128.3 212.602 127.836 209.307 127.836 205.727ZM141.135 226.182V196.182H144.373V199.648H144.771C145.017 199.269 145.358 198.786 145.794 198.199C146.239 197.602 146.873 197.072 147.697 196.608C148.53 196.134 149.657 195.898 151.078 195.898C152.915 195.898 154.534 196.357 155.936 197.276C157.337 198.194 158.431 199.496 159.217 201.182C160.003 202.867 160.396 204.856 160.396 207.148C160.396 209.458 160.003 211.461 159.217 213.156C158.431 214.842 157.342 216.149 155.95 217.077C154.558 217.995 152.953 218.455 151.135 218.455C149.733 218.455 148.611 218.223 147.768 217.759C146.925 217.285 146.277 216.75 145.822 216.153C145.368 215.547 145.017 215.045 144.771 214.648H144.487V226.182H141.135ZM144.43 207.091C144.43 208.739 144.672 210.192 145.154 211.452C145.637 212.702 146.343 213.682 147.271 214.392C148.199 215.093 149.335 215.443 150.68 215.443C152.082 215.443 153.251 215.074 154.189 214.335C155.136 213.587 155.846 212.583 156.319 211.324C156.802 210.055 157.044 208.644 157.044 207.091C157.044 205.557 156.807 204.174 156.333 202.943C155.869 201.703 155.164 200.723 154.217 200.003C153.279 199.274 152.1 198.909 150.68 198.909C149.316 198.909 148.171 199.255 147.243 199.946C146.315 200.628 145.614 201.584 145.14 202.815C144.667 204.037 144.43 205.462 144.43 207.091ZM168.862 188.909V218H165.51V188.909H168.862ZM182.161 205.727C182.161 209.307 181.692 212.602 180.755 215.614C179.827 218.616 178.496 221.381 176.763 223.909H173.809C174.49 222.972 175.125 221.816 175.712 220.443C176.309 219.08 176.829 217.583 177.275 215.955C177.72 214.316 178.065 212.626 178.311 210.884C178.567 209.132 178.695 207.413 178.695 205.727C178.695 203.473 178.477 201.187 178.042 198.866C177.606 196.546 177.019 194.392 176.28 192.403C175.542 190.415 174.718 188.795 173.809 187.545H176.763C178.496 190.074 179.827 192.844 180.755 195.855C181.692 198.857 182.161 202.148 182.161 205.727Z" fill="#F1D95B"/>
</svg>
