<svg width="310" height="310" viewBox="0 0 310 310" fill="none" xmlns="http://www.w3.org/2000/svg">
<rect x="2.5" y="2.5" width="305" height="305" rx="17.5" fill="black"/>
<rect x="2.5" y="2.5" width="305" height="305" rx="17.5" stroke="#F1D95B" stroke-width="5"/>
<path d="M106.346 102H102.823C102.615 100.987 102.25 100.097 101.729 99.3295C101.218 98.5625 100.593 97.9186 99.8544 97.3977C99.1252 96.8674 98.3156 96.4697 97.4254 96.2045C96.5353 95.9394 95.6072 95.8068 94.6413 95.8068C92.88 95.8068 91.2843 96.2519 89.8544 97.142C88.4339 98.0322 87.3023 99.3438 86.4595 101.077C85.6262 102.81 85.2095 104.936 85.2095 107.455C85.2095 109.973 85.6262 112.099 86.4595 113.832C87.3023 115.565 88.4339 116.877 89.8544 117.767C91.2843 118.657 92.88 119.102 94.6413 119.102C95.6072 119.102 96.5353 118.97 97.4254 118.705C98.3156 118.439 99.1252 118.046 99.8544 117.526C100.593 116.995 101.218 116.347 101.729 115.58C102.25 114.803 102.615 113.913 102.823 112.909H106.346C106.081 114.396 105.598 115.726 104.897 116.901C104.196 118.075 103.325 119.074 102.283 119.898C101.242 120.712 100.072 121.332 98.7749 121.759C97.487 122.185 96.1091 122.398 94.6413 122.398C92.1603 122.398 89.9538 121.792 88.022 120.58C86.0902 119.367 84.5703 117.644 83.4624 115.409C82.3544 113.174 81.8004 110.523 81.8004 107.455C81.8004 104.386 82.3544 101.735 83.4624 99.5C84.5703 97.2652 86.0902 95.5417 88.022 94.3295C89.9538 93.1174 92.1603 92.5114 94.6413 92.5114C96.1091 92.5114 97.487 92.7244 98.7749 93.1506C100.072 93.5767 101.242 94.2017 102.283 95.0256C103.325 95.84 104.196 96.8343 104.897 98.0085C105.598 99.1733 106.081 100.504 106.346 102ZM91.6868 84.1591L94.6413 88.1364L97.5959 84.1591H100.778V84.3864L96.1754 90.2955H93.1072L88.505 84.3864V84.1591H91.6868ZM118.004 122.511C116.622 122.511 115.367 122.251 114.24 121.73C113.113 121.2 112.218 120.438 111.555 119.443C110.893 118.439 110.561 117.227 110.561 115.807C110.561 114.557 110.807 113.544 111.3 112.767C111.792 111.981 112.45 111.366 113.274 110.92C114.098 110.475 115.007 110.144 116.001 109.926C117.005 109.699 118.014 109.519 119.027 109.386C120.353 109.216 121.428 109.088 122.251 109.003C123.085 108.908 123.691 108.752 124.07 108.534C124.458 108.316 124.652 107.937 124.652 107.398V107.284C124.652 105.883 124.268 104.794 123.501 104.017C122.744 103.241 121.593 102.852 120.05 102.852C118.449 102.852 117.195 103.203 116.286 103.903C115.376 104.604 114.737 105.352 114.368 106.148L111.186 105.011C111.754 103.686 112.512 102.653 113.459 101.915C114.415 101.167 115.457 100.646 116.584 100.352C117.72 100.049 118.838 99.8977 119.936 99.8977C120.637 99.8977 121.442 99.983 122.351 100.153C123.269 100.314 124.155 100.651 125.007 101.162C125.869 101.673 126.584 102.445 127.152 103.477C127.72 104.509 128.004 105.892 128.004 107.625V122H124.652V119.045H124.482C124.254 119.519 123.875 120.026 123.345 120.565C122.815 121.105 122.109 121.564 121.229 121.943C120.348 122.322 119.273 122.511 118.004 122.511ZM118.516 119.5C119.841 119.5 120.959 119.24 121.868 118.719C122.786 118.198 123.478 117.526 123.942 116.702C124.415 115.878 124.652 115.011 124.652 114.102V111.034C124.51 111.205 124.197 111.361 123.714 111.503C123.241 111.635 122.692 111.754 122.067 111.858C121.451 111.953 120.85 112.038 120.263 112.114C119.685 112.18 119.216 112.237 118.857 112.284C117.985 112.398 117.171 112.582 116.413 112.838C115.665 113.084 115.059 113.458 114.595 113.96C114.141 114.453 113.913 115.125 113.913 115.977C113.913 117.142 114.344 118.023 115.206 118.619C116.077 119.206 117.18 119.5 118.516 119.5ZM149.577 105.068L146.566 105.92C146.377 105.419 146.097 104.931 145.728 104.457C145.368 103.974 144.876 103.577 144.251 103.264C143.626 102.952 142.826 102.795 141.85 102.795C140.515 102.795 139.402 103.103 138.512 103.719C137.631 104.325 137.191 105.097 137.191 106.034C137.191 106.867 137.494 107.526 138.1 108.009C138.706 108.491 139.653 108.894 140.941 109.216L144.18 110.011C146.13 110.485 147.584 111.209 148.54 112.185C149.497 113.151 149.975 114.396 149.975 115.92C149.975 117.17 149.615 118.288 148.896 119.273C148.185 120.258 147.191 121.034 145.913 121.602C144.634 122.17 143.147 122.455 141.452 122.455C139.227 122.455 137.385 121.972 135.927 121.006C134.469 120.04 133.545 118.629 133.157 116.773L136.339 115.977C136.642 117.152 137.215 118.032 138.058 118.619C138.91 119.206 140.022 119.5 141.396 119.5C142.958 119.5 144.199 119.169 145.117 118.506C146.045 117.833 146.509 117.028 146.509 116.091C146.509 115.333 146.244 114.699 145.714 114.188C145.183 113.667 144.369 113.278 143.271 113.023L139.634 112.17C137.636 111.697 136.168 110.963 135.231 109.969C134.303 108.965 133.839 107.71 133.839 106.205C133.839 104.973 134.184 103.884 134.876 102.938C135.576 101.991 136.528 101.247 137.731 100.707C138.943 100.168 140.316 99.8977 141.85 99.8977C144.009 99.8977 145.704 100.371 146.935 101.318C148.176 102.265 149.057 103.515 149.577 105.068ZM163.885 122.455C161.915 122.455 160.187 121.986 158.7 121.048C157.223 120.111 156.068 118.799 155.234 117.114C154.411 115.428 153.999 113.458 153.999 111.205C153.999 108.932 154.411 106.948 155.234 105.253C156.068 103.558 157.223 102.241 158.7 101.304C160.187 100.366 161.915 99.8977 163.885 99.8977C165.855 99.8977 167.578 100.366 169.055 101.304C170.542 102.241 171.697 103.558 172.521 105.253C173.355 106.948 173.771 108.932 173.771 111.205C173.771 113.458 173.355 115.428 172.521 117.114C171.697 118.799 170.542 120.111 169.055 121.048C167.578 121.986 165.855 122.455 163.885 122.455ZM163.885 119.443C165.381 119.443 166.612 119.06 167.578 118.293C168.544 117.526 169.259 116.517 169.723 115.267C170.187 114.017 170.419 112.663 170.419 111.205C170.419 109.746 170.187 108.387 169.723 107.128C169.259 105.868 168.544 104.85 167.578 104.074C166.612 103.297 165.381 102.909 163.885 102.909C162.389 102.909 161.158 103.297 160.192 104.074C159.226 104.85 158.511 105.868 158.047 107.128C157.583 108.387 157.351 109.746 157.351 111.205C157.351 112.663 157.583 114.017 158.047 115.267C158.511 116.517 159.226 117.526 160.192 118.293C161.158 119.06 162.389 119.443 163.885 119.443ZM178.888 130.182V100.182H182.127V103.648H182.525C182.771 103.269 183.112 102.786 183.548 102.199C183.993 101.602 184.627 101.072 185.451 100.608C186.284 100.134 187.411 99.8977 188.832 99.8977C190.669 99.8977 192.288 100.357 193.69 101.276C195.091 102.194 196.185 103.496 196.971 105.182C197.757 106.867 198.15 108.856 198.15 111.148C198.15 113.458 197.757 115.461 196.971 117.156C196.185 118.842 195.096 120.149 193.704 121.077C192.312 121.995 190.707 122.455 188.888 122.455C187.487 122.455 186.365 122.223 185.522 121.759C184.679 121.285 184.031 120.75 183.576 120.153C183.121 119.547 182.771 119.045 182.525 118.648H182.241V130.182H178.888ZM182.184 111.091C182.184 112.739 182.425 114.192 182.908 115.452C183.391 116.702 184.097 117.682 185.025 118.392C185.953 119.093 187.089 119.443 188.434 119.443C189.835 119.443 191.005 119.074 191.942 118.335C192.889 117.587 193.6 116.583 194.073 115.324C194.556 114.055 194.798 112.644 194.798 111.091C194.798 109.557 194.561 108.174 194.087 106.943C193.623 105.703 192.918 104.723 191.971 104.003C191.033 103.274 189.854 102.909 188.434 102.909C187.07 102.909 185.924 103.255 184.996 103.946C184.068 104.628 183.368 105.584 182.894 106.815C182.421 108.037 182.184 109.462 182.184 111.091ZM203.263 122V100.182H206.616V122H203.263ZM204.968 96.5455C204.315 96.5455 203.751 96.3229 203.278 95.8778C202.814 95.4328 202.582 94.8977 202.582 94.2727C202.582 93.6477 202.814 93.1127 203.278 92.6676C203.751 92.2225 204.315 92 204.968 92C205.621 92 206.18 92.2225 206.644 92.6676C207.118 93.1127 207.354 93.6477 207.354 94.2727C207.354 94.8977 207.118 95.4328 206.644 95.8778C206.18 96.3229 205.621 96.5455 204.968 96.5455ZM228.21 105.068L225.199 105.92C225.009 105.419 224.73 104.931 224.361 104.457C224.001 103.974 223.509 103.577 222.884 103.264C222.259 102.952 221.458 102.795 220.483 102.795C219.148 102.795 218.035 103.103 217.145 103.719C216.264 104.325 215.824 105.097 215.824 106.034C215.824 106.867 216.127 107.526 216.733 108.009C217.339 108.491 218.286 108.894 219.574 109.216L222.812 110.011C224.763 110.485 226.217 111.209 227.173 112.185C228.13 113.151 228.608 114.396 228.608 115.92C228.608 117.17 228.248 118.288 227.528 119.273C226.818 120.258 225.824 121.034 224.545 121.602C223.267 122.17 221.78 122.455 220.085 122.455C217.86 122.455 216.018 121.972 214.56 121.006C213.101 120.04 212.178 118.629 211.79 116.773L214.972 115.977C215.275 117.152 215.848 118.032 216.69 118.619C217.543 119.206 218.655 119.5 220.028 119.5C221.591 119.5 222.831 119.169 223.75 118.506C224.678 117.833 225.142 117.028 225.142 116.091C225.142 115.333 224.877 114.699 224.347 114.188C223.816 113.667 223.002 113.278 221.903 113.023L218.267 112.17C216.269 111.697 214.801 110.963 213.864 109.969C212.936 108.965 212.472 107.71 212.472 106.205C212.472 104.973 212.817 103.884 213.509 102.938C214.209 101.991 215.161 101.247 216.364 100.707C217.576 100.168 218.949 99.8977 220.483 99.8977C222.642 99.8977 224.337 100.371 225.568 101.318C226.809 102.265 227.689 103.515 228.21 105.068ZM123.011 205.727C123.011 202.148 123.475 198.857 124.403 195.855C125.341 192.844 126.676 190.074 128.409 187.545H131.364C130.682 188.483 130.043 189.638 129.446 191.011C128.859 192.375 128.343 193.876 127.898 195.514C127.453 197.143 127.102 198.829 126.847 200.571C126.6 202.313 126.477 204.032 126.477 205.727C126.477 207.981 126.695 210.268 127.131 212.588C127.566 214.908 128.153 217.062 128.892 219.051C129.631 221.04 130.455 222.659 131.364 223.909H128.409C126.676 221.381 125.341 218.616 124.403 215.614C123.475 212.602 123.011 209.307 123.011 205.727ZM144.705 218.455C142.66 218.455 140.898 217.972 139.421 217.006C137.944 216.04 136.808 214.709 136.012 213.014C135.217 211.319 134.819 209.383 134.819 207.205C134.819 204.989 135.226 203.033 136.04 201.338C136.864 199.634 138.01 198.303 139.478 197.347C140.955 196.381 142.679 195.898 144.648 195.898C146.183 195.898 147.565 196.182 148.796 196.75C150.027 197.318 151.036 198.114 151.822 199.136C152.608 200.159 153.095 201.352 153.285 202.716H149.933C149.677 201.722 149.109 200.841 148.228 200.074C147.357 199.297 146.183 198.909 144.705 198.909C143.398 198.909 142.253 199.25 141.268 199.932C140.292 200.604 139.53 201.556 138.981 202.787C138.441 204.009 138.171 205.443 138.171 207.091C138.171 208.777 138.436 210.244 138.967 211.494C139.506 212.744 140.264 213.715 141.239 214.406C142.224 215.098 143.379 215.443 144.705 215.443C145.576 215.443 146.367 215.292 147.077 214.989C147.788 214.686 148.389 214.25 148.881 213.682C149.374 213.114 149.724 212.432 149.933 211.636H153.285C153.095 212.924 152.627 214.084 151.879 215.116C151.14 216.139 150.16 216.954 148.938 217.56C147.726 218.156 146.315 218.455 144.705 218.455ZM157.56 218V215.443L169.947 199.534V199.307H157.958V196.182H174.265V198.852L162.219 214.648V214.875H174.663V218H157.56ZM186.985 205.727C186.985 209.307 186.516 212.602 185.579 215.614C184.651 218.616 183.32 221.381 181.587 223.909H178.633C179.315 222.972 179.949 221.816 180.536 220.443C181.133 219.08 181.654 217.583 182.099 215.955C182.544 214.316 182.889 212.626 183.136 210.884C183.391 209.132 183.519 207.413 183.519 205.727C183.519 203.473 183.301 201.187 182.866 198.866C182.43 196.546 181.843 194.392 181.104 192.403C180.366 190.415 179.542 188.795 178.633 187.545H181.587C183.32 190.074 184.651 192.844 185.579 195.855C186.516 198.857 186.985 202.148 186.985 205.727Z" fill="#F1D95B"/>
</svg>
