<svg width="300" height="300" viewBox="0 0 300 300" fill="none" xmlns="http://www.w3.org/2000/svg">
<rect x="2.5" y="2.5" width="295" height="295" rx="12.5" fill="black"/>
<rect x="2.5" y="2.5" width="295" height="295" rx="12.5" stroke="#F1D95B" stroke-width="5"/>
<path d="M119.812 117V87.9091H123.335V113.875H136.857V117H119.812ZM141.857 117V95.1818H145.21V117H141.857ZM143.562 91.5455C142.908 91.5455 142.345 91.3229 141.871 90.8778C141.407 90.4328 141.175 89.8977 141.175 89.2727C141.175 88.6477 141.407 88.1127 141.871 87.6676C142.345 87.2225 142.908 87 143.562 87C144.215 87 144.774 87.2225 145.238 87.6676C145.711 88.1127 145.948 88.6477 145.948 89.2727C145.948 89.8977 145.711 90.4328 145.238 90.8778C144.774 91.3229 144.215 91.5455 143.562 91.5455ZM166.804 100.068L163.793 100.92C163.603 100.419 163.324 99.9309 162.955 99.4574C162.595 98.9744 162.102 98.5767 161.477 98.2642C160.852 97.9517 160.052 97.7955 159.077 97.7955C157.741 97.7955 156.629 98.1032 155.739 98.7188C154.858 99.3248 154.418 100.097 154.418 101.034C154.418 101.867 154.721 102.526 155.327 103.009C155.933 103.491 156.88 103.894 158.168 104.216L161.406 105.011C163.357 105.485 164.811 106.209 165.767 107.185C166.723 108.151 167.202 109.396 167.202 110.92C167.202 112.17 166.842 113.288 166.122 114.273C165.412 115.258 164.418 116.034 163.139 116.602C161.861 117.17 160.374 117.455 158.679 117.455C156.454 117.455 154.612 116.972 153.153 116.006C151.695 115.04 150.772 113.629 150.384 111.773L153.565 110.977C153.868 112.152 154.441 113.032 155.284 113.619C156.136 114.206 157.249 114.5 158.622 114.5C160.185 114.5 161.425 114.169 162.344 113.506C163.272 112.833 163.736 112.028 163.736 111.091C163.736 110.333 163.471 109.699 162.94 109.188C162.41 108.667 161.596 108.278 160.497 108.023L156.861 107.17C154.863 106.697 153.395 105.963 152.457 104.969C151.529 103.965 151.065 102.71 151.065 101.205C151.065 99.9735 151.411 98.8845 152.102 97.9375C152.803 96.9905 153.755 96.2472 154.957 95.7074C156.17 95.1676 157.543 94.8977 159.077 94.8977C161.236 94.8977 162.931 95.3712 164.162 96.3182C165.402 97.2652 166.283 98.5152 166.804 100.068ZM181.737 95.1818V98.0227H170.43V95.1818H181.737ZM173.725 89.9545H177.077V110.75C177.077 111.697 177.215 112.407 177.489 112.881C177.773 113.345 178.133 113.657 178.569 113.818C179.014 113.97 179.483 114.045 179.975 114.045C180.344 114.045 180.647 114.027 180.884 113.989C181.121 113.941 181.31 113.903 181.452 113.875L182.134 116.886C181.907 116.972 181.59 117.057 181.183 117.142C180.775 117.237 180.259 117.284 179.634 117.284C178.687 117.284 177.759 117.08 176.85 116.673C175.951 116.266 175.202 115.646 174.606 114.812C174.019 113.979 173.725 112.928 173.725 111.659V89.9545ZM122.836 200.727C122.836 197.148 123.3 193.857 124.228 190.855C125.165 187.844 126.5 185.074 128.233 182.545H131.188C130.506 183.483 129.867 184.638 129.27 186.011C128.683 187.375 128.167 188.876 127.722 190.514C127.277 192.143 126.926 193.829 126.671 195.571C126.425 197.313 126.301 199.032 126.301 200.727C126.301 202.981 126.519 205.268 126.955 207.588C127.391 209.908 127.978 212.062 128.716 214.051C129.455 216.04 130.279 217.659 131.188 218.909H128.233C126.5 216.381 125.165 213.616 124.228 210.614C123.3 207.602 122.836 204.307 122.836 200.727ZM136.135 221.182V191.182H139.373V194.648H139.771C140.017 194.269 140.358 193.786 140.794 193.199C141.239 192.602 141.873 192.072 142.697 191.608C143.53 191.134 144.657 190.898 146.078 190.898C147.915 190.898 149.534 191.357 150.936 192.276C152.337 193.194 153.431 194.496 154.217 196.182C155.003 197.867 155.396 199.856 155.396 202.148C155.396 204.458 155.003 206.461 154.217 208.156C153.431 209.842 152.342 211.149 150.95 212.077C149.558 212.995 147.953 213.455 146.135 213.455C144.733 213.455 143.611 213.223 142.768 212.759C141.925 212.285 141.277 211.75 140.822 211.153C140.368 210.547 140.017 210.045 139.771 209.648H139.487V221.182H136.135ZM139.43 202.091C139.43 203.739 139.672 205.192 140.154 206.452C140.637 207.702 141.343 208.682 142.271 209.392C143.199 210.093 144.335 210.443 145.68 210.443C147.082 210.443 148.251 210.074 149.189 209.335C150.136 208.587 150.846 207.583 151.319 206.324C151.802 205.055 152.044 203.644 152.044 202.091C152.044 200.557 151.807 199.174 151.333 197.943C150.869 196.703 150.164 195.723 149.217 195.003C148.279 194.274 147.1 193.909 145.68 193.909C144.316 193.909 143.171 194.255 142.243 194.946C141.315 195.628 140.614 196.584 140.14 197.815C139.667 199.037 139.43 200.462 139.43 202.091ZM163.862 183.909V213H160.51V183.909H163.862ZM177.161 200.727C177.161 204.307 176.692 207.602 175.755 210.614C174.827 213.616 173.496 216.381 171.763 218.909H168.809C169.49 217.972 170.125 216.816 170.712 215.443C171.309 214.08 171.829 212.583 172.275 210.955C172.72 209.316 173.065 207.626 173.311 205.884C173.567 204.132 173.695 202.413 173.695 200.727C173.695 198.473 173.477 196.187 173.042 193.866C172.606 191.546 172.019 189.392 171.28 187.403C170.542 185.415 169.718 183.795 168.809 182.545H171.763C173.496 185.074 174.827 187.844 175.755 190.855C176.692 193.857 177.161 197.148 177.161 200.727Z" fill="#F1D95B"/>
</svg>
