<svg width="310" height="310" viewBox="0 0 310 310" fill="none" xmlns="http://www.w3.org/2000/svg">
<rect x="2.5" y="2.5" width="305" height="305" rx="17.5" fill="black"/>
<rect x="2.5" y="2.5" width="305" height="305" rx="17.5" stroke="#F1D95B" stroke-width="5"/>
<path d="M124.812 122V92.9091H128.335V118.875H141.857V122H124.812ZM146.857 122V100.182H150.21V122H146.857ZM148.562 96.5455C147.908 96.5455 147.345 96.3229 146.871 95.8778C146.407 95.4328 146.175 94.8977 146.175 94.2727C146.175 93.6477 146.407 93.1127 146.871 92.6676C147.345 92.2225 147.908 92 148.562 92C149.215 92 149.774 92.2225 150.238 92.6676C150.711 93.1127 150.948 93.6477 150.948 94.2727C150.948 94.8977 150.711 95.4328 150.238 95.8778C149.774 96.3229 149.215 96.5455 148.562 96.5455ZM171.804 105.068L168.793 105.92C168.603 105.419 168.324 104.931 167.955 104.457C167.595 103.974 167.102 103.577 166.477 103.264C165.852 102.952 165.052 102.795 164.077 102.795C162.741 102.795 161.629 103.103 160.739 103.719C159.858 104.325 159.418 105.097 159.418 106.034C159.418 106.867 159.721 107.526 160.327 108.009C160.933 108.491 161.88 108.894 163.168 109.216L166.406 110.011C168.357 110.485 169.811 111.209 170.767 112.185C171.723 113.151 172.202 114.396 172.202 115.92C172.202 117.17 171.842 118.288 171.122 119.273C170.412 120.258 169.418 121.034 168.139 121.602C166.861 122.17 165.374 122.455 163.679 122.455C161.454 122.455 159.612 121.972 158.153 121.006C156.695 120.04 155.772 118.629 155.384 116.773L158.565 115.977C158.868 117.152 159.441 118.032 160.284 118.619C161.136 119.206 162.249 119.5 163.622 119.5C165.185 119.5 166.425 119.169 167.344 118.506C168.272 117.833 168.736 117.028 168.736 116.091C168.736 115.333 168.471 114.699 167.94 114.188C167.41 113.667 166.596 113.278 165.497 113.023L161.861 112.17C159.863 111.697 158.395 110.963 157.457 109.969C156.529 108.965 156.065 107.71 156.065 106.205C156.065 104.973 156.411 103.884 157.102 102.938C157.803 101.991 158.755 101.247 159.957 100.707C161.17 100.168 162.543 99.8977 164.077 99.8977C166.236 99.8977 167.931 100.371 169.162 101.318C170.402 102.265 171.283 103.515 171.804 105.068ZM186.737 100.182V103.023H175.43V100.182H186.737ZM178.725 94.9545H182.077V115.75C182.077 116.697 182.215 117.407 182.489 117.881C182.773 118.345 183.133 118.657 183.569 118.818C184.014 118.97 184.483 119.045 184.975 119.045C185.344 119.045 185.647 119.027 185.884 118.989C186.121 118.941 186.31 118.903 186.452 118.875L187.134 121.886C186.907 121.972 186.59 122.057 186.183 122.142C185.775 122.237 185.259 122.284 184.634 122.284C183.687 122.284 182.759 122.08 181.85 121.673C180.951 121.266 180.202 120.646 179.606 119.812C179.019 118.979 178.725 117.928 178.725 116.659V94.9545ZM127.836 205.727C127.836 202.148 128.3 198.857 129.228 195.855C130.165 192.844 131.5 190.074 133.233 187.545H136.188C135.506 188.483 134.867 189.638 134.27 191.011C133.683 192.375 133.167 193.876 132.722 195.514C132.277 197.143 131.926 198.829 131.671 200.571C131.425 202.313 131.301 204.032 131.301 205.727C131.301 207.981 131.519 210.268 131.955 212.588C132.391 214.908 132.978 217.062 133.716 219.051C134.455 221.04 135.279 222.659 136.188 223.909H133.233C131.5 221.381 130.165 218.616 129.228 215.614C128.3 212.602 127.836 209.307 127.836 205.727ZM141.135 226.182V196.182H144.373V199.648H144.771C145.017 199.269 145.358 198.786 145.794 198.199C146.239 197.602 146.873 197.072 147.697 196.608C148.53 196.134 149.657 195.898 151.078 195.898C152.915 195.898 154.534 196.357 155.936 197.276C157.337 198.194 158.431 199.496 159.217 201.182C160.003 202.867 160.396 204.856 160.396 207.148C160.396 209.458 160.003 211.461 159.217 213.156C158.431 214.842 157.342 216.149 155.95 217.077C154.558 217.995 152.953 218.455 151.135 218.455C149.733 218.455 148.611 218.223 147.768 217.759C146.925 217.285 146.277 216.75 145.822 216.153C145.368 215.547 145.017 215.045 144.771 214.648H144.487V226.182H141.135ZM144.43 207.091C144.43 208.739 144.672 210.192 145.154 211.452C145.637 212.702 146.343 213.682 147.271 214.392C148.199 215.093 149.335 215.443 150.68 215.443C152.082 215.443 153.251 215.074 154.189 214.335C155.136 213.587 155.846 212.583 156.319 211.324C156.802 210.055 157.044 208.644 157.044 207.091C157.044 205.557 156.807 204.174 156.333 202.943C155.869 201.703 155.164 200.723 154.217 200.003C153.279 199.274 152.1 198.909 150.68 198.909C149.316 198.909 148.171 199.255 147.243 199.946C146.315 200.628 145.614 201.584 145.14 202.815C144.667 204.037 144.43 205.462 144.43 207.091ZM168.862 188.909V218H165.51V188.909H168.862ZM182.161 205.727C182.161 209.307 181.692 212.602 180.755 215.614C179.827 218.616 178.496 221.381 176.763 223.909H173.809C174.49 222.972 175.125 221.816 175.712 220.443C176.309 219.08 176.829 217.583 177.275 215.955C177.72 214.316 178.065 212.626 178.311 210.884C178.567 209.132 178.695 207.413 178.695 205.727C178.695 203.473 178.477 201.187 178.042 198.866C177.606 196.546 177.019 194.392 176.28 192.403C175.542 190.415 174.718 188.795 173.809 187.545H176.763C178.496 190.074 179.827 192.844 180.755 195.855C181.692 198.857 182.161 202.148 182.161 205.727Z" fill="#F1D95B"/>
</svg>
