<svg width="310" height="310" viewBox="0 0 310 310" fill="none" xmlns="http://www.w3.org/2000/svg">
<rect x="2.5" y="2.5" width="305" height="305" rx="17.5" fill="black"/>
<rect x="2.5" y="2.5" width="305" height="305" rx="17.5" stroke="#F1D95B" stroke-width="5"/>
<path d="M124.812 122V92.9091H128.335V118.875H141.857V122H124.812ZM146.857 122V100.182H150.21V122H146.857ZM148.562 96.5455C147.908 96.5455 147.345 96.3229 146.871 95.8778C146.407 95.4328 146.175 94.8977 146.175 94.2727C146.175 93.6477 146.407 93.1127 146.871 92.6676C147.345 92.2225 147.908 92 148.562 92C149.215 92 149.774 92.2225 150.238 92.6676C150.711 93.1127 150.948 93.6477 150.948 94.2727C150.948 94.8977 150.711 95.4328 150.238 95.8778C149.774 96.3229 149.215 96.5455 148.562 96.5455ZM171.804 105.068L168.793 105.92C168.603 105.419 168.324 104.931 167.955 104.457C167.595 103.974 167.102 103.577 166.477 103.264C165.852 102.952 165.052 102.795 164.077 102.795C162.741 102.795 161.629 103.103 160.739 103.719C159.858 104.325 159.418 105.097 159.418 106.034C159.418 106.867 159.721 107.526 160.327 108.009C160.933 108.491 161.88 108.894 163.168 109.216L166.406 110.011C168.357 110.485 169.811 111.209 170.767 112.185C171.723 113.151 172.202 114.396 172.202 115.92C172.202 117.17 171.842 118.288 171.122 119.273C170.412 120.258 169.418 121.034 168.139 121.602C166.861 122.17 165.374 122.455 163.679 122.455C161.454 122.455 159.612 121.972 158.153 121.006C156.695 120.04 155.772 118.629 155.384 116.773L158.565 115.977C158.868 117.152 159.441 118.032 160.284 118.619C161.136 119.206 162.249 119.5 163.622 119.5C165.185 119.5 166.425 119.169 167.344 118.506C168.272 117.833 168.736 117.028 168.736 116.091C168.736 115.333 168.471 114.699 167.94 114.188C167.41 113.667 166.596 113.278 165.497 113.023L161.861 112.17C159.863 111.697 158.395 110.963 157.457 109.969C156.529 108.965 156.065 107.71 156.065 106.205C156.065 104.973 156.411 103.884 157.102 102.938C157.803 101.991 158.755 101.247 159.957 100.707C161.17 100.168 162.543 99.8977 164.077 99.8977C166.236 99.8977 167.931 100.371 169.162 101.318C170.402 102.265 171.283 103.515 171.804 105.068ZM186.737 100.182V103.023H175.43V100.182H186.737ZM178.725 94.9545H182.077V115.75C182.077 116.697 182.215 117.407 182.489 117.881C182.773 118.345 183.133 118.657 183.569 118.818C184.014 118.97 184.483 119.045 184.975 119.045C185.344 119.045 185.647 119.027 185.884 118.989C186.121 118.941 186.31 118.903 186.452 118.875L187.134 121.886C186.907 121.972 186.59 122.057 186.183 122.142C185.775 122.237 185.259 122.284 184.634 122.284C183.687 122.284 182.759 122.08 181.85 121.673C180.951 121.266 180.202 120.646 179.606 119.812C179.019 118.979 178.725 117.928 178.725 116.659V94.9545ZM123.011 205.727C123.011 202.148 123.475 198.857 124.403 195.855C125.341 192.844 126.676 190.074 128.409 187.545H131.364C130.682 188.483 130.043 189.638 129.446 191.011C128.859 192.375 128.343 193.876 127.898 195.514C127.453 197.143 127.102 198.829 126.847 200.571C126.6 202.313 126.477 204.032 126.477 205.727C126.477 207.981 126.695 210.268 127.131 212.588C127.566 214.908 128.153 217.062 128.892 219.051C129.631 221.04 130.455 222.659 131.364 223.909H128.409C126.676 221.381 125.341 218.616 124.403 215.614C123.475 212.602 123.011 209.307 123.011 205.727ZM144.705 218.455C142.66 218.455 140.898 217.972 139.421 217.006C137.944 216.04 136.808 214.709 136.012 213.014C135.217 211.319 134.819 209.383 134.819 207.205C134.819 204.989 135.226 203.033 136.04 201.338C136.864 199.634 138.01 198.303 139.478 197.347C140.955 196.381 142.679 195.898 144.648 195.898C146.183 195.898 147.565 196.182 148.796 196.75C150.027 197.318 151.036 198.114 151.822 199.136C152.608 200.159 153.095 201.352 153.285 202.716H149.933C149.677 201.722 149.109 200.841 148.228 200.074C147.357 199.297 146.183 198.909 144.705 198.909C143.398 198.909 142.253 199.25 141.268 199.932C140.292 200.604 139.53 201.556 138.981 202.787C138.441 204.009 138.171 205.443 138.171 207.091C138.171 208.777 138.436 210.244 138.967 211.494C139.506 212.744 140.264 213.715 141.239 214.406C142.224 215.098 143.379 215.443 144.705 215.443C145.576 215.443 146.367 215.292 147.077 214.989C147.788 214.686 148.389 214.25 148.881 213.682C149.374 213.114 149.724 212.432 149.933 211.636H153.285C153.095 212.924 152.627 214.084 151.879 215.116C151.14 216.139 150.16 216.954 148.938 217.56C147.726 218.156 146.315 218.455 144.705 218.455ZM157.56 218V215.443L169.947 199.534V199.307H157.958V196.182H174.265V198.852L162.219 214.648V214.875H174.663V218H157.56ZM186.985 205.727C186.985 209.307 186.516 212.602 185.579 215.614C184.651 218.616 183.32 221.381 181.587 223.909H178.633C179.315 222.972 179.949 221.816 180.536 220.443C181.133 219.08 181.654 217.583 182.099 215.955C182.544 214.316 182.889 212.626 183.136 210.884C183.391 209.132 183.519 207.413 183.519 205.727C183.519 203.473 183.301 201.187 182.866 198.866C182.43 196.546 181.843 194.392 181.104 192.403C180.366 190.415 179.542 188.795 178.633 187.545H181.587C183.32 190.074 184.651 192.844 185.579 195.855C186.516 198.857 186.985 202.148 186.985 205.727Z" fill="#F1D95B"/>
</svg>
