<svg width="310" height="310" viewBox="0 0 310 310" fill="none" xmlns="http://www.w3.org/2000/svg">
<rect x="2.5" y="2.5" width="305" height="305" rx="17.5" fill="black"/>
<rect x="2.5" y="2.5" width="305" height="305" rx="17.5" stroke="#F1D95B" stroke-width="5"/>
<path d="M110.154 122V119.443L125.836 96.0341H109.984V92.9091H130.041V95.4659L114.359 118.875H130.211V122H110.154ZM120.098 89.2727C119.444 89.2727 118.881 89.0502 118.407 88.6051C117.943 88.16 117.711 87.625 117.711 87C117.711 86.375 117.943 85.84 118.407 85.3949C118.881 84.9498 119.444 84.7273 120.098 84.7273C120.751 84.7273 121.31 84.9498 121.774 85.3949C122.247 85.84 122.484 86.375 122.484 87C122.484 87.625 122.247 88.16 121.774 88.6051C121.31 89.0502 120.751 89.2727 120.098 89.2727ZM144.529 122.455C142.56 122.455 140.832 121.986 139.345 121.048C137.868 120.111 136.712 118.799 135.879 117.114C135.055 115.428 134.643 113.458 134.643 111.205C134.643 108.932 135.055 106.948 135.879 105.253C136.712 103.558 137.868 102.241 139.345 101.304C140.832 100.366 142.56 99.8977 144.529 99.8977C146.499 99.8977 148.223 100.366 149.7 101.304C151.187 102.241 152.342 103.558 153.166 105.253C153.999 106.948 154.416 108.932 154.416 111.205C154.416 113.458 153.999 115.428 153.166 117.114C152.342 118.799 151.187 120.111 149.7 121.048C148.223 121.986 146.499 122.455 144.529 122.455ZM144.529 119.443C146.026 119.443 147.257 119.06 148.223 118.293C149.189 117.526 149.904 116.517 150.368 115.267C150.832 114.017 151.064 112.663 151.064 111.205C151.064 109.746 150.832 108.387 150.368 107.128C149.904 105.868 149.189 104.85 148.223 104.074C147.257 103.297 146.026 102.909 144.529 102.909C143.033 102.909 141.802 103.297 140.836 104.074C139.87 104.85 139.155 105.868 138.691 107.128C138.227 108.387 137.995 109.746 137.995 111.205C137.995 112.663 138.227 114.017 138.691 115.267C139.155 116.517 139.87 117.526 140.836 118.293C141.802 119.06 143.033 119.443 144.529 119.443ZM162.885 108.875V122H159.533V100.182H162.772V103.591H163.056C163.567 102.483 164.344 101.593 165.385 100.92C166.427 100.239 167.772 99.8977 169.419 99.8977C170.897 99.8977 172.189 100.201 173.297 100.807C174.405 101.403 175.267 102.312 175.882 103.534C176.498 104.746 176.806 106.28 176.806 108.136V122H173.453V108.364C173.453 106.65 173.008 105.314 172.118 104.358C171.228 103.392 170.007 102.909 168.453 102.909C167.383 102.909 166.427 103.141 165.584 103.605C164.751 104.069 164.093 104.746 163.61 105.636C163.127 106.527 162.885 107.606 162.885 108.875ZM189.352 122.511C187.969 122.511 186.715 122.251 185.588 121.73C184.461 121.2 183.566 120.438 182.903 119.443C182.24 118.439 181.909 117.227 181.909 115.807C181.909 114.557 182.155 113.544 182.647 112.767C183.14 111.981 183.798 111.366 184.622 110.92C185.446 110.475 186.355 110.144 187.349 109.926C188.353 109.699 189.361 109.519 190.375 109.386C191.7 109.216 192.775 109.088 193.599 109.003C194.432 108.908 195.038 108.752 195.417 108.534C195.806 108.316 196 107.937 196 107.398V107.284C196 105.883 195.616 104.794 194.849 104.017C194.092 103.241 192.941 102.852 191.397 102.852C189.797 102.852 188.542 103.203 187.633 103.903C186.724 104.604 186.085 105.352 185.716 106.148L182.534 105.011C183.102 103.686 183.859 102.653 184.806 101.915C185.763 101.167 186.805 100.646 187.931 100.352C189.068 100.049 190.185 99.8977 191.284 99.8977C191.984 99.8977 192.789 99.983 193.699 100.153C194.617 100.314 195.502 100.651 196.355 101.162C197.217 101.673 197.931 102.445 198.5 103.477C199.068 104.509 199.352 105.892 199.352 107.625V122H196V119.045H195.829C195.602 119.519 195.223 120.026 194.693 120.565C194.163 121.105 193.457 121.564 192.576 121.943C191.696 122.322 190.621 122.511 189.352 122.511ZM189.863 119.5C191.189 119.5 192.306 119.24 193.216 118.719C194.134 118.198 194.825 117.526 195.289 116.702C195.763 115.878 196 115.011 196 114.102V111.034C195.858 111.205 195.545 111.361 195.062 111.503C194.589 111.635 194.039 111.754 193.414 111.858C192.799 111.953 192.198 112.038 191.61 112.114C191.033 112.18 190.564 112.237 190.204 112.284C189.333 112.398 188.519 112.582 187.761 112.838C187.013 113.084 186.407 113.458 185.943 113.96C185.488 114.453 185.261 115.125 185.261 115.977C185.261 117.142 185.692 118.023 186.554 118.619C187.425 119.206 188.528 119.5 189.863 119.5ZM127.836 205.727C127.836 202.148 128.3 198.857 129.228 195.855C130.165 192.844 131.5 190.074 133.233 187.545H136.188C135.506 188.483 134.867 189.638 134.27 191.011C133.683 192.375 133.167 193.876 132.722 195.514C132.277 197.143 131.926 198.829 131.671 200.571C131.425 202.313 131.301 204.032 131.301 205.727C131.301 207.981 131.519 210.268 131.955 212.588C132.391 214.908 132.978 217.062 133.716 219.051C134.455 221.04 135.279 222.659 136.188 223.909H133.233C131.5 221.381 130.165 218.616 129.228 215.614C128.3 212.602 127.836 209.307 127.836 205.727ZM141.135 226.182V196.182H144.373V199.648H144.771C145.017 199.269 145.358 198.786 145.794 198.199C146.239 197.602 146.873 197.072 147.697 196.608C148.53 196.134 149.657 195.898 151.078 195.898C152.915 195.898 154.534 196.357 155.936 197.276C157.337 198.194 158.431 199.496 159.217 201.182C160.003 202.867 160.396 204.856 160.396 207.148C160.396 209.458 160.003 211.461 159.217 213.156C158.431 214.842 157.342 216.149 155.95 217.077C154.558 217.995 152.953 218.455 151.135 218.455C149.733 218.455 148.611 218.223 147.768 217.759C146.925 217.285 146.277 216.75 145.822 216.153C145.368 215.547 145.017 215.045 144.771 214.648H144.487V226.182H141.135ZM144.43 207.091C144.43 208.739 144.672 210.192 145.154 211.452C145.637 212.702 146.343 213.682 147.271 214.392C148.199 215.093 149.335 215.443 150.68 215.443C152.082 215.443 153.251 215.074 154.189 214.335C155.136 213.587 155.846 212.583 156.319 211.324C156.802 210.055 157.044 208.644 157.044 207.091C157.044 205.557 156.807 204.174 156.333 202.943C155.869 201.703 155.164 200.723 154.217 200.003C153.279 199.274 152.1 198.909 150.68 198.909C149.316 198.909 148.171 199.255 147.243 199.946C146.315 200.628 145.614 201.584 145.14 202.815C144.667 204.037 144.43 205.462 144.43 207.091ZM168.862 188.909V218H165.51V188.909H168.862ZM182.161 205.727C182.161 209.307 181.692 212.602 180.755 215.614C179.827 218.616 178.496 221.381 176.763 223.909H173.809C174.49 222.972 175.125 221.816 175.712 220.443C176.309 219.08 176.829 217.583 177.275 215.955C177.72 214.316 178.065 212.626 178.311 210.884C178.567 209.132 178.695 207.413 178.695 205.727C178.695 203.473 178.477 201.187 178.042 198.866C177.606 196.546 177.019 194.392 176.28 192.403C175.542 190.415 174.718 188.795 173.809 187.545H176.763C178.496 190.074 179.827 192.844 180.755 195.855C181.692 198.857 182.161 202.148 182.161 205.727Z" fill="#F1D95B"/>
</svg>
