<svg width="310" height="310" viewBox="0 0 310 310" fill="none" xmlns="http://www.w3.org/2000/svg">
<rect x="2.5" y="2.5" width="305" height="305" rx="17.5" fill="black"/>
<rect x="2.5" y="2.5" width="305" height="305" rx="17.5" stroke="#F1D95B" stroke-width="5"/>
<path d="M110.447 122V119.443L126.129 96.0341H110.277V92.9091H130.334V95.4659L114.652 118.875H130.504V122H110.447ZM117.436 84.1591L120.391 88.1364L123.345 84.1591H126.527V84.3864L121.925 90.2955H118.857L114.254 84.3864V84.1591H117.436ZM145.107 122.455C143.004 122.455 141.191 121.991 139.666 121.062C138.151 120.125 136.982 118.818 136.158 117.142C135.343 115.456 134.936 113.496 134.936 111.261C134.936 109.027 135.343 107.057 136.158 105.352C136.982 103.638 138.127 102.303 139.595 101.347C141.072 100.381 142.796 99.8977 144.766 99.8977C145.902 99.8977 147.024 100.087 148.132 100.466C149.24 100.845 150.249 101.46 151.158 102.312C152.067 103.155 152.791 104.273 153.331 105.665C153.871 107.057 154.141 108.771 154.141 110.807V112.227H137.322V109.33H150.732C150.732 108.098 150.485 107 149.993 106.034C149.51 105.068 148.819 104.306 147.919 103.747C147.029 103.188 145.978 102.909 144.766 102.909C143.43 102.909 142.275 103.241 141.3 103.903C140.334 104.557 139.59 105.409 139.07 106.46C138.549 107.511 138.288 108.638 138.288 109.841V111.773C138.288 113.42 138.572 114.817 139.141 115.963C139.718 117.099 140.518 117.966 141.541 118.562C142.564 119.15 143.752 119.443 145.107 119.443C145.987 119.443 146.783 119.32 147.493 119.074C148.213 118.818 148.833 118.439 149.354 117.938C149.875 117.426 150.277 116.792 150.561 116.034L153.8 116.943C153.459 118.042 152.886 119.008 152.081 119.841C151.276 120.665 150.282 121.309 149.098 121.773C147.914 122.227 146.584 122.455 145.107 122.455ZM162.592 108.875V122H159.24V100.182H162.479V103.591H162.763C163.274 102.483 164.051 101.593 165.092 100.92C166.134 100.239 167.479 99.8977 169.126 99.8977C170.604 99.8977 171.896 100.201 173.004 100.807C174.112 101.403 174.974 102.312 175.589 103.534C176.205 104.746 176.513 106.28 176.513 108.136V122H173.161V108.364C173.161 106.65 172.715 105.314 171.825 104.358C170.935 103.392 169.714 102.909 168.161 102.909C167.09 102.909 166.134 103.141 165.291 103.605C164.458 104.069 163.8 104.746 163.317 105.636C162.834 106.527 162.592 107.606 162.592 108.875ZM189.059 122.511C187.676 122.511 186.422 122.251 185.295 121.73C184.168 121.2 183.273 120.438 182.61 119.443C181.947 118.439 181.616 117.227 181.616 115.807C181.616 114.557 181.862 113.544 182.354 112.767C182.847 111.981 183.505 111.366 184.329 110.92C185.153 110.475 186.062 110.144 187.056 109.926C188.06 109.699 189.068 109.519 190.082 109.386C191.407 109.216 192.482 109.088 193.306 109.003C194.139 108.908 194.746 108.752 195.124 108.534C195.513 108.316 195.707 107.937 195.707 107.398V107.284C195.707 105.883 195.323 104.794 194.556 104.017C193.799 103.241 192.648 102.852 191.104 102.852C189.504 102.852 188.249 103.203 187.34 103.903C186.431 104.604 185.792 105.352 185.423 106.148L182.241 105.011C182.809 103.686 183.567 102.653 184.513 101.915C185.47 101.167 186.512 100.646 187.638 100.352C188.775 100.049 189.892 99.8977 190.991 99.8977C191.692 99.8977 192.496 99.983 193.406 100.153C194.324 100.314 195.21 100.651 196.062 101.162C196.924 101.673 197.638 102.445 198.207 103.477C198.775 104.509 199.059 105.892 199.059 107.625V122H195.707V119.045H195.536C195.309 119.519 194.93 120.026 194.4 120.565C193.87 121.105 193.164 121.564 192.283 121.943C191.403 122.322 190.328 122.511 189.059 122.511ZM189.57 119.5C190.896 119.5 192.013 119.24 192.923 118.719C193.841 118.198 194.532 117.526 194.996 116.702C195.47 115.878 195.707 115.011 195.707 114.102V111.034C195.565 111.205 195.252 111.361 194.769 111.503C194.296 111.635 193.746 111.754 193.121 111.858C192.506 111.953 191.905 112.038 191.317 112.114C190.74 112.18 190.271 112.237 189.911 112.284C189.04 112.398 188.226 112.582 187.468 112.838C186.72 113.084 186.114 113.458 185.65 113.96C185.195 114.453 184.968 115.125 184.968 115.977C184.968 117.142 185.399 118.023 186.261 118.619C187.132 119.206 188.235 119.5 189.57 119.5ZM123.011 205.727C123.011 202.148 123.475 198.857 124.403 195.855C125.341 192.844 126.676 190.074 128.409 187.545H131.364C130.682 188.483 130.043 189.638 129.446 191.011C128.859 192.375 128.343 193.876 127.898 195.514C127.453 197.143 127.102 198.829 126.847 200.571C126.6 202.313 126.477 204.032 126.477 205.727C126.477 207.981 126.695 210.268 127.131 212.588C127.566 214.908 128.153 217.062 128.892 219.051C129.631 221.04 130.455 222.659 131.364 223.909H128.409C126.676 221.381 125.341 218.616 124.403 215.614C123.475 212.602 123.011 209.307 123.011 205.727ZM144.705 218.455C142.66 218.455 140.898 217.972 139.421 217.006C137.944 216.04 136.808 214.709 136.012 213.014C135.217 211.319 134.819 209.383 134.819 207.205C134.819 204.989 135.226 203.033 136.04 201.338C136.864 199.634 138.01 198.303 139.478 197.347C140.955 196.381 142.679 195.898 144.648 195.898C146.183 195.898 147.565 196.182 148.796 196.75C150.027 197.318 151.036 198.114 151.822 199.136C152.608 200.159 153.095 201.352 153.285 202.716H149.933C149.677 201.722 149.109 200.841 148.228 200.074C147.357 199.297 146.183 198.909 144.705 198.909C143.398 198.909 142.253 199.25 141.268 199.932C140.292 200.604 139.53 201.556 138.981 202.787C138.441 204.009 138.171 205.443 138.171 207.091C138.171 208.777 138.436 210.244 138.967 211.494C139.506 212.744 140.264 213.715 141.239 214.406C142.224 215.098 143.379 215.443 144.705 215.443C145.576 215.443 146.367 215.292 147.077 214.989C147.788 214.686 148.389 214.25 148.881 213.682C149.374 213.114 149.724 212.432 149.933 211.636H153.285C153.095 212.924 152.627 214.084 151.879 215.116C151.14 216.139 150.16 216.954 148.938 217.56C147.726 218.156 146.315 218.455 144.705 218.455ZM157.56 218V215.443L169.947 199.534V199.307H157.958V196.182H174.265V198.852L162.219 214.648V214.875H174.663V218H157.56ZM186.985 205.727C186.985 209.307 186.516 212.602 185.579 215.614C184.651 218.616 183.32 221.381 181.587 223.909H178.633C179.315 222.972 179.949 221.816 180.536 220.443C181.133 219.08 181.654 217.583 182.099 215.955C182.544 214.316 182.889 212.626 183.136 210.884C183.391 209.132 183.519 207.413 183.519 205.727C183.519 203.473 183.301 201.187 182.866 198.866C182.43 196.546 181.843 194.392 181.104 192.403C180.366 190.415 179.542 188.795 178.633 187.545H181.587C183.32 190.074 184.651 192.844 185.579 195.855C186.516 198.857 186.985 202.148 186.985 205.727Z" fill="#F1D95B"/>
</svg>
