<svg width="300" height="300" viewBox="0 0 300 300" fill="none" xmlns="http://www.w3.org/2000/svg">
<rect x="2.5" y="2.5" width="295" height="295" rx="12.5" fill="black"/>
<rect x="2.5" y="2.5" width="295" height="295" rx="12.5" stroke="#F1D95B" stroke-width="5"/>
<path d="M105.447 117V114.443L121.129 91.0341H105.277V87.9091H125.334V90.4659L109.652 113.875H125.504V117H105.447ZM112.436 79.1591L115.391 83.1364L118.345 79.1591H121.527V79.3864L116.925 85.2955H113.857L109.254 79.3864V79.1591H112.436ZM140.107 117.455C138.004 117.455 136.191 116.991 134.666 116.062C133.151 115.125 131.982 113.818 131.158 112.142C130.343 110.456 129.936 108.496 129.936 106.261C129.936 104.027 130.343 102.057 131.158 100.352C131.982 98.6383 133.127 97.303 134.595 96.3466C136.072 95.3807 137.796 94.8977 139.766 94.8977C140.902 94.8977 142.024 95.0871 143.132 95.4659C144.24 95.8447 145.249 96.4602 146.158 97.3125C147.067 98.1553 147.791 99.2727 148.331 100.665C148.871 102.057 149.141 103.771 149.141 105.807V107.227H132.322V104.33H145.732C145.732 103.098 145.485 102 144.993 101.034C144.51 100.068 143.819 99.3059 142.919 98.7472C142.029 98.1884 140.978 97.9091 139.766 97.9091C138.43 97.9091 137.275 98.2405 136.3 98.9034C135.334 99.5568 134.59 100.409 134.07 101.46C133.549 102.511 133.288 103.638 133.288 104.841V106.773C133.288 108.42 133.572 109.817 134.141 110.963C134.718 112.099 135.518 112.966 136.541 113.562C137.564 114.15 138.752 114.443 140.107 114.443C140.987 114.443 141.783 114.32 142.493 114.074C143.213 113.818 143.833 113.439 144.354 112.938C144.875 112.426 145.277 111.792 145.561 111.034L148.8 111.943C148.459 113.042 147.886 114.008 147.081 114.841C146.276 115.665 145.282 116.309 144.098 116.773C142.914 117.227 141.584 117.455 140.107 117.455ZM157.592 103.875V117H154.24V95.1818H157.479V98.5909H157.763C158.274 97.483 159.051 96.5928 160.092 95.9205C161.134 95.2386 162.479 94.8977 164.126 94.8977C165.604 94.8977 166.896 95.2008 168.004 95.8068C169.112 96.4034 169.974 97.3125 170.589 98.5341C171.205 99.7462 171.513 101.28 171.513 103.136V117H168.161V103.364C168.161 101.65 167.715 100.314 166.825 99.358C165.935 98.392 164.714 97.9091 163.161 97.9091C162.09 97.9091 161.134 98.1411 160.291 98.6051C159.458 99.0691 158.8 99.7462 158.317 100.636C157.834 101.527 157.592 102.606 157.592 103.875ZM184.059 117.511C182.676 117.511 181.422 117.251 180.295 116.73C179.168 116.2 178.273 115.438 177.61 114.443C176.947 113.439 176.616 112.227 176.616 110.807C176.616 109.557 176.862 108.544 177.354 107.767C177.847 106.981 178.505 106.366 179.329 105.92C180.153 105.475 181.062 105.144 182.056 104.926C183.06 104.699 184.068 104.519 185.082 104.386C186.407 104.216 187.482 104.088 188.306 104.003C189.139 103.908 189.746 103.752 190.124 103.534C190.513 103.316 190.707 102.937 190.707 102.398V102.284C190.707 100.883 190.323 99.7936 189.556 99.017C188.799 98.2405 187.648 97.8523 186.104 97.8523C184.504 97.8523 183.249 98.2027 182.34 98.9034C181.431 99.6042 180.792 100.352 180.423 101.148L177.241 100.011C177.809 98.6856 178.567 97.6534 179.513 96.9148C180.47 96.1667 181.512 95.6458 182.638 95.3523C183.775 95.0492 184.892 94.8977 185.991 94.8977C186.692 94.8977 187.496 94.983 188.406 95.1534C189.324 95.3144 190.21 95.6506 191.062 96.1619C191.924 96.6733 192.638 97.4451 193.207 98.4773C193.775 99.5095 194.059 100.892 194.059 102.625V117H190.707V114.045H190.536C190.309 114.519 189.93 115.026 189.4 115.565C188.87 116.105 188.164 116.564 187.283 116.943C186.403 117.322 185.328 117.511 184.059 117.511ZM184.57 114.5C185.896 114.5 187.013 114.24 187.923 113.719C188.841 113.198 189.532 112.526 189.996 111.702C190.47 110.878 190.707 110.011 190.707 109.102V106.034C190.565 106.205 190.252 106.361 189.769 106.503C189.296 106.635 188.746 106.754 188.121 106.858C187.506 106.953 186.905 107.038 186.317 107.114C185.74 107.18 185.271 107.237 184.911 107.284C184.04 107.398 183.226 107.582 182.468 107.838C181.72 108.084 181.114 108.458 180.65 108.96C180.195 109.453 179.968 110.125 179.968 110.977C179.968 112.142 180.399 113.023 181.261 113.619C182.132 114.206 183.235 114.5 184.57 114.5ZM118.011 200.727C118.011 197.148 118.475 193.857 119.403 190.855C120.341 187.844 121.676 185.074 123.409 182.545H126.364C125.682 183.483 125.043 184.638 124.446 186.011C123.859 187.375 123.343 188.876 122.898 190.514C122.453 192.143 122.102 193.829 121.847 195.571C121.6 197.313 121.477 199.032 121.477 200.727C121.477 202.981 121.695 205.268 122.131 207.588C122.566 209.908 123.153 212.062 123.892 214.051C124.631 216.04 125.455 217.659 126.364 218.909H123.409C121.676 216.381 120.341 213.616 119.403 210.614C118.475 207.602 118.011 204.307 118.011 200.727ZM139.705 213.455C137.66 213.455 135.898 212.972 134.421 212.006C132.944 211.04 131.808 209.709 131.012 208.014C130.217 206.319 129.819 204.383 129.819 202.205C129.819 199.989 130.226 198.033 131.04 196.338C131.864 194.634 133.01 193.303 134.478 192.347C135.955 191.381 137.679 190.898 139.648 190.898C141.183 190.898 142.565 191.182 143.796 191.75C145.027 192.318 146.036 193.114 146.822 194.136C147.608 195.159 148.095 196.352 148.285 197.716H144.933C144.677 196.722 144.109 195.841 143.228 195.074C142.357 194.297 141.183 193.909 139.705 193.909C138.398 193.909 137.253 194.25 136.268 194.932C135.292 195.604 134.53 196.556 133.981 197.787C133.441 199.009 133.171 200.443 133.171 202.091C133.171 203.777 133.436 205.244 133.967 206.494C134.506 207.744 135.264 208.715 136.239 209.406C137.224 210.098 138.379 210.443 139.705 210.443C140.576 210.443 141.367 210.292 142.077 209.989C142.788 209.686 143.389 209.25 143.881 208.682C144.374 208.114 144.724 207.432 144.933 206.636H148.285C148.095 207.924 147.627 209.084 146.879 210.116C146.14 211.139 145.16 211.954 143.938 212.56C142.726 213.156 141.315 213.455 139.705 213.455ZM152.56 213V210.443L164.947 194.534V194.307H152.958V191.182H169.265V193.852L157.219 209.648V209.875H169.663V213H152.56ZM181.985 200.727C181.985 204.307 181.516 207.602 180.579 210.614C179.651 213.616 178.32 216.381 176.587 218.909H173.633C174.315 217.972 174.949 216.816 175.536 215.443C176.133 214.08 176.654 212.583 177.099 210.955C177.544 209.316 177.889 207.626 178.136 205.884C178.391 204.132 178.519 202.413 178.519 200.727C178.519 198.473 178.301 196.187 177.866 193.866C177.43 191.546 176.843 189.392 176.104 187.403C175.366 185.415 174.542 183.795 173.633 182.545H176.587C178.32 185.074 179.651 187.844 180.579 190.855C181.516 193.857 181.985 197.148 181.985 200.727Z" fill="#F1D95B"/>
</svg>
