<svg width="300" height="300" viewBox="0 0 300 300" fill="none" xmlns="http://www.w3.org/2000/svg">
<rect x="2.5" y="2.5" width="295" height="295" rx="12.5" fill="black"/>
<rect x="2.5" y="2.5" width="295" height="295" rx="12.5" stroke="#F1D95B" stroke-width="5"/>
<path d="M101.346 97H97.8232C97.6148 95.9867 97.2502 95.0966 96.7294 94.3295C96.218 93.5625 95.593 92.9186 94.8544 92.3977C94.1252 91.8674 93.3156 91.4697 92.4254 91.2045C91.5353 90.9394 90.6072 90.8068 89.6413 90.8068C87.88 90.8068 86.2843 91.2519 84.8544 92.142C83.4339 93.0322 82.3023 94.3438 81.4595 96.0767C80.6262 97.8097 80.2095 99.9356 80.2095 102.455C80.2095 104.973 80.6262 107.099 81.4595 108.832C82.3023 110.565 83.4339 111.877 84.8544 112.767C86.2843 113.657 87.88 114.102 89.6413 114.102C90.6072 114.102 91.5353 113.97 92.4254 113.705C93.3156 113.439 94.1252 113.046 94.8544 112.526C95.593 111.995 96.218 111.347 96.7294 110.58C97.2502 109.803 97.6148 108.913 97.8232 107.909H101.346C101.081 109.396 100.598 110.726 99.897 111.901C99.1963 113.075 98.325 114.074 97.2834 114.898C96.2417 115.712 95.0722 116.332 93.7749 116.759C92.487 117.185 91.1091 117.398 89.6413 117.398C87.1603 117.398 84.9538 116.792 83.022 115.58C81.0902 114.367 79.5703 112.644 78.4624 110.409C77.3544 108.174 76.8004 105.523 76.8004 102.455C76.8004 99.3864 77.3544 96.7348 78.4624 94.5C79.5703 92.2652 81.0902 90.5417 83.022 89.3295C84.9538 88.1174 87.1603 87.5114 89.6413 87.5114C91.1091 87.5114 92.487 87.7244 93.7749 88.1506C95.0722 88.5767 96.2417 89.2017 97.2834 90.0256C98.325 90.84 99.1963 91.8343 99.897 93.0085C100.598 94.1733 101.081 95.5038 101.346 97ZM86.6868 79.1591L89.6413 83.1364L92.5959 79.1591H95.7777V79.3864L91.1754 85.2955H88.1072L83.505 79.3864V79.1591H86.6868ZM113.004 117.511C111.622 117.511 110.367 117.251 109.24 116.73C108.113 116.2 107.218 115.438 106.555 114.443C105.893 113.439 105.561 112.227 105.561 110.807C105.561 109.557 105.807 108.544 106.3 107.767C106.792 106.981 107.45 106.366 108.274 105.92C109.098 105.475 110.007 105.144 111.001 104.926C112.005 104.699 113.014 104.519 114.027 104.386C115.353 104.216 116.428 104.088 117.251 104.003C118.085 103.908 118.691 103.752 119.07 103.534C119.458 103.316 119.652 102.937 119.652 102.398V102.284C119.652 100.883 119.268 99.7936 118.501 99.017C117.744 98.2405 116.593 97.8523 115.05 97.8523C113.449 97.8523 112.195 98.2027 111.286 98.9034C110.376 99.6042 109.737 100.352 109.368 101.148L106.186 100.011C106.754 98.6856 107.512 97.6534 108.459 96.9148C109.415 96.1667 110.457 95.6458 111.584 95.3523C112.72 95.0492 113.838 94.8977 114.936 94.8977C115.637 94.8977 116.442 94.983 117.351 95.1534C118.269 95.3144 119.155 95.6506 120.007 96.1619C120.869 96.6733 121.584 97.4451 122.152 98.4773C122.72 99.5095 123.004 100.892 123.004 102.625V117H119.652V114.045H119.482C119.254 114.519 118.875 115.026 118.345 115.565C117.815 116.105 117.109 116.564 116.229 116.943C115.348 117.322 114.273 117.511 113.004 117.511ZM113.516 114.5C114.841 114.5 115.959 114.24 116.868 113.719C117.786 113.198 118.478 112.526 118.942 111.702C119.415 110.878 119.652 110.011 119.652 109.102V106.034C119.51 106.205 119.197 106.361 118.714 106.503C118.241 106.635 117.692 106.754 117.067 106.858C116.451 106.953 115.85 107.038 115.263 107.114C114.685 107.18 114.216 107.237 113.857 107.284C112.985 107.398 112.171 107.582 111.413 107.838C110.665 108.084 110.059 108.458 109.595 108.96C109.141 109.453 108.913 110.125 108.913 110.977C108.913 112.142 109.344 113.023 110.206 113.619C111.077 114.206 112.18 114.5 113.516 114.5ZM144.577 100.068L141.566 100.92C141.377 100.419 141.097 99.9309 140.728 99.4574C140.368 98.9744 139.876 98.5767 139.251 98.2642C138.626 97.9517 137.826 97.7955 136.85 97.7955C135.515 97.7955 134.402 98.1032 133.512 98.7188C132.631 99.3248 132.191 100.097 132.191 101.034C132.191 101.867 132.494 102.526 133.1 103.009C133.706 103.491 134.653 103.894 135.941 104.216L139.18 105.011C141.13 105.485 142.584 106.209 143.54 107.185C144.497 108.151 144.975 109.396 144.975 110.92C144.975 112.17 144.615 113.288 143.896 114.273C143.185 115.258 142.191 116.034 140.913 116.602C139.634 117.17 138.147 117.455 136.452 117.455C134.227 117.455 132.385 116.972 130.927 116.006C129.469 115.04 128.545 113.629 128.157 111.773L131.339 110.977C131.642 112.152 132.215 113.032 133.058 113.619C133.91 114.206 135.022 114.5 136.396 114.5C137.958 114.5 139.199 114.169 140.117 113.506C141.045 112.833 141.509 112.028 141.509 111.091C141.509 110.333 141.244 109.699 140.714 109.188C140.183 108.667 139.369 108.278 138.271 108.023L134.634 107.17C132.636 106.697 131.168 105.963 130.231 104.969C129.303 103.965 128.839 102.71 128.839 101.205C128.839 99.9735 129.184 98.8845 129.876 97.9375C130.576 96.9905 131.528 96.2472 132.731 95.7074C133.943 95.1676 135.316 94.8977 136.85 94.8977C139.009 94.8977 140.704 95.3712 141.935 96.3182C143.176 97.2652 144.057 98.5152 144.577 100.068ZM158.885 117.455C156.915 117.455 155.187 116.986 153.7 116.048C152.223 115.111 151.068 113.799 150.234 112.114C149.411 110.428 148.999 108.458 148.999 106.205C148.999 103.932 149.411 101.948 150.234 100.253C151.068 98.5578 152.223 97.2415 153.7 96.304C155.187 95.3665 156.915 94.8977 158.885 94.8977C160.855 94.8977 162.578 95.3665 164.055 96.304C165.542 97.2415 166.697 98.5578 167.521 100.253C168.355 101.948 168.771 103.932 168.771 106.205C168.771 108.458 168.355 110.428 167.521 112.114C166.697 113.799 165.542 115.111 164.055 116.048C162.578 116.986 160.855 117.455 158.885 117.455ZM158.885 114.443C160.381 114.443 161.612 114.06 162.578 113.293C163.544 112.526 164.259 111.517 164.723 110.267C165.187 109.017 165.419 107.663 165.419 106.205C165.419 104.746 165.187 103.387 164.723 102.128C164.259 100.868 163.544 99.8504 162.578 99.0739C161.612 98.2973 160.381 97.9091 158.885 97.9091C157.389 97.9091 156.158 98.2973 155.192 99.0739C154.226 99.8504 153.511 100.868 153.047 102.128C152.583 103.387 152.351 104.746 152.351 106.205C152.351 107.663 152.583 109.017 153.047 110.267C153.511 111.517 154.226 112.526 155.192 113.293C156.158 114.06 157.389 114.443 158.885 114.443ZM173.888 125.182V95.1818H177.127V98.6477H177.525C177.771 98.2689 178.112 97.786 178.548 97.1989C178.993 96.6023 179.627 96.072 180.451 95.608C181.284 95.1345 182.411 94.8977 183.832 94.8977C185.669 94.8977 187.288 95.357 188.69 96.2756C190.091 97.1941 191.185 98.4962 191.971 100.182C192.757 101.867 193.15 103.856 193.15 106.148C193.15 108.458 192.757 110.461 191.971 112.156C191.185 113.842 190.096 115.149 188.704 116.077C187.312 116.995 185.707 117.455 183.888 117.455C182.487 117.455 181.365 117.223 180.522 116.759C179.679 116.285 179.031 115.75 178.576 115.153C178.121 114.547 177.771 114.045 177.525 113.648H177.241V125.182H173.888ZM177.184 106.091C177.184 107.739 177.425 109.192 177.908 110.452C178.391 111.702 179.097 112.682 180.025 113.392C180.953 114.093 182.089 114.443 183.434 114.443C184.835 114.443 186.005 114.074 186.942 113.335C187.889 112.587 188.6 111.583 189.073 110.324C189.556 109.055 189.798 107.644 189.798 106.091C189.798 104.557 189.561 103.174 189.087 101.943C188.623 100.703 187.918 99.7225 186.971 99.0028C186.033 98.2737 184.854 97.9091 183.434 97.9091C182.07 97.9091 180.924 98.2547 179.996 98.946C179.068 99.6278 178.368 100.584 177.894 101.815C177.421 103.037 177.184 104.462 177.184 106.091ZM198.263 117V95.1818H201.616V117H198.263ZM199.968 91.5455C199.315 91.5455 198.751 91.3229 198.278 90.8778C197.814 90.4328 197.582 89.8977 197.582 89.2727C197.582 88.6477 197.814 88.1127 198.278 87.6676C198.751 87.2225 199.315 87 199.968 87C200.621 87 201.18 87.2225 201.644 87.6676C202.118 88.1127 202.354 88.6477 202.354 89.2727C202.354 89.8977 202.118 90.4328 201.644 90.8778C201.18 91.3229 200.621 91.5455 199.968 91.5455ZM223.21 100.068L220.199 100.92C220.009 100.419 219.73 99.9309 219.361 99.4574C219.001 98.9744 218.509 98.5767 217.884 98.2642C217.259 97.9517 216.458 97.7955 215.483 97.7955C214.148 97.7955 213.035 98.1032 212.145 98.7188C211.264 99.3248 210.824 100.097 210.824 101.034C210.824 101.867 211.127 102.526 211.733 103.009C212.339 103.491 213.286 103.894 214.574 104.216L217.812 105.011C219.763 105.485 221.217 106.209 222.173 107.185C223.13 108.151 223.608 109.396 223.608 110.92C223.608 112.17 223.248 113.288 222.528 114.273C221.818 115.258 220.824 116.034 219.545 116.602C218.267 117.17 216.78 117.455 215.085 117.455C212.86 117.455 211.018 116.972 209.56 116.006C208.101 115.04 207.178 113.629 206.79 111.773L209.972 110.977C210.275 112.152 210.848 113.032 211.69 113.619C212.543 114.206 213.655 114.5 215.028 114.5C216.591 114.5 217.831 114.169 218.75 113.506C219.678 112.833 220.142 112.028 220.142 111.091C220.142 110.333 219.877 109.699 219.347 109.188C218.816 108.667 218.002 108.278 216.903 108.023L213.267 107.17C211.269 106.697 209.801 105.963 208.864 104.969C207.936 103.965 207.472 102.71 207.472 101.205C207.472 99.9735 207.817 98.8845 208.509 97.9375C209.209 96.9905 210.161 96.2472 211.364 95.7074C212.576 95.1676 213.949 94.8977 215.483 94.8977C217.642 94.8977 219.337 95.3712 220.568 96.3182C221.809 97.2652 222.689 98.5152 223.21 100.068ZM118.011 200.727C118.011 197.148 118.475 193.857 119.403 190.855C120.341 187.844 121.676 185.074 123.409 182.545H126.364C125.682 183.483 125.043 184.638 124.446 186.011C123.859 187.375 123.343 188.876 122.898 190.514C122.453 192.143 122.102 193.829 121.847 195.571C121.6 197.313 121.477 199.032 121.477 200.727C121.477 202.981 121.695 205.268 122.131 207.588C122.566 209.908 123.153 212.062 123.892 214.051C124.631 216.04 125.455 217.659 126.364 218.909H123.409C121.676 216.381 120.341 213.616 119.403 210.614C118.475 207.602 118.011 204.307 118.011 200.727ZM139.705 213.455C137.66 213.455 135.898 212.972 134.421 212.006C132.944 211.04 131.808 209.709 131.012 208.014C130.217 206.319 129.819 204.383 129.819 202.205C129.819 199.989 130.226 198.033 131.04 196.338C131.864 194.634 133.01 193.303 134.478 192.347C135.955 191.381 137.679 190.898 139.648 190.898C141.183 190.898 142.565 191.182 143.796 191.75C145.027 192.318 146.036 193.114 146.822 194.136C147.608 195.159 148.095 196.352 148.285 197.716H144.933C144.677 196.722 144.109 195.841 143.228 195.074C142.357 194.297 141.183 193.909 139.705 193.909C138.398 193.909 137.253 194.25 136.268 194.932C135.292 195.604 134.53 196.556 133.981 197.787C133.441 199.009 133.171 200.443 133.171 202.091C133.171 203.777 133.436 205.244 133.967 206.494C134.506 207.744 135.264 208.715 136.239 209.406C137.224 210.098 138.379 210.443 139.705 210.443C140.576 210.443 141.367 210.292 142.077 209.989C142.788 209.686 143.389 209.25 143.881 208.682C144.374 208.114 144.724 207.432 144.933 206.636H148.285C148.095 207.924 147.627 209.084 146.879 210.116C146.14 211.139 145.16 211.954 143.938 212.56C142.726 213.156 141.315 213.455 139.705 213.455ZM152.56 213V210.443L164.947 194.534V194.307H152.958V191.182H169.265V193.852L157.219 209.648V209.875H169.663V213H152.56ZM181.985 200.727C181.985 204.307 181.516 207.602 180.579 210.614C179.651 213.616 178.32 216.381 176.587 218.909H173.633C174.315 217.972 174.949 216.816 175.536 215.443C176.133 214.08 176.654 212.583 177.099 210.955C177.544 209.316 177.889 207.626 178.136 205.884C178.391 204.132 178.519 202.413 178.519 200.727C178.519 198.473 178.301 196.187 177.866 193.866C177.43 191.546 176.843 189.392 176.104 187.403C175.366 185.415 174.542 183.795 173.633 182.545H176.587C178.32 185.074 179.651 187.844 180.579 190.855C181.516 193.857 181.985 197.148 181.985 200.727Z" fill="#F1D95B"/>
</svg>
