<svg width="300" height="300" viewBox="0 0 300 300" fill="none" xmlns="http://www.w3.org/2000/svg">
<rect x="2.5" y="2.5" width="295" height="295" rx="12.5" fill="black"/>
<rect x="2.5" y="2.5" width="295" height="295" rx="12.5" stroke="#F1D95B" stroke-width="5"/>
<path d="M127.772 97H124.249C124.041 95.9867 123.676 95.0966 123.155 94.3295C122.644 93.5625 122.019 92.9186 121.28 92.3977C120.551 91.8674 119.741 91.4697 118.851 91.2045C117.961 90.9394 117.033 90.8068 116.067 90.8068C114.306 90.8068 112.71 91.2519 111.28 92.142C109.86 93.0322 108.728 94.3438 107.885 96.0767C107.052 97.8097 106.635 99.9356 106.635 102.455C106.635 104.973 107.052 107.099 107.885 108.832C108.728 110.565 109.86 111.877 111.28 112.767C112.71 113.657 114.306 114.102 116.067 114.102C117.033 114.102 117.961 113.97 118.851 113.705C119.741 113.439 120.551 113.046 121.28 112.526C122.019 111.995 122.644 111.347 123.155 110.58C123.676 109.803 124.041 108.913 124.249 107.909H127.772C127.507 109.396 127.024 110.726 126.323 111.901C125.622 113.075 124.751 114.074 123.709 114.898C122.667 115.712 121.498 116.332 120.201 116.759C118.913 117.185 117.535 117.398 116.067 117.398C113.586 117.398 111.38 116.792 109.448 115.58C107.516 114.367 105.996 112.644 104.888 110.409C103.78 108.174 103.226 105.523 103.226 102.455C103.226 99.3864 103.78 96.7348 104.888 94.5C105.996 92.2652 107.516 90.5417 109.448 89.3295C111.38 88.1174 113.586 87.5114 116.067 87.5114C117.535 87.5114 118.913 87.7244 120.201 88.1506C121.498 88.5767 122.667 89.2017 123.709 90.0256C124.751 90.84 125.622 91.8343 126.323 93.0085C127.024 94.1733 127.507 95.5038 127.772 97ZM142.157 117.455C140.055 117.455 138.242 116.991 136.717 116.062C135.202 115.125 134.032 113.818 133.208 112.142C132.394 110.456 131.987 108.496 131.987 106.261C131.987 104.027 132.394 102.057 133.208 100.352C134.032 98.6383 135.178 97.303 136.646 96.3466C138.123 95.3807 139.847 94.8977 141.816 94.8977C142.953 94.8977 144.075 95.0871 145.183 95.4659C146.291 95.8447 147.299 96.4602 148.208 97.3125C149.118 98.1553 149.842 99.2727 150.382 100.665C150.922 102.057 151.191 103.771 151.191 105.807V107.227H134.373V104.33H147.782C147.782 103.098 147.536 102 147.044 101.034C146.561 100.068 145.869 99.3059 144.97 98.7472C144.08 98.1884 143.029 97.9091 141.816 97.9091C140.481 97.9091 139.326 98.2405 138.35 98.9034C137.385 99.5568 136.641 100.409 136.12 101.46C135.6 102.511 135.339 103.638 135.339 104.841V106.773C135.339 108.42 135.623 109.817 136.191 110.963C136.769 112.099 137.569 112.966 138.592 113.562C139.615 114.15 140.803 114.443 142.157 114.443C143.038 114.443 143.833 114.32 144.544 114.074C145.263 113.818 145.884 113.439 146.404 112.938C146.925 112.426 147.328 111.792 147.612 111.034L150.85 111.943C150.51 113.042 149.937 114.008 149.132 114.841C148.327 115.665 147.333 116.309 146.149 116.773C144.965 117.227 143.635 117.455 142.157 117.455ZM159.643 103.875V117H156.291V95.1818H159.529V98.5909H159.814C160.325 97.483 161.101 96.5928 162.143 95.9205C163.185 95.2386 164.529 94.8977 166.177 94.8977C167.654 94.8977 168.947 95.2008 170.055 95.8068C171.163 96.4034 172.025 97.3125 172.64 98.5341C173.256 99.7462 173.564 101.28 173.564 103.136V117H170.211V103.364C170.211 101.65 169.766 100.314 168.876 99.358C167.986 98.392 166.764 97.9091 165.211 97.9091C164.141 97.9091 163.185 98.1411 162.342 98.6051C161.509 99.0691 160.85 99.7462 160.368 100.636C159.885 101.527 159.643 102.606 159.643 103.875ZM186.11 117.511C184.727 117.511 183.472 117.251 182.346 116.73C181.219 116.2 180.324 115.438 179.661 114.443C178.998 113.439 178.667 112.227 178.667 110.807C178.667 109.557 178.913 108.544 179.405 107.767C179.898 106.981 180.556 106.366 181.38 105.92C182.203 105.475 183.113 105.144 184.107 104.926C185.111 104.699 186.119 104.519 187.132 104.386C188.458 104.216 189.533 104.088 190.357 104.003C191.19 103.908 191.796 103.752 192.175 103.534C192.563 103.316 192.757 102.937 192.757 102.398V102.284C192.757 100.883 192.374 99.7936 191.607 99.017C190.849 98.2405 189.699 97.8523 188.155 97.8523C186.555 97.8523 185.3 98.2027 184.391 98.9034C183.482 99.6042 182.843 100.352 182.473 101.148L179.292 100.011C179.86 98.6856 180.617 97.6534 181.564 96.9148C182.521 96.1667 183.562 95.6458 184.689 95.3523C185.826 95.0492 186.943 94.8977 188.042 94.8977C188.742 94.8977 189.547 94.983 190.456 95.1534C191.375 95.3144 192.26 95.6506 193.113 96.1619C193.974 96.6733 194.689 97.4451 195.257 98.4773C195.826 99.5095 196.11 100.892 196.11 102.625V117H192.757V114.045H192.587C192.36 114.519 191.981 115.026 191.451 115.565C190.92 116.105 190.215 116.564 189.334 116.943C188.453 117.322 187.379 117.511 186.11 117.511ZM186.621 114.5C187.947 114.5 189.064 114.24 189.973 113.719C190.892 113.198 191.583 112.526 192.047 111.702C192.521 110.878 192.757 110.011 192.757 109.102V106.034C192.615 106.205 192.303 106.361 191.82 106.503C191.346 106.635 190.797 106.754 190.172 106.858C189.557 106.953 188.955 107.038 188.368 107.114C187.791 107.18 187.322 107.237 186.962 107.284C186.091 107.398 185.276 107.582 184.519 107.838C183.771 108.084 183.165 108.458 182.701 108.96C182.246 109.453 182.019 110.125 182.019 110.977C182.019 112.142 182.45 113.023 183.311 113.619C184.183 114.206 185.286 114.5 186.621 114.5ZM122.836 200.727C122.836 197.148 123.3 193.857 124.228 190.855C125.165 187.844 126.5 185.074 128.233 182.545H131.188C130.506 183.483 129.867 184.638 129.27 186.011C128.683 187.375 128.167 188.876 127.722 190.514C127.277 192.143 126.926 193.829 126.671 195.571C126.425 197.313 126.301 199.032 126.301 200.727C126.301 202.981 126.519 205.268 126.955 207.588C127.391 209.908 127.978 212.062 128.716 214.051C129.455 216.04 130.279 217.659 131.188 218.909H128.233C126.5 216.381 125.165 213.616 124.228 210.614C123.3 207.602 122.836 204.307 122.836 200.727ZM136.135 221.182V191.182H139.373V194.648H139.771C140.017 194.269 140.358 193.786 140.794 193.199C141.239 192.602 141.873 192.072 142.697 191.608C143.53 191.134 144.657 190.898 146.078 190.898C147.915 190.898 149.534 191.357 150.936 192.276C152.337 193.194 153.431 194.496 154.217 196.182C155.003 197.867 155.396 199.856 155.396 202.148C155.396 204.458 155.003 206.461 154.217 208.156C153.431 209.842 152.342 211.149 150.95 212.077C149.558 212.995 147.953 213.455 146.135 213.455C144.733 213.455 143.611 213.223 142.768 212.759C141.925 212.285 141.277 211.75 140.822 211.153C140.368 210.547 140.017 210.045 139.771 209.648H139.487V221.182H136.135ZM139.43 202.091C139.43 203.739 139.672 205.192 140.154 206.452C140.637 207.702 141.343 208.682 142.271 209.392C143.199 210.093 144.335 210.443 145.68 210.443C147.082 210.443 148.251 210.074 149.189 209.335C150.136 208.587 150.846 207.583 151.319 206.324C151.802 205.055 152.044 203.644 152.044 202.091C152.044 200.557 151.807 199.174 151.333 197.943C150.869 196.703 150.164 195.723 149.217 195.003C148.279 194.274 147.1 193.909 145.68 193.909C144.316 193.909 143.171 194.255 142.243 194.946C141.315 195.628 140.614 196.584 140.14 197.815C139.667 199.037 139.43 200.462 139.43 202.091ZM163.862 183.909V213H160.51V183.909H163.862ZM177.161 200.727C177.161 204.307 176.692 207.602 175.755 210.614C174.827 213.616 173.496 216.381 171.763 218.909H168.809C169.49 217.972 170.125 216.816 170.712 215.443C171.309 214.08 171.829 212.583 172.275 210.955C172.72 209.316 173.065 207.626 173.311 205.884C173.567 204.132 173.695 202.413 173.695 200.727C173.695 198.473 173.477 196.187 173.042 193.866C172.606 191.546 172.019 189.392 171.28 187.403C170.542 185.415 169.718 183.795 168.809 182.545H171.763C173.496 185.074 174.827 187.844 175.755 190.855C176.692 193.857 177.161 197.148 177.161 200.727Z" fill="#F1D95B"/>
</svg>
