<svg width="300" height="300" viewBox="0 0 300 300" fill="none" xmlns="http://www.w3.org/2000/svg">
<rect x="2.5" y="2.5" width="295" height="295" rx="12.5" fill="black"/>
<rect x="2.5" y="2.5" width="295" height="295" rx="12.5" stroke="#F1D95B" stroke-width="5"/>
<path d="M103.319 97H99.7958C99.5875 95.9867 99.2229 95.0966 98.7021 94.3295C98.1907 93.5625 97.5657 92.9186 96.8271 92.3977C96.0979 91.8674 95.2882 91.4697 94.3981 91.2045C93.5079 90.9394 92.5799 90.8068 91.614 90.8068C89.8526 90.8068 88.257 91.2519 86.8271 92.142C85.4066 93.0322 84.275 94.3438 83.4322 96.0767C82.5988 97.8097 82.1822 99.9356 82.1822 102.455C82.1822 104.973 82.5988 107.099 83.4322 108.832C84.275 110.565 85.4066 111.877 86.8271 112.767C88.257 113.657 89.8526 114.102 91.614 114.102C92.5799 114.102 93.5079 113.97 94.3981 113.705C95.2882 113.439 96.0979 113.046 96.8271 112.526C97.5657 111.995 98.1907 111.347 98.7021 110.58C99.2229 109.803 99.5875 108.913 99.7958 107.909H103.319C103.053 109.396 102.57 110.726 101.87 111.901C101.169 113.075 100.298 114.074 99.256 114.898C98.2144 115.712 97.0449 116.332 95.7475 116.759C94.4596 117.185 93.0818 117.398 91.614 117.398C89.1329 117.398 86.9265 116.792 84.9947 115.58C83.0629 114.367 81.543 112.644 80.435 110.409C79.3271 108.174 78.7731 105.523 78.7731 102.455C78.7731 99.3864 79.3271 96.7348 80.435 94.5C81.543 92.2652 83.0629 90.5417 84.9947 89.3295C86.9265 88.1174 89.1329 87.5114 91.614 87.5114C93.0818 87.5114 94.4596 87.7244 95.7475 88.1506C97.0449 88.5767 98.2144 89.2017 99.256 90.0256C100.298 90.84 101.169 91.8343 101.87 93.0085C102.57 94.1733 103.053 95.5038 103.319 97ZM88.6594 79.1591L91.614 83.1364L94.5685 79.1591H97.7504V79.3864L93.1481 85.2955H90.0799L85.4776 79.3864V79.1591H88.6594ZM117.704 117.455C115.602 117.455 113.788 116.991 112.264 116.062C110.749 115.125 109.579 113.818 108.755 112.142C107.941 110.456 107.534 108.496 107.534 106.261C107.534 104.027 107.941 102.057 108.755 100.352C109.579 98.6383 110.725 97.303 112.193 96.3466C113.67 95.3807 115.394 94.8977 117.363 94.8977C118.5 94.8977 119.622 95.0871 120.73 95.4659C121.838 95.8447 122.846 96.4602 123.755 97.3125C124.664 98.1553 125.389 99.2727 125.929 100.665C126.468 102.057 126.738 103.771 126.738 105.807V107.227H109.92V104.33H123.329C123.329 103.098 123.083 102 122.591 101.034C122.108 100.068 121.416 99.3059 120.517 98.7472C119.627 98.1884 118.575 97.9091 117.363 97.9091C116.028 97.9091 114.873 98.2405 113.897 98.9034C112.931 99.5568 112.188 100.409 111.667 101.46C111.146 102.511 110.886 103.638 110.886 104.841V106.773C110.886 108.42 111.17 109.817 111.738 110.963C112.316 112.099 113.116 112.966 114.139 113.562C115.162 114.15 116.35 114.443 117.704 114.443C118.585 114.443 119.38 114.32 120.091 114.074C120.81 113.818 121.431 113.439 121.951 112.938C122.472 112.426 122.875 111.792 123.159 111.034L126.397 111.943C126.056 113.042 125.484 114.008 124.679 114.841C123.874 115.665 122.879 116.309 121.696 116.773C120.512 117.227 119.181 117.455 117.704 117.455ZM131.838 117V95.1818H135.076V98.4773H135.304C135.701 97.3977 136.421 96.5218 137.463 95.8494C138.504 95.1771 139.679 94.8409 140.985 94.8409C141.232 94.8409 141.539 94.8456 141.909 94.8551C142.278 94.8646 142.557 94.8788 142.747 94.8977V98.3068C142.633 98.2784 142.373 98.2358 141.966 98.179C141.568 98.1127 141.146 98.0795 140.701 98.0795C139.641 98.0795 138.694 98.3021 137.86 98.7472C137.037 99.1828 136.383 99.7888 135.9 100.565C135.427 101.332 135.19 102.208 135.19 103.193V117H131.838ZM162.175 100.068L159.164 100.92C158.974 100.419 158.695 99.9309 158.326 99.4574C157.966 98.9744 157.473 98.5767 156.848 98.2642C156.223 97.9517 155.423 97.7955 154.448 97.7955C153.113 97.7955 152 98.1032 151.11 98.7188C150.229 99.3248 149.789 100.097 149.789 101.034C149.789 101.867 150.092 102.526 150.698 103.009C151.304 103.491 152.251 103.894 153.539 104.216L156.777 105.011C158.728 105.485 160.182 106.209 161.138 107.185C162.095 108.151 162.573 109.396 162.573 110.92C162.573 112.17 162.213 113.288 161.493 114.273C160.783 115.258 159.789 116.034 158.51 116.602C157.232 117.17 155.745 117.455 154.05 117.455C151.825 117.455 149.983 116.972 148.525 116.006C147.066 115.04 146.143 113.629 145.755 111.773L148.936 110.977C149.239 112.152 149.812 113.032 150.655 113.619C151.507 114.206 152.62 114.5 153.993 114.5C155.556 114.5 156.796 114.169 157.715 113.506C158.643 112.833 159.107 112.028 159.107 111.091C159.107 110.333 158.842 109.699 158.311 109.188C157.781 108.667 156.967 108.278 155.868 108.023L152.232 107.17C150.234 106.697 148.766 105.963 147.828 104.969C146.9 103.965 146.436 102.71 146.436 101.205C146.436 99.9735 146.782 98.8845 147.473 97.9375C148.174 96.9905 149.126 96.2472 150.328 95.7074C151.541 95.1676 152.914 94.8977 154.448 94.8977C156.607 94.8977 158.302 95.3712 159.533 96.3182C160.774 97.2652 161.654 98.5152 162.175 100.068ZM177.108 95.1818V98.0227H165.801V95.1818H177.108ZM169.096 89.9545H172.449V110.75C172.449 111.697 172.586 112.407 172.86 112.881C173.145 113.345 173.504 113.657 173.94 113.818C174.385 113.97 174.854 114.045 175.346 114.045C175.716 114.045 176.019 114.027 176.255 113.989C176.492 113.941 176.681 113.903 176.824 113.875L177.505 116.886C177.278 116.972 176.961 117.057 176.554 117.142C176.146 117.237 175.63 117.284 175.005 117.284C174.058 117.284 173.13 117.08 172.221 116.673C171.322 116.266 170.574 115.646 169.977 114.812C169.39 113.979 169.096 112.928 169.096 111.659V89.9545ZM199.991 95.1818L191.923 117H188.514L180.446 95.1818H184.082L190.105 112.568H190.332L196.355 95.1818H199.991ZM206.575 125.182C206.007 125.182 205.5 125.134 205.055 125.04C204.61 124.955 204.302 124.869 204.132 124.784L204.984 121.83C205.798 122.038 206.518 122.114 207.143 122.057C207.768 122 208.322 121.721 208.805 121.219C209.297 120.726 209.747 119.926 210.154 118.818L210.779 117.114L202.711 95.1818H206.348L212.37 112.568H212.598L218.62 95.1818H222.257L212.995 120.182C212.579 121.309 212.063 122.241 211.447 122.98C210.832 123.728 210.117 124.282 209.302 124.642C208.497 125.002 207.588 125.182 206.575 125.182ZM210.95 92.2273L214.416 85.6364H218.336L213.904 92.2273H210.95ZM118.011 200.727C118.011 197.148 118.475 193.857 119.403 190.855C120.341 187.844 121.676 185.074 123.409 182.545H126.364C125.682 183.483 125.043 184.638 124.446 186.011C123.859 187.375 123.343 188.876 122.898 190.514C122.453 192.143 122.102 193.829 121.847 195.571C121.6 197.313 121.477 199.032 121.477 200.727C121.477 202.981 121.695 205.268 122.131 207.588C122.566 209.908 123.153 212.062 123.892 214.051C124.631 216.04 125.455 217.659 126.364 218.909H123.409C121.676 216.381 120.341 213.616 119.403 210.614C118.475 207.602 118.011 204.307 118.011 200.727ZM139.705 213.455C137.66 213.455 135.898 212.972 134.421 212.006C132.944 211.04 131.808 209.709 131.012 208.014C130.217 206.319 129.819 204.383 129.819 202.205C129.819 199.989 130.226 198.033 131.04 196.338C131.864 194.634 133.01 193.303 134.478 192.347C135.955 191.381 137.679 190.898 139.648 190.898C141.183 190.898 142.565 191.182 143.796 191.75C145.027 192.318 146.036 193.114 146.822 194.136C147.608 195.159 148.095 196.352 148.285 197.716H144.933C144.677 196.722 144.109 195.841 143.228 195.074C142.357 194.297 141.183 193.909 139.705 193.909C138.398 193.909 137.253 194.25 136.268 194.932C135.292 195.604 134.53 196.556 133.981 197.787C133.441 199.009 133.171 200.443 133.171 202.091C133.171 203.777 133.436 205.244 133.967 206.494C134.506 207.744 135.264 208.715 136.239 209.406C137.224 210.098 138.379 210.443 139.705 210.443C140.576 210.443 141.367 210.292 142.077 209.989C142.788 209.686 143.389 209.25 143.881 208.682C144.374 208.114 144.724 207.432 144.933 206.636H148.285C148.095 207.924 147.627 209.084 146.879 210.116C146.14 211.139 145.16 211.954 143.938 212.56C142.726 213.156 141.315 213.455 139.705 213.455ZM152.56 213V210.443L164.947 194.534V194.307H152.958V191.182H169.265V193.852L157.219 209.648V209.875H169.663V213H152.56ZM181.985 200.727C181.985 204.307 181.516 207.602 180.579 210.614C179.651 213.616 178.32 216.381 176.587 218.909H173.633C174.315 217.972 174.949 216.816 175.536 215.443C176.133 214.08 176.654 212.583 177.099 210.955C177.544 209.316 177.889 207.626 178.136 205.884C178.391 204.132 178.519 202.413 178.519 200.727C178.519 198.473 178.301 196.187 177.866 193.866C177.43 191.546 176.843 189.392 176.104 187.403C175.366 185.415 174.542 183.795 173.633 182.545H176.587C178.32 185.074 179.651 187.844 180.579 190.855C181.516 193.857 181.985 197.148 181.985 200.727Z" fill="#F1D95B"/>
</svg>
