<svg width="310" height="310" viewBox="0 0 310 310" fill="none" xmlns="http://www.w3.org/2000/svg">
<rect x="2.5" y="2.5" width="305" height="305" rx="17.5" fill="black"/>
<rect x="2.5" y="2.5" width="305" height="305" rx="17.5" stroke="#F1D95B" stroke-width="5"/>
<path d="M71 147.667C72.6853 147.667 74.3541 147.335 75.9111 146.69C77.4681 146.045 78.8829 145.1 80.0745 143.908C81.2662 142.716 82.2115 141.301 82.8565 139.744C83.5014 138.187 83.8333 136.519 83.8333 134.833C83.8333 133.148 83.5014 131.479 82.8565 129.922C82.2115 128.365 81.2662 126.95 80.0745 125.759C78.8829 124.567 77.4681 123.622 75.9111 122.977C74.3541 122.332 72.6853 122 71 122C67.5964 122 64.3322 123.352 61.9255 125.759C59.5187 128.166 58.1667 131.43 58.1667 134.833C58.1667 138.237 59.5187 141.501 61.9255 143.908C64.3322 146.315 67.5964 147.667 71 147.667ZM38 185.8V188H104V185.8C104 177.587 104 173.48 102.401 170.341C100.995 167.582 98.7516 165.338 95.992 163.932C92.8533 162.333 88.7467 162.333 80.5333 162.333H61.4667C53.2533 162.333 49.1467 162.333 46.008 163.932C43.2484 165.338 41.0048 167.582 39.5987 170.341C38 173.48 38 177.587 38 185.8Z" stroke="#F1D95B" stroke-width="4" stroke-linecap="round" stroke-linejoin="round"/>
<path d="M128 5L177 55L128 110L177 164.5L128 226.5L177 274L128 305" stroke="#F1D95B" stroke-width="4"/>
<path d="M234 147.667C235.685 147.667 237.354 147.335 238.911 146.69C240.468 146.045 241.883 145.1 243.075 143.908C244.266 142.716 245.212 141.301 245.856 139.744C246.501 138.187 246.833 136.519 246.833 134.833C246.833 133.148 246.501 131.479 245.856 129.922C245.212 128.365 244.266 126.95 243.075 125.759C241.883 124.567 240.468 123.622 238.911 122.977C237.354 122.332 235.685 122 234 122C230.596 122 227.332 123.352 224.925 125.759C222.519 128.166 221.167 131.43 221.167 134.833C221.167 138.237 222.519 141.501 224.925 143.908C227.332 146.315 230.596 147.667 234 147.667ZM201 185.8V188H267V185.8C267 177.587 267 173.48 265.401 170.341C263.995 167.582 261.752 165.338 258.992 163.932C255.853 162.333 251.747 162.333 243.533 162.333H224.467C216.253 162.333 212.147 162.333 209.008 163.932C206.248 165.338 204.005 167.582 202.599 170.341C201 173.48 201 177.587 201 185.8Z" stroke="#F1D95B" stroke-width="4" stroke-linecap="round" stroke-linejoin="round"/>
<path d="M92.642 80V58.1818H105.724V60.5256H95.2841V67.8977H104.744V70.2415H95.2841V80H92.642ZM110.249 80V58.1818H117.622C119.326 58.1818 120.725 58.473 121.819 59.0554C122.913 59.6307 123.722 60.4226 124.248 61.4311C124.774 62.4396 125.036 63.5866 125.036 64.8722C125.036 66.1577 124.774 67.2976 124.248 68.2919C123.722 69.2862 122.916 70.0675 121.83 70.6357C120.743 71.1967 119.355 71.4773 117.664 71.4773H111.698V69.0909H117.579C118.744 69.0909 119.681 68.9205 120.392 68.5795C121.109 68.2386 121.627 67.7557 121.947 67.1307C122.274 66.4986 122.437 65.7457 122.437 64.8722C122.437 63.9986 122.274 63.2351 121.947 62.5817C121.62 61.9283 121.098 61.424 120.381 61.0689C119.664 60.7067 118.715 60.5256 117.536 60.5256H112.892V80H110.249ZM120.519 70.1989L125.889 80H122.82L117.536 70.1989H120.519ZM132.081 58.1818V80H129.439V58.1818H132.081ZM137.378 80V58.1818H150.546V60.5256H140.02V67.8977H149.864V70.2415H140.02V77.6562H150.716V80H137.378ZM172.609 58.1818V80H170.052L158.163 62.8693H157.95V80H155.308V58.1818H157.865L169.797 75.3551H170.01V58.1818H172.609ZM184.629 80H177.896V58.1818H184.927C187.044 58.1818 188.855 58.6186 190.36 59.4922C191.866 60.3587 193.02 61.6051 193.823 63.2315C194.625 64.8509 195.027 66.7898 195.027 69.0483C195.027 71.321 194.622 73.2777 193.812 74.9183C193.002 76.5518 191.824 77.8089 190.275 78.6896C188.727 79.5632 186.845 80 184.629 80ZM180.538 77.6562H184.458C186.262 77.6562 187.757 77.3082 188.944 76.6122C190.13 75.9162 191.014 74.9254 191.596 73.6399C192.179 72.3544 192.47 70.8239 192.47 69.0483C192.47 67.2869 192.182 65.7706 191.607 64.4993C191.032 63.2209 190.172 62.2408 189.029 61.5589C187.885 60.87 186.461 60.5256 184.757 60.5256H180.538V77.6562ZM211.39 63.6364C211.262 62.5568 210.744 61.7188 209.835 61.1222C208.926 60.5256 207.811 60.2273 206.49 60.2273C205.524 60.2273 204.679 60.3835 203.954 60.696C203.237 61.0085 202.676 61.4382 202.271 61.9851C201.873 62.532 201.674 63.1534 201.674 63.8494C201.674 64.4318 201.813 64.9325 202.09 65.3516C202.374 65.7635 202.736 66.108 203.176 66.3849C203.617 66.6548 204.078 66.8786 204.561 67.0561C205.044 67.2266 205.488 67.3651 205.893 67.4716L208.109 68.0682C208.677 68.2173 209.309 68.4233 210.005 68.6861C210.708 68.9489 211.38 69.3075 212.019 69.7621C212.665 70.2095 213.198 70.7848 213.617 71.4879C214.036 72.1911 214.245 73.054 214.245 74.0767C214.245 75.2557 213.936 76.321 213.319 77.2727C212.708 78.2244 211.813 78.9808 210.634 79.5419C209.462 80.103 208.038 80.3835 206.362 80.3835C204.799 80.3835 203.446 80.1314 202.303 79.6271C201.167 79.1229 200.272 78.4197 199.618 77.5178C198.972 76.6158 198.606 75.5682 198.521 74.375H201.248C201.319 75.1989 201.596 75.8807 202.079 76.4205C202.569 76.9531 203.187 77.3509 203.933 77.6136C204.686 77.8693 205.495 77.9972 206.362 77.9972C207.37 77.9972 208.276 77.8338 209.078 77.5071C209.881 77.1733 210.517 76.7116 210.985 76.1222C211.454 75.5256 211.689 74.8295 211.689 74.0341C211.689 73.3097 211.486 72.7202 211.081 72.2656C210.676 71.8111 210.144 71.4418 209.483 71.1577C208.823 70.8736 208.109 70.625 207.342 70.4119L204.657 69.6449C202.953 69.1548 201.603 68.4553 200.609 67.5462C199.615 66.6371 199.118 65.4474 199.118 63.9773C199.118 62.7557 199.448 61.6903 200.108 60.7812C200.776 59.8651 201.671 59.1548 202.793 58.6506C203.922 58.1392 205.183 57.8835 206.575 57.8835C207.981 57.8835 209.231 58.1357 210.325 58.6399C211.419 59.1371 212.285 59.8189 212.924 60.6854C213.571 61.5518 213.912 62.5355 213.947 63.6364H211.39Z" fill="#F1D95B"/>
</svg>
