<svg width="300" height="304" viewBox="0 0 300 304" fill="none" xmlns="http://www.w3.org/2000/svg">
<rect x="2.5" y="4.5" width="295" height="295" rx="12.5" fill="black"/>
<rect x="2.5" y="4.5" width="295" height="295" rx="12.5" stroke="#F1D95B" stroke-width="5"/>
<path d="M66 144.667C67.6853 144.667 69.3541 144.335 70.9111 143.69C72.4681 143.045 73.8829 142.1 75.0745 140.908C76.2662 139.716 77.2115 138.301 77.8565 136.744C78.5014 135.187 78.8333 133.519 78.8333 131.833C78.8333 130.148 78.5014 128.479 77.8565 126.922C77.2115 125.365 76.2662 123.95 75.0745 122.759C73.8829 121.567 72.4681 120.622 70.9111 119.977C69.3541 119.332 67.6853 119 66 119C62.5964 119 59.3322 120.352 56.9255 122.759C54.5187 125.166 53.1667 128.43 53.1667 131.833C53.1667 135.237 54.5187 138.501 56.9255 140.908C59.3322 143.315 62.5964 144.667 66 144.667ZM33 182.8V185H99V182.8C99 174.587 99 170.48 97.4013 167.341C95.9952 164.582 93.7516 162.338 90.992 160.932C87.8533 159.333 83.7467 159.333 75.5333 159.333H56.4667C48.2533 159.333 44.1467 159.333 41.008 160.932C38.2484 162.338 36.0048 164.582 34.5987 167.341C33 170.48 33 174.587 33 182.8Z" stroke="#F1D95B" stroke-width="4" stroke-linecap="round" stroke-linejoin="round"/>
<path d="M123 2L172 52L123 107L172 161.5L123 223.5L172 271L123 302" stroke="#F1D95B" stroke-width="4"/>
<path d="M229 144.667C230.685 144.667 232.354 144.335 233.911 143.69C235.468 143.045 236.883 142.1 238.075 140.908C239.266 139.716 240.212 138.301 240.856 136.744C241.501 135.187 241.833 133.519 241.833 131.833C241.833 130.148 241.501 128.479 240.856 126.922C240.212 125.365 239.266 123.95 238.075 122.759C236.883 121.567 235.468 120.622 233.911 119.977C232.354 119.332 230.685 119 229 119C225.596 119 222.332 120.352 219.925 122.759C217.519 125.166 216.167 128.43 216.167 131.833C216.167 135.237 217.519 138.501 219.925 140.908C222.332 143.315 225.596 144.667 229 144.667ZM196 182.8V185H262V182.8C262 174.587 262 170.48 260.401 167.341C258.995 164.582 256.752 162.338 253.992 160.932C250.853 159.333 246.747 159.333 238.533 159.333H219.467C211.253 159.333 207.147 159.333 204.008 160.932C201.248 162.338 199.005 164.582 197.599 167.341C196 170.48 196 174.587 196 182.8Z" stroke="#F1D95B" stroke-width="4" stroke-linecap="round" stroke-linejoin="round"/>
<path d="M87.642 77V55.1818H100.724V57.5256H90.2841V64.8977H99.7443V67.2415H90.2841V77H87.642ZM105.249 77V55.1818H112.622C114.326 55.1818 115.725 55.473 116.819 56.0554C117.913 56.6307 118.722 57.4226 119.248 58.4311C119.774 59.4396 120.036 60.5866 120.036 61.8722C120.036 63.1577 119.774 64.2976 119.248 65.2919C118.722 66.2862 117.916 67.0675 116.83 67.6357C115.743 68.1967 114.355 68.4773 112.664 68.4773H106.698V66.0909H112.579C113.744 66.0909 114.681 65.9205 115.392 65.5795C116.109 65.2386 116.627 64.7557 116.947 64.1307C117.274 63.4986 117.437 62.7457 117.437 61.8722C117.437 60.9986 117.274 60.2351 116.947 59.5817C116.62 58.9283 116.098 58.424 115.381 58.0689C114.664 57.7067 113.715 57.5256 112.536 57.5256H107.892V77H105.249ZM115.519 67.1989L120.889 77H117.82L112.536 67.1989H115.519ZM127.081 55.1818V77H124.439V55.1818H127.081ZM132.378 77V55.1818H145.546V57.5256H135.02V64.8977H144.864V67.2415H135.02V74.6562H145.716V77H132.378ZM167.609 55.1818V77H165.052L153.163 59.8693H152.95V77H150.308V55.1818H152.865L164.797 72.3551H165.01V55.1818H167.609ZM179.629 77H172.896V55.1818H179.927C182.044 55.1818 183.855 55.6186 185.36 56.4922C186.866 57.3587 188.02 58.6051 188.823 60.2315C189.625 61.8509 190.027 63.7898 190.027 66.0483C190.027 68.321 189.622 70.2777 188.812 71.9183C188.002 73.5518 186.824 74.8089 185.275 75.6896C183.727 76.5632 181.845 77 179.629 77ZM175.538 74.6562H179.458C181.262 74.6562 182.757 74.3082 183.944 73.6122C185.13 72.9162 186.014 71.9254 186.596 70.6399C187.179 69.3544 187.47 67.8239 187.47 66.0483C187.47 64.2869 187.182 62.7706 186.607 61.4993C186.032 60.2209 185.172 59.2408 184.029 58.5589C182.885 57.87 181.461 57.5256 179.757 57.5256H175.538V74.6562ZM206.39 60.6364C206.262 59.5568 205.744 58.7188 204.835 58.1222C203.926 57.5256 202.811 57.2273 201.49 57.2273C200.524 57.2273 199.679 57.3835 198.954 57.696C198.237 58.0085 197.676 58.4382 197.271 58.9851C196.873 59.532 196.674 60.1534 196.674 60.8494C196.674 61.4318 196.813 61.9325 197.09 62.3516C197.374 62.7635 197.736 63.108 198.176 63.3849C198.617 63.6548 199.078 63.8786 199.561 64.0561C200.044 64.2266 200.488 64.3651 200.893 64.4716L203.109 65.0682C203.677 65.2173 204.309 65.4233 205.005 65.6861C205.708 65.9489 206.38 66.3075 207.019 66.7621C207.665 67.2095 208.198 67.7848 208.617 68.4879C209.036 69.1911 209.245 70.054 209.245 71.0767C209.245 72.2557 208.936 73.321 208.319 74.2727C207.708 75.2244 206.813 75.9808 205.634 76.5419C204.462 77.103 203.038 77.3835 201.362 77.3835C199.799 77.3835 198.446 77.1314 197.303 76.6271C196.167 76.1229 195.272 75.4197 194.618 74.5178C193.972 73.6158 193.606 72.5682 193.521 71.375H196.248C196.319 72.1989 196.596 72.8807 197.079 73.4205C197.569 73.9531 198.187 74.3509 198.933 74.6136C199.686 74.8693 200.495 74.9972 201.362 74.9972C202.37 74.9972 203.276 74.8338 204.078 74.5071C204.881 74.1733 205.517 73.7116 205.985 73.1222C206.454 72.5256 206.689 71.8295 206.689 71.0341C206.689 70.3097 206.486 69.7202 206.081 69.2656C205.676 68.8111 205.144 68.4418 204.483 68.1577C203.823 67.8736 203.109 67.625 202.342 67.4119L199.657 66.6449C197.953 66.1548 196.603 65.4553 195.609 64.5462C194.615 63.6371 194.118 62.4474 194.118 60.9773C194.118 59.7557 194.448 58.6903 195.108 57.7812C195.776 56.8651 196.671 56.1548 197.793 55.6506C198.922 55.1392 200.183 54.8835 201.575 54.8835C202.981 54.8835 204.231 55.1357 205.325 55.6399C206.419 56.1371 207.285 56.8189 207.924 57.6854C208.571 58.5518 208.912 59.5355 208.947 60.6364H206.39Z" fill="#F1D95B"/>
</svg>
