<svg width="300" height="300" viewBox="0 0 300 300" fill="none" xmlns="http://www.w3.org/2000/svg">
<rect x="2.5" y="2.5" width="295" height="295" rx="12.5" fill="black"/>
<rect x="2.5" y="2.5" width="295" height="295" rx="12.5" stroke="#F1D95B" stroke-width="5"/>
<path d="M132.85 97H129.327C129.119 95.9867 128.754 95.0966 128.233 94.3295C127.722 93.5625 127.097 92.9186 126.358 92.3977C125.629 91.8674 124.819 91.4697 123.929 91.2045C123.039 90.9394 122.111 90.8068 121.145 90.8068C119.384 90.8068 117.788 91.2519 116.358 92.142C114.938 93.0322 113.806 94.3438 112.963 96.0767C112.13 97.8097 111.713 99.9356 111.713 102.455C111.713 104.973 112.13 107.099 112.963 108.832C113.806 110.565 114.938 111.877 116.358 112.767C117.788 113.657 119.384 114.102 121.145 114.102C122.111 114.102 123.039 113.97 123.929 113.705C124.819 113.439 125.629 113.046 126.358 112.526C127.097 111.995 127.722 111.347 128.233 110.58C128.754 109.803 129.119 108.913 129.327 107.909H132.85C132.585 109.396 132.102 110.726 131.401 111.901C130.7 113.075 129.829 114.074 128.787 114.898C127.746 115.712 126.576 116.332 125.279 116.759C123.991 117.185 122.613 117.398 121.145 117.398C118.664 117.398 116.458 116.792 114.526 115.58C112.594 114.367 111.074 112.644 109.966 110.409C108.858 108.174 108.304 105.523 108.304 102.455C108.304 99.3864 108.858 96.7348 109.966 94.5C111.074 92.2652 112.594 90.5417 114.526 89.3295C116.458 88.1174 118.664 87.5114 121.145 87.5114C122.613 87.5114 123.991 87.7244 125.279 88.1506C126.576 88.5767 127.746 89.2017 128.787 90.0256C129.829 90.84 130.7 91.8343 131.401 93.0085C132.102 94.1733 132.585 95.5038 132.85 97ZM137.463 117V114.443L149.849 98.5341V98.3068H137.86V95.1818H154.167V97.8523L142.122 113.648V113.875H154.565V117H137.463ZM166.149 117.511C164.766 117.511 163.511 117.251 162.385 116.73C161.258 116.2 160.363 115.438 159.7 114.443C159.037 113.439 158.706 112.227 158.706 110.807C158.706 109.557 158.952 108.544 159.444 107.767C159.937 106.981 160.595 106.366 161.419 105.92C162.243 105.475 163.152 105.144 164.146 104.926C165.15 104.699 166.158 104.519 167.172 104.386C168.497 104.216 169.572 104.088 170.396 104.003C171.229 103.908 171.835 103.752 172.214 103.534C172.602 103.316 172.797 102.937 172.797 102.398V102.284C172.797 100.883 172.413 99.7936 171.646 99.017C170.888 98.2405 169.738 97.8523 168.194 97.8523C166.594 97.8523 165.339 98.2027 164.43 98.9034C163.521 99.6042 162.882 100.352 162.512 101.148L159.331 100.011C159.899 98.6856 160.656 97.6534 161.603 96.9148C162.56 96.1667 163.601 95.6458 164.728 95.3523C165.865 95.0492 166.982 94.8977 168.081 94.8977C168.781 94.8977 169.586 94.983 170.495 95.1534C171.414 95.3144 172.299 95.6506 173.152 96.1619C174.013 96.6733 174.728 97.4451 175.297 98.4773C175.865 99.5095 176.149 100.892 176.149 102.625V117H172.797V114.045H172.626C172.399 114.519 172.02 115.026 171.49 115.565C170.959 116.105 170.254 116.564 169.373 116.943C168.493 117.322 167.418 117.511 166.149 117.511ZM166.66 114.5C167.986 114.5 169.103 114.24 170.012 113.719C170.931 113.198 171.622 112.526 172.086 111.702C172.56 110.878 172.797 110.011 172.797 109.102V106.034C172.654 106.205 172.342 106.361 171.859 106.503C171.386 106.635 170.836 106.754 170.211 106.858C169.596 106.953 168.994 107.038 168.407 107.114C167.83 107.18 167.361 107.237 167.001 107.284C166.13 107.398 165.315 107.582 164.558 107.838C163.81 108.084 163.204 108.458 162.74 108.96C162.285 109.453 162.058 110.125 162.058 110.977C162.058 112.142 162.489 113.023 163.35 113.619C164.222 114.206 165.325 114.5 166.66 114.5ZM182.267 117V95.1818H185.506V98.4773H185.733C186.131 97.3977 186.851 96.5218 187.892 95.8494C188.934 95.1771 190.108 94.8409 191.415 94.8409C191.661 94.8409 191.969 94.8456 192.338 94.8551C192.708 94.8646 192.987 94.8788 193.176 94.8977V98.3068C193.063 98.2784 192.802 98.2358 192.395 98.179C191.998 98.1127 191.576 98.0795 191.131 98.0795C190.07 98.0795 189.123 98.3021 188.29 98.7472C187.466 99.1828 186.813 99.7888 186.33 100.565C185.856 101.332 185.62 102.208 185.62 103.193V117H182.267ZM122.836 200.727C122.836 197.148 123.3 193.857 124.228 190.855C125.165 187.844 126.5 185.074 128.233 182.545H131.188C130.506 183.483 129.867 184.638 129.27 186.011C128.683 187.375 128.167 188.876 127.722 190.514C127.277 192.143 126.926 193.829 126.671 195.571C126.425 197.313 126.301 199.032 126.301 200.727C126.301 202.981 126.519 205.268 126.955 207.588C127.391 209.908 127.978 212.062 128.716 214.051C129.455 216.04 130.279 217.659 131.188 218.909H128.233C126.5 216.381 125.165 213.616 124.228 210.614C123.3 207.602 122.836 204.307 122.836 200.727ZM136.135 221.182V191.182H139.373V194.648H139.771C140.017 194.269 140.358 193.786 140.794 193.199C141.239 192.602 141.873 192.072 142.697 191.608C143.53 191.134 144.657 190.898 146.078 190.898C147.915 190.898 149.534 191.357 150.936 192.276C152.337 193.194 153.431 194.496 154.217 196.182C155.003 197.867 155.396 199.856 155.396 202.148C155.396 204.458 155.003 206.461 154.217 208.156C153.431 209.842 152.342 211.149 150.95 212.077C149.558 212.995 147.953 213.455 146.135 213.455C144.733 213.455 143.611 213.223 142.768 212.759C141.925 212.285 141.277 211.75 140.822 211.153C140.368 210.547 140.017 210.045 139.771 209.648H139.487V221.182H136.135ZM139.43 202.091C139.43 203.739 139.672 205.192 140.154 206.452C140.637 207.702 141.343 208.682 142.271 209.392C143.199 210.093 144.335 210.443 145.68 210.443C147.082 210.443 148.251 210.074 149.189 209.335C150.136 208.587 150.846 207.583 151.319 206.324C151.802 205.055 152.044 203.644 152.044 202.091C152.044 200.557 151.807 199.174 151.333 197.943C150.869 196.703 150.164 195.723 149.217 195.003C148.279 194.274 147.1 193.909 145.68 193.909C144.316 193.909 143.171 194.255 142.243 194.946C141.315 195.628 140.614 196.584 140.14 197.815C139.667 199.037 139.43 200.462 139.43 202.091ZM163.862 183.909V213H160.51V183.909H163.862ZM177.161 200.727C177.161 204.307 176.692 207.602 175.755 210.614C174.827 213.616 173.496 216.381 171.763 218.909H168.809C169.49 217.972 170.125 216.816 170.712 215.443C171.309 214.08 171.829 212.583 172.275 210.955C172.72 209.316 173.065 207.626 173.311 205.884C173.567 204.132 173.695 202.413 173.695 200.727C173.695 198.473 173.477 196.187 173.042 193.866C172.606 191.546 172.019 189.392 171.28 187.403C170.542 185.415 169.718 183.795 168.809 182.545H171.763C173.496 185.074 174.827 187.844 175.755 190.855C176.692 193.857 177.161 197.148 177.161 200.727Z" fill="#F1D95B"/>
</svg>
