<svg width="300" height="300" viewBox="0 0 300 300" fill="none" xmlns="http://www.w3.org/2000/svg">
<rect x="2.5" y="2.5" width="295" height="295" rx="12.5" fill="black"/>
<rect x="2.5" y="2.5" width="295" height="295" rx="12.5" stroke="#F1D95B" stroke-width="5"/>
<path d="M87.6935 97H84.1708C83.9625 95.9867 83.5979 95.0966 83.0771 94.3295C82.5657 93.5625 81.9407 92.9186 81.2021 92.3977C80.4729 91.8674 79.6632 91.4697 78.7731 91.2045C77.8829 90.9394 76.9549 90.8068 75.989 90.8068C74.2276 90.8068 72.632 91.2519 71.2021 92.142C69.7816 93.0322 68.65 94.3438 67.8072 96.0767C66.9738 97.8097 66.5572 99.9356 66.5572 102.455C66.5572 104.973 66.9738 107.099 67.8072 108.832C68.65 110.565 69.7816 111.877 71.2021 112.767C72.632 113.657 74.2276 114.102 75.989 114.102C76.9549 114.102 77.8829 113.97 78.7731 113.705C79.6632 113.439 80.4729 113.046 81.2021 112.526C81.9407 111.995 82.5657 111.347 83.0771 110.58C83.5979 109.803 83.9625 108.913 84.1708 107.909H87.6935C87.4284 109.396 86.9454 110.726 86.2447 111.901C85.5439 113.075 84.6727 114.074 83.631 114.898C82.5894 115.712 81.4199 116.332 80.1225 116.759C78.8346 117.185 77.4568 117.398 75.989 117.398C73.5079 117.398 71.3015 116.792 69.3697 115.58C67.4379 114.367 65.918 112.644 64.81 110.409C63.7021 108.174 63.1481 105.523 63.1481 102.455C63.1481 99.3864 63.7021 96.7348 64.81 94.5C65.918 92.2652 67.4379 90.5417 69.3697 89.3295C71.3015 88.1174 73.5079 87.5114 75.989 87.5114C77.4568 87.5114 78.8346 87.7244 80.1225 88.1506C81.4199 88.5767 82.5894 89.2017 83.631 90.0256C84.6727 90.84 85.5439 91.8343 86.2447 93.0085C86.9454 94.1733 87.4284 95.5038 87.6935 97ZM92.3065 117V114.443L104.693 98.5341V98.3068H92.7042V95.1818H109.011V97.8523L96.9656 113.648V113.875H109.409V117H92.3065ZM123.095 117.455C120.993 117.455 119.179 116.991 117.654 116.062C116.139 115.125 114.97 113.818 114.146 112.142C113.332 110.456 112.924 108.496 112.924 106.261C112.924 104.027 113.332 102.057 114.146 100.352C114.97 98.6383 116.116 97.303 117.583 96.3466C119.061 95.3807 120.784 94.8977 122.754 94.8977C123.89 94.8977 125.012 95.0871 126.12 95.4659C127.228 95.8447 128.237 96.4602 129.146 97.3125C130.055 98.1553 130.779 99.2727 131.319 100.665C131.859 102.057 132.129 103.771 132.129 105.807V107.227H115.311V104.33H128.72C128.72 103.098 128.474 102 127.981 101.034C127.498 100.068 126.807 99.3059 125.907 98.7472C125.017 98.1884 123.966 97.9091 122.754 97.9091C121.419 97.9091 120.263 98.2405 119.288 98.9034C118.322 99.5568 117.579 100.409 117.058 101.46C116.537 102.511 116.277 103.638 116.277 104.841V106.773C116.277 108.42 116.561 109.817 117.129 110.963C117.707 112.099 118.507 112.966 119.529 113.562C120.552 114.15 121.741 114.443 123.095 114.443C123.975 114.443 124.771 114.32 125.481 114.074C126.201 113.818 126.821 113.439 127.342 112.938C127.863 112.426 128.265 111.792 128.549 111.034L131.788 111.943C131.447 113.042 130.874 114.008 130.069 114.841C129.264 115.665 128.27 116.309 127.086 116.773C125.903 117.227 124.572 117.455 123.095 117.455ZM137.228 117V95.1818H140.467V98.4773H140.694C141.092 97.3977 141.812 96.5218 142.853 95.8494C143.895 95.1771 145.069 94.8409 146.376 94.8409C146.622 94.8409 146.93 94.8456 147.299 94.8551C147.669 94.8646 147.948 94.8788 148.137 94.8977V98.3068C148.024 98.2784 147.763 98.2358 147.356 98.179C146.958 98.1127 146.537 98.0795 146.092 98.0795C145.031 98.0795 144.084 98.3021 143.251 98.7472C142.427 99.1828 141.774 99.7888 141.291 100.565C140.817 101.332 140.581 102.208 140.581 103.193V117H137.228ZM167.566 100.068L164.554 100.92C164.365 100.419 164.086 99.9309 163.716 99.4574C163.356 98.9744 162.864 98.5767 162.239 98.2642C161.614 97.9517 160.814 97.7955 159.838 97.7955C158.503 97.7955 157.391 98.1032 156.5 98.7188C155.62 99.3248 155.179 100.097 155.179 101.034C155.179 101.867 155.482 102.526 156.088 103.009C156.694 103.491 157.641 103.894 158.929 104.216L162.168 105.011C164.119 105.485 165.572 106.209 166.529 107.185C167.485 108.151 167.963 109.396 167.963 110.92C167.963 112.17 167.604 113.288 166.884 114.273C166.174 115.258 165.179 116.034 163.901 116.602C162.623 117.17 161.136 117.455 159.441 117.455C157.215 117.455 155.373 116.972 153.915 116.006C152.457 115.04 151.533 113.629 151.145 111.773L154.327 110.977C154.63 112.152 155.203 113.032 156.046 113.619C156.898 114.206 158.011 114.5 159.384 114.5C160.946 114.5 162.187 114.169 163.105 113.506C164.033 112.833 164.498 112.028 164.498 111.091C164.498 110.333 164.232 109.699 163.702 109.188C163.172 108.667 162.357 108.278 161.259 108.023L157.623 107.17C155.624 106.697 154.157 105.963 153.219 104.969C152.291 103.965 151.827 102.71 151.827 101.205C151.827 99.9735 152.173 98.8845 152.864 97.9375C153.565 96.9905 154.516 96.2472 155.719 95.7074C156.931 95.1676 158.304 94.8977 159.838 94.8977C161.998 94.8977 163.693 95.3712 164.924 96.3182C166.164 97.2652 167.045 98.5152 167.566 100.068ZM182.498 95.1818V98.0227H171.191V95.1818H182.498ZM174.487 89.9545H177.839V110.75C177.839 111.697 177.976 112.407 178.251 112.881C178.535 113.345 178.895 113.657 179.331 113.818C179.776 113.97 180.244 114.045 180.737 114.045C181.106 114.045 181.409 114.027 181.646 113.989C181.883 113.941 182.072 113.903 182.214 113.875L182.896 116.886C182.669 116.972 182.351 117.057 181.944 117.142C181.537 117.237 181.021 117.284 180.396 117.284C179.449 117.284 178.521 117.08 177.612 116.673C176.712 116.266 175.964 115.646 175.368 114.812C174.78 113.979 174.487 112.928 174.487 111.659V89.9545ZM192.484 117L185.836 95.1818H189.359L194.075 111.886H194.302L198.961 95.1818H202.541L207.143 111.83H207.37L212.086 95.1818H215.609L208.961 117H205.666L200.893 100.239H200.552L195.779 117H192.484ZM222.2 125.182C221.632 125.182 221.125 125.134 220.68 125.04C220.235 124.955 219.927 124.869 219.757 124.784L220.609 121.83C221.423 122.038 222.143 122.114 222.768 122.057C223.393 122 223.947 121.721 224.43 121.219C224.922 120.726 225.372 119.926 225.779 118.818L226.404 117.114L218.336 95.1818H221.973L227.995 112.568H228.223L234.245 95.1818H237.882L228.62 120.182C228.204 121.309 227.688 122.241 227.072 122.98C226.457 123.728 225.742 124.282 224.927 124.642C224.122 125.002 223.213 125.182 222.2 125.182ZM122.836 200.727C122.836 197.148 123.3 193.857 124.228 190.855C125.165 187.844 126.5 185.074 128.233 182.545H131.188C130.506 183.483 129.867 184.638 129.27 186.011C128.683 187.375 128.167 188.876 127.722 190.514C127.277 192.143 126.926 193.829 126.671 195.571C126.425 197.313 126.301 199.032 126.301 200.727C126.301 202.981 126.519 205.268 126.955 207.588C127.391 209.908 127.978 212.062 128.716 214.051C129.455 216.04 130.279 217.659 131.188 218.909H128.233C126.5 216.381 125.165 213.616 124.228 210.614C123.3 207.602 122.836 204.307 122.836 200.727ZM136.135 221.182V191.182H139.373V194.648H139.771C140.017 194.269 140.358 193.786 140.794 193.199C141.239 192.602 141.873 192.072 142.697 191.608C143.53 191.134 144.657 190.898 146.078 190.898C147.915 190.898 149.534 191.357 150.936 192.276C152.337 193.194 153.431 194.496 154.217 196.182C155.003 197.867 155.396 199.856 155.396 202.148C155.396 204.458 155.003 206.461 154.217 208.156C153.431 209.842 152.342 211.149 150.95 212.077C149.558 212.995 147.953 213.455 146.135 213.455C144.733 213.455 143.611 213.223 142.768 212.759C141.925 212.285 141.277 211.75 140.822 211.153C140.368 210.547 140.017 210.045 139.771 209.648H139.487V221.182H136.135ZM139.43 202.091C139.43 203.739 139.672 205.192 140.154 206.452C140.637 207.702 141.343 208.682 142.271 209.392C143.199 210.093 144.335 210.443 145.68 210.443C147.082 210.443 148.251 210.074 149.189 209.335C150.136 208.587 150.846 207.583 151.319 206.324C151.802 205.055 152.044 203.644 152.044 202.091C152.044 200.557 151.807 199.174 151.333 197.943C150.869 196.703 150.164 195.723 149.217 195.003C148.279 194.274 147.1 193.909 145.68 193.909C144.316 193.909 143.171 194.255 142.243 194.946C141.315 195.628 140.614 196.584 140.14 197.815C139.667 199.037 139.43 200.462 139.43 202.091ZM163.862 183.909V213H160.51V183.909H163.862ZM177.161 200.727C177.161 204.307 176.692 207.602 175.755 210.614C174.827 213.616 173.496 216.381 171.763 218.909H168.809C169.49 217.972 170.125 216.816 170.712 215.443C171.309 214.08 171.829 212.583 172.275 210.955C172.72 209.316 173.065 207.626 173.311 205.884C173.567 204.132 173.695 202.413 173.695 200.727C173.695 198.473 173.477 196.187 173.042 193.866C172.606 191.546 172.019 189.392 171.28 187.403C170.542 185.415 169.718 183.795 168.809 182.545H171.763C173.496 185.074 174.827 187.844 175.755 190.855C176.692 193.857 177.161 197.148 177.161 200.727Z" fill="#F1D95B"/>
</svg>
