<svg width="300" height="300" viewBox="0 0 300 300" fill="none" xmlns="http://www.w3.org/2000/svg">
<rect x="2.5" y="2.5" width="295" height="295" rx="12.5" fill="black"/>
<rect x="2.5" y="2.5" width="295" height="295" rx="12.5" stroke="#F1D95B" stroke-width="5"/>
<path d="M101.543 117H92.5657V87.9091H101.941C104.763 87.9091 107.177 88.4915 109.185 89.6562C111.193 90.8116 112.731 92.4735 113.801 94.642C114.872 96.8011 115.407 99.3864 115.407 102.398C115.407 105.428 114.867 108.037 113.787 110.224C112.708 112.402 111.136 114.079 109.071 115.253C107.007 116.418 104.498 117 101.543 117ZM96.0884 113.875H101.316C103.721 113.875 105.714 113.411 107.296 112.483C108.877 111.555 110.056 110.234 110.833 108.52C111.609 106.806 111.998 104.765 111.998 102.398C111.998 100.049 111.614 98.0275 110.847 96.3324C110.08 94.6278 108.934 93.321 107.409 92.4119C105.885 91.4934 103.986 91.0341 101.713 91.0341H96.0884V113.875ZM130.009 117.455C127.907 117.455 126.093 116.991 124.569 116.062C123.053 115.125 121.884 113.818 121.06 112.142C120.246 110.456 119.838 108.496 119.838 106.261C119.838 104.027 120.246 102.057 121.06 100.352C121.884 98.6383 123.03 97.303 124.498 96.3466C125.975 95.3807 127.698 94.8977 129.668 94.8977C130.804 94.8977 131.926 95.0871 133.034 95.4659C134.142 95.8447 135.151 96.4602 136.06 97.3125C136.969 98.1553 137.694 99.2727 138.233 100.665C138.773 102.057 139.043 103.771 139.043 105.807V107.227H122.225V104.33H135.634C135.634 103.098 135.388 102 134.895 101.034C134.412 100.068 133.721 99.3059 132.821 98.7472C131.931 98.1884 130.88 97.9091 129.668 97.9091C128.333 97.9091 127.177 98.2405 126.202 98.9034C125.236 99.5568 124.493 100.409 123.972 101.46C123.451 102.511 123.191 103.638 123.191 104.841V106.773C123.191 108.42 123.475 109.817 124.043 110.963C124.621 112.099 125.421 112.966 126.444 113.562C127.466 114.15 128.655 114.443 130.009 114.443C130.89 114.443 131.685 114.32 132.395 114.074C133.115 113.818 133.735 113.439 134.256 112.938C134.777 112.426 135.179 111.792 135.463 111.034L138.702 111.943C138.361 113.042 137.788 114.008 136.983 114.841C136.178 115.665 135.184 116.309 134 116.773C132.817 117.227 131.486 117.455 130.009 117.455ZM126.543 86.4318L129.498 90.4091L132.452 86.4318H135.634V86.6591L131.032 92.5682H127.963L123.361 86.6591V86.4318H126.543ZM152.381 117.455C150.563 117.455 148.958 116.995 147.566 116.077C146.174 115.149 145.085 113.842 144.299 112.156C143.513 110.461 143.12 108.458 143.12 106.148C143.12 103.856 143.513 101.867 144.299 100.182C145.085 98.4962 146.178 97.1941 147.58 96.2756C148.981 95.357 150.601 94.8977 152.438 94.8977C153.858 94.8977 154.98 95.1345 155.804 95.608C156.638 96.072 157.272 96.6023 157.708 97.1989C158.153 97.786 158.498 98.2689 158.745 98.6477H159.029V87.9091H162.381V117H159.142V113.648H158.745C158.498 114.045 158.148 114.547 157.694 115.153C157.239 115.75 156.59 116.285 155.748 116.759C154.905 117.223 153.783 117.455 152.381 117.455ZM152.836 114.443C154.18 114.443 155.317 114.093 156.245 113.392C157.173 112.682 157.878 111.702 158.361 110.452C158.844 109.192 159.086 107.739 159.086 106.091C159.086 104.462 158.849 103.037 158.375 101.815C157.902 100.584 157.201 99.6278 156.273 98.946C155.345 98.2547 154.199 97.9091 152.836 97.9091C151.415 97.9091 150.231 98.2737 149.284 99.0028C148.347 99.7225 147.641 100.703 147.168 101.943C146.704 103.174 146.472 104.557 146.472 106.091C146.472 107.644 146.709 109.055 147.182 110.324C147.665 111.583 148.375 112.587 149.313 113.335C150.26 114.074 151.434 114.443 152.836 114.443ZM178.134 117.455C176.032 117.455 174.218 116.991 172.694 116.062C171.178 115.125 170.009 113.818 169.185 112.142C168.371 110.456 167.963 108.496 167.963 106.261C167.963 104.027 168.371 102.057 169.185 100.352C170.009 98.6383 171.155 97.303 172.623 96.3466C174.1 95.3807 175.823 94.8977 177.793 94.8977C178.929 94.8977 180.051 95.0871 181.159 95.4659C182.267 95.8447 183.276 96.4602 184.185 97.3125C185.094 98.1553 185.819 99.2727 186.358 100.665C186.898 102.057 187.168 103.771 187.168 105.807V107.227H170.35V104.33H183.759C183.759 103.098 183.513 102 183.02 101.034C182.537 100.068 181.846 99.3059 180.946 98.7472C180.056 98.1884 179.005 97.9091 177.793 97.9091C176.458 97.9091 175.302 98.2405 174.327 98.9034C173.361 99.5568 172.618 100.409 172.097 101.46C171.576 102.511 171.316 103.638 171.316 104.841V106.773C171.316 108.42 171.6 109.817 172.168 110.963C172.746 112.099 173.546 112.966 174.569 113.562C175.591 114.15 176.78 114.443 178.134 114.443C179.015 114.443 179.81 114.32 180.52 114.074C181.24 113.818 181.86 113.439 182.381 112.938C182.902 112.426 183.304 111.792 183.588 111.034L186.827 111.943C186.486 113.042 185.913 114.008 185.108 114.841C184.303 115.665 183.309 116.309 182.125 116.773C180.942 117.227 179.611 117.455 178.134 117.455ZM195.392 109.045L195.336 104.898H196.017L205.563 95.1818H209.711L199.54 105.466H199.256L195.392 109.045ZM192.267 117V87.9091H195.62V117H192.267ZM206.131 117L197.608 106.205L199.995 103.875L210.392 117H206.131ZM118.011 200.727C118.011 197.148 118.475 193.857 119.403 190.855C120.341 187.844 121.676 185.074 123.409 182.545H126.364C125.682 183.483 125.043 184.638 124.446 186.011C123.859 187.375 123.343 188.876 122.898 190.514C122.453 192.143 122.102 193.829 121.847 195.571C121.6 197.313 121.477 199.032 121.477 200.727C121.477 202.981 121.695 205.268 122.131 207.588C122.566 209.908 123.153 212.062 123.892 214.051C124.631 216.04 125.455 217.659 126.364 218.909H123.409C121.676 216.381 120.341 213.616 119.403 210.614C118.475 207.602 118.011 204.307 118.011 200.727ZM139.705 213.455C137.66 213.455 135.898 212.972 134.421 212.006C132.944 211.04 131.808 209.709 131.012 208.014C130.217 206.319 129.819 204.383 129.819 202.205C129.819 199.989 130.226 198.033 131.04 196.338C131.864 194.634 133.01 193.303 134.478 192.347C135.955 191.381 137.679 190.898 139.648 190.898C141.183 190.898 142.565 191.182 143.796 191.75C145.027 192.318 146.036 193.114 146.822 194.136C147.608 195.159 148.095 196.352 148.285 197.716H144.933C144.677 196.722 144.109 195.841 143.228 195.074C142.357 194.297 141.183 193.909 139.705 193.909C138.398 193.909 137.253 194.25 136.268 194.932C135.292 195.604 134.53 196.556 133.981 197.787C133.441 199.009 133.171 200.443 133.171 202.091C133.171 203.777 133.436 205.244 133.967 206.494C134.506 207.744 135.264 208.715 136.239 209.406C137.224 210.098 138.379 210.443 139.705 210.443C140.576 210.443 141.367 210.292 142.077 209.989C142.788 209.686 143.389 209.25 143.881 208.682C144.374 208.114 144.724 207.432 144.933 206.636H148.285C148.095 207.924 147.627 209.084 146.879 210.116C146.14 211.139 145.16 211.954 143.938 212.56C142.726 213.156 141.315 213.455 139.705 213.455ZM152.56 213V210.443L164.947 194.534V194.307H152.958V191.182H169.265V193.852L157.219 209.648V209.875H169.663V213H152.56ZM181.985 200.727C181.985 204.307 181.516 207.602 180.579 210.614C179.651 213.616 178.32 216.381 176.587 218.909H173.633C174.315 217.972 174.949 216.816 175.536 215.443C176.133 214.08 176.654 212.583 177.099 210.955C177.544 209.316 177.889 207.626 178.136 205.884C178.391 204.132 178.519 202.413 178.519 200.727C178.519 198.473 178.301 196.187 177.866 193.866C177.43 191.546 176.843 189.392 176.104 187.403C175.366 185.415 174.542 183.795 173.633 182.545H176.587C178.32 185.074 179.651 187.844 180.579 190.855C181.516 193.857 181.985 197.148 181.985 200.727Z" fill="#F1D95B"/>
</svg>
