<svg width="100" height="100" viewBox="0 0 100 100" fill="none" xmlns="http://www.w3.org/2000/svg">
<rect width="100" height="100" fill="#111010"/>
<path d="M87.5 37.5H62.5V91.6667H54.1667V66.6667H45.8333V91.6667H37.5V37.5H12.5V29.1667H87.5M50 8.33333C52.2101 8.33333 54.3298 9.21131 55.8926 10.7741C57.4554 12.3369 58.3333 14.4565 58.3333 16.6667C58.3333 18.8768 57.4554 20.9964 55.8926 22.5592C54.3298 24.122 52.2101 25 50 25C47.7899 25 45.6702 24.122 44.1074 22.5592C42.5446 20.9964 41.6667 18.8768 41.6667 16.6667C41.6667 12.0417 45.375 8.33333 50 8.33333Z" fill="#4ECB71"/>
</svg>
