<svg width="100" height="100" viewBox="0 0 100 100" fill="none" xmlns="http://www.w3.org/2000/svg">
<rect width="100" height="100" fill="#111010"/>
<path d="M74.7705 59.4875C73.2749 54.0659 70.0419 49.2847 65.5674 45.8774C61.0929 42.4701 55.6241 40.6249 50 40.6249C44.3759 40.6249 38.9071 42.4701 34.4326 45.8774C29.9581 49.2847 26.7251 54.0659 25.2295 59.4875L21.6654 72.4074C21.0255 74.7272 20.93 77.1634 21.3865 79.5261C21.8429 81.8888 22.8389 84.1142 24.2967 86.0287C25.7546 87.9432 27.635 89.4951 29.7912 90.5634C31.9475 91.6317 34.3214 92.1875 36.7277 92.1875H63.2723C65.6787 92.1875 68.0525 91.6317 70.2088 90.5634C72.365 89.4951 74.2454 87.9432 75.7033 86.0287C77.1612 84.1142 78.1571 81.8888 78.6136 79.5261C79.07 77.1634 78.9745 74.7272 78.3346 72.4074L74.7705 59.4875ZM70.7311 82.2414C69.8602 83.3943 68.7327 84.3286 67.4381 84.9701C66.1434 85.6117 64.7172 85.9429 63.2723 85.9375H36.7277C35.2839 85.9375 33.8595 85.604 32.5658 84.9631C31.272 84.3221 30.1437 83.3909 29.269 82.2422C28.3943 81.0935 27.7967 79.7582 27.5228 78.3406C27.249 76.9229 27.3063 75.4612 27.6902 74.0693L31.2543 61.1496C32.3861 57.0467 34.8328 53.4284 38.219 50.8499C41.6052 48.2713 45.7438 46.8749 50 46.8749C54.2562 46.8749 58.3948 48.2713 61.781 50.8499C65.1672 53.4284 67.6139 57.0467 68.7457 61.1496L72.3098 74.0693C72.6993 75.4607 72.7594 76.9236 72.4854 78.3422C72.2114 79.7607 71.6107 81.096 70.7311 82.2422V82.2414ZM28.5352 44.9824C29.0789 41.584 28.3578 37.9459 26.5039 34.7357C24.65 31.5256 21.8594 29.082 18.6451 27.8537C15.2029 26.5391 11.692 26.7484 8.75567 28.443C2.91837 31.8133 1.38224 40.1197 5.33204 46.9596C7.18536 50.1697 9.97618 52.6139 13.1904 53.8416C14.6143 54.3965 16.1277 54.6858 17.6559 54.6953C19.5597 54.7022 21.4312 54.2042 23.0799 53.2521C26.0145 51.5574 27.952 48.6205 28.5352 44.9824ZM22.3633 43.9945C22.084 45.7385 21.2285 47.1039 19.9545 47.8395C18.6805 48.575 17.0703 48.6328 15.4199 48.0029C13.5424 47.2859 11.8818 45.8055 10.744 43.8346C8.55645 40.0455 9.07638 35.4752 11.8807 33.8557C12.5856 33.4556 13.384 33.2495 14.1945 33.2584C14.9548 33.2663 15.7073 33.413 16.4149 33.6914C18.2924 34.4088 19.9529 35.8891 21.0908 37.86C22.2287 39.8309 22.6805 42.01 22.3633 43.9945ZM29.2121 32.0346C31.4313 33.8086 33.9654 34.7324 36.5281 34.7322C37.2958 34.732 38.0611 34.6494 38.8111 34.4859C45.3977 33.0541 49.3912 25.6104 47.7135 17.8926C46.9264 14.2703 45.0127 11.0924 42.3252 8.94375C39.4473 6.64297 36.0383 5.77207 32.7262 6.49238C26.1399 7.92402 22.1463 15.3678 23.8238 23.0855C24.6111 26.708 26.5248 29.8859 29.2121 32.0346ZM34.0535 12.5998C34.3572 12.5343 34.6671 12.5016 34.9777 12.5021C36.1395 12.5021 37.3344 12.9566 38.4225 13.8266C39.9922 15.0814 41.1229 16.9973 41.6061 19.2213C42.5358 23.4977 40.6479 27.6916 37.4836 28.3795C36.0459 28.692 34.4943 28.2568 33.115 27.1539C31.5453 25.8988 30.4147 23.983 29.9315 21.7592C29.0016 17.4816 30.8895 13.2877 34.0535 12.5998ZM91.2443 28.443C88.3092 26.7484 84.7965 26.5391 81.3549 27.8537C78.1406 29.0816 75.3498 31.5256 73.4965 34.7357C71.6432 37.9459 70.9219 41.5848 71.4652 44.9824C72.0477 48.6205 73.9848 51.5574 76.9205 53.2521C78.5691 54.2043 80.4407 54.7023 82.3445 54.6953C83.8727 54.6859 85.3861 54.3965 86.81 53.8416C90.0242 52.6139 92.815 50.1697 94.6684 46.9596C98.6178 40.1197 97.0816 31.8133 91.2443 28.443ZM89.2561 43.8346C88.1182 45.8055 86.4576 47.2859 84.5801 48.0029C82.9305 48.6334 81.3199 48.5754 80.0459 47.8395C78.7719 47.1035 77.917 45.7385 77.6371 43.9945C77.3195 42.01 77.7711 39.8316 78.9092 37.8617C80.0473 35.8918 81.7076 34.4105 83.5852 33.6932C84.2927 33.4145 85.0451 33.2675 85.8055 33.2594C86.616 33.2505 87.4144 33.4566 88.1193 33.8566C90.9236 35.4748 91.4441 40.0445 89.2561 43.8346ZM61.1889 34.4859C61.9389 34.6494 62.7043 34.732 63.4719 34.7322C66.0344 34.7322 68.5695 33.8086 70.7879 32.0346C73.4752 29.8861 75.3889 26.708 76.1762 23.0857C77.8537 15.368 73.8602 7.92422 67.2738 6.49258C63.9619 5.77266 60.5527 6.64297 57.6748 8.94395C54.9873 11.0924 53.0736 14.2705 52.2865 17.8926C50.6088 25.6104 54.6024 33.0541 61.1889 34.4859ZM58.394 19.2203C58.8772 16.9963 60.0078 15.0797 61.5776 13.8256C62.6658 12.9557 63.8606 12.5012 65.0223 12.5012C65.333 12.5006 65.6428 12.5333 65.9465 12.5988C69.1106 13.2867 70.9984 17.4816 70.069 21.757C69.5854 23.9811 68.4547 25.8977 66.8854 27.152C65.5063 28.2547 63.9557 28.6898 62.5168 28.3775C59.3522 27.6906 57.4643 23.4961 58.394 19.2203Z" fill="#4ECB71"/>
</svg>
