<svg width="300" height="300" viewBox="0 0 300 300" fill="none" xmlns="http://www.w3.org/2000/svg">
<rect x="2.5" y="2.5" width="295" height="295" rx="12.5" fill="black"/>
<rect x="2.5" y="2.5" width="295" height="295" rx="12.5" stroke="#F1D95B" stroke-width="5"/>
<path d="M107.312 117V87.9091H110.835V113.875H124.357V117H107.312ZM135.778 117.511C134.395 117.511 133.14 117.251 132.013 116.73C130.887 116.2 129.992 115.438 129.329 114.443C128.666 113.439 128.335 112.227 128.335 110.807C128.335 109.557 128.581 108.544 129.073 107.767C129.566 106.981 130.224 106.366 131.048 105.92C131.871 105.475 132.781 105.144 133.775 104.926C134.779 104.699 135.787 104.519 136.8 104.386C138.126 104.216 139.201 104.088 140.025 104.003C140.858 103.908 141.464 103.752 141.843 103.534C142.231 103.316 142.425 102.937 142.425 102.398V102.284C142.425 100.883 142.042 99.7936 141.275 99.017C140.517 98.2405 139.367 97.8523 137.823 97.8523C136.223 97.8523 134.968 98.2027 134.059 98.9034C133.15 99.6042 132.511 100.352 132.141 101.148L128.96 100.011C129.528 98.6856 130.285 97.6534 131.232 96.9148C132.189 96.1667 133.23 95.6458 134.357 95.3523C135.494 95.0492 136.611 94.8977 137.71 94.8977C138.41 94.8977 139.215 94.983 140.124 95.1534C141.043 95.3144 141.928 95.6506 142.781 96.1619C143.642 96.6733 144.357 97.4451 144.925 98.4773C145.494 99.5095 145.778 100.892 145.778 102.625V117H142.425V114.045H142.255C142.028 114.519 141.649 115.026 141.119 115.565C140.588 116.105 139.883 116.564 139.002 116.943C138.121 117.322 137.047 117.511 135.778 117.511ZM136.289 114.5C137.615 114.5 138.732 114.24 139.641 113.719C140.56 113.198 141.251 112.526 141.715 111.702C142.189 110.878 142.425 110.011 142.425 109.102V106.034C142.283 106.205 141.971 106.361 141.488 106.503C141.014 106.635 140.465 106.754 139.84 106.858C139.225 106.953 138.623 107.038 138.036 107.114C137.459 107.18 136.99 107.237 136.63 107.284C135.759 107.398 134.944 107.582 134.187 107.838C133.439 108.084 132.833 108.458 132.369 108.96C131.914 109.453 131.687 110.125 131.687 110.977C131.687 112.142 132.118 113.023 132.979 113.619C133.851 114.206 134.954 114.5 136.289 114.5ZM160.135 117.455C158.317 117.455 156.712 116.995 155.32 116.077C153.928 115.149 152.839 113.842 152.053 112.156C151.267 110.461 150.874 108.458 150.874 106.148C150.874 103.856 151.267 101.867 152.053 100.182C152.839 98.4962 153.932 97.1941 155.334 96.2756C156.735 95.357 158.355 94.8977 160.192 94.8977C161.612 94.8977 162.734 95.1345 163.558 95.608C164.392 96.072 165.026 96.6023 165.462 97.1989C165.907 97.786 166.252 98.2689 166.499 98.6477H166.783V87.9091H170.135V117H166.896V113.648H166.499C166.252 114.045 165.902 114.547 165.447 115.153C164.993 115.75 164.344 116.285 163.501 116.759C162.659 117.223 161.536 117.455 160.135 117.455ZM160.589 114.443C161.934 114.443 163.071 114.093 163.999 113.392C164.927 112.682 165.632 111.702 166.115 110.452C166.598 109.192 166.839 107.739 166.839 106.091C166.839 104.462 166.603 103.037 166.129 101.815C165.656 100.584 164.955 99.6278 164.027 98.946C163.099 98.2547 161.953 97.9091 160.589 97.9091C159.169 97.9091 157.985 98.2737 157.038 99.0028C156.101 99.7225 155.395 100.703 154.922 101.943C154.458 103.174 154.226 104.557 154.226 106.091C154.226 107.644 154.463 109.055 154.936 110.324C155.419 111.583 156.129 112.587 157.067 113.335C158.014 114.074 159.188 114.443 160.589 114.443ZM183.161 117.511C181.778 117.511 180.523 117.251 179.396 116.73C178.269 116.2 177.375 115.438 176.712 114.443C176.049 113.439 175.717 112.227 175.717 110.807C175.717 109.557 175.964 108.544 176.456 107.767C176.948 106.981 177.607 106.366 178.43 105.92C179.254 105.475 180.163 105.144 181.158 104.926C182.161 104.699 183.17 104.519 184.183 104.386C185.509 104.216 186.584 104.088 187.408 104.003C188.241 103.908 188.847 103.752 189.226 103.534C189.614 103.316 189.808 102.937 189.808 102.398V102.284C189.808 100.883 189.425 99.7936 188.658 99.017C187.9 98.2405 186.75 97.8523 185.206 97.8523C183.606 97.8523 182.351 98.2027 181.442 98.9034C180.533 99.6042 179.893 100.352 179.524 101.148L176.342 100.011C176.911 98.6856 177.668 97.6534 178.615 96.9148C179.571 96.1667 180.613 95.6458 181.74 95.3523C182.876 95.0492 183.994 94.8977 185.092 94.8977C185.793 94.8977 186.598 94.983 187.507 95.1534C188.426 95.3144 189.311 95.6506 190.163 96.1619C191.025 96.6733 191.74 97.4451 192.308 98.4773C192.876 99.5095 193.161 100.892 193.161 102.625V117H189.808V114.045H189.638C189.411 114.519 189.032 115.026 188.501 115.565C187.971 116.105 187.266 116.564 186.385 116.943C185.504 117.322 184.429 117.511 183.161 117.511ZM183.672 114.5C184.998 114.5 186.115 114.24 187.024 113.719C187.943 113.198 188.634 112.526 189.098 111.702C189.571 110.878 189.808 110.011 189.808 109.102V106.034C189.666 106.205 189.354 106.361 188.871 106.503C188.397 106.635 187.848 106.754 187.223 106.858C186.607 106.953 186.006 107.038 185.419 107.114C184.841 107.18 184.373 107.237 184.013 107.284C183.142 107.398 182.327 107.582 181.57 107.838C180.821 108.084 180.215 108.458 179.751 108.96C179.297 109.453 179.07 110.125 179.07 110.977C179.07 112.142 179.5 113.023 180.362 113.619C181.233 114.206 182.337 114.5 183.672 114.5ZM118.011 200.727C118.011 197.148 118.475 193.857 119.403 190.855C120.341 187.844 121.676 185.074 123.409 182.545H126.364C125.682 183.483 125.043 184.638 124.446 186.011C123.859 187.375 123.343 188.876 122.898 190.514C122.453 192.143 122.102 193.829 121.847 195.571C121.6 197.313 121.477 199.032 121.477 200.727C121.477 202.981 121.695 205.268 122.131 207.588C122.566 209.908 123.153 212.062 123.892 214.051C124.631 216.04 125.455 217.659 126.364 218.909H123.409C121.676 216.381 120.341 213.616 119.403 210.614C118.475 207.602 118.011 204.307 118.011 200.727ZM139.705 213.455C137.66 213.455 135.898 212.972 134.421 212.006C132.944 211.04 131.808 209.709 131.012 208.014C130.217 206.319 129.819 204.383 129.819 202.205C129.819 199.989 130.226 198.033 131.04 196.338C131.864 194.634 133.01 193.303 134.478 192.347C135.955 191.381 137.679 190.898 139.648 190.898C141.183 190.898 142.565 191.182 143.796 191.75C145.027 192.318 146.036 193.114 146.822 194.136C147.608 195.159 148.095 196.352 148.285 197.716H144.933C144.677 196.722 144.109 195.841 143.228 195.074C142.357 194.297 141.183 193.909 139.705 193.909C138.398 193.909 137.253 194.25 136.268 194.932C135.292 195.604 134.53 196.556 133.981 197.787C133.441 199.009 133.171 200.443 133.171 202.091C133.171 203.777 133.436 205.244 133.967 206.494C134.506 207.744 135.264 208.715 136.239 209.406C137.224 210.098 138.379 210.443 139.705 210.443C140.576 210.443 141.367 210.292 142.077 209.989C142.788 209.686 143.389 209.25 143.881 208.682C144.374 208.114 144.724 207.432 144.933 206.636H148.285C148.095 207.924 147.627 209.084 146.879 210.116C146.14 211.139 145.16 211.954 143.938 212.56C142.726 213.156 141.315 213.455 139.705 213.455ZM152.56 213V210.443L164.947 194.534V194.307H152.958V191.182H169.265V193.852L157.219 209.648V209.875H169.663V213H152.56ZM181.985 200.727C181.985 204.307 181.516 207.602 180.579 210.614C179.651 213.616 178.32 216.381 176.587 218.909H173.633C174.315 217.972 174.949 216.816 175.536 215.443C176.133 214.08 176.654 212.583 177.099 210.955C177.544 209.316 177.889 207.626 178.136 205.884C178.391 204.132 178.519 202.413 178.519 200.727C178.519 198.473 178.301 196.187 177.866 193.866C177.43 191.546 176.843 189.392 176.104 187.403C175.366 185.415 174.542 183.795 173.633 182.545H176.587C178.32 185.074 179.651 187.844 180.579 190.855C181.516 193.857 181.985 197.148 181.985 200.727Z" fill="#F1D95B"/>
</svg>
