<svg width="300" height="300" viewBox="0 0 300 300" fill="none" xmlns="http://www.w3.org/2000/svg">
<rect x="2.5" y="2.5" width="295" height="295" rx="12.5" fill="black"/>
<rect x="2.5" y="2.5" width="295" height="295" rx="12.5" stroke="#F1D95B" stroke-width="5"/>
<path d="M107.312 117V87.9091H110.835V113.875H124.357V117H107.312ZM135.778 117.511C134.395 117.511 133.14 117.251 132.013 116.73C130.887 116.2 129.992 115.438 129.329 114.443C128.666 113.439 128.335 112.227 128.335 110.807C128.335 109.557 128.581 108.544 129.073 107.767C129.566 106.981 130.224 106.366 131.048 105.92C131.871 105.475 132.781 105.144 133.775 104.926C134.779 104.699 135.787 104.519 136.8 104.386C138.126 104.216 139.201 104.088 140.025 104.003C140.858 103.908 141.464 103.752 141.843 103.534C142.231 103.316 142.425 102.937 142.425 102.398V102.284C142.425 100.883 142.042 99.7936 141.275 99.017C140.517 98.2405 139.367 97.8523 137.823 97.8523C136.223 97.8523 134.968 98.2027 134.059 98.9034C133.15 99.6042 132.511 100.352 132.141 101.148L128.96 100.011C129.528 98.6856 130.285 97.6534 131.232 96.9148C132.189 96.1667 133.23 95.6458 134.357 95.3523C135.494 95.0492 136.611 94.8977 137.71 94.8977C138.41 94.8977 139.215 94.983 140.124 95.1534C141.043 95.3144 141.928 95.6506 142.781 96.1619C143.642 96.6733 144.357 97.4451 144.925 98.4773C145.494 99.5095 145.778 100.892 145.778 102.625V117H142.425V114.045H142.255C142.028 114.519 141.649 115.026 141.119 115.565C140.588 116.105 139.883 116.564 139.002 116.943C138.121 117.322 137.047 117.511 135.778 117.511ZM136.289 114.5C137.615 114.5 138.732 114.24 139.641 113.719C140.56 113.198 141.251 112.526 141.715 111.702C142.189 110.878 142.425 110.011 142.425 109.102V106.034C142.283 106.205 141.971 106.361 141.488 106.503C141.014 106.635 140.465 106.754 139.84 106.858C139.225 106.953 138.623 107.038 138.036 107.114C137.459 107.18 136.99 107.237 136.63 107.284C135.759 107.398 134.944 107.582 134.187 107.838C133.439 108.084 132.833 108.458 132.369 108.96C131.914 109.453 131.687 110.125 131.687 110.977C131.687 112.142 132.118 113.023 132.979 113.619C133.851 114.206 134.954 114.5 136.289 114.5ZM160.135 117.455C158.317 117.455 156.712 116.995 155.32 116.077C153.928 115.149 152.839 113.842 152.053 112.156C151.267 110.461 150.874 108.458 150.874 106.148C150.874 103.856 151.267 101.867 152.053 100.182C152.839 98.4962 153.932 97.1941 155.334 96.2756C156.735 95.357 158.355 94.8977 160.192 94.8977C161.612 94.8977 162.734 95.1345 163.558 95.608C164.392 96.072 165.026 96.6023 165.462 97.1989C165.907 97.786 166.252 98.2689 166.499 98.6477H166.783V87.9091H170.135V117H166.896V113.648H166.499C166.252 114.045 165.902 114.547 165.447 115.153C164.993 115.75 164.344 116.285 163.501 116.759C162.659 117.223 161.536 117.455 160.135 117.455ZM160.589 114.443C161.934 114.443 163.071 114.093 163.999 113.392C164.927 112.682 165.632 111.702 166.115 110.452C166.598 109.192 166.839 107.739 166.839 106.091C166.839 104.462 166.603 103.037 166.129 101.815C165.656 100.584 164.955 99.6278 164.027 98.946C163.099 98.2547 161.953 97.9091 160.589 97.9091C159.169 97.9091 157.985 98.2737 157.038 99.0028C156.101 99.7225 155.395 100.703 154.922 101.943C154.458 103.174 154.226 104.557 154.226 106.091C154.226 107.644 154.463 109.055 154.936 110.324C155.419 111.583 156.129 112.587 157.067 113.335C158.014 114.074 159.188 114.443 160.589 114.443ZM183.161 117.511C181.778 117.511 180.523 117.251 179.396 116.73C178.269 116.2 177.375 115.438 176.712 114.443C176.049 113.439 175.717 112.227 175.717 110.807C175.717 109.557 175.964 108.544 176.456 107.767C176.948 106.981 177.607 106.366 178.43 105.92C179.254 105.475 180.163 105.144 181.158 104.926C182.161 104.699 183.17 104.519 184.183 104.386C185.509 104.216 186.584 104.088 187.408 104.003C188.241 103.908 188.847 103.752 189.226 103.534C189.614 103.316 189.808 102.937 189.808 102.398V102.284C189.808 100.883 189.425 99.7936 188.658 99.017C187.9 98.2405 186.75 97.8523 185.206 97.8523C183.606 97.8523 182.351 98.2027 181.442 98.9034C180.533 99.6042 179.893 100.352 179.524 101.148L176.342 100.011C176.911 98.6856 177.668 97.6534 178.615 96.9148C179.571 96.1667 180.613 95.6458 181.74 95.3523C182.876 95.0492 183.994 94.8977 185.092 94.8977C185.793 94.8977 186.598 94.983 187.507 95.1534C188.426 95.3144 189.311 95.6506 190.163 96.1619C191.025 96.6733 191.74 97.4451 192.308 98.4773C192.876 99.5095 193.161 100.892 193.161 102.625V117H189.808V114.045H189.638C189.411 114.519 189.032 115.026 188.501 115.565C187.971 116.105 187.266 116.564 186.385 116.943C185.504 117.322 184.429 117.511 183.161 117.511ZM183.672 114.5C184.998 114.5 186.115 114.24 187.024 113.719C187.943 113.198 188.634 112.526 189.098 111.702C189.571 110.878 189.808 110.011 189.808 109.102V106.034C189.666 106.205 189.354 106.361 188.871 106.503C188.397 106.635 187.848 106.754 187.223 106.858C186.607 106.953 186.006 107.038 185.419 107.114C184.841 107.18 184.373 107.237 184.013 107.284C183.142 107.398 182.327 107.582 181.57 107.838C180.821 108.084 180.215 108.458 179.751 108.96C179.297 109.453 179.07 110.125 179.07 110.977C179.07 112.142 179.5 113.023 180.362 113.619C181.233 114.206 182.337 114.5 183.672 114.5ZM122.836 200.727C122.836 197.148 123.3 193.857 124.228 190.855C125.165 187.844 126.5 185.074 128.233 182.545H131.188C130.506 183.483 129.867 184.638 129.27 186.011C128.683 187.375 128.167 188.876 127.722 190.514C127.277 192.143 126.926 193.829 126.671 195.571C126.425 197.313 126.301 199.032 126.301 200.727C126.301 202.981 126.519 205.268 126.955 207.588C127.391 209.908 127.978 212.062 128.716 214.051C129.455 216.04 130.279 217.659 131.188 218.909H128.233C126.5 216.381 125.165 213.616 124.228 210.614C123.3 207.602 122.836 204.307 122.836 200.727ZM136.135 221.182V191.182H139.373V194.648H139.771C140.017 194.269 140.358 193.786 140.794 193.199C141.239 192.602 141.873 192.072 142.697 191.608C143.53 191.134 144.657 190.898 146.078 190.898C147.915 190.898 149.534 191.357 150.936 192.276C152.337 193.194 153.431 194.496 154.217 196.182C155.003 197.867 155.396 199.856 155.396 202.148C155.396 204.458 155.003 206.461 154.217 208.156C153.431 209.842 152.342 211.149 150.95 212.077C149.558 212.995 147.953 213.455 146.135 213.455C144.733 213.455 143.611 213.223 142.768 212.759C141.925 212.285 141.277 211.75 140.822 211.153C140.368 210.547 140.017 210.045 139.771 209.648H139.487V221.182H136.135ZM139.43 202.091C139.43 203.739 139.672 205.192 140.154 206.452C140.637 207.702 141.343 208.682 142.271 209.392C143.199 210.093 144.335 210.443 145.68 210.443C147.082 210.443 148.251 210.074 149.189 209.335C150.136 208.587 150.846 207.583 151.319 206.324C151.802 205.055 152.044 203.644 152.044 202.091C152.044 200.557 151.807 199.174 151.333 197.943C150.869 196.703 150.164 195.723 149.217 195.003C148.279 194.274 147.1 193.909 145.68 193.909C144.316 193.909 143.171 194.255 142.243 194.946C141.315 195.628 140.614 196.584 140.14 197.815C139.667 199.037 139.43 200.462 139.43 202.091ZM163.862 183.909V213H160.51V183.909H163.862ZM177.161 200.727C177.161 204.307 176.692 207.602 175.755 210.614C174.827 213.616 173.496 216.381 171.763 218.909H168.809C169.49 217.972 170.125 216.816 170.712 215.443C171.309 214.08 171.829 212.583 172.275 210.955C172.72 209.316 173.065 207.626 173.311 205.884C173.567 204.132 173.695 202.413 173.695 200.727C173.695 198.473 173.477 196.187 173.042 193.866C172.606 191.546 172.019 189.392 171.28 187.403C170.542 185.415 169.718 183.795 168.809 182.545H171.763C173.496 185.074 174.827 187.844 175.755 190.855C176.692 193.857 177.161 197.148 177.161 200.727Z" fill="#F1D95B"/>
</svg>
