<svg width="300" height="300" viewBox="0 0 300 300" fill="none" xmlns="http://www.w3.org/2000/svg">
<rect x="2.5" y="2.5" width="295" height="295" rx="12.5" fill="black"/>
<rect x="2.5" y="2.5" width="295" height="295" rx="12.5" stroke="#F1D95B" stroke-width="5"/>
<path d="M119.812 117V87.9091H123.335V113.875H136.857V117H119.812ZM141.857 117V95.1818H145.21V117H141.857ZM143.562 91.5455C142.908 91.5455 142.345 91.3229 141.871 90.8778C141.407 90.4328 141.175 89.8977 141.175 89.2727C141.175 88.6477 141.407 88.1127 141.871 87.6676C142.345 87.2225 142.908 87 143.562 87C144.215 87 144.774 87.2225 145.238 87.6676C145.711 88.1127 145.948 88.6477 145.948 89.2727C145.948 89.8977 145.711 90.4328 145.238 90.8778C144.774 91.3229 144.215 91.5455 143.562 91.5455ZM166.804 100.068L163.793 100.92C163.603 100.419 163.324 99.9309 162.955 99.4574C162.595 98.9744 162.102 98.5767 161.477 98.2642C160.852 97.9517 160.052 97.7955 159.077 97.7955C157.741 97.7955 156.629 98.1032 155.739 98.7188C154.858 99.3248 154.418 100.097 154.418 101.034C154.418 101.867 154.721 102.526 155.327 103.009C155.933 103.491 156.88 103.894 158.168 104.216L161.406 105.011C163.357 105.485 164.811 106.209 165.767 107.185C166.723 108.151 167.202 109.396 167.202 110.92C167.202 112.17 166.842 113.288 166.122 114.273C165.412 115.258 164.418 116.034 163.139 116.602C161.861 117.17 160.374 117.455 158.679 117.455C156.454 117.455 154.612 116.972 153.153 116.006C151.695 115.04 150.772 113.629 150.384 111.773L153.565 110.977C153.868 112.152 154.441 113.032 155.284 113.619C156.136 114.206 157.249 114.5 158.622 114.5C160.185 114.5 161.425 114.169 162.344 113.506C163.272 112.833 163.736 112.028 163.736 111.091C163.736 110.333 163.471 109.699 162.94 109.188C162.41 108.667 161.596 108.278 160.497 108.023L156.861 107.17C154.863 106.697 153.395 105.963 152.457 104.969C151.529 103.965 151.065 102.71 151.065 101.205C151.065 99.9735 151.411 98.8845 152.102 97.9375C152.803 96.9905 153.755 96.2472 154.957 95.7074C156.17 95.1676 157.543 94.8977 159.077 94.8977C161.236 94.8977 162.931 95.3712 164.162 96.3182C165.402 97.2652 166.283 98.5152 166.804 100.068ZM181.737 95.1818V98.0227H170.43V95.1818H181.737ZM173.725 89.9545H177.077V110.75C177.077 111.697 177.215 112.407 177.489 112.881C177.773 113.345 178.133 113.657 178.569 113.818C179.014 113.97 179.483 114.045 179.975 114.045C180.344 114.045 180.647 114.027 180.884 113.989C181.121 113.941 181.31 113.903 181.452 113.875L182.134 116.886C181.907 116.972 181.59 117.057 181.183 117.142C180.775 117.237 180.259 117.284 179.634 117.284C178.687 117.284 177.759 117.08 176.85 116.673C175.951 116.266 175.202 115.646 174.606 114.812C174.019 113.979 173.725 112.928 173.725 111.659V89.9545ZM118.011 200.727C118.011 197.148 118.475 193.857 119.403 190.855C120.341 187.844 121.676 185.074 123.409 182.545H126.364C125.682 183.483 125.043 184.638 124.446 186.011C123.859 187.375 123.343 188.876 122.898 190.514C122.453 192.143 122.102 193.829 121.847 195.571C121.6 197.313 121.477 199.032 121.477 200.727C121.477 202.981 121.695 205.268 122.131 207.588C122.566 209.908 123.153 212.062 123.892 214.051C124.631 216.04 125.455 217.659 126.364 218.909H123.409C121.676 216.381 120.341 213.616 119.403 210.614C118.475 207.602 118.011 204.307 118.011 200.727ZM139.705 213.455C137.66 213.455 135.898 212.972 134.421 212.006C132.944 211.04 131.808 209.709 131.012 208.014C130.217 206.319 129.819 204.383 129.819 202.205C129.819 199.989 130.226 198.033 131.04 196.338C131.864 194.634 133.01 193.303 134.478 192.347C135.955 191.381 137.679 190.898 139.648 190.898C141.183 190.898 142.565 191.182 143.796 191.75C145.027 192.318 146.036 193.114 146.822 194.136C147.608 195.159 148.095 196.352 148.285 197.716H144.933C144.677 196.722 144.109 195.841 143.228 195.074C142.357 194.297 141.183 193.909 139.705 193.909C138.398 193.909 137.253 194.25 136.268 194.932C135.292 195.604 134.53 196.556 133.981 197.787C133.441 199.009 133.171 200.443 133.171 202.091C133.171 203.777 133.436 205.244 133.967 206.494C134.506 207.744 135.264 208.715 136.239 209.406C137.224 210.098 138.379 210.443 139.705 210.443C140.576 210.443 141.367 210.292 142.077 209.989C142.788 209.686 143.389 209.25 143.881 208.682C144.374 208.114 144.724 207.432 144.933 206.636H148.285C148.095 207.924 147.627 209.084 146.879 210.116C146.14 211.139 145.16 211.954 143.938 212.56C142.726 213.156 141.315 213.455 139.705 213.455ZM152.56 213V210.443L164.947 194.534V194.307H152.958V191.182H169.265V193.852L157.219 209.648V209.875H169.663V213H152.56ZM181.985 200.727C181.985 204.307 181.516 207.602 180.579 210.614C179.651 213.616 178.32 216.381 176.587 218.909H173.633C174.315 217.972 174.949 216.816 175.536 215.443C176.133 214.08 176.654 212.583 177.099 210.955C177.544 209.316 177.889 207.626 178.136 205.884C178.391 204.132 178.519 202.413 178.519 200.727C178.519 198.473 178.301 196.187 177.866 193.866C177.43 191.546 176.843 189.392 176.104 187.403C175.366 185.415 174.542 183.795 173.633 182.545H176.587C178.32 185.074 179.651 187.844 180.579 190.855C181.516 193.857 181.985 197.148 181.985 200.727Z" fill="#F1D95B"/>
</svg>
