<svg width="300" height="300" viewBox="0 0 300 300" fill="none" xmlns="http://www.w3.org/2000/svg">
<rect x="2.5" y="2.5" width="295" height="295" rx="12.5" fill="black"/>
<rect x="2.5" y="2.5" width="295" height="295" rx="12.5" stroke="#F1D95B" stroke-width="5"/>
<path d="M101.999 117V87.9091H111.829C114.111 87.9091 115.977 88.321 117.425 89.1449C118.884 89.9593 119.963 91.0625 120.664 92.4545C121.365 93.8466 121.715 95.3996 121.715 97.1136C121.715 98.8277 121.365 100.385 120.664 101.787C119.973 103.188 118.903 104.306 117.454 105.139C116.005 105.963 114.149 106.375 111.886 106.375H104.84V103.25H111.772C113.335 103.25 114.589 102.98 115.536 102.44C116.483 101.901 117.17 101.171 117.596 100.253C118.031 99.3248 118.249 98.2784 118.249 97.1136C118.249 95.9489 118.031 94.9072 117.596 93.9886C117.17 93.0701 116.478 92.3504 115.522 91.8295C114.566 91.2992 113.297 91.0341 111.715 91.0341H105.522V117H101.999ZM133.356 117.511C131.973 117.511 130.719 117.251 129.592 116.73C128.465 116.2 127.57 115.438 126.907 114.443C126.244 113.439 125.913 112.227 125.913 110.807C125.913 109.557 126.159 108.544 126.651 107.767C127.144 106.981 127.802 106.366 128.626 105.92C129.45 105.475 130.359 105.144 131.353 104.926C132.357 104.699 133.365 104.519 134.379 104.386C135.704 104.216 136.779 104.088 137.603 104.003C138.436 103.908 139.042 103.752 139.421 103.534C139.809 103.316 140.004 102.937 140.004 102.398V102.284C140.004 100.883 139.62 99.7936 138.853 99.017C138.095 98.2405 136.945 97.8523 135.401 97.8523C133.801 97.8523 132.546 98.2027 131.637 98.9034C130.728 99.6042 130.089 100.352 129.719 101.148L126.538 100.011C127.106 98.6856 127.863 97.6534 128.81 96.9148C129.767 96.1667 130.808 95.6458 131.935 95.3523C133.072 95.0492 134.189 94.8977 135.288 94.8977C135.988 94.8977 136.793 94.983 137.702 95.1534C138.621 95.3144 139.506 95.6506 140.359 96.1619C141.22 96.6733 141.935 97.4451 142.504 98.4773C143.072 99.5095 143.356 100.892 143.356 102.625V117H140.004V114.045H139.833C139.606 114.519 139.227 115.026 138.697 115.565C138.166 116.105 137.461 116.564 136.58 116.943C135.7 117.322 134.625 117.511 133.356 117.511ZM133.867 114.5C135.193 114.5 136.31 114.24 137.219 113.719C138.138 113.198 138.829 112.526 139.293 111.702C139.767 110.878 140.004 110.011 140.004 109.102V106.034C139.862 106.205 139.549 106.361 139.066 106.503C138.593 106.635 138.043 106.754 137.418 106.858C136.803 106.953 136.201 107.038 135.614 107.114C135.037 107.18 134.568 107.237 134.208 107.284C133.337 107.398 132.522 107.582 131.765 107.838C131.017 108.084 130.411 108.458 129.947 108.96C129.492 109.453 129.265 110.125 129.265 110.977C129.265 112.142 129.696 113.023 130.558 113.619C131.429 114.206 132.532 114.5 133.867 114.5ZM152.827 87.9091V117H149.474V87.9091H152.827ZM168.114 117.455C166.012 117.455 164.199 116.991 162.674 116.062C161.159 115.125 159.989 113.818 159.165 112.142C158.351 110.456 157.944 108.496 157.944 106.261C157.944 104.027 158.351 102.057 159.165 100.352C159.989 98.6383 161.135 97.303 162.603 96.3466C164.08 95.3807 165.804 94.8977 167.773 94.8977C168.91 94.8977 170.032 95.0871 171.14 95.4659C172.248 95.8447 173.256 96.4602 174.165 97.3125C175.075 98.1553 175.799 99.2727 176.339 100.665C176.879 102.057 177.148 103.771 177.148 105.807V107.227H160.33V104.33H173.739C173.739 103.098 173.493 102 173.001 101.034C172.518 100.068 171.826 99.3059 170.927 98.7472C170.037 98.1884 168.986 97.9091 167.773 97.9091C166.438 97.9091 165.283 98.2405 164.308 98.9034C163.342 99.5568 162.598 100.409 162.077 101.46C161.557 102.511 161.296 103.638 161.296 104.841V106.773C161.296 108.42 161.58 109.817 162.148 110.963C162.726 112.099 163.526 112.966 164.549 113.562C165.572 114.15 166.76 114.443 168.114 114.443C168.995 114.443 169.79 114.32 170.501 114.074C171.22 113.818 171.841 113.439 172.362 112.938C172.882 112.426 173.285 111.792 173.569 111.034L176.808 111.943C176.467 113.042 175.894 114.008 175.089 114.841C174.284 115.665 173.29 116.309 172.106 116.773C170.922 117.227 169.592 117.455 168.114 117.455ZM191.112 117.455C189.066 117.455 187.305 116.972 185.827 116.006C184.35 115.04 183.214 113.709 182.418 112.014C181.623 110.319 181.225 108.383 181.225 106.205C181.225 103.989 181.632 102.033 182.447 100.338C183.271 98.6335 184.416 97.303 185.884 96.3466C187.362 95.3807 189.085 94.8977 191.055 94.8977C192.589 94.8977 193.971 95.1818 195.202 95.75C196.433 96.3182 197.442 97.1136 198.228 98.1364C199.014 99.1591 199.502 100.352 199.691 101.716H196.339C196.083 100.722 195.515 99.8409 194.634 99.0739C193.763 98.2973 192.589 97.9091 191.112 97.9091C189.805 97.9091 188.659 98.25 187.674 98.9318C186.699 99.6042 185.936 100.556 185.387 101.787C184.847 103.009 184.577 104.443 184.577 106.091C184.577 107.777 184.843 109.244 185.373 110.494C185.913 111.744 186.67 112.715 187.646 113.406C188.63 114.098 189.786 114.443 191.112 114.443C191.983 114.443 192.773 114.292 193.484 113.989C194.194 113.686 194.795 113.25 195.288 112.682C195.78 112.114 196.13 111.432 196.339 110.636H199.691C199.502 111.924 199.033 113.084 198.285 114.116C197.546 115.139 196.566 115.954 195.344 116.56C194.132 117.156 192.721 117.455 191.112 117.455ZM118.011 200.727C118.011 197.148 118.475 193.857 119.403 190.855C120.341 187.844 121.676 185.074 123.409 182.545H126.364C125.682 183.483 125.043 184.638 124.446 186.011C123.859 187.375 123.343 188.876 122.898 190.514C122.453 192.143 122.102 193.829 121.847 195.571C121.6 197.313 121.477 199.032 121.477 200.727C121.477 202.981 121.695 205.268 122.131 207.588C122.566 209.908 123.153 212.062 123.892 214.051C124.631 216.04 125.455 217.659 126.364 218.909H123.409C121.676 216.381 120.341 213.616 119.403 210.614C118.475 207.602 118.011 204.307 118.011 200.727ZM139.705 213.455C137.66 213.455 135.898 212.972 134.421 212.006C132.944 211.04 131.808 209.709 131.012 208.014C130.217 206.319 129.819 204.383 129.819 202.205C129.819 199.989 130.226 198.033 131.04 196.338C131.864 194.634 133.01 193.303 134.478 192.347C135.955 191.381 137.679 190.898 139.648 190.898C141.183 190.898 142.565 191.182 143.796 191.75C145.027 192.318 146.036 193.114 146.822 194.136C147.608 195.159 148.095 196.352 148.285 197.716H144.933C144.677 196.722 144.109 195.841 143.228 195.074C142.357 194.297 141.183 193.909 139.705 193.909C138.398 193.909 137.253 194.25 136.268 194.932C135.292 195.604 134.53 196.556 133.981 197.787C133.441 199.009 133.171 200.443 133.171 202.091C133.171 203.777 133.436 205.244 133.967 206.494C134.506 207.744 135.264 208.715 136.239 209.406C137.224 210.098 138.379 210.443 139.705 210.443C140.576 210.443 141.367 210.292 142.077 209.989C142.788 209.686 143.389 209.25 143.881 208.682C144.374 208.114 144.724 207.432 144.933 206.636H148.285C148.095 207.924 147.627 209.084 146.879 210.116C146.14 211.139 145.16 211.954 143.938 212.56C142.726 213.156 141.315 213.455 139.705 213.455ZM152.56 213V210.443L164.947 194.534V194.307H152.958V191.182H169.265V193.852L157.219 209.648V209.875H169.663V213H152.56ZM181.985 200.727C181.985 204.307 181.516 207.602 180.579 210.614C179.651 213.616 178.32 216.381 176.587 218.909H173.633C174.315 217.972 174.949 216.816 175.536 215.443C176.133 214.08 176.654 212.583 177.099 210.955C177.544 209.316 177.889 207.626 178.136 205.884C178.391 204.132 178.519 202.413 178.519 200.727C178.519 198.473 178.301 196.187 177.866 193.866C177.43 191.546 176.843 189.392 176.104 187.403C175.366 185.415 174.542 183.795 173.633 182.545H176.587C178.32 185.074 179.651 187.844 180.579 190.855C181.516 193.857 181.985 197.148 181.985 200.727Z" fill="#F1D95B"/>
</svg>
