<svg width="300" height="300" viewBox="0 0 300 300" fill="none" xmlns="http://www.w3.org/2000/svg">
<rect x="2.5" y="2.5" width="295" height="295" rx="12.5" fill="black"/>
<rect x="2.5" y="2.5" width="295" height="295" rx="12.5" stroke="#F1D95B" stroke-width="5"/>
<path d="M101.999 117V87.9091H111.829C114.111 87.9091 115.977 88.321 117.425 89.1449C118.884 89.9593 119.963 91.0625 120.664 92.4545C121.365 93.8466 121.715 95.3996 121.715 97.1136C121.715 98.8277 121.365 100.385 120.664 101.787C119.973 103.188 118.903 104.306 117.454 105.139C116.005 105.963 114.149 106.375 111.886 106.375H104.84V103.25H111.772C113.335 103.25 114.589 102.98 115.536 102.44C116.483 101.901 117.17 101.171 117.596 100.253C118.031 99.3248 118.249 98.2784 118.249 97.1136C118.249 95.9489 118.031 94.9072 117.596 93.9886C117.17 93.0701 116.478 92.3504 115.522 91.8295C114.566 91.2992 113.297 91.0341 111.715 91.0341H105.522V117H101.999ZM133.356 117.511C131.973 117.511 130.719 117.251 129.592 116.73C128.465 116.2 127.57 115.438 126.907 114.443C126.244 113.439 125.913 112.227 125.913 110.807C125.913 109.557 126.159 108.544 126.651 107.767C127.144 106.981 127.802 106.366 128.626 105.92C129.45 105.475 130.359 105.144 131.353 104.926C132.357 104.699 133.365 104.519 134.379 104.386C135.704 104.216 136.779 104.088 137.603 104.003C138.436 103.908 139.042 103.752 139.421 103.534C139.809 103.316 140.004 102.937 140.004 102.398V102.284C140.004 100.883 139.62 99.7936 138.853 99.017C138.095 98.2405 136.945 97.8523 135.401 97.8523C133.801 97.8523 132.546 98.2027 131.637 98.9034C130.728 99.6042 130.089 100.352 129.719 101.148L126.538 100.011C127.106 98.6856 127.863 97.6534 128.81 96.9148C129.767 96.1667 130.808 95.6458 131.935 95.3523C133.072 95.0492 134.189 94.8977 135.288 94.8977C135.988 94.8977 136.793 94.983 137.702 95.1534C138.621 95.3144 139.506 95.6506 140.359 96.1619C141.22 96.6733 141.935 97.4451 142.504 98.4773C143.072 99.5095 143.356 100.892 143.356 102.625V117H140.004V114.045H139.833C139.606 114.519 139.227 115.026 138.697 115.565C138.166 116.105 137.461 116.564 136.58 116.943C135.7 117.322 134.625 117.511 133.356 117.511ZM133.867 114.5C135.193 114.5 136.31 114.24 137.219 113.719C138.138 113.198 138.829 112.526 139.293 111.702C139.767 110.878 140.004 110.011 140.004 109.102V106.034C139.862 106.205 139.549 106.361 139.066 106.503C138.593 106.635 138.043 106.754 137.418 106.858C136.803 106.953 136.201 107.038 135.614 107.114C135.037 107.18 134.568 107.237 134.208 107.284C133.337 107.398 132.522 107.582 131.765 107.838C131.017 108.084 130.411 108.458 129.947 108.96C129.492 109.453 129.265 110.125 129.265 110.977C129.265 112.142 129.696 113.023 130.558 113.619C131.429 114.206 132.532 114.5 133.867 114.5ZM152.827 87.9091V117H149.474V87.9091H152.827ZM168.114 117.455C166.012 117.455 164.199 116.991 162.674 116.062C161.159 115.125 159.989 113.818 159.165 112.142C158.351 110.456 157.944 108.496 157.944 106.261C157.944 104.027 158.351 102.057 159.165 100.352C159.989 98.6383 161.135 97.303 162.603 96.3466C164.08 95.3807 165.804 94.8977 167.773 94.8977C168.91 94.8977 170.032 95.0871 171.14 95.4659C172.248 95.8447 173.256 96.4602 174.165 97.3125C175.075 98.1553 175.799 99.2727 176.339 100.665C176.879 102.057 177.148 103.771 177.148 105.807V107.227H160.33V104.33H173.739C173.739 103.098 173.493 102 173.001 101.034C172.518 100.068 171.826 99.3059 170.927 98.7472C170.037 98.1884 168.986 97.9091 167.773 97.9091C166.438 97.9091 165.283 98.2405 164.308 98.9034C163.342 99.5568 162.598 100.409 162.077 101.46C161.557 102.511 161.296 103.638 161.296 104.841V106.773C161.296 108.42 161.58 109.817 162.148 110.963C162.726 112.099 163.526 112.966 164.549 113.562C165.572 114.15 166.76 114.443 168.114 114.443C168.995 114.443 169.79 114.32 170.501 114.074C171.22 113.818 171.841 113.439 172.362 112.938C172.882 112.426 173.285 111.792 173.569 111.034L176.808 111.943C176.467 113.042 175.894 114.008 175.089 114.841C174.284 115.665 173.29 116.309 172.106 116.773C170.922 117.227 169.592 117.455 168.114 117.455ZM191.112 117.455C189.066 117.455 187.305 116.972 185.827 116.006C184.35 115.04 183.214 113.709 182.418 112.014C181.623 110.319 181.225 108.383 181.225 106.205C181.225 103.989 181.632 102.033 182.447 100.338C183.271 98.6335 184.416 97.303 185.884 96.3466C187.362 95.3807 189.085 94.8977 191.055 94.8977C192.589 94.8977 193.971 95.1818 195.202 95.75C196.433 96.3182 197.442 97.1136 198.228 98.1364C199.014 99.1591 199.502 100.352 199.691 101.716H196.339C196.083 100.722 195.515 99.8409 194.634 99.0739C193.763 98.2973 192.589 97.9091 191.112 97.9091C189.805 97.9091 188.659 98.25 187.674 98.9318C186.699 99.6042 185.936 100.556 185.387 101.787C184.847 103.009 184.577 104.443 184.577 106.091C184.577 107.777 184.843 109.244 185.373 110.494C185.913 111.744 186.67 112.715 187.646 113.406C188.63 114.098 189.786 114.443 191.112 114.443C191.983 114.443 192.773 114.292 193.484 113.989C194.194 113.686 194.795 113.25 195.288 112.682C195.78 112.114 196.13 111.432 196.339 110.636H199.691C199.502 111.924 199.033 113.084 198.285 114.116C197.546 115.139 196.566 115.954 195.344 116.56C194.132 117.156 192.721 117.455 191.112 117.455ZM122.836 200.727C122.836 197.148 123.3 193.857 124.228 190.855C125.165 187.844 126.5 185.074 128.233 182.545H131.188C130.506 183.483 129.867 184.638 129.27 186.011C128.683 187.375 128.167 188.876 127.722 190.514C127.277 192.143 126.926 193.829 126.671 195.571C126.425 197.313 126.301 199.032 126.301 200.727C126.301 202.981 126.519 205.268 126.955 207.588C127.391 209.908 127.978 212.062 128.716 214.051C129.455 216.04 130.279 217.659 131.188 218.909H128.233C126.5 216.381 125.165 213.616 124.228 210.614C123.3 207.602 122.836 204.307 122.836 200.727ZM136.135 221.182V191.182H139.373V194.648H139.771C140.017 194.269 140.358 193.786 140.794 193.199C141.239 192.602 141.873 192.072 142.697 191.608C143.53 191.134 144.657 190.898 146.078 190.898C147.915 190.898 149.534 191.357 150.936 192.276C152.337 193.194 153.431 194.496 154.217 196.182C155.003 197.867 155.396 199.856 155.396 202.148C155.396 204.458 155.003 206.461 154.217 208.156C153.431 209.842 152.342 211.149 150.95 212.077C149.558 212.995 147.953 213.455 146.135 213.455C144.733 213.455 143.611 213.223 142.768 212.759C141.925 212.285 141.277 211.75 140.822 211.153C140.368 210.547 140.017 210.045 139.771 209.648H139.487V221.182H136.135ZM139.43 202.091C139.43 203.739 139.672 205.192 140.154 206.452C140.637 207.702 141.343 208.682 142.271 209.392C143.199 210.093 144.335 210.443 145.68 210.443C147.082 210.443 148.251 210.074 149.189 209.335C150.136 208.587 150.846 207.583 151.319 206.324C151.802 205.055 152.044 203.644 152.044 202.091C152.044 200.557 151.807 199.174 151.333 197.943C150.869 196.703 150.164 195.723 149.217 195.003C148.279 194.274 147.1 193.909 145.68 193.909C144.316 193.909 143.171 194.255 142.243 194.946C141.315 195.628 140.614 196.584 140.14 197.815C139.667 199.037 139.43 200.462 139.43 202.091ZM163.862 183.909V213H160.51V183.909H163.862ZM177.161 200.727C177.161 204.307 176.692 207.602 175.755 210.614C174.827 213.616 173.496 216.381 171.763 218.909H168.809C169.49 217.972 170.125 216.816 170.712 215.443C171.309 214.08 171.829 212.583 172.275 210.955C172.72 209.316 173.065 207.626 173.311 205.884C173.567 204.132 173.695 202.413 173.695 200.727C173.695 198.473 173.477 196.187 173.042 193.866C172.606 191.546 172.019 189.392 171.28 187.403C170.542 185.415 169.718 183.795 168.809 182.545H171.763C173.496 185.074 174.827 187.844 175.755 190.855C176.692 193.857 177.161 197.148 177.161 200.727Z" fill="#F1D95B"/>
</svg>
