<svg width="300" height="300" viewBox="0 0 300 300" fill="none" xmlns="http://www.w3.org/2000/svg">
<rect x="2.5" y="2.5" width="295" height="295" rx="12.5" fill="black"/>
<rect x="2.5" y="2.5" width="295" height="295" rx="12.5" stroke="#F1D95B" stroke-width="5"/>
<path d="M117.225 95.1818C117.054 93.7424 116.363 92.625 115.151 91.8295C113.939 91.0341 112.452 90.6364 110.691 90.6364C109.403 90.6364 108.276 90.8447 107.31 91.2614C106.354 91.678 105.605 92.2509 105.066 92.9801C104.535 93.7093 104.27 94.5379 104.27 95.4659C104.27 96.2424 104.455 96.91 104.824 97.4688C105.203 98.018 105.686 98.4773 106.273 98.8466C106.86 99.2064 107.476 99.5047 108.12 99.7415C108.764 99.9687 109.355 100.153 109.895 100.295L112.85 101.091C113.607 101.29 114.45 101.564 115.378 101.915C116.316 102.265 117.211 102.743 118.063 103.349C118.925 103.946 119.635 104.713 120.194 105.651C120.752 106.588 121.032 107.739 121.032 109.102C121.032 110.674 120.62 112.095 119.796 113.364C118.981 114.633 117.788 115.641 116.216 116.389C114.654 117.137 112.755 117.511 110.52 117.511C108.437 117.511 106.633 117.175 105.108 116.503C103.593 115.83 102.4 114.893 101.529 113.69C100.667 112.488 100.179 111.091 100.066 109.5H103.702C103.797 110.598 104.166 111.508 104.81 112.227C105.463 112.937 106.287 113.468 107.282 113.818C108.285 114.159 109.365 114.33 110.52 114.33C111.865 114.33 113.072 114.112 114.142 113.676C115.212 113.231 116.06 112.616 116.685 111.83C117.31 111.034 117.623 110.106 117.623 109.045C117.623 108.08 117.353 107.294 116.813 106.688C116.273 106.081 115.563 105.589 114.682 105.21C113.801 104.831 112.85 104.5 111.827 104.216L108.248 103.193C105.975 102.54 104.176 101.607 102.85 100.395C101.524 99.1828 100.861 97.5966 100.861 95.6364C100.861 94.0076 101.301 92.5871 102.182 91.375C103.072 90.1534 104.266 89.2064 105.762 88.5341C107.267 87.8523 108.948 87.5114 110.804 87.5114C112.679 87.5114 114.346 87.8475 115.804 88.5199C117.263 89.1828 118.418 90.0919 119.27 91.2472C120.132 92.4025 120.587 93.714 120.634 95.1818H117.225ZM129.494 109.045L129.437 104.898H130.119L139.664 95.1818H143.812L133.642 105.466H133.358L129.494 109.045ZM126.369 117V87.9091H129.721V117H126.369ZM140.233 117L131.71 106.205L134.096 103.875L144.494 117H140.233ZM151.479 87.9091V117H148.127V87.9091H151.479ZM166.767 117.455C164.664 117.455 162.851 116.991 161.326 116.062C159.811 115.125 158.642 113.818 157.818 112.142C157.003 110.456 156.596 108.496 156.596 106.261C156.596 104.027 157.003 102.057 157.818 100.352C158.642 98.6383 159.788 97.303 161.255 96.3466C162.733 95.3807 164.456 94.8977 166.426 94.8977C167.562 94.8977 168.684 95.0871 169.792 95.4659C170.9 95.8447 171.909 96.4602 172.818 97.3125C173.727 98.1553 174.451 99.2727 174.991 100.665C175.531 102.057 175.801 103.771 175.801 105.807V107.227H158.983V104.33H172.392C172.392 103.098 172.145 102 171.653 101.034C171.17 100.068 170.479 99.3059 169.579 98.7472C168.689 98.1884 167.638 97.9091 166.426 97.9091C165.091 97.9091 163.935 98.2405 162.96 98.9034C161.994 99.5568 161.251 100.409 160.73 101.46C160.209 102.511 159.949 103.638 159.949 104.841V106.773C159.949 108.42 160.233 109.817 160.801 110.963C161.378 112.099 162.179 112.966 163.201 113.562C164.224 114.15 165.413 114.443 166.767 114.443C167.647 114.443 168.443 114.32 169.153 114.074C169.873 113.818 170.493 113.439 171.014 112.938C171.535 112.426 171.937 111.792 172.221 111.034L175.46 111.943C175.119 113.042 174.546 114.008 173.741 114.841C172.936 115.665 171.942 116.309 170.758 116.773C169.574 117.227 168.244 117.455 166.767 117.455ZM180.9 125.182V95.1818H184.139V98.6477H184.537C184.783 98.2689 185.124 97.786 185.559 97.1989C186.004 96.6023 186.639 96.072 187.463 95.608C188.296 95.1345 189.423 94.8977 190.843 94.8977C192.681 94.8977 194.3 95.357 195.701 96.2756C197.103 97.1941 198.197 98.4962 198.983 100.182C199.769 101.867 200.162 103.856 200.162 106.148C200.162 108.458 199.769 110.461 198.983 112.156C198.197 113.842 197.108 115.149 195.716 116.077C194.324 116.995 192.718 117.455 190.9 117.455C189.499 117.455 188.377 117.223 187.534 116.759C186.691 116.285 186.042 115.75 185.588 115.153C185.133 114.547 184.783 114.045 184.537 113.648H184.252V125.182H180.9ZM184.196 106.091C184.196 107.739 184.437 109.192 184.92 110.452C185.403 111.702 186.109 112.682 187.037 113.392C187.965 114.093 189.101 114.443 190.446 114.443C191.847 114.443 193.017 114.074 193.954 113.335C194.901 112.587 195.611 111.583 196.085 110.324C196.568 109.055 196.809 107.644 196.809 106.091C196.809 104.557 196.573 103.174 196.099 101.943C195.635 100.703 194.93 99.7225 193.983 99.0028C193.045 98.2737 191.866 97.9091 190.446 97.9091C189.082 97.9091 187.936 98.2547 187.008 98.946C186.08 99.6278 185.379 100.584 184.906 101.815C184.432 103.037 184.196 104.462 184.196 106.091ZM122.836 200.727C122.836 197.148 123.3 193.857 124.228 190.855C125.165 187.844 126.5 185.074 128.233 182.545H131.188C130.506 183.483 129.867 184.638 129.27 186.011C128.683 187.375 128.167 188.876 127.722 190.514C127.277 192.143 126.926 193.829 126.671 195.571C126.425 197.313 126.301 199.032 126.301 200.727C126.301 202.981 126.519 205.268 126.955 207.588C127.391 209.908 127.978 212.062 128.716 214.051C129.455 216.04 130.279 217.659 131.188 218.909H128.233C126.5 216.381 125.165 213.616 124.228 210.614C123.3 207.602 122.836 204.307 122.836 200.727ZM136.135 221.182V191.182H139.373V194.648H139.771C140.017 194.269 140.358 193.786 140.794 193.199C141.239 192.602 141.873 192.072 142.697 191.608C143.53 191.134 144.657 190.898 146.078 190.898C147.915 190.898 149.534 191.357 150.936 192.276C152.337 193.194 153.431 194.496 154.217 196.182C155.003 197.867 155.396 199.856 155.396 202.148C155.396 204.458 155.003 206.461 154.217 208.156C153.431 209.842 152.342 211.149 150.95 212.077C149.558 212.995 147.953 213.455 146.135 213.455C144.733 213.455 143.611 213.223 142.768 212.759C141.925 212.285 141.277 211.75 140.822 211.153C140.368 210.547 140.017 210.045 139.771 209.648H139.487V221.182H136.135ZM139.43 202.091C139.43 203.739 139.672 205.192 140.154 206.452C140.637 207.702 141.343 208.682 142.271 209.392C143.199 210.093 144.335 210.443 145.68 210.443C147.082 210.443 148.251 210.074 149.189 209.335C150.136 208.587 150.846 207.583 151.319 206.324C151.802 205.055 152.044 203.644 152.044 202.091C152.044 200.557 151.807 199.174 151.333 197.943C150.869 196.703 150.164 195.723 149.217 195.003C148.279 194.274 147.1 193.909 145.68 193.909C144.316 193.909 143.171 194.255 142.243 194.946C141.315 195.628 140.614 196.584 140.14 197.815C139.667 199.037 139.43 200.462 139.43 202.091ZM163.862 183.909V213H160.51V183.909H163.862ZM177.161 200.727C177.161 204.307 176.692 207.602 175.755 210.614C174.827 213.616 173.496 216.381 171.763 218.909H168.809C169.49 217.972 170.125 216.816 170.712 215.443C171.309 214.08 171.829 212.583 172.275 210.955C172.72 209.316 173.065 207.626 173.311 205.884C173.567 204.132 173.695 202.413 173.695 200.727C173.695 198.473 173.477 196.187 173.042 193.866C172.606 191.546 172.019 189.392 171.28 187.403C170.542 185.415 169.718 183.795 168.809 182.545H171.763C173.496 185.074 174.827 187.844 175.755 190.855C176.692 193.857 177.161 197.148 177.161 200.727Z" fill="#F1D95B"/>
</svg>
