<svg width="300" height="300" viewBox="0 0 300 300" fill="none" xmlns="http://www.w3.org/2000/svg">
<rect x="2.5" y="2.5" width="295" height="295" rx="12.5" fill="black"/>
<rect x="2.5" y="2.5" width="295" height="295" rx="12.5" stroke="#F1D95B" stroke-width="5"/>
<path d="M102.674 117L94.7195 87.9091H98.299L104.379 111.602H104.663L110.856 87.9091H114.833L121.026 111.602H121.31L127.39 87.9091H130.969L123.015 117H119.379L112.958 93.8182H112.731L106.31 117H102.674ZM139.293 117.511C137.911 117.511 136.656 117.251 135.529 116.73C134.402 116.2 133.507 115.438 132.844 114.443C132.182 113.439 131.85 112.227 131.85 110.807C131.85 109.557 132.096 108.544 132.589 107.767C133.081 106.981 133.739 106.366 134.563 105.92C135.387 105.475 136.296 105.144 137.29 104.926C138.294 104.699 139.303 104.519 140.316 104.386C141.642 104.216 142.717 104.088 143.54 104.003C144.374 103.908 144.98 103.752 145.359 103.534C145.747 103.316 145.941 102.937 145.941 102.398V102.284C145.941 100.883 145.558 99.7936 144.79 99.017C144.033 98.2405 142.882 97.8523 141.339 97.8523C139.738 97.8523 138.484 98.2027 137.575 98.9034C136.665 99.6042 136.026 100.352 135.657 101.148L132.475 100.011C133.043 98.6856 133.801 97.6534 134.748 96.9148C135.704 96.1667 136.746 95.6458 137.873 95.3523C139.009 95.0492 140.127 94.8977 141.225 94.8977C141.926 94.8977 142.731 94.983 143.64 95.1534C144.558 95.3144 145.444 95.6506 146.296 96.1619C147.158 96.6733 147.873 97.4451 148.441 98.4773C149.009 99.5095 149.293 100.892 149.293 102.625V117H145.941V114.045H145.771C145.543 114.519 145.165 115.026 144.634 115.565C144.104 116.105 143.398 116.564 142.518 116.943C141.637 117.322 140.562 117.511 139.293 117.511ZM139.805 114.5C141.13 114.5 142.248 114.24 143.157 113.719C144.076 113.198 144.767 112.526 145.231 111.702C145.704 110.878 145.941 110.011 145.941 109.102V106.034C145.799 106.205 145.487 106.361 145.004 106.503C144.53 106.635 143.981 106.754 143.356 106.858C142.74 106.953 142.139 107.038 141.552 107.114C140.974 107.18 140.505 107.237 140.146 107.284C139.274 107.398 138.46 107.582 137.702 107.838C136.954 108.084 136.348 108.458 135.884 108.96C135.43 109.453 135.202 110.125 135.202 110.977C135.202 112.142 135.633 113.023 136.495 113.619C137.366 114.206 138.469 114.5 139.805 114.5ZM158.764 87.9091V117H155.412V87.9091H158.764ZM168.029 109.045L167.972 104.898H168.654L178.2 95.1818H182.347L172.177 105.466H171.893L168.029 109.045ZM164.904 117V87.9091H168.256V117H164.904ZM178.768 117L170.245 106.205L172.631 103.875L183.029 117H178.768ZM193.082 117.511C191.7 117.511 190.445 117.251 189.318 116.73C188.191 116.2 187.296 115.438 186.634 114.443C185.971 113.439 185.639 112.227 185.639 110.807C185.639 109.557 185.885 108.544 186.378 107.767C186.87 106.981 187.528 106.366 188.352 105.92C189.176 105.475 190.085 105.144 191.08 104.926C192.083 104.699 193.092 104.519 194.105 104.386C195.431 104.216 196.506 104.088 197.33 104.003C198.163 103.908 198.769 103.752 199.148 103.534C199.536 103.316 199.73 102.937 199.73 102.398V102.284C199.73 100.883 199.347 99.7936 198.58 99.017C197.822 98.2405 196.671 97.8523 195.128 97.8523C193.527 97.8523 192.273 98.2027 191.364 98.9034C190.455 99.6042 189.815 100.352 189.446 101.148L186.264 100.011C186.832 98.6856 187.59 97.6534 188.537 96.9148C189.493 96.1667 190.535 95.6458 191.662 95.3523C192.798 95.0492 193.916 94.8977 195.014 94.8977C195.715 94.8977 196.52 94.983 197.429 95.1534C198.348 95.3144 199.233 95.6506 200.085 96.1619C200.947 96.6733 201.662 97.4451 202.23 98.4773C202.798 99.5095 203.082 100.892 203.082 102.625V117H199.73V114.045H199.56C199.332 114.519 198.954 115.026 198.423 115.565C197.893 116.105 197.188 116.564 196.307 116.943C195.426 117.322 194.351 117.511 193.082 117.511ZM193.594 114.5C194.92 114.5 196.037 114.24 196.946 113.719C197.865 113.198 198.556 112.526 199.02 111.702C199.493 110.878 199.73 110.011 199.73 109.102V106.034C199.588 106.205 199.276 106.361 198.793 106.503C198.319 106.635 197.77 106.754 197.145 106.858C196.529 106.953 195.928 107.038 195.341 107.114C194.763 107.18 194.295 107.237 193.935 107.284C193.063 107.398 192.249 107.582 191.491 107.838C190.743 108.084 190.137 108.458 189.673 108.96C189.219 109.453 188.991 110.125 188.991 110.977C188.991 112.142 189.422 113.023 190.284 113.619C191.155 114.206 192.259 114.5 193.594 114.5ZM122.836 200.727C122.836 197.148 123.3 193.857 124.228 190.855C125.165 187.844 126.5 185.074 128.233 182.545H131.188C130.506 183.483 129.867 184.638 129.27 186.011C128.683 187.375 128.167 188.876 127.722 190.514C127.277 192.143 126.926 193.829 126.671 195.571C126.425 197.313 126.301 199.032 126.301 200.727C126.301 202.981 126.519 205.268 126.955 207.588C127.391 209.908 127.978 212.062 128.716 214.051C129.455 216.04 130.279 217.659 131.188 218.909H128.233C126.5 216.381 125.165 213.616 124.228 210.614C123.3 207.602 122.836 204.307 122.836 200.727ZM136.135 221.182V191.182H139.373V194.648H139.771C140.017 194.269 140.358 193.786 140.794 193.199C141.239 192.602 141.873 192.072 142.697 191.608C143.53 191.134 144.657 190.898 146.078 190.898C147.915 190.898 149.534 191.357 150.936 192.276C152.337 193.194 153.431 194.496 154.217 196.182C155.003 197.867 155.396 199.856 155.396 202.148C155.396 204.458 155.003 206.461 154.217 208.156C153.431 209.842 152.342 211.149 150.95 212.077C149.558 212.995 147.953 213.455 146.135 213.455C144.733 213.455 143.611 213.223 142.768 212.759C141.925 212.285 141.277 211.75 140.822 211.153C140.368 210.547 140.017 210.045 139.771 209.648H139.487V221.182H136.135ZM139.43 202.091C139.43 203.739 139.672 205.192 140.154 206.452C140.637 207.702 141.343 208.682 142.271 209.392C143.199 210.093 144.335 210.443 145.68 210.443C147.082 210.443 148.251 210.074 149.189 209.335C150.136 208.587 150.846 207.583 151.319 206.324C151.802 205.055 152.044 203.644 152.044 202.091C152.044 200.557 151.807 199.174 151.333 197.943C150.869 196.703 150.164 195.723 149.217 195.003C148.279 194.274 147.1 193.909 145.68 193.909C144.316 193.909 143.171 194.255 142.243 194.946C141.315 195.628 140.614 196.584 140.14 197.815C139.667 199.037 139.43 200.462 139.43 202.091ZM163.862 183.909V213H160.51V183.909H163.862ZM177.161 200.727C177.161 204.307 176.692 207.602 175.755 210.614C174.827 213.616 173.496 216.381 171.763 218.909H168.809C169.49 217.972 170.125 216.816 170.712 215.443C171.309 214.08 171.829 212.583 172.275 210.955C172.72 209.316 173.065 207.626 173.311 205.884C173.567 204.132 173.695 202.413 173.695 200.727C173.695 198.473 173.477 196.187 173.042 193.866C172.606 191.546 172.019 189.392 171.28 187.403C170.542 185.415 169.718 183.795 168.809 182.545H171.763C173.496 185.074 174.827 187.844 175.755 190.855C176.692 193.857 177.161 197.148 177.161 200.727Z" fill="#F1D95B"/>
</svg>
