<svg width="300" height="300" viewBox="0 0 300 300" fill="none" xmlns="http://www.w3.org/2000/svg">
<rect x="2.5" y="2.5" width="295" height="295" rx="12.5" fill="black"/>
<rect x="2.5" y="2.5" width="295" height="295" rx="12.5" stroke="#F1D95B" stroke-width="5"/>
<path d="M105.154 117V114.443L120.836 91.0341H104.984V87.9091H125.041V90.4659L109.359 113.875H125.211V117H105.154ZM115.098 84.2727C114.444 84.2727 113.881 84.0502 113.407 83.6051C112.943 83.16 112.711 82.625 112.711 82C112.711 81.375 112.943 80.84 113.407 80.3949C113.881 79.9498 114.444 79.7273 115.098 79.7273C115.751 79.7273 116.31 79.9498 116.774 80.3949C117.247 80.84 117.484 81.375 117.484 82C117.484 82.625 117.247 83.16 116.774 83.6051C116.31 84.0502 115.751 84.2727 115.098 84.2727ZM139.529 117.455C137.56 117.455 135.832 116.986 134.345 116.048C132.868 115.111 131.712 113.799 130.879 112.114C130.055 110.428 129.643 108.458 129.643 106.205C129.643 103.932 130.055 101.948 130.879 100.253C131.712 98.5578 132.868 97.2415 134.345 96.304C135.832 95.3665 137.56 94.8977 139.529 94.8977C141.499 94.8977 143.223 95.3665 144.7 96.304C146.187 97.2415 147.342 98.5578 148.166 100.253C148.999 101.948 149.416 103.932 149.416 106.205C149.416 108.458 148.999 110.428 148.166 112.114C147.342 113.799 146.187 115.111 144.7 116.048C143.223 116.986 141.499 117.455 139.529 117.455ZM139.529 114.443C141.026 114.443 142.257 114.06 143.223 113.293C144.189 112.526 144.904 111.517 145.368 110.267C145.832 109.017 146.064 107.663 146.064 106.205C146.064 104.746 145.832 103.387 145.368 102.128C144.904 100.868 144.189 99.8504 143.223 99.0739C142.257 98.2973 141.026 97.9091 139.529 97.9091C138.033 97.9091 136.802 98.2973 135.836 99.0739C134.87 99.8504 134.155 100.868 133.691 102.128C133.227 103.387 132.995 104.746 132.995 106.205C132.995 107.663 133.227 109.017 133.691 110.267C134.155 111.517 134.87 112.526 135.836 113.293C136.802 114.06 138.033 114.443 139.529 114.443ZM157.885 103.875V117H154.533V95.1818H157.772V98.5909H158.056C158.567 97.483 159.344 96.5928 160.385 95.9205C161.427 95.2386 162.772 94.8977 164.419 94.8977C165.897 94.8977 167.189 95.2008 168.297 95.8068C169.405 96.4034 170.267 97.3125 170.882 98.5341C171.498 99.7462 171.806 101.28 171.806 103.136V117H168.453V103.364C168.453 101.65 168.008 100.314 167.118 99.358C166.228 98.392 165.007 97.9091 163.453 97.9091C162.383 97.9091 161.427 98.1411 160.584 98.6051C159.751 99.0691 159.093 99.7462 158.61 100.636C158.127 101.527 157.885 102.606 157.885 103.875ZM184.352 117.511C182.969 117.511 181.715 117.251 180.588 116.73C179.461 116.2 178.566 115.438 177.903 114.443C177.24 113.439 176.909 112.227 176.909 110.807C176.909 109.557 177.155 108.544 177.647 107.767C178.14 106.981 178.798 106.366 179.622 105.92C180.446 105.475 181.355 105.144 182.349 104.926C183.353 104.699 184.361 104.519 185.375 104.386C186.7 104.216 187.775 104.088 188.599 104.003C189.432 103.908 190.038 103.752 190.417 103.534C190.806 103.316 191 102.937 191 102.398V102.284C191 100.883 190.616 99.7936 189.849 99.017C189.092 98.2405 187.941 97.8523 186.397 97.8523C184.797 97.8523 183.542 98.2027 182.633 98.9034C181.724 99.6042 181.085 100.352 180.716 101.148L177.534 100.011C178.102 98.6856 178.859 97.6534 179.806 96.9148C180.763 96.1667 181.805 95.6458 182.931 95.3523C184.068 95.0492 185.185 94.8977 186.284 94.8977C186.984 94.8977 187.789 94.983 188.699 95.1534C189.617 95.3144 190.502 95.6506 191.355 96.1619C192.217 96.6733 192.931 97.4451 193.5 98.4773C194.068 99.5095 194.352 100.892 194.352 102.625V117H191V114.045H190.829C190.602 114.519 190.223 115.026 189.693 115.565C189.163 116.105 188.457 116.564 187.576 116.943C186.696 117.322 185.621 117.511 184.352 117.511ZM184.863 114.5C186.189 114.5 187.306 114.24 188.216 113.719C189.134 113.198 189.825 112.526 190.289 111.702C190.763 110.878 191 110.011 191 109.102V106.034C190.858 106.205 190.545 106.361 190.062 106.503C189.589 106.635 189.039 106.754 188.414 106.858C187.799 106.953 187.198 107.038 186.61 107.114C186.033 107.18 185.564 107.237 185.204 107.284C184.333 107.398 183.519 107.582 182.761 107.838C182.013 108.084 181.407 108.458 180.943 108.96C180.488 109.453 180.261 110.125 180.261 110.977C180.261 112.142 180.692 113.023 181.554 113.619C182.425 114.206 183.528 114.5 184.863 114.5ZM122.836 200.727C122.836 197.148 123.3 193.857 124.228 190.855C125.165 187.844 126.5 185.074 128.233 182.545H131.188C130.506 183.483 129.867 184.638 129.27 186.011C128.683 187.375 128.167 188.876 127.722 190.514C127.277 192.143 126.926 193.829 126.671 195.571C126.425 197.313 126.301 199.032 126.301 200.727C126.301 202.981 126.519 205.268 126.955 207.588C127.391 209.908 127.978 212.062 128.716 214.051C129.455 216.04 130.279 217.659 131.188 218.909H128.233C126.5 216.381 125.165 213.616 124.228 210.614C123.3 207.602 122.836 204.307 122.836 200.727ZM136.135 221.182V191.182H139.373V194.648H139.771C140.017 194.269 140.358 193.786 140.794 193.199C141.239 192.602 141.873 192.072 142.697 191.608C143.53 191.134 144.657 190.898 146.078 190.898C147.915 190.898 149.534 191.357 150.936 192.276C152.337 193.194 153.431 194.496 154.217 196.182C155.003 197.867 155.396 199.856 155.396 202.148C155.396 204.458 155.003 206.461 154.217 208.156C153.431 209.842 152.342 211.149 150.95 212.077C149.558 212.995 147.953 213.455 146.135 213.455C144.733 213.455 143.611 213.223 142.768 212.759C141.925 212.285 141.277 211.75 140.822 211.153C140.368 210.547 140.017 210.045 139.771 209.648H139.487V221.182H136.135ZM139.43 202.091C139.43 203.739 139.672 205.192 140.154 206.452C140.637 207.702 141.343 208.682 142.271 209.392C143.199 210.093 144.335 210.443 145.68 210.443C147.082 210.443 148.251 210.074 149.189 209.335C150.136 208.587 150.846 207.583 151.319 206.324C151.802 205.055 152.044 203.644 152.044 202.091C152.044 200.557 151.807 199.174 151.333 197.943C150.869 196.703 150.164 195.723 149.217 195.003C148.279 194.274 147.1 193.909 145.68 193.909C144.316 193.909 143.171 194.255 142.243 194.946C141.315 195.628 140.614 196.584 140.14 197.815C139.667 199.037 139.43 200.462 139.43 202.091ZM163.862 183.909V213H160.51V183.909H163.862ZM177.161 200.727C177.161 204.307 176.692 207.602 175.755 210.614C174.827 213.616 173.496 216.381 171.763 218.909H168.809C169.49 217.972 170.125 216.816 170.712 215.443C171.309 214.08 171.829 212.583 172.275 210.955C172.72 209.316 173.065 207.626 173.311 205.884C173.567 204.132 173.695 202.413 173.695 200.727C173.695 198.473 173.477 196.187 173.042 193.866C172.606 191.546 172.019 189.392 171.28 187.403C170.542 185.415 169.718 183.795 168.809 182.545H171.763C173.496 185.074 174.827 187.844 175.755 190.855C176.692 193.857 177.161 197.148 177.161 200.727Z" fill="#F1D95B"/>
</svg>
